%FSLAX45Y45*%
G04 Gerber Fmt 4.5, Leading zero omitted, Abs format (unit mm)*
G04 Created by KiCad (PCBNEW 5.1.7-a382d34a8~87~ubuntu18.04.1) date 2020-10-22 00:46:50*
%MOMM*%
%LPD*%
G01*
G04 APERTURE LIST*
%TA.AperFunction,Profile*%
%ADD10C,0.050000*%
%TD*%
%ADD11C,0.200000*%
%ADD12C,0.300000*%
G04 APERTURE END LIST*
D10*
X8100000Y-12500000D02*
X22700000Y-12500000D01*
X8100000Y-6300000D02*
X8100000Y-12500000D01*
X22700000Y-6300000D02*
X8100000Y-6300000D01*
X22700000Y-12500000D02*
X22700000Y-6300000D01*
D11*
X19681000Y-11298000D02*
X19741000Y-11358000D01*
X19741000Y-11298000D02*
X19681000Y-11358000D01*
X19831000Y-11298000D02*
X19891000Y-11358000D01*
X19891000Y-11298000D02*
X19831000Y-11358000D01*
X19681000Y-10536000D02*
X19741000Y-10596000D01*
X19741000Y-10536000D02*
X19681000Y-10596000D01*
X19831000Y-10536000D02*
X19891000Y-10596000D01*
X19891000Y-10536000D02*
X19831000Y-10596000D01*
X8637500Y-9200000D02*
G75*
G03*
X8637500Y-9200000I-37500J0D01*
G01*
X9653500Y-9200000D02*
G75*
G03*
X9653500Y-9200000I-37500J0D01*
G01*
X11421500Y-10000000D02*
G75*
G03*
X11421500Y-10000000I-37500J0D01*
G01*
X12437500Y-10000000D02*
G75*
G03*
X12437500Y-10000000I-37500J0D01*
G01*
X12837500Y-10100000D02*
G75*
G03*
X12837500Y-10100000I-37500J0D01*
G01*
X12837500Y-11116000D02*
G75*
G03*
X12837500Y-11116000I-37500J0D01*
G01*
X9637500Y-9600000D02*
G75*
G03*
X9637500Y-9600000I-37500J0D01*
G01*
X9637500Y-10616000D02*
G75*
G03*
X9637500Y-10616000I-37500J0D01*
G01*
X16288350Y-7717830D02*
X16288350Y-7794030D01*
X16250250Y-7755930D02*
X16326450Y-7755930D01*
X16430590Y-6499900D02*
X16430590Y-6576100D01*
X16392490Y-6538000D02*
X16468690Y-6538000D01*
X16684590Y-6499900D02*
X16684590Y-6576100D01*
X16646490Y-6538000D02*
X16722690Y-6538000D01*
X16938590Y-6499900D02*
X16938590Y-6576100D01*
X16900490Y-6538000D02*
X16976690Y-6538000D01*
X17192590Y-6499900D02*
X17192590Y-6576100D01*
X17154490Y-6538000D02*
X17230690Y-6538000D01*
X17446590Y-6499900D02*
X17446590Y-6576100D01*
X17408490Y-6538000D02*
X17484690Y-6538000D01*
X17700590Y-6499900D02*
X17700590Y-6576100D01*
X17662490Y-6538000D02*
X17738690Y-6538000D01*
X19358285Y-9070285D02*
X19358285Y-9013716D01*
X19301716Y-9013716D01*
X19301716Y-9070285D01*
X19358285Y-9070285D01*
X19612285Y-9324285D02*
X19612285Y-9267716D01*
X19555716Y-9267716D01*
X19555716Y-9324285D01*
X19612285Y-9324285D01*
X19866285Y-9070285D02*
X19866285Y-9013716D01*
X19809716Y-9013716D01*
X19809716Y-9070285D01*
X19866285Y-9070285D01*
X18596285Y-10594285D02*
X18596285Y-10537716D01*
X18539716Y-10537716D01*
X18539716Y-10594285D01*
X18596285Y-10594285D01*
X18596285Y-10848285D02*
X18596285Y-10791716D01*
X18539716Y-10791716D01*
X18539716Y-10848285D01*
X18596285Y-10848285D01*
X18596285Y-11102285D02*
X18596285Y-11045716D01*
X18539716Y-11045716D01*
X18539716Y-11102285D01*
X18596285Y-11102285D01*
X18596285Y-11356284D02*
X18596285Y-11299715D01*
X18539716Y-11299715D01*
X18539716Y-11356284D01*
X18596285Y-11356284D01*
X19358285Y-10594285D02*
X19358285Y-10537716D01*
X19301716Y-10537716D01*
X19301716Y-10594285D01*
X19358285Y-10594285D01*
X19358285Y-10848285D02*
X19358285Y-10791716D01*
X19301716Y-10791716D01*
X19301716Y-10848285D01*
X19358285Y-10848285D01*
X19358285Y-11102285D02*
X19358285Y-11045716D01*
X19301716Y-11045716D01*
X19301716Y-11102285D01*
X19358285Y-11102285D01*
X19358285Y-11356284D02*
X19358285Y-11299715D01*
X19301716Y-11299715D01*
X19301716Y-11356284D01*
X19358285Y-11356284D01*
X20700000Y-7571000D02*
X20745000Y-7526000D01*
X20700000Y-7481000D01*
X20655000Y-7526000D01*
X20700000Y-7571000D01*
X21716000Y-7571000D02*
X21761000Y-7526000D01*
X21716000Y-7481000D01*
X21671000Y-7526000D01*
X21716000Y-7571000D01*
X10100000Y-9591000D02*
X10145000Y-9546000D01*
X10100000Y-9501000D01*
X10055000Y-9546000D01*
X10100000Y-9591000D01*
X10100000Y-9845000D02*
X10145000Y-9800000D01*
X10100000Y-9755000D01*
X10055000Y-9800000D01*
X10100000Y-9845000D01*
X8600000Y-8845000D02*
X8645000Y-8800000D01*
X8600000Y-8755000D01*
X8555000Y-8800000D01*
X8600000Y-8845000D01*
X9616000Y-8845000D02*
X9661000Y-8800000D01*
X9616000Y-8755000D01*
X9571000Y-8800000D01*
X9616000Y-8845000D01*
X17000000Y-11745000D02*
X17045000Y-11700000D01*
X17000000Y-11655000D01*
X16955000Y-11700000D01*
X17000000Y-11745000D01*
X18016000Y-11745000D02*
X18061000Y-11700000D01*
X18016000Y-11655000D01*
X17971000Y-11700000D01*
X18016000Y-11745000D01*
X18700000Y-9145000D02*
X18745000Y-9100000D01*
X18700000Y-9055000D01*
X18655000Y-9100000D01*
X18700000Y-9145000D01*
X18954000Y-9145000D02*
X18999000Y-9100000D01*
X18954000Y-9055000D01*
X18909000Y-9100000D01*
X18954000Y-9145000D01*
X13200000Y-10145000D02*
X13245000Y-10100000D01*
X13200000Y-10055000D01*
X13155000Y-10100000D01*
X13200000Y-10145000D01*
X13200000Y-11161000D02*
X13245000Y-11116000D01*
X13200000Y-11071000D01*
X13155000Y-11116000D01*
X13200000Y-11161000D01*
X12800000Y-11645000D02*
X12845000Y-11600000D01*
X12800000Y-11555000D01*
X12755000Y-11600000D01*
X12800000Y-11645000D01*
X13054000Y-11645000D02*
X13099000Y-11600000D01*
X13054000Y-11555000D01*
X13009000Y-11600000D01*
X13054000Y-11645000D01*
X18400000Y-7950000D02*
X18500000Y-8050000D01*
X18500000Y-7950000D02*
X18400000Y-8050000D01*
X18500000Y-8000000D02*
G75*
G03*
X18500000Y-8000000I-50000J0D01*
G01*
X19050000Y-6850000D02*
X19150000Y-6950000D01*
X19150000Y-6850000D02*
X19050000Y-6950000D01*
X19150000Y-6900000D02*
G75*
G03*
X19150000Y-6900000I-50000J0D01*
G01*
X19300000Y-6850000D02*
X19400000Y-6950000D01*
X19400000Y-6850000D02*
X19300000Y-6950000D01*
X19400000Y-6900000D02*
G75*
G03*
X19400000Y-6900000I-50000J0D01*
G01*
X16000000Y-11850000D02*
X16100000Y-11950000D01*
X16100000Y-11850000D02*
X16000000Y-11950000D01*
X16100000Y-11900000D02*
G75*
G03*
X16100000Y-11900000I-50000J0D01*
G01*
X10750000Y-10010000D02*
X10850000Y-10110000D01*
X10850000Y-10010000D02*
X10750000Y-10110000D01*
X10850000Y-10060000D02*
G75*
G03*
X10850000Y-10060000I-50000J0D01*
G01*
X10750000Y-10180000D02*
X10850000Y-10280000D01*
X10850000Y-10180000D02*
X10750000Y-10280000D01*
X10850000Y-10230000D02*
G75*
G03*
X10850000Y-10230000I-50000J0D01*
G01*
X10750000Y-10350000D02*
X10850000Y-10450000D01*
X10850000Y-10350000D02*
X10750000Y-10450000D01*
X10850000Y-10400000D02*
G75*
G03*
X10850000Y-10400000I-50000J0D01*
G01*
X17950000Y-9550000D02*
X18050000Y-9650000D01*
X18050000Y-9550000D02*
X17950000Y-9650000D01*
X18050000Y-9600000D02*
G75*
G03*
X18050000Y-9600000I-50000J0D01*
G01*
X18120000Y-9550000D02*
X18220000Y-9650000D01*
X18220000Y-9550000D02*
X18120000Y-9650000D01*
X18220000Y-9600000D02*
G75*
G03*
X18220000Y-9600000I-50000J0D01*
G01*
X18290000Y-9550000D02*
X18390000Y-9650000D01*
X18390000Y-9550000D02*
X18290000Y-9650000D01*
X18390000Y-9600000D02*
G75*
G03*
X18390000Y-9600000I-50000J0D01*
G01*
X18000000Y-8600000D02*
X18100000Y-8700000D01*
X18100000Y-8600000D02*
X18000000Y-8700000D01*
X18100000Y-8650000D02*
G75*
G03*
X18100000Y-8650000I-50000J0D01*
G01*
X18170000Y-8600000D02*
X18270000Y-8700000D01*
X18270000Y-8600000D02*
X18170000Y-8700000D01*
X18270000Y-8650000D02*
G75*
G03*
X18270000Y-8650000I-50000J0D01*
G01*
X18340000Y-8600000D02*
X18440000Y-8700000D01*
X18440000Y-8600000D02*
X18340000Y-8700000D01*
X18440000Y-8650000D02*
G75*
G03*
X18440000Y-8650000I-50000J0D01*
G01*
X15565000Y-11850000D02*
X15665000Y-11950000D01*
X15665000Y-11850000D02*
X15565000Y-11950000D01*
X15665000Y-11900000D02*
G75*
G03*
X15665000Y-11900000I-50000J0D01*
G01*
X17950000Y-10557000D02*
X18050000Y-10657000D01*
X18050000Y-10557000D02*
X17950000Y-10657000D01*
X18050000Y-10607000D02*
G75*
G03*
X18050000Y-10607000I-50000J0D01*
G01*
X17950000Y-10727000D02*
X18050000Y-10827000D01*
X18050000Y-10727000D02*
X17950000Y-10827000D01*
X18050000Y-10777000D02*
G75*
G03*
X18050000Y-10777000I-50000J0D01*
G01*
X17950000Y-10897000D02*
X18050000Y-10997000D01*
X18050000Y-10897000D02*
X17950000Y-10997000D01*
X18050000Y-10947000D02*
G75*
G03*
X18050000Y-10947000I-50000J0D01*
G01*
X15150000Y-11850000D02*
X15250000Y-11950000D01*
X15250000Y-11850000D02*
X15150000Y-11950000D01*
X15250000Y-11900000D02*
G75*
G03*
X15250000Y-11900000I-50000J0D01*
G01*
X19010000Y-11750000D02*
X19110000Y-11850000D01*
X19110000Y-11750000D02*
X19010000Y-11850000D01*
X19110000Y-11800000D02*
G75*
G03*
X19110000Y-11800000I-50000J0D01*
G01*
X19180000Y-11750000D02*
X19280000Y-11850000D01*
X19280000Y-11750000D02*
X19180000Y-11850000D01*
X19280000Y-11800000D02*
G75*
G03*
X19280000Y-11800000I-50000J0D01*
G01*
X19350000Y-11750000D02*
X19450000Y-11850000D01*
X19450000Y-11750000D02*
X19350000Y-11850000D01*
X19450000Y-11800000D02*
G75*
G03*
X19450000Y-11800000I-50000J0D01*
G01*
X9350000Y-11050000D02*
X9450000Y-11150000D01*
X9450000Y-11050000D02*
X9350000Y-11150000D01*
X9450000Y-11100000D02*
G75*
G03*
X9450000Y-11100000I-50000J0D01*
G01*
X9350000Y-11220000D02*
X9450000Y-11320000D01*
X9450000Y-11220000D02*
X9350000Y-11320000D01*
X9450000Y-11270000D02*
G75*
G03*
X9450000Y-11270000I-50000J0D01*
G01*
X9350000Y-11390000D02*
X9450000Y-11490000D01*
X9450000Y-11390000D02*
X9350000Y-11490000D01*
X9450000Y-11440000D02*
G75*
G03*
X9450000Y-11440000I-50000J0D01*
G01*
X20286110Y-11976760D02*
X20388110Y-12078760D01*
X20388110Y-11976760D02*
X20286110Y-12078760D01*
X20337110Y-11976760D02*
X20337110Y-12078760D01*
X20286110Y-12027760D02*
X20388110Y-12027760D01*
X20305160Y-8018170D02*
X20407160Y-8120170D01*
X20407160Y-8018170D02*
X20305160Y-8120170D01*
X20356160Y-8018170D02*
X20356160Y-8120170D01*
X20305160Y-8069170D02*
X20407160Y-8069170D01*
X22015850Y-11975490D02*
X22117850Y-12077490D01*
X22117850Y-11975490D02*
X22015850Y-12077490D01*
X22066850Y-11975490D02*
X22066850Y-12077490D01*
X22015850Y-12026490D02*
X22117850Y-12026490D01*
X22034900Y-8016900D02*
X22136900Y-8118900D01*
X22136900Y-8016900D02*
X22034900Y-8118900D01*
X22085900Y-8016900D02*
X22085900Y-8118900D01*
X22034900Y-8067900D02*
X22136900Y-8067900D01*
X11373310Y-7201860D02*
X11475310Y-7303860D01*
X11475310Y-7201860D02*
X11373310Y-7303860D01*
X11424310Y-7201860D02*
X11424310Y-7303860D01*
X11373310Y-7252860D02*
X11475310Y-7252860D01*
X11386010Y-9462460D02*
X11488010Y-9564460D01*
X11488010Y-9462460D02*
X11386010Y-9564460D01*
X11437010Y-9462460D02*
X11437010Y-9564460D01*
X11386010Y-9513460D02*
X11488010Y-9513460D01*
X11627310Y-7201860D02*
X11729310Y-7303860D01*
X11729310Y-7201860D02*
X11627310Y-7303860D01*
X11678310Y-7201860D02*
X11678310Y-7303860D01*
X11627310Y-7252860D02*
X11729310Y-7252860D01*
X11640010Y-9462460D02*
X11742010Y-9564460D01*
X11742010Y-9462460D02*
X11640010Y-9564460D01*
X11691010Y-9462460D02*
X11691010Y-9564460D01*
X11640010Y-9513460D02*
X11742010Y-9513460D01*
X11881310Y-7201860D02*
X11983310Y-7303860D01*
X11983310Y-7201860D02*
X11881310Y-7303860D01*
X11932310Y-7201860D02*
X11932310Y-7303860D01*
X11881310Y-7252860D02*
X11983310Y-7252860D01*
X11894010Y-9462460D02*
X11996010Y-9564460D01*
X11996010Y-9462460D02*
X11894010Y-9564460D01*
X11945010Y-9462460D02*
X11945010Y-9564460D01*
X11894010Y-9513460D02*
X11996010Y-9513460D01*
X12135310Y-7201860D02*
X12237310Y-7303860D01*
X12237310Y-7201860D02*
X12135310Y-7303860D01*
X12186310Y-7201860D02*
X12186310Y-7303860D01*
X12135310Y-7252860D02*
X12237310Y-7252860D01*
X12148010Y-9462460D02*
X12250010Y-9564460D01*
X12250010Y-9462460D02*
X12148010Y-9564460D01*
X12199010Y-9462460D02*
X12199010Y-9564460D01*
X12148010Y-9513460D02*
X12250010Y-9513460D01*
X12389310Y-7201860D02*
X12491310Y-7303860D01*
X12491310Y-7201860D02*
X12389310Y-7303860D01*
X12440310Y-7201860D02*
X12440310Y-7303860D01*
X12389310Y-7252860D02*
X12491310Y-7252860D01*
X12402010Y-9462460D02*
X12504010Y-9564460D01*
X12504010Y-9462460D02*
X12402010Y-9564460D01*
X12453010Y-9462460D02*
X12453010Y-9564460D01*
X12402010Y-9513460D02*
X12504010Y-9513460D01*
X12643310Y-7201860D02*
X12745310Y-7303860D01*
X12745310Y-7201860D02*
X12643310Y-7303860D01*
X12694310Y-7201860D02*
X12694310Y-7303860D01*
X12643310Y-7252860D02*
X12745310Y-7252860D01*
X12656010Y-9462460D02*
X12758010Y-9564460D01*
X12758010Y-9462460D02*
X12656010Y-9564460D01*
X12707010Y-9462460D02*
X12707010Y-9564460D01*
X12656010Y-9513460D02*
X12758010Y-9513460D01*
X12906200Y-7204400D02*
X13008200Y-7306400D01*
X13008200Y-7204400D02*
X12906200Y-7306400D01*
X12957200Y-7204400D02*
X12957200Y-7306400D01*
X12906200Y-7255400D02*
X13008200Y-7255400D01*
X12910010Y-9462460D02*
X13012010Y-9564460D01*
X13012010Y-9462460D02*
X12910010Y-9564460D01*
X12961010Y-9462460D02*
X12961010Y-9564460D01*
X12910010Y-9513460D02*
X13012010Y-9513460D01*
X13151310Y-7201860D02*
X13253310Y-7303860D01*
X13253310Y-7201860D02*
X13151310Y-7303860D01*
X13202310Y-7201860D02*
X13202310Y-7303860D01*
X13151310Y-7252860D02*
X13253310Y-7252860D01*
X13164010Y-9462460D02*
X13266010Y-9564460D01*
X13266010Y-9462460D02*
X13164010Y-9564460D01*
X13215010Y-9462460D02*
X13215010Y-9564460D01*
X13164010Y-9513460D02*
X13266010Y-9513460D01*
X13405310Y-7201860D02*
X13507310Y-7303860D01*
X13507310Y-7201860D02*
X13405310Y-7303860D01*
X13456310Y-7201860D02*
X13456310Y-7303860D01*
X13405310Y-7252860D02*
X13507310Y-7252860D01*
X13418010Y-9462460D02*
X13520010Y-9564460D01*
X13520010Y-9462460D02*
X13418010Y-9564460D01*
X13469010Y-9462460D02*
X13469010Y-9564460D01*
X13418010Y-9513460D02*
X13520010Y-9513460D01*
X13659310Y-7201860D02*
X13761310Y-7303860D01*
X13761310Y-7201860D02*
X13659310Y-7303860D01*
X13710310Y-7201860D02*
X13710310Y-7303860D01*
X13659310Y-7252860D02*
X13761310Y-7252860D01*
X13668200Y-9465000D02*
X13770200Y-9567000D01*
X13770200Y-9465000D02*
X13668200Y-9567000D01*
X13719200Y-9465000D02*
X13719200Y-9567000D01*
X13668200Y-9516000D02*
X13770200Y-9516000D01*
X13926010Y-7201860D02*
X14028010Y-7303860D01*
X14028010Y-7201860D02*
X13926010Y-7303860D01*
X13977010Y-7201860D02*
X13977010Y-7303860D01*
X13926010Y-7252860D02*
X14028010Y-7252860D01*
X13938710Y-9462460D02*
X14040710Y-9564460D01*
X14040710Y-9462460D02*
X13938710Y-9564460D01*
X13989710Y-9462460D02*
X13989710Y-9564460D01*
X13938710Y-9513460D02*
X14040710Y-9513460D01*
X14180010Y-7201860D02*
X14282010Y-7303860D01*
X14282010Y-7201860D02*
X14180010Y-7303860D01*
X14231010Y-7201860D02*
X14231010Y-7303860D01*
X14180010Y-7252860D02*
X14282010Y-7252860D01*
X14192710Y-9462460D02*
X14294710Y-9564460D01*
X14294710Y-9462460D02*
X14192710Y-9564460D01*
X14243710Y-9462460D02*
X14243710Y-9564460D01*
X14192710Y-9513460D02*
X14294710Y-9513460D01*
X14434010Y-7201860D02*
X14536010Y-7303860D01*
X14536010Y-7201860D02*
X14434010Y-7303860D01*
X14485010Y-7201860D02*
X14485010Y-7303860D01*
X14434010Y-7252860D02*
X14536010Y-7252860D01*
X14446710Y-9462460D02*
X14548710Y-9564460D01*
X14548710Y-9462460D02*
X14446710Y-9564460D01*
X14497710Y-9462460D02*
X14497710Y-9564460D01*
X14446710Y-9513460D02*
X14548710Y-9513460D01*
X14684200Y-7191700D02*
X14786200Y-7293700D01*
X14786200Y-7191700D02*
X14684200Y-7293700D01*
X14735200Y-7191700D02*
X14735200Y-7293700D01*
X14684200Y-7242700D02*
X14786200Y-7242700D01*
X14696900Y-9465000D02*
X14798900Y-9567000D01*
X14798900Y-9465000D02*
X14696900Y-9567000D01*
X14747900Y-9465000D02*
X14747900Y-9567000D01*
X14696900Y-9516000D02*
X14798900Y-9516000D01*
X14942010Y-7201860D02*
X15044010Y-7303860D01*
X15044010Y-7201860D02*
X14942010Y-7303860D01*
X14993010Y-7201860D02*
X14993010Y-7303860D01*
X14942010Y-7252860D02*
X15044010Y-7252860D01*
X14954710Y-9462460D02*
X15056710Y-9564460D01*
X15056710Y-9462460D02*
X14954710Y-9564460D01*
X15005710Y-9462460D02*
X15005710Y-9564460D01*
X14954710Y-9513460D02*
X15056710Y-9513460D01*
X16231000Y-7452200D02*
X16333000Y-7554200D01*
X16333000Y-7452200D02*
X16231000Y-7554200D01*
X16282000Y-7452200D02*
X16282000Y-7554200D01*
X16231000Y-7503200D02*
X16333000Y-7503200D01*
X9170000Y-11940000D02*
X9290000Y-12060000D01*
X9290000Y-11940000D02*
X9170000Y-12060000D01*
X9272427Y-12042427D02*
X9272427Y-11957573D01*
X9187573Y-11957573D01*
X9187573Y-12042427D01*
X9272427Y-12042427D01*
X10440000Y-11940000D02*
X10560000Y-12060000D01*
X10560000Y-11940000D02*
X10440000Y-12060000D01*
X10542427Y-12042427D02*
X10542427Y-11957573D01*
X10457573Y-11957573D01*
X10457573Y-12042427D01*
X10542427Y-12042427D01*
X8740000Y-10670000D02*
X8860000Y-10790000D01*
X8860000Y-10670000D02*
X8740000Y-10790000D01*
X8842427Y-10772427D02*
X8842427Y-10687573D01*
X8757573Y-10687573D01*
X8757573Y-10772427D01*
X8842427Y-10772427D01*
X8740000Y-11940000D02*
X8860000Y-12060000D01*
X8860000Y-11940000D02*
X8740000Y-12060000D01*
X8842427Y-12042427D02*
X8842427Y-11957573D01*
X8757573Y-11957573D01*
X8757573Y-12042427D01*
X8842427Y-12042427D01*
X10040000Y-10270000D02*
X10160000Y-10390000D01*
X10160000Y-10270000D02*
X10040000Y-10390000D01*
X10142427Y-10372427D02*
X10142427Y-10287573D01*
X10057573Y-10287573D01*
X10057573Y-10372427D01*
X10142427Y-10372427D01*
X10040000Y-11540000D02*
X10160000Y-11660000D01*
X10160000Y-11540000D02*
X10040000Y-11660000D01*
X10142427Y-11642427D02*
X10142427Y-11557573D01*
X10057573Y-11557573D01*
X10057573Y-11642427D01*
X10142427Y-11642427D01*
X16240000Y-9540000D02*
X16360000Y-9660000D01*
X16360000Y-9540000D02*
X16240000Y-9660000D01*
X16342427Y-9642427D02*
X16342427Y-9557573D01*
X16257573Y-9557573D01*
X16257573Y-9642427D01*
X16342427Y-9642427D01*
X17510000Y-9540000D02*
X17630000Y-9660000D01*
X17630000Y-9540000D02*
X17510000Y-9660000D01*
X17612427Y-9642427D02*
X17612427Y-9557573D01*
X17527573Y-9557573D01*
X17527573Y-9642427D01*
X17612427Y-9642427D01*
X10170000Y-6640000D02*
X10290000Y-6760000D01*
X10290000Y-6640000D02*
X10170000Y-6760000D01*
X10272427Y-6742427D02*
X10272427Y-6657573D01*
X10187573Y-6657573D01*
X10187573Y-6742427D01*
X10272427Y-6742427D01*
X11440000Y-6640000D02*
X11560000Y-6760000D01*
X11560000Y-6640000D02*
X11440000Y-6760000D01*
X11542427Y-6742427D02*
X11542427Y-6657573D01*
X11457573Y-6657573D01*
X11457573Y-6742427D01*
X11542427Y-6742427D01*
X17770000Y-10040000D02*
X17890000Y-10160000D01*
X17890000Y-10040000D02*
X17770000Y-10160000D01*
X17872427Y-10142427D02*
X17872427Y-10057573D01*
X17787573Y-10057573D01*
X17787573Y-10142427D01*
X17872427Y-10142427D01*
X19040000Y-10040000D02*
X19160000Y-10160000D01*
X19160000Y-10040000D02*
X19040000Y-10160000D01*
X19142427Y-10142427D02*
X19142427Y-10057573D01*
X19057573Y-10057573D01*
X19057573Y-10142427D01*
X19142427Y-10142427D01*
X10240000Y-7740000D02*
X10360000Y-7860000D01*
X10360000Y-7740000D02*
X10240000Y-7860000D01*
X10342427Y-7842427D02*
X10342427Y-7757573D01*
X10257573Y-7757573D01*
X10257573Y-7842427D01*
X10342427Y-7842427D01*
X10240000Y-9010000D02*
X10360000Y-9130000D01*
X10360000Y-9010000D02*
X10240000Y-9130000D01*
X10342427Y-9112427D02*
X10342427Y-9027573D01*
X10257573Y-9027573D01*
X10257573Y-9112427D01*
X10342427Y-9112427D01*
X11140000Y-10440000D02*
X11260000Y-10560000D01*
X11260000Y-10440000D02*
X11140000Y-10560000D01*
X11242427Y-10542427D02*
X11242427Y-10457573D01*
X11157573Y-10457573D01*
X11157573Y-10542427D01*
X11242427Y-10542427D01*
X12410000Y-10440000D02*
X12530000Y-10560000D01*
X12530000Y-10440000D02*
X12410000Y-10560000D01*
X12512427Y-10542427D02*
X12512427Y-10457573D01*
X12427573Y-10457573D01*
X12427573Y-10542427D01*
X12512427Y-10542427D01*
X16240000Y-8940000D02*
X16360000Y-9060000D01*
X16360000Y-8940000D02*
X16240000Y-9060000D01*
X16342427Y-9042427D02*
X16342427Y-8957573D01*
X16257573Y-8957573D01*
X16257573Y-9042427D01*
X16342427Y-9042427D01*
X17510000Y-8940000D02*
X17630000Y-9060000D01*
X17630000Y-8940000D02*
X17510000Y-9060000D01*
X17612427Y-9042427D02*
X17612427Y-8957573D01*
X17527573Y-8957573D01*
X17527573Y-9042427D01*
X17612427Y-9042427D01*
X10840000Y-10940000D02*
X10960000Y-11060000D01*
X10960000Y-10940000D02*
X10840000Y-11060000D01*
X10942427Y-11042427D02*
X10942427Y-10957573D01*
X10857573Y-10957573D01*
X10857573Y-11042427D01*
X10942427Y-11042427D01*
X12110000Y-10940000D02*
X12230000Y-11060000D01*
X12230000Y-10940000D02*
X12110000Y-11060000D01*
X12212427Y-11042427D02*
X12212427Y-10957573D01*
X12127573Y-10957573D01*
X12127573Y-11042427D01*
X12212427Y-11042427D01*
X16240000Y-8340000D02*
X16360000Y-8460000D01*
X16360000Y-8340000D02*
X16240000Y-8460000D01*
X16342427Y-8442427D02*
X16342427Y-8357573D01*
X16257573Y-8357573D01*
X16257573Y-8442427D01*
X16342427Y-8442427D01*
X17510000Y-8340000D02*
X17630000Y-8460000D01*
X17630000Y-8340000D02*
X17510000Y-8460000D01*
X17612427Y-8442427D02*
X17612427Y-8357573D01*
X17527573Y-8357573D01*
X17527573Y-8442427D01*
X17612427Y-8442427D01*
X8735000Y-9635000D02*
X8865000Y-9765000D01*
X8865000Y-9635000D02*
X8735000Y-9765000D01*
X8800000Y-9765000D02*
X8865000Y-9700000D01*
X8800000Y-9635000D01*
X8735000Y-9700000D01*
X8800000Y-9765000D01*
X8735000Y-10143000D02*
X8865000Y-10273000D01*
X8865000Y-10143000D02*
X8735000Y-10273000D01*
X8800000Y-10273000D02*
X8865000Y-10208000D01*
X8800000Y-10143000D01*
X8735000Y-10208000D01*
X8800000Y-10273000D01*
X11335000Y-11735000D02*
X11465000Y-11865000D01*
X11465000Y-11735000D02*
X11335000Y-11865000D01*
X11400000Y-11865000D02*
X11465000Y-11800000D01*
X11400000Y-11735000D01*
X11335000Y-11800000D01*
X11400000Y-11865000D01*
X11843000Y-11735000D02*
X11973000Y-11865000D01*
X11973000Y-11735000D02*
X11843000Y-11865000D01*
X11908000Y-11865000D02*
X11973000Y-11800000D01*
X11908000Y-11735000D01*
X11843000Y-11800000D01*
X11908000Y-11865000D01*
X8535000Y-6815000D02*
X8665000Y-6945000D01*
X8665000Y-6815000D02*
X8535000Y-6945000D01*
X8600000Y-6945000D02*
X8665000Y-6880000D01*
X8600000Y-6815000D01*
X8535000Y-6880000D01*
X8600000Y-6945000D01*
X8535000Y-8035000D02*
X8665000Y-8165000D01*
X8665000Y-8035000D02*
X8535000Y-8165000D01*
X8600000Y-8165000D02*
X8665000Y-8100000D01*
X8600000Y-8035000D01*
X8535000Y-8100000D01*
X8600000Y-8165000D01*
X9135000Y-8235000D02*
X9265000Y-8365000D01*
X9265000Y-8235000D02*
X9135000Y-8365000D01*
X9200000Y-8365000D02*
X9265000Y-8300000D01*
X9200000Y-8235000D01*
X9135000Y-8300000D01*
X9200000Y-8365000D01*
X9735000Y-6815000D02*
X9865000Y-6945000D01*
X9865000Y-6815000D02*
X9735000Y-6945000D01*
X9800000Y-6945000D02*
X9865000Y-6880000D01*
X9800000Y-6815000D01*
X9735000Y-6880000D01*
X9800000Y-6945000D01*
X9735000Y-8035000D02*
X9865000Y-8165000D01*
X9865000Y-8035000D02*
X9735000Y-8165000D01*
X9800000Y-8165000D02*
X9865000Y-8100000D01*
X9800000Y-8035000D01*
X9735000Y-8100000D01*
X9800000Y-8165000D01*
X13518000Y-10616000D02*
X13648000Y-10746000D01*
X13648000Y-10616000D02*
X13518000Y-10746000D01*
X13583000Y-10746000D02*
X13648000Y-10681000D01*
X13583000Y-10616000D01*
X13518000Y-10681000D01*
X13583000Y-10746000D01*
X13718000Y-10016000D02*
X13848000Y-10146000D01*
X13848000Y-10016000D02*
X13718000Y-10146000D01*
X13783000Y-10146000D02*
X13848000Y-10081000D01*
X13783000Y-10016000D01*
X13718000Y-10081000D01*
X13783000Y-10146000D01*
X13718000Y-11216000D02*
X13848000Y-11346000D01*
X13848000Y-11216000D02*
X13718000Y-11346000D01*
X13783000Y-11346000D02*
X13848000Y-11281000D01*
X13783000Y-11216000D01*
X13718000Y-11281000D01*
X13783000Y-11346000D01*
X14938000Y-10016000D02*
X15068000Y-10146000D01*
X15068000Y-10016000D02*
X14938000Y-10146000D01*
X15003000Y-10146000D02*
X15068000Y-10081000D01*
X15003000Y-10016000D01*
X14938000Y-10081000D01*
X15003000Y-10146000D01*
X14938000Y-11216000D02*
X15068000Y-11346000D01*
X15068000Y-11216000D02*
X14938000Y-11346000D01*
X15003000Y-11346000D02*
X15068000Y-11281000D01*
X15003000Y-11216000D01*
X14938000Y-11281000D01*
X15003000Y-11346000D01*
X15815000Y-10035000D02*
X15945000Y-10165000D01*
X15945000Y-10035000D02*
X15815000Y-10165000D01*
X15880000Y-10165000D02*
X15945000Y-10100000D01*
X15880000Y-10035000D01*
X15815000Y-10100000D01*
X15880000Y-10165000D01*
X15815000Y-11235000D02*
X15945000Y-11365000D01*
X15945000Y-11235000D02*
X15815000Y-11365000D01*
X15880000Y-11365000D02*
X15945000Y-11300000D01*
X15880000Y-11235000D01*
X15815000Y-11300000D01*
X15880000Y-11365000D01*
X17035000Y-10035000D02*
X17165000Y-10165000D01*
X17165000Y-10035000D02*
X17035000Y-10165000D01*
X17100000Y-10165000D02*
X17165000Y-10100000D01*
X17100000Y-10035000D01*
X17035000Y-10100000D01*
X17100000Y-10165000D01*
X17035000Y-11235000D02*
X17165000Y-11365000D01*
X17165000Y-11235000D02*
X17035000Y-11365000D01*
X17100000Y-11365000D02*
X17165000Y-11300000D01*
X17100000Y-11235000D01*
X17035000Y-11300000D01*
X17100000Y-11365000D01*
X17235000Y-10635000D02*
X17365000Y-10765000D01*
X17365000Y-10635000D02*
X17235000Y-10765000D01*
X17300000Y-10765000D02*
X17365000Y-10700000D01*
X17300000Y-10635000D01*
X17235000Y-10700000D01*
X17300000Y-10765000D01*
X20097000Y-6823500D02*
X20097000Y-6958500D01*
X20029500Y-6891000D02*
X20164500Y-6891000D01*
X20164500Y-6891000D02*
G75*
G03*
X20164500Y-6891000I-67500J0D01*
G01*
X20597000Y-6823500D02*
X20597000Y-6958500D01*
X20529500Y-6891000D02*
X20664500Y-6891000D01*
X20664500Y-6891000D02*
G75*
G03*
X20664500Y-6891000I-67500J0D01*
G01*
X21597000Y-6823500D02*
X21597000Y-6958500D01*
X21529500Y-6891000D02*
X21664500Y-6891000D01*
X21664500Y-6891000D02*
G75*
G03*
X21664500Y-6891000I-67500J0D01*
G01*
X22097000Y-6823500D02*
X22097000Y-6958500D01*
X22029500Y-6891000D02*
X22164500Y-6891000D01*
X22164500Y-6891000D02*
G75*
G03*
X22164500Y-6891000I-67500J0D01*
G01*
D12*
X8383928Y-12968214D02*
X8383928Y-12668214D01*
X8455357Y-12668214D01*
X8498214Y-12682500D01*
X8526786Y-12711071D01*
X8541071Y-12739643D01*
X8555357Y-12796786D01*
X8555357Y-12839643D01*
X8541071Y-12896786D01*
X8526786Y-12925357D01*
X8498214Y-12953929D01*
X8455357Y-12968214D01*
X8383928Y-12968214D01*
X8683928Y-12968214D02*
X8683928Y-12768214D01*
X8683928Y-12825357D02*
X8698214Y-12796786D01*
X8712500Y-12782500D01*
X8741071Y-12768214D01*
X8769643Y-12768214D01*
X8869643Y-12968214D02*
X8869643Y-12768214D01*
X8869643Y-12668214D02*
X8855357Y-12682500D01*
X8869643Y-12696786D01*
X8883928Y-12682500D01*
X8869643Y-12668214D01*
X8869643Y-12696786D01*
X9055357Y-12968214D02*
X9026786Y-12953929D01*
X9012500Y-12925357D01*
X9012500Y-12668214D01*
X9212500Y-12968214D02*
X9183928Y-12953929D01*
X9169643Y-12925357D01*
X9169643Y-12668214D01*
X9555357Y-12968214D02*
X9555357Y-12668214D01*
X9655357Y-12882500D01*
X9755357Y-12668214D01*
X9755357Y-12968214D01*
X10026786Y-12968214D02*
X10026786Y-12811071D01*
X10012500Y-12782500D01*
X9983928Y-12768214D01*
X9926786Y-12768214D01*
X9898214Y-12782500D01*
X10026786Y-12953929D02*
X9998214Y-12968214D01*
X9926786Y-12968214D01*
X9898214Y-12953929D01*
X9883928Y-12925357D01*
X9883928Y-12896786D01*
X9898214Y-12868214D01*
X9926786Y-12853929D01*
X9998214Y-12853929D01*
X10026786Y-12839643D01*
X10169643Y-12768214D02*
X10169643Y-13068214D01*
X10169643Y-12782500D02*
X10198214Y-12768214D01*
X10255357Y-12768214D01*
X10283928Y-12782500D01*
X10298214Y-12796786D01*
X10312500Y-12825357D01*
X10312500Y-12911071D01*
X10298214Y-12939643D01*
X10283928Y-12953929D01*
X10255357Y-12968214D01*
X10198214Y-12968214D01*
X10169643Y-12953929D01*
X10441071Y-12939643D02*
X10455357Y-12953929D01*
X10441071Y-12968214D01*
X10426786Y-12953929D01*
X10441071Y-12939643D01*
X10441071Y-12968214D01*
X10441071Y-12782500D02*
X10455357Y-12796786D01*
X10441071Y-12811071D01*
X10426786Y-12796786D01*
X10441071Y-12782500D01*
X10441071Y-12811071D01*
X8037500Y-13432500D02*
X8097500Y-13492500D01*
X8097500Y-13432500D02*
X8037500Y-13492500D01*
X8441071Y-13298214D02*
X8469643Y-13298214D01*
X8498214Y-13312500D01*
X8512500Y-13326786D01*
X8526786Y-13355357D01*
X8541071Y-13412500D01*
X8541071Y-13483929D01*
X8526786Y-13541071D01*
X8512500Y-13569643D01*
X8498214Y-13583929D01*
X8469643Y-13598214D01*
X8441071Y-13598214D01*
X8412500Y-13583929D01*
X8398214Y-13569643D01*
X8383928Y-13541071D01*
X8369643Y-13483929D01*
X8369643Y-13412500D01*
X8383928Y-13355357D01*
X8398214Y-13326786D01*
X8412500Y-13312500D01*
X8441071Y-13298214D01*
X8669643Y-13569643D02*
X8683928Y-13583929D01*
X8669643Y-13598214D01*
X8655357Y-13583929D01*
X8669643Y-13569643D01*
X8669643Y-13598214D01*
X8941071Y-13298214D02*
X8883928Y-13298214D01*
X8855357Y-13312500D01*
X8841071Y-13326786D01*
X8812500Y-13369643D01*
X8798214Y-13426786D01*
X8798214Y-13541071D01*
X8812500Y-13569643D01*
X8826786Y-13583929D01*
X8855357Y-13598214D01*
X8912500Y-13598214D01*
X8941071Y-13583929D01*
X8955357Y-13569643D01*
X8969643Y-13541071D01*
X8969643Y-13469643D01*
X8955357Y-13441071D01*
X8941071Y-13426786D01*
X8912500Y-13412500D01*
X8855357Y-13412500D01*
X8826786Y-13426786D01*
X8812500Y-13441071D01*
X8798214Y-13469643D01*
X9155357Y-13298214D02*
X9183928Y-13298214D01*
X9212500Y-13312500D01*
X9226786Y-13326786D01*
X9241071Y-13355357D01*
X9255357Y-13412500D01*
X9255357Y-13483929D01*
X9241071Y-13541071D01*
X9226786Y-13569643D01*
X9212500Y-13583929D01*
X9183928Y-13598214D01*
X9155357Y-13598214D01*
X9126786Y-13583929D01*
X9112500Y-13569643D01*
X9098214Y-13541071D01*
X9083928Y-13483929D01*
X9083928Y-13412500D01*
X9098214Y-13355357D01*
X9112500Y-13326786D01*
X9126786Y-13312500D01*
X9155357Y-13298214D01*
X9383928Y-13598214D02*
X9383928Y-13398214D01*
X9383928Y-13426786D02*
X9398214Y-13412500D01*
X9426786Y-13398214D01*
X9469643Y-13398214D01*
X9498214Y-13412500D01*
X9512500Y-13441071D01*
X9512500Y-13598214D01*
X9512500Y-13441071D02*
X9526786Y-13412500D01*
X9555357Y-13398214D01*
X9598214Y-13398214D01*
X9626786Y-13412500D01*
X9641071Y-13441071D01*
X9641071Y-13598214D01*
X9783928Y-13598214D02*
X9783928Y-13398214D01*
X9783928Y-13426786D02*
X9798214Y-13412500D01*
X9826786Y-13398214D01*
X9869643Y-13398214D01*
X9898214Y-13412500D01*
X9912500Y-13441071D01*
X9912500Y-13598214D01*
X9912500Y-13441071D02*
X9926786Y-13412500D01*
X9955357Y-13398214D01*
X9998214Y-13398214D01*
X10026786Y-13412500D01*
X10041071Y-13441071D01*
X10041071Y-13598214D01*
X10626786Y-13283929D02*
X10369643Y-13669643D01*
X11012500Y-13298214D02*
X11041071Y-13298214D01*
X11069643Y-13312500D01*
X11083928Y-13326786D01*
X11098214Y-13355357D01*
X11112500Y-13412500D01*
X11112500Y-13483929D01*
X11098214Y-13541071D01*
X11083928Y-13569643D01*
X11069643Y-13583929D01*
X11041071Y-13598214D01*
X11012500Y-13598214D01*
X10983928Y-13583929D01*
X10969643Y-13569643D01*
X10955357Y-13541071D01*
X10941071Y-13483929D01*
X10941071Y-13412500D01*
X10955357Y-13355357D01*
X10969643Y-13326786D01*
X10983928Y-13312500D01*
X11012500Y-13298214D01*
X11241071Y-13569643D02*
X11255357Y-13583929D01*
X11241071Y-13598214D01*
X11226786Y-13583929D01*
X11241071Y-13569643D01*
X11241071Y-13598214D01*
X11441071Y-13298214D02*
X11469643Y-13298214D01*
X11498214Y-13312500D01*
X11512500Y-13326786D01*
X11526786Y-13355357D01*
X11541071Y-13412500D01*
X11541071Y-13483929D01*
X11526786Y-13541071D01*
X11512500Y-13569643D01*
X11498214Y-13583929D01*
X11469643Y-13598214D01*
X11441071Y-13598214D01*
X11412500Y-13583929D01*
X11398214Y-13569643D01*
X11383928Y-13541071D01*
X11369643Y-13483929D01*
X11369643Y-13412500D01*
X11383928Y-13355357D01*
X11398214Y-13326786D01*
X11412500Y-13312500D01*
X11441071Y-13298214D01*
X11655357Y-13326786D02*
X11669643Y-13312500D01*
X11698214Y-13298214D01*
X11769643Y-13298214D01*
X11798214Y-13312500D01*
X11812500Y-13326786D01*
X11826786Y-13355357D01*
X11826786Y-13383929D01*
X11812500Y-13426786D01*
X11641071Y-13598214D01*
X11826786Y-13598214D01*
X12083928Y-13398214D02*
X12083928Y-13598214D01*
X12012500Y-13283929D02*
X11941071Y-13498214D01*
X12126786Y-13498214D01*
X12226786Y-13298214D02*
X12226786Y-13355357D01*
X12341071Y-13298214D02*
X12341071Y-13355357D01*
X12783928Y-13712500D02*
X12769643Y-13698214D01*
X12741071Y-13655357D01*
X12726786Y-13626786D01*
X12712500Y-13583929D01*
X12698214Y-13512500D01*
X12698214Y-13455357D01*
X12712500Y-13383929D01*
X12726786Y-13341071D01*
X12741071Y-13312500D01*
X12769643Y-13269643D01*
X12783928Y-13255357D01*
X13026786Y-13398214D02*
X13026786Y-13598214D01*
X12955357Y-13283929D02*
X12883928Y-13498214D01*
X13069643Y-13498214D01*
X13412500Y-13598214D02*
X13412500Y-13298214D01*
X13541071Y-13598214D02*
X13541071Y-13441071D01*
X13526786Y-13412500D01*
X13498214Y-13398214D01*
X13455357Y-13398214D01*
X13426786Y-13412500D01*
X13412500Y-13426786D01*
X13726786Y-13598214D02*
X13698214Y-13583929D01*
X13683928Y-13569643D01*
X13669643Y-13541071D01*
X13669643Y-13455357D01*
X13683928Y-13426786D01*
X13698214Y-13412500D01*
X13726786Y-13398214D01*
X13769643Y-13398214D01*
X13798214Y-13412500D01*
X13812500Y-13426786D01*
X13826786Y-13455357D01*
X13826786Y-13541071D01*
X13812500Y-13569643D01*
X13798214Y-13583929D01*
X13769643Y-13598214D01*
X13726786Y-13598214D01*
X13998214Y-13598214D02*
X13969643Y-13583929D01*
X13955357Y-13555357D01*
X13955357Y-13298214D01*
X14226786Y-13583929D02*
X14198214Y-13598214D01*
X14141071Y-13598214D01*
X14112500Y-13583929D01*
X14098214Y-13555357D01*
X14098214Y-13441071D01*
X14112500Y-13412500D01*
X14141071Y-13398214D01*
X14198214Y-13398214D01*
X14226786Y-13412500D01*
X14241071Y-13441071D01*
X14241071Y-13469643D01*
X14098214Y-13498214D01*
X14355357Y-13583929D02*
X14383928Y-13598214D01*
X14441071Y-13598214D01*
X14469643Y-13583929D01*
X14483928Y-13555357D01*
X14483928Y-13541071D01*
X14469643Y-13512500D01*
X14441071Y-13498214D01*
X14398214Y-13498214D01*
X14369643Y-13483929D01*
X14355357Y-13455357D01*
X14355357Y-13441071D01*
X14369643Y-13412500D01*
X14398214Y-13398214D01*
X14441071Y-13398214D01*
X14469643Y-13412500D01*
X14583928Y-13712500D02*
X14598214Y-13698214D01*
X14626786Y-13655357D01*
X14641071Y-13626786D01*
X14655357Y-13583929D01*
X14669643Y-13512500D01*
X14669643Y-13455357D01*
X14655357Y-13383929D01*
X14641071Y-13341071D01*
X14626786Y-13312500D01*
X14598214Y-13269643D01*
X14583928Y-13255357D01*
X8097500Y-13858500D02*
G75*
G03*
X8097500Y-13858500I-37500J0D01*
G01*
X8441071Y-13694214D02*
X8469643Y-13694214D01*
X8498214Y-13708500D01*
X8512500Y-13722786D01*
X8526786Y-13751357D01*
X8541071Y-13808500D01*
X8541071Y-13879929D01*
X8526786Y-13937071D01*
X8512500Y-13965643D01*
X8498214Y-13979929D01*
X8469643Y-13994214D01*
X8441071Y-13994214D01*
X8412500Y-13979929D01*
X8398214Y-13965643D01*
X8383928Y-13937071D01*
X8369643Y-13879929D01*
X8369643Y-13808500D01*
X8383928Y-13751357D01*
X8398214Y-13722786D01*
X8412500Y-13708500D01*
X8441071Y-13694214D01*
X8669643Y-13965643D02*
X8683928Y-13979929D01*
X8669643Y-13994214D01*
X8655357Y-13979929D01*
X8669643Y-13965643D01*
X8669643Y-13994214D01*
X8783928Y-13694214D02*
X8983928Y-13694214D01*
X8855357Y-13994214D01*
X9241071Y-13694214D02*
X9098214Y-13694214D01*
X9083928Y-13837071D01*
X9098214Y-13822786D01*
X9126786Y-13808500D01*
X9198214Y-13808500D01*
X9226786Y-13822786D01*
X9241071Y-13837071D01*
X9255357Y-13865643D01*
X9255357Y-13937071D01*
X9241071Y-13965643D01*
X9226786Y-13979929D01*
X9198214Y-13994214D01*
X9126786Y-13994214D01*
X9098214Y-13979929D01*
X9083928Y-13965643D01*
X9383928Y-13994214D02*
X9383928Y-13794214D01*
X9383928Y-13822786D02*
X9398214Y-13808500D01*
X9426786Y-13794214D01*
X9469643Y-13794214D01*
X9498214Y-13808500D01*
X9512500Y-13837071D01*
X9512500Y-13994214D01*
X9512500Y-13837071D02*
X9526786Y-13808500D01*
X9555357Y-13794214D01*
X9598214Y-13794214D01*
X9626786Y-13808500D01*
X9641071Y-13837071D01*
X9641071Y-13994214D01*
X9783928Y-13994214D02*
X9783928Y-13794214D01*
X9783928Y-13822786D02*
X9798214Y-13808500D01*
X9826786Y-13794214D01*
X9869643Y-13794214D01*
X9898214Y-13808500D01*
X9912500Y-13837071D01*
X9912500Y-13994214D01*
X9912500Y-13837071D02*
X9926786Y-13808500D01*
X9955357Y-13794214D01*
X9998214Y-13794214D01*
X10026786Y-13808500D01*
X10041071Y-13837071D01*
X10041071Y-13994214D01*
X10626786Y-13679929D02*
X10369643Y-14065643D01*
X11012500Y-13694214D02*
X11041071Y-13694214D01*
X11069643Y-13708500D01*
X11083928Y-13722786D01*
X11098214Y-13751357D01*
X11112500Y-13808500D01*
X11112500Y-13879929D01*
X11098214Y-13937071D01*
X11083928Y-13965643D01*
X11069643Y-13979929D01*
X11041071Y-13994214D01*
X11012500Y-13994214D01*
X10983928Y-13979929D01*
X10969643Y-13965643D01*
X10955357Y-13937071D01*
X10941071Y-13879929D01*
X10941071Y-13808500D01*
X10955357Y-13751357D01*
X10969643Y-13722786D01*
X10983928Y-13708500D01*
X11012500Y-13694214D01*
X11241071Y-13965643D02*
X11255357Y-13979929D01*
X11241071Y-13994214D01*
X11226786Y-13979929D01*
X11241071Y-13965643D01*
X11241071Y-13994214D01*
X11441071Y-13694214D02*
X11469643Y-13694214D01*
X11498214Y-13708500D01*
X11512500Y-13722786D01*
X11526786Y-13751357D01*
X11541071Y-13808500D01*
X11541071Y-13879929D01*
X11526786Y-13937071D01*
X11512500Y-13965643D01*
X11498214Y-13979929D01*
X11469643Y-13994214D01*
X11441071Y-13994214D01*
X11412500Y-13979929D01*
X11398214Y-13965643D01*
X11383928Y-13937071D01*
X11369643Y-13879929D01*
X11369643Y-13808500D01*
X11383928Y-13751357D01*
X11398214Y-13722786D01*
X11412500Y-13708500D01*
X11441071Y-13694214D01*
X11641071Y-13694214D02*
X11826786Y-13694214D01*
X11726786Y-13808500D01*
X11769643Y-13808500D01*
X11798214Y-13822786D01*
X11812500Y-13837071D01*
X11826786Y-13865643D01*
X11826786Y-13937071D01*
X11812500Y-13965643D01*
X11798214Y-13979929D01*
X11769643Y-13994214D01*
X11683928Y-13994214D01*
X11655357Y-13979929D01*
X11641071Y-13965643D01*
X12012500Y-13694214D02*
X12041071Y-13694214D01*
X12069643Y-13708500D01*
X12083928Y-13722786D01*
X12098214Y-13751357D01*
X12112500Y-13808500D01*
X12112500Y-13879929D01*
X12098214Y-13937071D01*
X12083928Y-13965643D01*
X12069643Y-13979929D01*
X12041071Y-13994214D01*
X12012500Y-13994214D01*
X11983928Y-13979929D01*
X11969643Y-13965643D01*
X11955357Y-13937071D01*
X11941071Y-13879929D01*
X11941071Y-13808500D01*
X11955357Y-13751357D01*
X11969643Y-13722786D01*
X11983928Y-13708500D01*
X12012500Y-13694214D01*
X12226786Y-13694214D02*
X12226786Y-13751357D01*
X12341071Y-13694214D02*
X12341071Y-13751357D01*
X12783928Y-14108500D02*
X12769643Y-14094214D01*
X12741071Y-14051357D01*
X12726786Y-14022786D01*
X12712500Y-13979929D01*
X12698214Y-13908500D01*
X12698214Y-13851357D01*
X12712500Y-13779929D01*
X12726786Y-13737071D01*
X12741071Y-13708500D01*
X12769643Y-13665643D01*
X12783928Y-13651357D01*
X12941071Y-13822786D02*
X12912500Y-13808500D01*
X12898214Y-13794214D01*
X12883928Y-13765643D01*
X12883928Y-13751357D01*
X12898214Y-13722786D01*
X12912500Y-13708500D01*
X12941071Y-13694214D01*
X12998214Y-13694214D01*
X13026786Y-13708500D01*
X13041071Y-13722786D01*
X13055357Y-13751357D01*
X13055357Y-13765643D01*
X13041071Y-13794214D01*
X13026786Y-13808500D01*
X12998214Y-13822786D01*
X12941071Y-13822786D01*
X12912500Y-13837071D01*
X12898214Y-13851357D01*
X12883928Y-13879929D01*
X12883928Y-13937071D01*
X12898214Y-13965643D01*
X12912500Y-13979929D01*
X12941071Y-13994214D01*
X12998214Y-13994214D01*
X13026786Y-13979929D01*
X13041071Y-13965643D01*
X13055357Y-13937071D01*
X13055357Y-13879929D01*
X13041071Y-13851357D01*
X13026786Y-13837071D01*
X12998214Y-13822786D01*
X13412500Y-13994214D02*
X13412500Y-13694214D01*
X13541071Y-13994214D02*
X13541071Y-13837071D01*
X13526786Y-13808500D01*
X13498214Y-13794214D01*
X13455357Y-13794214D01*
X13426786Y-13808500D01*
X13412500Y-13822786D01*
X13726786Y-13994214D02*
X13698214Y-13979929D01*
X13683928Y-13965643D01*
X13669643Y-13937071D01*
X13669643Y-13851357D01*
X13683928Y-13822786D01*
X13698214Y-13808500D01*
X13726786Y-13794214D01*
X13769643Y-13794214D01*
X13798214Y-13808500D01*
X13812500Y-13822786D01*
X13826786Y-13851357D01*
X13826786Y-13937071D01*
X13812500Y-13965643D01*
X13798214Y-13979929D01*
X13769643Y-13994214D01*
X13726786Y-13994214D01*
X13998214Y-13994214D02*
X13969643Y-13979929D01*
X13955357Y-13951357D01*
X13955357Y-13694214D01*
X14226786Y-13979929D02*
X14198214Y-13994214D01*
X14141071Y-13994214D01*
X14112500Y-13979929D01*
X14098214Y-13951357D01*
X14098214Y-13837071D01*
X14112500Y-13808500D01*
X14141071Y-13794214D01*
X14198214Y-13794214D01*
X14226786Y-13808500D01*
X14241071Y-13837071D01*
X14241071Y-13865643D01*
X14098214Y-13894214D01*
X14355357Y-13979929D02*
X14383928Y-13994214D01*
X14441071Y-13994214D01*
X14469643Y-13979929D01*
X14483928Y-13951357D01*
X14483928Y-13937071D01*
X14469643Y-13908500D01*
X14441071Y-13894214D01*
X14398214Y-13894214D01*
X14369643Y-13879929D01*
X14355357Y-13851357D01*
X14355357Y-13837071D01*
X14369643Y-13808500D01*
X14398214Y-13794214D01*
X14441071Y-13794214D01*
X14469643Y-13808500D01*
X14583928Y-14108500D02*
X14598214Y-14094214D01*
X14626786Y-14051357D01*
X14641071Y-14022786D01*
X14655357Y-13979929D01*
X14669643Y-13908500D01*
X14669643Y-13851357D01*
X14655357Y-13779929D01*
X14641071Y-13737071D01*
X14626786Y-13708500D01*
X14598214Y-13665643D01*
X14583928Y-13651357D01*
X8059400Y-14216400D02*
X8059400Y-14292600D01*
X8021300Y-14254500D02*
X8097500Y-14254500D01*
X8441071Y-14090214D02*
X8469643Y-14090214D01*
X8498214Y-14104500D01*
X8512500Y-14118786D01*
X8526786Y-14147357D01*
X8541071Y-14204500D01*
X8541071Y-14275929D01*
X8526786Y-14333071D01*
X8512500Y-14361643D01*
X8498214Y-14375929D01*
X8469643Y-14390214D01*
X8441071Y-14390214D01*
X8412500Y-14375929D01*
X8398214Y-14361643D01*
X8383928Y-14333071D01*
X8369643Y-14275929D01*
X8369643Y-14204500D01*
X8383928Y-14147357D01*
X8398214Y-14118786D01*
X8412500Y-14104500D01*
X8441071Y-14090214D01*
X8669643Y-14361643D02*
X8683928Y-14375929D01*
X8669643Y-14390214D01*
X8655357Y-14375929D01*
X8669643Y-14361643D01*
X8669643Y-14390214D01*
X8783928Y-14090214D02*
X8983928Y-14090214D01*
X8855357Y-14390214D01*
X9226786Y-14090214D02*
X9169643Y-14090214D01*
X9141071Y-14104500D01*
X9126786Y-14118786D01*
X9098214Y-14161643D01*
X9083928Y-14218786D01*
X9083928Y-14333071D01*
X9098214Y-14361643D01*
X9112500Y-14375929D01*
X9141071Y-14390214D01*
X9198214Y-14390214D01*
X9226786Y-14375929D01*
X9241071Y-14361643D01*
X9255357Y-14333071D01*
X9255357Y-14261643D01*
X9241071Y-14233071D01*
X9226786Y-14218786D01*
X9198214Y-14204500D01*
X9141071Y-14204500D01*
X9112500Y-14218786D01*
X9098214Y-14233071D01*
X9083928Y-14261643D01*
X9383928Y-14390214D02*
X9383928Y-14190214D01*
X9383928Y-14218786D02*
X9398214Y-14204500D01*
X9426786Y-14190214D01*
X9469643Y-14190214D01*
X9498214Y-14204500D01*
X9512500Y-14233071D01*
X9512500Y-14390214D01*
X9512500Y-14233071D02*
X9526786Y-14204500D01*
X9555357Y-14190214D01*
X9598214Y-14190214D01*
X9626786Y-14204500D01*
X9641071Y-14233071D01*
X9641071Y-14390214D01*
X9783928Y-14390214D02*
X9783928Y-14190214D01*
X9783928Y-14218786D02*
X9798214Y-14204500D01*
X9826786Y-14190214D01*
X9869643Y-14190214D01*
X9898214Y-14204500D01*
X9912500Y-14233071D01*
X9912500Y-14390214D01*
X9912500Y-14233071D02*
X9926786Y-14204500D01*
X9955357Y-14190214D01*
X9998214Y-14190214D01*
X10026786Y-14204500D01*
X10041071Y-14233071D01*
X10041071Y-14390214D01*
X10626786Y-14075929D02*
X10369643Y-14461643D01*
X11012500Y-14090214D02*
X11041071Y-14090214D01*
X11069643Y-14104500D01*
X11083928Y-14118786D01*
X11098214Y-14147357D01*
X11112500Y-14204500D01*
X11112500Y-14275929D01*
X11098214Y-14333071D01*
X11083928Y-14361643D01*
X11069643Y-14375929D01*
X11041071Y-14390214D01*
X11012500Y-14390214D01*
X10983928Y-14375929D01*
X10969643Y-14361643D01*
X10955357Y-14333071D01*
X10941071Y-14275929D01*
X10941071Y-14204500D01*
X10955357Y-14147357D01*
X10969643Y-14118786D01*
X10983928Y-14104500D01*
X11012500Y-14090214D01*
X11241071Y-14361643D02*
X11255357Y-14375929D01*
X11241071Y-14390214D01*
X11226786Y-14375929D01*
X11241071Y-14361643D01*
X11241071Y-14390214D01*
X11441071Y-14090214D02*
X11469643Y-14090214D01*
X11498214Y-14104500D01*
X11512500Y-14118786D01*
X11526786Y-14147357D01*
X11541071Y-14204500D01*
X11541071Y-14275929D01*
X11526786Y-14333071D01*
X11512500Y-14361643D01*
X11498214Y-14375929D01*
X11469643Y-14390214D01*
X11441071Y-14390214D01*
X11412500Y-14375929D01*
X11398214Y-14361643D01*
X11383928Y-14333071D01*
X11369643Y-14275929D01*
X11369643Y-14204500D01*
X11383928Y-14147357D01*
X11398214Y-14118786D01*
X11412500Y-14104500D01*
X11441071Y-14090214D01*
X11641071Y-14090214D02*
X11826786Y-14090214D01*
X11726786Y-14204500D01*
X11769643Y-14204500D01*
X11798214Y-14218786D01*
X11812500Y-14233071D01*
X11826786Y-14261643D01*
X11826786Y-14333071D01*
X11812500Y-14361643D01*
X11798214Y-14375929D01*
X11769643Y-14390214D01*
X11683928Y-14390214D01*
X11655357Y-14375929D01*
X11641071Y-14361643D01*
X12012500Y-14090214D02*
X12041071Y-14090214D01*
X12069643Y-14104500D01*
X12083928Y-14118786D01*
X12098214Y-14147357D01*
X12112500Y-14204500D01*
X12112500Y-14275929D01*
X12098214Y-14333071D01*
X12083928Y-14361643D01*
X12069643Y-14375929D01*
X12041071Y-14390214D01*
X12012500Y-14390214D01*
X11983928Y-14375929D01*
X11969643Y-14361643D01*
X11955357Y-14333071D01*
X11941071Y-14275929D01*
X11941071Y-14204500D01*
X11955357Y-14147357D01*
X11969643Y-14118786D01*
X11983928Y-14104500D01*
X12012500Y-14090214D01*
X12226786Y-14090214D02*
X12226786Y-14147357D01*
X12341071Y-14090214D02*
X12341071Y-14147357D01*
X12783928Y-14504500D02*
X12769643Y-14490214D01*
X12741071Y-14447357D01*
X12726786Y-14418786D01*
X12712500Y-14375929D01*
X12698214Y-14304500D01*
X12698214Y-14247357D01*
X12712500Y-14175929D01*
X12726786Y-14133071D01*
X12741071Y-14104500D01*
X12769643Y-14061643D01*
X12783928Y-14047357D01*
X12869643Y-14090214D02*
X13069643Y-14090214D01*
X12941071Y-14390214D01*
X13412500Y-14390214D02*
X13412500Y-14090214D01*
X13541071Y-14390214D02*
X13541071Y-14233071D01*
X13526786Y-14204500D01*
X13498214Y-14190214D01*
X13455357Y-14190214D01*
X13426786Y-14204500D01*
X13412500Y-14218786D01*
X13726786Y-14390214D02*
X13698214Y-14375929D01*
X13683928Y-14361643D01*
X13669643Y-14333071D01*
X13669643Y-14247357D01*
X13683928Y-14218786D01*
X13698214Y-14204500D01*
X13726786Y-14190214D01*
X13769643Y-14190214D01*
X13798214Y-14204500D01*
X13812500Y-14218786D01*
X13826786Y-14247357D01*
X13826786Y-14333071D01*
X13812500Y-14361643D01*
X13798214Y-14375929D01*
X13769643Y-14390214D01*
X13726786Y-14390214D01*
X13998214Y-14390214D02*
X13969643Y-14375929D01*
X13955357Y-14347357D01*
X13955357Y-14090214D01*
X14226786Y-14375929D02*
X14198214Y-14390214D01*
X14141071Y-14390214D01*
X14112500Y-14375929D01*
X14098214Y-14347357D01*
X14098214Y-14233071D01*
X14112500Y-14204500D01*
X14141071Y-14190214D01*
X14198214Y-14190214D01*
X14226786Y-14204500D01*
X14241071Y-14233071D01*
X14241071Y-14261643D01*
X14098214Y-14290214D01*
X14355357Y-14375929D02*
X14383928Y-14390214D01*
X14441071Y-14390214D01*
X14469643Y-14375929D01*
X14483928Y-14347357D01*
X14483928Y-14333071D01*
X14469643Y-14304500D01*
X14441071Y-14290214D01*
X14398214Y-14290214D01*
X14369643Y-14275929D01*
X14355357Y-14247357D01*
X14355357Y-14233071D01*
X14369643Y-14204500D01*
X14398214Y-14190214D01*
X14441071Y-14190214D01*
X14469643Y-14204500D01*
X14583928Y-14504500D02*
X14598214Y-14490214D01*
X14626786Y-14447357D01*
X14641071Y-14418786D01*
X14655357Y-14375929D01*
X14669643Y-14304500D01*
X14669643Y-14247357D01*
X14655357Y-14175929D01*
X14641071Y-14133071D01*
X14626786Y-14104500D01*
X14598214Y-14061643D01*
X14583928Y-14047357D01*
X8085784Y-14678785D02*
X8085784Y-14622216D01*
X8029215Y-14622216D01*
X8029215Y-14678785D01*
X8085784Y-14678785D01*
X8441071Y-14486214D02*
X8469643Y-14486214D01*
X8498214Y-14500500D01*
X8512500Y-14514786D01*
X8526786Y-14543357D01*
X8541071Y-14600500D01*
X8541071Y-14671929D01*
X8526786Y-14729071D01*
X8512500Y-14757643D01*
X8498214Y-14771929D01*
X8469643Y-14786214D01*
X8441071Y-14786214D01*
X8412500Y-14771929D01*
X8398214Y-14757643D01*
X8383928Y-14729071D01*
X8369643Y-14671929D01*
X8369643Y-14600500D01*
X8383928Y-14543357D01*
X8398214Y-14514786D01*
X8412500Y-14500500D01*
X8441071Y-14486214D01*
X8669643Y-14757643D02*
X8683928Y-14771929D01*
X8669643Y-14786214D01*
X8655357Y-14771929D01*
X8669643Y-14757643D01*
X8669643Y-14786214D01*
X8855357Y-14614786D02*
X8826786Y-14600500D01*
X8812500Y-14586214D01*
X8798214Y-14557643D01*
X8798214Y-14543357D01*
X8812500Y-14514786D01*
X8826786Y-14500500D01*
X8855357Y-14486214D01*
X8912500Y-14486214D01*
X8941071Y-14500500D01*
X8955357Y-14514786D01*
X8969643Y-14543357D01*
X8969643Y-14557643D01*
X8955357Y-14586214D01*
X8941071Y-14600500D01*
X8912500Y-14614786D01*
X8855357Y-14614786D01*
X8826786Y-14629071D01*
X8812500Y-14643357D01*
X8798214Y-14671929D01*
X8798214Y-14729071D01*
X8812500Y-14757643D01*
X8826786Y-14771929D01*
X8855357Y-14786214D01*
X8912500Y-14786214D01*
X8941071Y-14771929D01*
X8955357Y-14757643D01*
X8969643Y-14729071D01*
X8969643Y-14671929D01*
X8955357Y-14643357D01*
X8941071Y-14629071D01*
X8912500Y-14614786D01*
X9155357Y-14486214D02*
X9183928Y-14486214D01*
X9212500Y-14500500D01*
X9226786Y-14514786D01*
X9241071Y-14543357D01*
X9255357Y-14600500D01*
X9255357Y-14671929D01*
X9241071Y-14729071D01*
X9226786Y-14757643D01*
X9212500Y-14771929D01*
X9183928Y-14786214D01*
X9155357Y-14786214D01*
X9126786Y-14771929D01*
X9112500Y-14757643D01*
X9098214Y-14729071D01*
X9083928Y-14671929D01*
X9083928Y-14600500D01*
X9098214Y-14543357D01*
X9112500Y-14514786D01*
X9126786Y-14500500D01*
X9155357Y-14486214D01*
X9383928Y-14786214D02*
X9383928Y-14586214D01*
X9383928Y-14614786D02*
X9398214Y-14600500D01*
X9426786Y-14586214D01*
X9469643Y-14586214D01*
X9498214Y-14600500D01*
X9512500Y-14629071D01*
X9512500Y-14786214D01*
X9512500Y-14629071D02*
X9526786Y-14600500D01*
X9555357Y-14586214D01*
X9598214Y-14586214D01*
X9626786Y-14600500D01*
X9641071Y-14629071D01*
X9641071Y-14786214D01*
X9783928Y-14786214D02*
X9783928Y-14586214D01*
X9783928Y-14614786D02*
X9798214Y-14600500D01*
X9826786Y-14586214D01*
X9869643Y-14586214D01*
X9898214Y-14600500D01*
X9912500Y-14629071D01*
X9912500Y-14786214D01*
X9912500Y-14629071D02*
X9926786Y-14600500D01*
X9955357Y-14586214D01*
X9998214Y-14586214D01*
X10026786Y-14600500D01*
X10041071Y-14629071D01*
X10041071Y-14786214D01*
X10626786Y-14471929D02*
X10369643Y-14857643D01*
X11012500Y-14486214D02*
X11041071Y-14486214D01*
X11069643Y-14500500D01*
X11083928Y-14514786D01*
X11098214Y-14543357D01*
X11112500Y-14600500D01*
X11112500Y-14671929D01*
X11098214Y-14729071D01*
X11083928Y-14757643D01*
X11069643Y-14771929D01*
X11041071Y-14786214D01*
X11012500Y-14786214D01*
X10983928Y-14771929D01*
X10969643Y-14757643D01*
X10955357Y-14729071D01*
X10941071Y-14671929D01*
X10941071Y-14600500D01*
X10955357Y-14543357D01*
X10969643Y-14514786D01*
X10983928Y-14500500D01*
X11012500Y-14486214D01*
X11241071Y-14757643D02*
X11255357Y-14771929D01*
X11241071Y-14786214D01*
X11226786Y-14771929D01*
X11241071Y-14757643D01*
X11241071Y-14786214D01*
X11441071Y-14486214D02*
X11469643Y-14486214D01*
X11498214Y-14500500D01*
X11512500Y-14514786D01*
X11526786Y-14543357D01*
X11541071Y-14600500D01*
X11541071Y-14671929D01*
X11526786Y-14729071D01*
X11512500Y-14757643D01*
X11498214Y-14771929D01*
X11469643Y-14786214D01*
X11441071Y-14786214D01*
X11412500Y-14771929D01*
X11398214Y-14757643D01*
X11383928Y-14729071D01*
X11369643Y-14671929D01*
X11369643Y-14600500D01*
X11383928Y-14543357D01*
X11398214Y-14514786D01*
X11412500Y-14500500D01*
X11441071Y-14486214D01*
X11641071Y-14486214D02*
X11826786Y-14486214D01*
X11726786Y-14600500D01*
X11769643Y-14600500D01*
X11798214Y-14614786D01*
X11812500Y-14629071D01*
X11826786Y-14657643D01*
X11826786Y-14729071D01*
X11812500Y-14757643D01*
X11798214Y-14771929D01*
X11769643Y-14786214D01*
X11683928Y-14786214D01*
X11655357Y-14771929D01*
X11641071Y-14757643D01*
X12112500Y-14786214D02*
X11941071Y-14786214D01*
X12026786Y-14786214D02*
X12026786Y-14486214D01*
X11998214Y-14529071D01*
X11969643Y-14557643D01*
X11941071Y-14571929D01*
X12226786Y-14486214D02*
X12226786Y-14543357D01*
X12341071Y-14486214D02*
X12341071Y-14543357D01*
X12783928Y-14900500D02*
X12769643Y-14886214D01*
X12741071Y-14843357D01*
X12726786Y-14814786D01*
X12712500Y-14771929D01*
X12698214Y-14700500D01*
X12698214Y-14643357D01*
X12712500Y-14571929D01*
X12726786Y-14529071D01*
X12741071Y-14500500D01*
X12769643Y-14457643D01*
X12783928Y-14443357D01*
X13055357Y-14786214D02*
X12883928Y-14786214D01*
X12969643Y-14786214D02*
X12969643Y-14486214D01*
X12941071Y-14529071D01*
X12912500Y-14557643D01*
X12883928Y-14571929D01*
X13341071Y-14786214D02*
X13169643Y-14786214D01*
X13255357Y-14786214D02*
X13255357Y-14486214D01*
X13226786Y-14529071D01*
X13198214Y-14557643D01*
X13169643Y-14571929D01*
X13698214Y-14786214D02*
X13698214Y-14486214D01*
X13826786Y-14786214D02*
X13826786Y-14629071D01*
X13812500Y-14600500D01*
X13783928Y-14586214D01*
X13741071Y-14586214D01*
X13712500Y-14600500D01*
X13698214Y-14614786D01*
X14012500Y-14786214D02*
X13983928Y-14771929D01*
X13969643Y-14757643D01*
X13955357Y-14729071D01*
X13955357Y-14643357D01*
X13969643Y-14614786D01*
X13983928Y-14600500D01*
X14012500Y-14586214D01*
X14055357Y-14586214D01*
X14083928Y-14600500D01*
X14098214Y-14614786D01*
X14112500Y-14643357D01*
X14112500Y-14729071D01*
X14098214Y-14757643D01*
X14083928Y-14771929D01*
X14055357Y-14786214D01*
X14012500Y-14786214D01*
X14283928Y-14786214D02*
X14255357Y-14771929D01*
X14241071Y-14743357D01*
X14241071Y-14486214D01*
X14512500Y-14771929D02*
X14483928Y-14786214D01*
X14426786Y-14786214D01*
X14398214Y-14771929D01*
X14383928Y-14743357D01*
X14383928Y-14629071D01*
X14398214Y-14600500D01*
X14426786Y-14586214D01*
X14483928Y-14586214D01*
X14512500Y-14600500D01*
X14526786Y-14629071D01*
X14526786Y-14657643D01*
X14383928Y-14686214D01*
X14641071Y-14771929D02*
X14669643Y-14786214D01*
X14726786Y-14786214D01*
X14755357Y-14771929D01*
X14769643Y-14743357D01*
X14769643Y-14729071D01*
X14755357Y-14700500D01*
X14726786Y-14686214D01*
X14683928Y-14686214D01*
X14655357Y-14671929D01*
X14641071Y-14643357D01*
X14641071Y-14629071D01*
X14655357Y-14600500D01*
X14683928Y-14586214D01*
X14726786Y-14586214D01*
X14755357Y-14600500D01*
X14869643Y-14900500D02*
X14883928Y-14886214D01*
X14912500Y-14843357D01*
X14926786Y-14814786D01*
X14941071Y-14771929D01*
X14955357Y-14700500D01*
X14955357Y-14643357D01*
X14941071Y-14571929D01*
X14926786Y-14529071D01*
X14912500Y-14500500D01*
X14883928Y-14457643D01*
X14869643Y-14443357D01*
X8052500Y-15091500D02*
X8097500Y-15046500D01*
X8052500Y-15001500D01*
X8007500Y-15046500D01*
X8052500Y-15091500D01*
X8441071Y-14882214D02*
X8469643Y-14882214D01*
X8498214Y-14896500D01*
X8512500Y-14910786D01*
X8526786Y-14939357D01*
X8541071Y-14996500D01*
X8541071Y-15067929D01*
X8526786Y-15125071D01*
X8512500Y-15153643D01*
X8498214Y-15167929D01*
X8469643Y-15182214D01*
X8441071Y-15182214D01*
X8412500Y-15167929D01*
X8398214Y-15153643D01*
X8383928Y-15125071D01*
X8369643Y-15067929D01*
X8369643Y-14996500D01*
X8383928Y-14939357D01*
X8398214Y-14910786D01*
X8412500Y-14896500D01*
X8441071Y-14882214D01*
X8669643Y-15153643D02*
X8683928Y-15167929D01*
X8669643Y-15182214D01*
X8655357Y-15167929D01*
X8669643Y-15153643D01*
X8669643Y-15182214D01*
X8826786Y-15182214D02*
X8883928Y-15182214D01*
X8912500Y-15167929D01*
X8926786Y-15153643D01*
X8955357Y-15110786D01*
X8969643Y-15053643D01*
X8969643Y-14939357D01*
X8955357Y-14910786D01*
X8941071Y-14896500D01*
X8912500Y-14882214D01*
X8855357Y-14882214D01*
X8826786Y-14896500D01*
X8812500Y-14910786D01*
X8798214Y-14939357D01*
X8798214Y-15010786D01*
X8812500Y-15039357D01*
X8826786Y-15053643D01*
X8855357Y-15067929D01*
X8912500Y-15067929D01*
X8941071Y-15053643D01*
X8955357Y-15039357D01*
X8969643Y-15010786D01*
X9155357Y-14882214D02*
X9183928Y-14882214D01*
X9212500Y-14896500D01*
X9226786Y-14910786D01*
X9241071Y-14939357D01*
X9255357Y-14996500D01*
X9255357Y-15067929D01*
X9241071Y-15125071D01*
X9226786Y-15153643D01*
X9212500Y-15167929D01*
X9183928Y-15182214D01*
X9155357Y-15182214D01*
X9126786Y-15167929D01*
X9112500Y-15153643D01*
X9098214Y-15125071D01*
X9083928Y-15067929D01*
X9083928Y-14996500D01*
X9098214Y-14939357D01*
X9112500Y-14910786D01*
X9126786Y-14896500D01*
X9155357Y-14882214D01*
X9383928Y-15182214D02*
X9383928Y-14982214D01*
X9383928Y-15010786D02*
X9398214Y-14996500D01*
X9426786Y-14982214D01*
X9469643Y-14982214D01*
X9498214Y-14996500D01*
X9512500Y-15025071D01*
X9512500Y-15182214D01*
X9512500Y-15025071D02*
X9526786Y-14996500D01*
X9555357Y-14982214D01*
X9598214Y-14982214D01*
X9626786Y-14996500D01*
X9641071Y-15025071D01*
X9641071Y-15182214D01*
X9783928Y-15182214D02*
X9783928Y-14982214D01*
X9783928Y-15010786D02*
X9798214Y-14996500D01*
X9826786Y-14982214D01*
X9869643Y-14982214D01*
X9898214Y-14996500D01*
X9912500Y-15025071D01*
X9912500Y-15182214D01*
X9912500Y-15025071D02*
X9926786Y-14996500D01*
X9955357Y-14982214D01*
X9998214Y-14982214D01*
X10026786Y-14996500D01*
X10041071Y-15025071D01*
X10041071Y-15182214D01*
X10626786Y-14867929D02*
X10369643Y-15253643D01*
X11012500Y-14882214D02*
X11041071Y-14882214D01*
X11069643Y-14896500D01*
X11083928Y-14910786D01*
X11098214Y-14939357D01*
X11112500Y-14996500D01*
X11112500Y-15067929D01*
X11098214Y-15125071D01*
X11083928Y-15153643D01*
X11069643Y-15167929D01*
X11041071Y-15182214D01*
X11012500Y-15182214D01*
X10983928Y-15167929D01*
X10969643Y-15153643D01*
X10955357Y-15125071D01*
X10941071Y-15067929D01*
X10941071Y-14996500D01*
X10955357Y-14939357D01*
X10969643Y-14910786D01*
X10983928Y-14896500D01*
X11012500Y-14882214D01*
X11241071Y-15153643D02*
X11255357Y-15167929D01*
X11241071Y-15182214D01*
X11226786Y-15167929D01*
X11241071Y-15153643D01*
X11241071Y-15182214D01*
X11441071Y-14882214D02*
X11469643Y-14882214D01*
X11498214Y-14896500D01*
X11512500Y-14910786D01*
X11526786Y-14939357D01*
X11541071Y-14996500D01*
X11541071Y-15067929D01*
X11526786Y-15125071D01*
X11512500Y-15153643D01*
X11498214Y-15167929D01*
X11469643Y-15182214D01*
X11441071Y-15182214D01*
X11412500Y-15167929D01*
X11398214Y-15153643D01*
X11383928Y-15125071D01*
X11369643Y-15067929D01*
X11369643Y-14996500D01*
X11383928Y-14939357D01*
X11398214Y-14910786D01*
X11412500Y-14896500D01*
X11441071Y-14882214D01*
X11641071Y-14882214D02*
X11826786Y-14882214D01*
X11726786Y-14996500D01*
X11769643Y-14996500D01*
X11798214Y-15010786D01*
X11812500Y-15025071D01*
X11826786Y-15053643D01*
X11826786Y-15125071D01*
X11812500Y-15153643D01*
X11798214Y-15167929D01*
X11769643Y-15182214D01*
X11683928Y-15182214D01*
X11655357Y-15167929D01*
X11641071Y-15153643D01*
X12098214Y-14882214D02*
X11955357Y-14882214D01*
X11941071Y-15025071D01*
X11955357Y-15010786D01*
X11983928Y-14996500D01*
X12055357Y-14996500D01*
X12083928Y-15010786D01*
X12098214Y-15025071D01*
X12112500Y-15053643D01*
X12112500Y-15125071D01*
X12098214Y-15153643D01*
X12083928Y-15167929D01*
X12055357Y-15182214D01*
X11983928Y-15182214D01*
X11955357Y-15167929D01*
X11941071Y-15153643D01*
X12226786Y-14882214D02*
X12226786Y-14939357D01*
X12341071Y-14882214D02*
X12341071Y-14939357D01*
X12783928Y-15296500D02*
X12769643Y-15282214D01*
X12741071Y-15239357D01*
X12726786Y-15210786D01*
X12712500Y-15167929D01*
X12698214Y-15096500D01*
X12698214Y-15039357D01*
X12712500Y-14967929D01*
X12726786Y-14925071D01*
X12741071Y-14896500D01*
X12769643Y-14853643D01*
X12783928Y-14839357D01*
X13055357Y-15182214D02*
X12883928Y-15182214D01*
X12969643Y-15182214D02*
X12969643Y-14882214D01*
X12941071Y-14925071D01*
X12912500Y-14953643D01*
X12883928Y-14967929D01*
X13312500Y-14982214D02*
X13312500Y-15182214D01*
X13241071Y-14867929D02*
X13169643Y-15082214D01*
X13355357Y-15082214D01*
X13698214Y-15182214D02*
X13698214Y-14882214D01*
X13826786Y-15182214D02*
X13826786Y-15025071D01*
X13812500Y-14996500D01*
X13783928Y-14982214D01*
X13741071Y-14982214D01*
X13712500Y-14996500D01*
X13698214Y-15010786D01*
X14012500Y-15182214D02*
X13983928Y-15167929D01*
X13969643Y-15153643D01*
X13955357Y-15125071D01*
X13955357Y-15039357D01*
X13969643Y-15010786D01*
X13983928Y-14996500D01*
X14012500Y-14982214D01*
X14055357Y-14982214D01*
X14083928Y-14996500D01*
X14098214Y-15010786D01*
X14112500Y-15039357D01*
X14112500Y-15125071D01*
X14098214Y-15153643D01*
X14083928Y-15167929D01*
X14055357Y-15182214D01*
X14012500Y-15182214D01*
X14283928Y-15182214D02*
X14255357Y-15167929D01*
X14241071Y-15139357D01*
X14241071Y-14882214D01*
X14512500Y-15167929D02*
X14483928Y-15182214D01*
X14426786Y-15182214D01*
X14398214Y-15167929D01*
X14383928Y-15139357D01*
X14383928Y-15025071D01*
X14398214Y-14996500D01*
X14426786Y-14982214D01*
X14483928Y-14982214D01*
X14512500Y-14996500D01*
X14526786Y-15025071D01*
X14526786Y-15053643D01*
X14383928Y-15082214D01*
X14641071Y-15167929D02*
X14669643Y-15182214D01*
X14726786Y-15182214D01*
X14755357Y-15167929D01*
X14769643Y-15139357D01*
X14769643Y-15125071D01*
X14755357Y-15096500D01*
X14726786Y-15082214D01*
X14683928Y-15082214D01*
X14655357Y-15067929D01*
X14641071Y-15039357D01*
X14641071Y-15025071D01*
X14655357Y-14996500D01*
X14683928Y-14982214D01*
X14726786Y-14982214D01*
X14755357Y-14996500D01*
X14869643Y-15296500D02*
X14883928Y-15282214D01*
X14912500Y-15239357D01*
X14926786Y-15210786D01*
X14941071Y-15167929D01*
X14955357Y-15096500D01*
X14955357Y-15039357D01*
X14941071Y-14967929D01*
X14926786Y-14925071D01*
X14912500Y-14896500D01*
X14883928Y-14853643D01*
X14869643Y-14839357D01*
X7997500Y-15392500D02*
X8097500Y-15492500D01*
X8097500Y-15392500D02*
X7997500Y-15492500D01*
X8097500Y-15442500D02*
G75*
G03*
X8097500Y-15442500I-50000J0D01*
G01*
X8541071Y-15578214D02*
X8369643Y-15578214D01*
X8455357Y-15578214D02*
X8455357Y-15278214D01*
X8426786Y-15321071D01*
X8398214Y-15349643D01*
X8369643Y-15363929D01*
X8669643Y-15549643D02*
X8683928Y-15563929D01*
X8669643Y-15578214D01*
X8655357Y-15563929D01*
X8669643Y-15549643D01*
X8669643Y-15578214D01*
X8869643Y-15278214D02*
X8898214Y-15278214D01*
X8926786Y-15292500D01*
X8941071Y-15306786D01*
X8955357Y-15335357D01*
X8969643Y-15392500D01*
X8969643Y-15463929D01*
X8955357Y-15521071D01*
X8941071Y-15549643D01*
X8926786Y-15563929D01*
X8898214Y-15578214D01*
X8869643Y-15578214D01*
X8841071Y-15563929D01*
X8826786Y-15549643D01*
X8812500Y-15521071D01*
X8798214Y-15463929D01*
X8798214Y-15392500D01*
X8812500Y-15335357D01*
X8826786Y-15306786D01*
X8841071Y-15292500D01*
X8869643Y-15278214D01*
X9155357Y-15278214D02*
X9183928Y-15278214D01*
X9212500Y-15292500D01*
X9226786Y-15306786D01*
X9241071Y-15335357D01*
X9255357Y-15392500D01*
X9255357Y-15463929D01*
X9241071Y-15521071D01*
X9226786Y-15549643D01*
X9212500Y-15563929D01*
X9183928Y-15578214D01*
X9155357Y-15578214D01*
X9126786Y-15563929D01*
X9112500Y-15549643D01*
X9098214Y-15521071D01*
X9083928Y-15463929D01*
X9083928Y-15392500D01*
X9098214Y-15335357D01*
X9112500Y-15306786D01*
X9126786Y-15292500D01*
X9155357Y-15278214D01*
X9383928Y-15578214D02*
X9383928Y-15378214D01*
X9383928Y-15406786D02*
X9398214Y-15392500D01*
X9426786Y-15378214D01*
X9469643Y-15378214D01*
X9498214Y-15392500D01*
X9512500Y-15421071D01*
X9512500Y-15578214D01*
X9512500Y-15421071D02*
X9526786Y-15392500D01*
X9555357Y-15378214D01*
X9598214Y-15378214D01*
X9626786Y-15392500D01*
X9641071Y-15421071D01*
X9641071Y-15578214D01*
X9783928Y-15578214D02*
X9783928Y-15378214D01*
X9783928Y-15406786D02*
X9798214Y-15392500D01*
X9826786Y-15378214D01*
X9869643Y-15378214D01*
X9898214Y-15392500D01*
X9912500Y-15421071D01*
X9912500Y-15578214D01*
X9912500Y-15421071D02*
X9926786Y-15392500D01*
X9955357Y-15378214D01*
X9998214Y-15378214D01*
X10026786Y-15392500D01*
X10041071Y-15421071D01*
X10041071Y-15578214D01*
X10626786Y-15263929D02*
X10369643Y-15649643D01*
X11012500Y-15278214D02*
X11041071Y-15278214D01*
X11069643Y-15292500D01*
X11083928Y-15306786D01*
X11098214Y-15335357D01*
X11112500Y-15392500D01*
X11112500Y-15463929D01*
X11098214Y-15521071D01*
X11083928Y-15549643D01*
X11069643Y-15563929D01*
X11041071Y-15578214D01*
X11012500Y-15578214D01*
X10983928Y-15563929D01*
X10969643Y-15549643D01*
X10955357Y-15521071D01*
X10941071Y-15463929D01*
X10941071Y-15392500D01*
X10955357Y-15335357D01*
X10969643Y-15306786D01*
X10983928Y-15292500D01*
X11012500Y-15278214D01*
X11241071Y-15549643D02*
X11255357Y-15563929D01*
X11241071Y-15578214D01*
X11226786Y-15563929D01*
X11241071Y-15549643D01*
X11241071Y-15578214D01*
X11441071Y-15278214D02*
X11469643Y-15278214D01*
X11498214Y-15292500D01*
X11512500Y-15306786D01*
X11526786Y-15335357D01*
X11541071Y-15392500D01*
X11541071Y-15463929D01*
X11526786Y-15521071D01*
X11512500Y-15549643D01*
X11498214Y-15563929D01*
X11469643Y-15578214D01*
X11441071Y-15578214D01*
X11412500Y-15563929D01*
X11398214Y-15549643D01*
X11383928Y-15521071D01*
X11369643Y-15463929D01*
X11369643Y-15392500D01*
X11383928Y-15335357D01*
X11398214Y-15306786D01*
X11412500Y-15292500D01*
X11441071Y-15278214D01*
X11641071Y-15278214D02*
X11826786Y-15278214D01*
X11726786Y-15392500D01*
X11769643Y-15392500D01*
X11798214Y-15406786D01*
X11812500Y-15421071D01*
X11826786Y-15449643D01*
X11826786Y-15521071D01*
X11812500Y-15549643D01*
X11798214Y-15563929D01*
X11769643Y-15578214D01*
X11683928Y-15578214D01*
X11655357Y-15563929D01*
X11641071Y-15549643D01*
X11969643Y-15578214D02*
X12026786Y-15578214D01*
X12055357Y-15563929D01*
X12069643Y-15549643D01*
X12098214Y-15506786D01*
X12112500Y-15449643D01*
X12112500Y-15335357D01*
X12098214Y-15306786D01*
X12083928Y-15292500D01*
X12055357Y-15278214D01*
X11998214Y-15278214D01*
X11969643Y-15292500D01*
X11955357Y-15306786D01*
X11941071Y-15335357D01*
X11941071Y-15406786D01*
X11955357Y-15435357D01*
X11969643Y-15449643D01*
X11998214Y-15463929D01*
X12055357Y-15463929D01*
X12083928Y-15449643D01*
X12098214Y-15435357D01*
X12112500Y-15406786D01*
X12226786Y-15278214D02*
X12226786Y-15335357D01*
X12341071Y-15278214D02*
X12341071Y-15335357D01*
X12783928Y-15692500D02*
X12769643Y-15678214D01*
X12741071Y-15635357D01*
X12726786Y-15606786D01*
X12712500Y-15563929D01*
X12698214Y-15492500D01*
X12698214Y-15435357D01*
X12712500Y-15363929D01*
X12726786Y-15321071D01*
X12741071Y-15292500D01*
X12769643Y-15249643D01*
X12783928Y-15235357D01*
X12883928Y-15306786D02*
X12898214Y-15292500D01*
X12926786Y-15278214D01*
X12998214Y-15278214D01*
X13026786Y-15292500D01*
X13041071Y-15306786D01*
X13055357Y-15335357D01*
X13055357Y-15363929D01*
X13041071Y-15406786D01*
X12869643Y-15578214D01*
X13055357Y-15578214D01*
X13312500Y-15378214D02*
X13312500Y-15578214D01*
X13241071Y-15263929D02*
X13169643Y-15478214D01*
X13355357Y-15478214D01*
X13698214Y-15578214D02*
X13698214Y-15278214D01*
X13826786Y-15578214D02*
X13826786Y-15421071D01*
X13812500Y-15392500D01*
X13783928Y-15378214D01*
X13741071Y-15378214D01*
X13712500Y-15392500D01*
X13698214Y-15406786D01*
X14012500Y-15578214D02*
X13983928Y-15563929D01*
X13969643Y-15549643D01*
X13955357Y-15521071D01*
X13955357Y-15435357D01*
X13969643Y-15406786D01*
X13983928Y-15392500D01*
X14012500Y-15378214D01*
X14055357Y-15378214D01*
X14083928Y-15392500D01*
X14098214Y-15406786D01*
X14112500Y-15435357D01*
X14112500Y-15521071D01*
X14098214Y-15549643D01*
X14083928Y-15563929D01*
X14055357Y-15578214D01*
X14012500Y-15578214D01*
X14283928Y-15578214D02*
X14255357Y-15563929D01*
X14241071Y-15535357D01*
X14241071Y-15278214D01*
X14512500Y-15563929D02*
X14483928Y-15578214D01*
X14426786Y-15578214D01*
X14398214Y-15563929D01*
X14383928Y-15535357D01*
X14383928Y-15421071D01*
X14398214Y-15392500D01*
X14426786Y-15378214D01*
X14483928Y-15378214D01*
X14512500Y-15392500D01*
X14526786Y-15421071D01*
X14526786Y-15449643D01*
X14383928Y-15478214D01*
X14641071Y-15563929D02*
X14669643Y-15578214D01*
X14726786Y-15578214D01*
X14755357Y-15563929D01*
X14769643Y-15535357D01*
X14769643Y-15521071D01*
X14755357Y-15492500D01*
X14726786Y-15478214D01*
X14683928Y-15478214D01*
X14655357Y-15463929D01*
X14641071Y-15435357D01*
X14641071Y-15421071D01*
X14655357Y-15392500D01*
X14683928Y-15378214D01*
X14726786Y-15378214D01*
X14755357Y-15392500D01*
X14869643Y-15692500D02*
X14883928Y-15678214D01*
X14912500Y-15635357D01*
X14926786Y-15606786D01*
X14941071Y-15563929D01*
X14955357Y-15492500D01*
X14955357Y-15435357D01*
X14941071Y-15363929D01*
X14926786Y-15321071D01*
X14912500Y-15292500D01*
X14883928Y-15249643D01*
X14869643Y-15235357D01*
X7995500Y-15787500D02*
X8097500Y-15889500D01*
X8097500Y-15787500D02*
X7995500Y-15889500D01*
X8046500Y-15787500D02*
X8046500Y-15889500D01*
X7995500Y-15838500D02*
X8097500Y-15838500D01*
X8541071Y-15974214D02*
X8369643Y-15974214D01*
X8455357Y-15974214D02*
X8455357Y-15674214D01*
X8426786Y-15717071D01*
X8398214Y-15745643D01*
X8369643Y-15759929D01*
X8669643Y-15945643D02*
X8683928Y-15959929D01*
X8669643Y-15974214D01*
X8655357Y-15959929D01*
X8669643Y-15945643D01*
X8669643Y-15974214D01*
X8869643Y-15674214D02*
X8898214Y-15674214D01*
X8926786Y-15688500D01*
X8941071Y-15702786D01*
X8955357Y-15731357D01*
X8969643Y-15788500D01*
X8969643Y-15859929D01*
X8955357Y-15917071D01*
X8941071Y-15945643D01*
X8926786Y-15959929D01*
X8898214Y-15974214D01*
X8869643Y-15974214D01*
X8841071Y-15959929D01*
X8826786Y-15945643D01*
X8812500Y-15917071D01*
X8798214Y-15859929D01*
X8798214Y-15788500D01*
X8812500Y-15731357D01*
X8826786Y-15702786D01*
X8841071Y-15688500D01*
X8869643Y-15674214D01*
X9083928Y-15702786D02*
X9098214Y-15688500D01*
X9126786Y-15674214D01*
X9198214Y-15674214D01*
X9226786Y-15688500D01*
X9241071Y-15702786D01*
X9255357Y-15731357D01*
X9255357Y-15759929D01*
X9241071Y-15802786D01*
X9069643Y-15974214D01*
X9255357Y-15974214D01*
X9383928Y-15974214D02*
X9383928Y-15774214D01*
X9383928Y-15802786D02*
X9398214Y-15788500D01*
X9426786Y-15774214D01*
X9469643Y-15774214D01*
X9498214Y-15788500D01*
X9512500Y-15817071D01*
X9512500Y-15974214D01*
X9512500Y-15817071D02*
X9526786Y-15788500D01*
X9555357Y-15774214D01*
X9598214Y-15774214D01*
X9626786Y-15788500D01*
X9641071Y-15817071D01*
X9641071Y-15974214D01*
X9783928Y-15974214D02*
X9783928Y-15774214D01*
X9783928Y-15802786D02*
X9798214Y-15788500D01*
X9826786Y-15774214D01*
X9869643Y-15774214D01*
X9898214Y-15788500D01*
X9912500Y-15817071D01*
X9912500Y-15974214D01*
X9912500Y-15817071D02*
X9926786Y-15788500D01*
X9955357Y-15774214D01*
X9998214Y-15774214D01*
X10026786Y-15788500D01*
X10041071Y-15817071D01*
X10041071Y-15974214D01*
X10626786Y-15659929D02*
X10369643Y-16045643D01*
X11012500Y-15674214D02*
X11041071Y-15674214D01*
X11069643Y-15688500D01*
X11083928Y-15702786D01*
X11098214Y-15731357D01*
X11112500Y-15788500D01*
X11112500Y-15859929D01*
X11098214Y-15917071D01*
X11083928Y-15945643D01*
X11069643Y-15959929D01*
X11041071Y-15974214D01*
X11012500Y-15974214D01*
X10983928Y-15959929D01*
X10969643Y-15945643D01*
X10955357Y-15917071D01*
X10941071Y-15859929D01*
X10941071Y-15788500D01*
X10955357Y-15731357D01*
X10969643Y-15702786D01*
X10983928Y-15688500D01*
X11012500Y-15674214D01*
X11241071Y-15945643D02*
X11255357Y-15959929D01*
X11241071Y-15974214D01*
X11226786Y-15959929D01*
X11241071Y-15945643D01*
X11241071Y-15974214D01*
X11441071Y-15674214D02*
X11469643Y-15674214D01*
X11498214Y-15688500D01*
X11512500Y-15702786D01*
X11526786Y-15731357D01*
X11541071Y-15788500D01*
X11541071Y-15859929D01*
X11526786Y-15917071D01*
X11512500Y-15945643D01*
X11498214Y-15959929D01*
X11469643Y-15974214D01*
X11441071Y-15974214D01*
X11412500Y-15959929D01*
X11398214Y-15945643D01*
X11383928Y-15917071D01*
X11369643Y-15859929D01*
X11369643Y-15788500D01*
X11383928Y-15731357D01*
X11398214Y-15702786D01*
X11412500Y-15688500D01*
X11441071Y-15674214D01*
X11798214Y-15774214D02*
X11798214Y-15974214D01*
X11726786Y-15659929D02*
X11655357Y-15874214D01*
X11841071Y-15874214D01*
X12012500Y-15674214D02*
X12041071Y-15674214D01*
X12069643Y-15688500D01*
X12083928Y-15702786D01*
X12098214Y-15731357D01*
X12112500Y-15788500D01*
X12112500Y-15859929D01*
X12098214Y-15917071D01*
X12083928Y-15945643D01*
X12069643Y-15959929D01*
X12041071Y-15974214D01*
X12012500Y-15974214D01*
X11983928Y-15959929D01*
X11969643Y-15945643D01*
X11955357Y-15917071D01*
X11941071Y-15859929D01*
X11941071Y-15788500D01*
X11955357Y-15731357D01*
X11969643Y-15702786D01*
X11983928Y-15688500D01*
X12012500Y-15674214D01*
X12226786Y-15674214D02*
X12226786Y-15731357D01*
X12341071Y-15674214D02*
X12341071Y-15731357D01*
X12783928Y-16088500D02*
X12769643Y-16074214D01*
X12741071Y-16031357D01*
X12726786Y-16002786D01*
X12712500Y-15959929D01*
X12698214Y-15888500D01*
X12698214Y-15831357D01*
X12712500Y-15759929D01*
X12726786Y-15717071D01*
X12741071Y-15688500D01*
X12769643Y-15645643D01*
X12783928Y-15631357D01*
X12869643Y-15674214D02*
X13055357Y-15674214D01*
X12955357Y-15788500D01*
X12998214Y-15788500D01*
X13026786Y-15802786D01*
X13041071Y-15817071D01*
X13055357Y-15845643D01*
X13055357Y-15917071D01*
X13041071Y-15945643D01*
X13026786Y-15959929D01*
X12998214Y-15974214D01*
X12912500Y-15974214D01*
X12883928Y-15959929D01*
X12869643Y-15945643D01*
X13326786Y-15674214D02*
X13183928Y-15674214D01*
X13169643Y-15817071D01*
X13183928Y-15802786D01*
X13212500Y-15788500D01*
X13283928Y-15788500D01*
X13312500Y-15802786D01*
X13326786Y-15817071D01*
X13341071Y-15845643D01*
X13341071Y-15917071D01*
X13326786Y-15945643D01*
X13312500Y-15959929D01*
X13283928Y-15974214D01*
X13212500Y-15974214D01*
X13183928Y-15959929D01*
X13169643Y-15945643D01*
X13698214Y-15974214D02*
X13698214Y-15674214D01*
X13826786Y-15974214D02*
X13826786Y-15817071D01*
X13812500Y-15788500D01*
X13783928Y-15774214D01*
X13741071Y-15774214D01*
X13712500Y-15788500D01*
X13698214Y-15802786D01*
X14012500Y-15974214D02*
X13983928Y-15959929D01*
X13969643Y-15945643D01*
X13955357Y-15917071D01*
X13955357Y-15831357D01*
X13969643Y-15802786D01*
X13983928Y-15788500D01*
X14012500Y-15774214D01*
X14055357Y-15774214D01*
X14083928Y-15788500D01*
X14098214Y-15802786D01*
X14112500Y-15831357D01*
X14112500Y-15917071D01*
X14098214Y-15945643D01*
X14083928Y-15959929D01*
X14055357Y-15974214D01*
X14012500Y-15974214D01*
X14283928Y-15974214D02*
X14255357Y-15959929D01*
X14241071Y-15931357D01*
X14241071Y-15674214D01*
X14512500Y-15959929D02*
X14483928Y-15974214D01*
X14426786Y-15974214D01*
X14398214Y-15959929D01*
X14383928Y-15931357D01*
X14383928Y-15817071D01*
X14398214Y-15788500D01*
X14426786Y-15774214D01*
X14483928Y-15774214D01*
X14512500Y-15788500D01*
X14526786Y-15817071D01*
X14526786Y-15845643D01*
X14383928Y-15874214D01*
X14641071Y-15959929D02*
X14669643Y-15974214D01*
X14726786Y-15974214D01*
X14755357Y-15959929D01*
X14769643Y-15931357D01*
X14769643Y-15917071D01*
X14755357Y-15888500D01*
X14726786Y-15874214D01*
X14683928Y-15874214D01*
X14655357Y-15859929D01*
X14641071Y-15831357D01*
X14641071Y-15817071D01*
X14655357Y-15788500D01*
X14683928Y-15774214D01*
X14726786Y-15774214D01*
X14755357Y-15788500D01*
X14869643Y-16088500D02*
X14883928Y-16074214D01*
X14912500Y-16031357D01*
X14926786Y-16002786D01*
X14941071Y-15959929D01*
X14955357Y-15888500D01*
X14955357Y-15831357D01*
X14941071Y-15759929D01*
X14926786Y-15717071D01*
X14912500Y-15688500D01*
X14883928Y-15645643D01*
X14869643Y-15631357D01*
X7977500Y-16174500D02*
X8097500Y-16294500D01*
X8097500Y-16174500D02*
X7977500Y-16294500D01*
X8079927Y-16276927D02*
X8079927Y-16192073D01*
X7995073Y-16192073D01*
X7995073Y-16276927D01*
X8079927Y-16276927D01*
X8541071Y-16370214D02*
X8369643Y-16370214D01*
X8455357Y-16370214D02*
X8455357Y-16070214D01*
X8426786Y-16113071D01*
X8398214Y-16141643D01*
X8369643Y-16155929D01*
X8669643Y-16341643D02*
X8683928Y-16355929D01*
X8669643Y-16370214D01*
X8655357Y-16355929D01*
X8669643Y-16341643D01*
X8669643Y-16370214D01*
X8798214Y-16098786D02*
X8812500Y-16084500D01*
X8841071Y-16070214D01*
X8912500Y-16070214D01*
X8941071Y-16084500D01*
X8955357Y-16098786D01*
X8969643Y-16127357D01*
X8969643Y-16155929D01*
X8955357Y-16198786D01*
X8783928Y-16370214D01*
X8969643Y-16370214D01*
X9155357Y-16070214D02*
X9183928Y-16070214D01*
X9212500Y-16084500D01*
X9226786Y-16098786D01*
X9241071Y-16127357D01*
X9255357Y-16184500D01*
X9255357Y-16255929D01*
X9241071Y-16313071D01*
X9226786Y-16341643D01*
X9212500Y-16355929D01*
X9183928Y-16370214D01*
X9155357Y-16370214D01*
X9126786Y-16355929D01*
X9112500Y-16341643D01*
X9098214Y-16313071D01*
X9083928Y-16255929D01*
X9083928Y-16184500D01*
X9098214Y-16127357D01*
X9112500Y-16098786D01*
X9126786Y-16084500D01*
X9155357Y-16070214D01*
X9383928Y-16370214D02*
X9383928Y-16170214D01*
X9383928Y-16198786D02*
X9398214Y-16184500D01*
X9426786Y-16170214D01*
X9469643Y-16170214D01*
X9498214Y-16184500D01*
X9512500Y-16213071D01*
X9512500Y-16370214D01*
X9512500Y-16213071D02*
X9526786Y-16184500D01*
X9555357Y-16170214D01*
X9598214Y-16170214D01*
X9626786Y-16184500D01*
X9641071Y-16213071D01*
X9641071Y-16370214D01*
X9783928Y-16370214D02*
X9783928Y-16170214D01*
X9783928Y-16198786D02*
X9798214Y-16184500D01*
X9826786Y-16170214D01*
X9869643Y-16170214D01*
X9898214Y-16184500D01*
X9912500Y-16213071D01*
X9912500Y-16370214D01*
X9912500Y-16213071D02*
X9926786Y-16184500D01*
X9955357Y-16170214D01*
X9998214Y-16170214D01*
X10026786Y-16184500D01*
X10041071Y-16213071D01*
X10041071Y-16370214D01*
X10626786Y-16055929D02*
X10369643Y-16441643D01*
X11012500Y-16070214D02*
X11041071Y-16070214D01*
X11069643Y-16084500D01*
X11083928Y-16098786D01*
X11098214Y-16127357D01*
X11112500Y-16184500D01*
X11112500Y-16255929D01*
X11098214Y-16313071D01*
X11083928Y-16341643D01*
X11069643Y-16355929D01*
X11041071Y-16370214D01*
X11012500Y-16370214D01*
X10983928Y-16355929D01*
X10969643Y-16341643D01*
X10955357Y-16313071D01*
X10941071Y-16255929D01*
X10941071Y-16184500D01*
X10955357Y-16127357D01*
X10969643Y-16098786D01*
X10983928Y-16084500D01*
X11012500Y-16070214D01*
X11241071Y-16341643D02*
X11255357Y-16355929D01*
X11241071Y-16370214D01*
X11226786Y-16355929D01*
X11241071Y-16341643D01*
X11241071Y-16370214D01*
X11441071Y-16070214D02*
X11469643Y-16070214D01*
X11498214Y-16084500D01*
X11512500Y-16098786D01*
X11526786Y-16127357D01*
X11541071Y-16184500D01*
X11541071Y-16255929D01*
X11526786Y-16313071D01*
X11512500Y-16341643D01*
X11498214Y-16355929D01*
X11469643Y-16370214D01*
X11441071Y-16370214D01*
X11412500Y-16355929D01*
X11398214Y-16341643D01*
X11383928Y-16313071D01*
X11369643Y-16255929D01*
X11369643Y-16184500D01*
X11383928Y-16127357D01*
X11398214Y-16098786D01*
X11412500Y-16084500D01*
X11441071Y-16070214D01*
X11798214Y-16170214D02*
X11798214Y-16370214D01*
X11726786Y-16055929D02*
X11655357Y-16270214D01*
X11841071Y-16270214D01*
X11926786Y-16070214D02*
X12126786Y-16070214D01*
X11998214Y-16370214D01*
X12226786Y-16070214D02*
X12226786Y-16127357D01*
X12341071Y-16070214D02*
X12341071Y-16127357D01*
X12783928Y-16484500D02*
X12769643Y-16470214D01*
X12741071Y-16427357D01*
X12726786Y-16398786D01*
X12712500Y-16355929D01*
X12698214Y-16284500D01*
X12698214Y-16227357D01*
X12712500Y-16155929D01*
X12726786Y-16113071D01*
X12741071Y-16084500D01*
X12769643Y-16041643D01*
X12783928Y-16027357D01*
X12883928Y-16098786D02*
X12898214Y-16084500D01*
X12926786Y-16070214D01*
X12998214Y-16070214D01*
X13026786Y-16084500D01*
X13041071Y-16098786D01*
X13055357Y-16127357D01*
X13055357Y-16155929D01*
X13041071Y-16198786D01*
X12869643Y-16370214D01*
X13055357Y-16370214D01*
X13169643Y-16098786D02*
X13183928Y-16084500D01*
X13212500Y-16070214D01*
X13283928Y-16070214D01*
X13312500Y-16084500D01*
X13326786Y-16098786D01*
X13341071Y-16127357D01*
X13341071Y-16155929D01*
X13326786Y-16198786D01*
X13155357Y-16370214D01*
X13341071Y-16370214D01*
X13698214Y-16370214D02*
X13698214Y-16070214D01*
X13826786Y-16370214D02*
X13826786Y-16213071D01*
X13812500Y-16184500D01*
X13783928Y-16170214D01*
X13741071Y-16170214D01*
X13712500Y-16184500D01*
X13698214Y-16198786D01*
X14012500Y-16370214D02*
X13983928Y-16355929D01*
X13969643Y-16341643D01*
X13955357Y-16313071D01*
X13955357Y-16227357D01*
X13969643Y-16198786D01*
X13983928Y-16184500D01*
X14012500Y-16170214D01*
X14055357Y-16170214D01*
X14083928Y-16184500D01*
X14098214Y-16198786D01*
X14112500Y-16227357D01*
X14112500Y-16313071D01*
X14098214Y-16341643D01*
X14083928Y-16355929D01*
X14055357Y-16370214D01*
X14012500Y-16370214D01*
X14283928Y-16370214D02*
X14255357Y-16355929D01*
X14241071Y-16327357D01*
X14241071Y-16070214D01*
X14512500Y-16355929D02*
X14483928Y-16370214D01*
X14426786Y-16370214D01*
X14398214Y-16355929D01*
X14383928Y-16327357D01*
X14383928Y-16213071D01*
X14398214Y-16184500D01*
X14426786Y-16170214D01*
X14483928Y-16170214D01*
X14512500Y-16184500D01*
X14526786Y-16213071D01*
X14526786Y-16241643D01*
X14383928Y-16270214D01*
X14641071Y-16355929D02*
X14669643Y-16370214D01*
X14726786Y-16370214D01*
X14755357Y-16355929D01*
X14769643Y-16327357D01*
X14769643Y-16313071D01*
X14755357Y-16284500D01*
X14726786Y-16270214D01*
X14683928Y-16270214D01*
X14655357Y-16255929D01*
X14641071Y-16227357D01*
X14641071Y-16213071D01*
X14655357Y-16184500D01*
X14683928Y-16170214D01*
X14726786Y-16170214D01*
X14755357Y-16184500D01*
X14869643Y-16484500D02*
X14883928Y-16470214D01*
X14912500Y-16427357D01*
X14926786Y-16398786D01*
X14941071Y-16355929D01*
X14955357Y-16284500D01*
X14955357Y-16227357D01*
X14941071Y-16155929D01*
X14926786Y-16113071D01*
X14912500Y-16084500D01*
X14883928Y-16041643D01*
X14869643Y-16027357D01*
X7967500Y-16565500D02*
X8097500Y-16695500D01*
X8097500Y-16565500D02*
X7967500Y-16695500D01*
X8032500Y-16695500D02*
X8097500Y-16630500D01*
X8032500Y-16565500D01*
X7967500Y-16630500D01*
X8032500Y-16695500D01*
X8541071Y-16766214D02*
X8369643Y-16766214D01*
X8455357Y-16766214D02*
X8455357Y-16466214D01*
X8426786Y-16509071D01*
X8398214Y-16537643D01*
X8369643Y-16551929D01*
X8669643Y-16737643D02*
X8683928Y-16751929D01*
X8669643Y-16766214D01*
X8655357Y-16751929D01*
X8669643Y-16737643D01*
X8669643Y-16766214D01*
X8783928Y-16466214D02*
X8969643Y-16466214D01*
X8869643Y-16580500D01*
X8912500Y-16580500D01*
X8941071Y-16594786D01*
X8955357Y-16609071D01*
X8969643Y-16637643D01*
X8969643Y-16709071D01*
X8955357Y-16737643D01*
X8941071Y-16751929D01*
X8912500Y-16766214D01*
X8826786Y-16766214D01*
X8798214Y-16751929D01*
X8783928Y-16737643D01*
X9155357Y-16466214D02*
X9183928Y-16466214D01*
X9212500Y-16480500D01*
X9226786Y-16494786D01*
X9241071Y-16523357D01*
X9255357Y-16580500D01*
X9255357Y-16651929D01*
X9241071Y-16709071D01*
X9226786Y-16737643D01*
X9212500Y-16751929D01*
X9183928Y-16766214D01*
X9155357Y-16766214D01*
X9126786Y-16751929D01*
X9112500Y-16737643D01*
X9098214Y-16709071D01*
X9083928Y-16651929D01*
X9083928Y-16580500D01*
X9098214Y-16523357D01*
X9112500Y-16494786D01*
X9126786Y-16480500D01*
X9155357Y-16466214D01*
X9383928Y-16766214D02*
X9383928Y-16566214D01*
X9383928Y-16594786D02*
X9398214Y-16580500D01*
X9426786Y-16566214D01*
X9469643Y-16566214D01*
X9498214Y-16580500D01*
X9512500Y-16609071D01*
X9512500Y-16766214D01*
X9512500Y-16609071D02*
X9526786Y-16580500D01*
X9555357Y-16566214D01*
X9598214Y-16566214D01*
X9626786Y-16580500D01*
X9641071Y-16609071D01*
X9641071Y-16766214D01*
X9783928Y-16766214D02*
X9783928Y-16566214D01*
X9783928Y-16594786D02*
X9798214Y-16580500D01*
X9826786Y-16566214D01*
X9869643Y-16566214D01*
X9898214Y-16580500D01*
X9912500Y-16609071D01*
X9912500Y-16766214D01*
X9912500Y-16609071D02*
X9926786Y-16580500D01*
X9955357Y-16566214D01*
X9998214Y-16566214D01*
X10026786Y-16580500D01*
X10041071Y-16609071D01*
X10041071Y-16766214D01*
X10626786Y-16451929D02*
X10369643Y-16837643D01*
X11012500Y-16466214D02*
X11041071Y-16466214D01*
X11069643Y-16480500D01*
X11083928Y-16494786D01*
X11098214Y-16523357D01*
X11112500Y-16580500D01*
X11112500Y-16651929D01*
X11098214Y-16709071D01*
X11083928Y-16737643D01*
X11069643Y-16751929D01*
X11041071Y-16766214D01*
X11012500Y-16766214D01*
X10983928Y-16751929D01*
X10969643Y-16737643D01*
X10955357Y-16709071D01*
X10941071Y-16651929D01*
X10941071Y-16580500D01*
X10955357Y-16523357D01*
X10969643Y-16494786D01*
X10983928Y-16480500D01*
X11012500Y-16466214D01*
X11241071Y-16737643D02*
X11255357Y-16751929D01*
X11241071Y-16766214D01*
X11226786Y-16751929D01*
X11241071Y-16737643D01*
X11241071Y-16766214D01*
X11441071Y-16466214D02*
X11469643Y-16466214D01*
X11498214Y-16480500D01*
X11512500Y-16494786D01*
X11526786Y-16523357D01*
X11541071Y-16580500D01*
X11541071Y-16651929D01*
X11526786Y-16709071D01*
X11512500Y-16737643D01*
X11498214Y-16751929D01*
X11469643Y-16766214D01*
X11441071Y-16766214D01*
X11412500Y-16751929D01*
X11398214Y-16737643D01*
X11383928Y-16709071D01*
X11369643Y-16651929D01*
X11369643Y-16580500D01*
X11383928Y-16523357D01*
X11398214Y-16494786D01*
X11412500Y-16480500D01*
X11441071Y-16466214D01*
X11812500Y-16466214D02*
X11669643Y-16466214D01*
X11655357Y-16609071D01*
X11669643Y-16594786D01*
X11698214Y-16580500D01*
X11769643Y-16580500D01*
X11798214Y-16594786D01*
X11812500Y-16609071D01*
X11826786Y-16637643D01*
X11826786Y-16709071D01*
X11812500Y-16737643D01*
X11798214Y-16751929D01*
X11769643Y-16766214D01*
X11698214Y-16766214D01*
X11669643Y-16751929D01*
X11655357Y-16737643D01*
X12112500Y-16766214D02*
X11941071Y-16766214D01*
X12026786Y-16766214D02*
X12026786Y-16466214D01*
X11998214Y-16509071D01*
X11969643Y-16537643D01*
X11941071Y-16551929D01*
X12226786Y-16466214D02*
X12226786Y-16523357D01*
X12341071Y-16466214D02*
X12341071Y-16523357D01*
X12783928Y-16880500D02*
X12769643Y-16866214D01*
X12741071Y-16823357D01*
X12726786Y-16794786D01*
X12712500Y-16751929D01*
X12698214Y-16680500D01*
X12698214Y-16623357D01*
X12712500Y-16551929D01*
X12726786Y-16509071D01*
X12741071Y-16480500D01*
X12769643Y-16437643D01*
X12783928Y-16423357D01*
X13055357Y-16766214D02*
X12883928Y-16766214D01*
X12969643Y-16766214D02*
X12969643Y-16466214D01*
X12941071Y-16509071D01*
X12912500Y-16537643D01*
X12883928Y-16551929D01*
X13198214Y-16766214D02*
X13255357Y-16766214D01*
X13283928Y-16751929D01*
X13298214Y-16737643D01*
X13326786Y-16694786D01*
X13341071Y-16637643D01*
X13341071Y-16523357D01*
X13326786Y-16494786D01*
X13312500Y-16480500D01*
X13283928Y-16466214D01*
X13226786Y-16466214D01*
X13198214Y-16480500D01*
X13183928Y-16494786D01*
X13169643Y-16523357D01*
X13169643Y-16594786D01*
X13183928Y-16623357D01*
X13198214Y-16637643D01*
X13226786Y-16651929D01*
X13283928Y-16651929D01*
X13312500Y-16637643D01*
X13326786Y-16623357D01*
X13341071Y-16594786D01*
X13698214Y-16766214D02*
X13698214Y-16466214D01*
X13826786Y-16766214D02*
X13826786Y-16609071D01*
X13812500Y-16580500D01*
X13783928Y-16566214D01*
X13741071Y-16566214D01*
X13712500Y-16580500D01*
X13698214Y-16594786D01*
X14012500Y-16766214D02*
X13983928Y-16751929D01*
X13969643Y-16737643D01*
X13955357Y-16709071D01*
X13955357Y-16623357D01*
X13969643Y-16594786D01*
X13983928Y-16580500D01*
X14012500Y-16566214D01*
X14055357Y-16566214D01*
X14083928Y-16580500D01*
X14098214Y-16594786D01*
X14112500Y-16623357D01*
X14112500Y-16709071D01*
X14098214Y-16737643D01*
X14083928Y-16751929D01*
X14055357Y-16766214D01*
X14012500Y-16766214D01*
X14283928Y-16766214D02*
X14255357Y-16751929D01*
X14241071Y-16723357D01*
X14241071Y-16466214D01*
X14512500Y-16751929D02*
X14483928Y-16766214D01*
X14426786Y-16766214D01*
X14398214Y-16751929D01*
X14383928Y-16723357D01*
X14383928Y-16609071D01*
X14398214Y-16580500D01*
X14426786Y-16566214D01*
X14483928Y-16566214D01*
X14512500Y-16580500D01*
X14526786Y-16609071D01*
X14526786Y-16637643D01*
X14383928Y-16666214D01*
X14641071Y-16751929D02*
X14669643Y-16766214D01*
X14726786Y-16766214D01*
X14755357Y-16751929D01*
X14769643Y-16723357D01*
X14769643Y-16709071D01*
X14755357Y-16680500D01*
X14726786Y-16666214D01*
X14683928Y-16666214D01*
X14655357Y-16651929D01*
X14641071Y-16623357D01*
X14641071Y-16609071D01*
X14655357Y-16580500D01*
X14683928Y-16566214D01*
X14726786Y-16566214D01*
X14755357Y-16580500D01*
X14869643Y-16880500D02*
X14883928Y-16866214D01*
X14912500Y-16823357D01*
X14926786Y-16794786D01*
X14941071Y-16751929D01*
X14955357Y-16680500D01*
X14955357Y-16623357D01*
X14941071Y-16551929D01*
X14926786Y-16509071D01*
X14912500Y-16480500D01*
X14883928Y-16437643D01*
X14869643Y-16423357D01*
X8030000Y-16959000D02*
X8030000Y-17094000D01*
X7962500Y-17026500D02*
X8097500Y-17026500D01*
X8097500Y-17026500D02*
G75*
G03*
X8097500Y-17026500I-67500J0D01*
G01*
X8541071Y-17162214D02*
X8369643Y-17162214D01*
X8455357Y-17162214D02*
X8455357Y-16862214D01*
X8426786Y-16905072D01*
X8398214Y-16933643D01*
X8369643Y-16947929D01*
X8669643Y-17133643D02*
X8683928Y-17147929D01*
X8669643Y-17162214D01*
X8655357Y-17147929D01*
X8669643Y-17133643D01*
X8669643Y-17162214D01*
X8783928Y-16862214D02*
X8969643Y-16862214D01*
X8869643Y-16976500D01*
X8912500Y-16976500D01*
X8941071Y-16990786D01*
X8955357Y-17005072D01*
X8969643Y-17033643D01*
X8969643Y-17105072D01*
X8955357Y-17133643D01*
X8941071Y-17147929D01*
X8912500Y-17162214D01*
X8826786Y-17162214D01*
X8798214Y-17147929D01*
X8783928Y-17133643D01*
X9241071Y-16862214D02*
X9098214Y-16862214D01*
X9083928Y-17005072D01*
X9098214Y-16990786D01*
X9126786Y-16976500D01*
X9198214Y-16976500D01*
X9226786Y-16990786D01*
X9241071Y-17005072D01*
X9255357Y-17033643D01*
X9255357Y-17105072D01*
X9241071Y-17133643D01*
X9226786Y-17147929D01*
X9198214Y-17162214D01*
X9126786Y-17162214D01*
X9098214Y-17147929D01*
X9083928Y-17133643D01*
X9383928Y-17162214D02*
X9383928Y-16962214D01*
X9383928Y-16990786D02*
X9398214Y-16976500D01*
X9426786Y-16962214D01*
X9469643Y-16962214D01*
X9498214Y-16976500D01*
X9512500Y-17005072D01*
X9512500Y-17162214D01*
X9512500Y-17005072D02*
X9526786Y-16976500D01*
X9555357Y-16962214D01*
X9598214Y-16962214D01*
X9626786Y-16976500D01*
X9641071Y-17005072D01*
X9641071Y-17162214D01*
X9783928Y-17162214D02*
X9783928Y-16962214D01*
X9783928Y-16990786D02*
X9798214Y-16976500D01*
X9826786Y-16962214D01*
X9869643Y-16962214D01*
X9898214Y-16976500D01*
X9912500Y-17005072D01*
X9912500Y-17162214D01*
X9912500Y-17005072D02*
X9926786Y-16976500D01*
X9955357Y-16962214D01*
X9998214Y-16962214D01*
X10026786Y-16976500D01*
X10041071Y-17005072D01*
X10041071Y-17162214D01*
X10626786Y-16847929D02*
X10369643Y-17233643D01*
X11012500Y-16862214D02*
X11041071Y-16862214D01*
X11069643Y-16876500D01*
X11083928Y-16890786D01*
X11098214Y-16919357D01*
X11112500Y-16976500D01*
X11112500Y-17047929D01*
X11098214Y-17105072D01*
X11083928Y-17133643D01*
X11069643Y-17147929D01*
X11041071Y-17162214D01*
X11012500Y-17162214D01*
X10983928Y-17147929D01*
X10969643Y-17133643D01*
X10955357Y-17105072D01*
X10941071Y-17047929D01*
X10941071Y-16976500D01*
X10955357Y-16919357D01*
X10969643Y-16890786D01*
X10983928Y-16876500D01*
X11012500Y-16862214D01*
X11241071Y-17133643D02*
X11255357Y-17147929D01*
X11241071Y-17162214D01*
X11226786Y-17147929D01*
X11241071Y-17133643D01*
X11241071Y-17162214D01*
X11441071Y-16862214D02*
X11469643Y-16862214D01*
X11498214Y-16876500D01*
X11512500Y-16890786D01*
X11526786Y-16919357D01*
X11541071Y-16976500D01*
X11541071Y-17047929D01*
X11526786Y-17105072D01*
X11512500Y-17133643D01*
X11498214Y-17147929D01*
X11469643Y-17162214D01*
X11441071Y-17162214D01*
X11412500Y-17147929D01*
X11398214Y-17133643D01*
X11383928Y-17105072D01*
X11369643Y-17047929D01*
X11369643Y-16976500D01*
X11383928Y-16919357D01*
X11398214Y-16890786D01*
X11412500Y-16876500D01*
X11441071Y-16862214D01*
X11812500Y-16862214D02*
X11669643Y-16862214D01*
X11655357Y-17005072D01*
X11669643Y-16990786D01*
X11698214Y-16976500D01*
X11769643Y-16976500D01*
X11798214Y-16990786D01*
X11812500Y-17005072D01*
X11826786Y-17033643D01*
X11826786Y-17105072D01*
X11812500Y-17133643D01*
X11798214Y-17147929D01*
X11769643Y-17162214D01*
X11698214Y-17162214D01*
X11669643Y-17147929D01*
X11655357Y-17133643D01*
X11926786Y-16862214D02*
X12112500Y-16862214D01*
X12012500Y-16976500D01*
X12055357Y-16976500D01*
X12083928Y-16990786D01*
X12098214Y-17005072D01*
X12112500Y-17033643D01*
X12112500Y-17105072D01*
X12098214Y-17133643D01*
X12083928Y-17147929D01*
X12055357Y-17162214D01*
X11969643Y-17162214D01*
X11941071Y-17147929D01*
X11926786Y-17133643D01*
X12226786Y-16862214D02*
X12226786Y-16919357D01*
X12341071Y-16862214D02*
X12341071Y-16919357D01*
X12783928Y-17276500D02*
X12769643Y-17262214D01*
X12741071Y-17219357D01*
X12726786Y-17190786D01*
X12712500Y-17147929D01*
X12698214Y-17076500D01*
X12698214Y-17019357D01*
X12712500Y-16947929D01*
X12726786Y-16905072D01*
X12741071Y-16876500D01*
X12769643Y-16833643D01*
X12783928Y-16819357D01*
X13026786Y-16962214D02*
X13026786Y-17162214D01*
X12955357Y-16847929D02*
X12883928Y-17062214D01*
X13069643Y-17062214D01*
X13412500Y-17162214D02*
X13412500Y-16862214D01*
X13541071Y-17162214D02*
X13541071Y-17005072D01*
X13526786Y-16976500D01*
X13498214Y-16962214D01*
X13455357Y-16962214D01*
X13426786Y-16976500D01*
X13412500Y-16990786D01*
X13726786Y-17162214D02*
X13698214Y-17147929D01*
X13683928Y-17133643D01*
X13669643Y-17105072D01*
X13669643Y-17019357D01*
X13683928Y-16990786D01*
X13698214Y-16976500D01*
X13726786Y-16962214D01*
X13769643Y-16962214D01*
X13798214Y-16976500D01*
X13812500Y-16990786D01*
X13826786Y-17019357D01*
X13826786Y-17105072D01*
X13812500Y-17133643D01*
X13798214Y-17147929D01*
X13769643Y-17162214D01*
X13726786Y-17162214D01*
X13998214Y-17162214D02*
X13969643Y-17147929D01*
X13955357Y-17119357D01*
X13955357Y-16862214D01*
X14226786Y-17147929D02*
X14198214Y-17162214D01*
X14141071Y-17162214D01*
X14112500Y-17147929D01*
X14098214Y-17119357D01*
X14098214Y-17005072D01*
X14112500Y-16976500D01*
X14141071Y-16962214D01*
X14198214Y-16962214D01*
X14226786Y-16976500D01*
X14241071Y-17005072D01*
X14241071Y-17033643D01*
X14098214Y-17062214D01*
X14355357Y-17147929D02*
X14383928Y-17162214D01*
X14441071Y-17162214D01*
X14469643Y-17147929D01*
X14483928Y-17119357D01*
X14483928Y-17105072D01*
X14469643Y-17076500D01*
X14441071Y-17062214D01*
X14398214Y-17062214D01*
X14369643Y-17047929D01*
X14355357Y-17019357D01*
X14355357Y-17005072D01*
X14369643Y-16976500D01*
X14398214Y-16962214D01*
X14441071Y-16962214D01*
X14469643Y-16976500D01*
X14583928Y-17276500D02*
X14598214Y-17262214D01*
X14626786Y-17219357D01*
X14641071Y-17190786D01*
X14655357Y-17147929D01*
X14669643Y-17076500D01*
X14669643Y-17019357D01*
X14655357Y-16947929D01*
X14641071Y-16905072D01*
X14626786Y-16876500D01*
X14598214Y-16833643D01*
X14583928Y-16819357D01*
M02*
