%FSLAX45Y45*%
G04 Gerber Fmt 4.5, Leading zero omitted, Abs format (unit mm)*
G04 Created by KiCad (PCBNEW 5.1.7-a382d34a8~87~ubuntu18.04.1) date 2020-10-22 00:46:50*
%MOMM*%
%LPD*%
G01*
G04 APERTURE LIST*
%TA.AperFunction,Profile*%
%ADD10C,0.050000*%
%TD*%
%ADD11C,0.200000*%
%ADD12C,0.300000*%
G04 APERTURE END LIST*
D10*
X8100000Y-12500000D02*
X22700000Y-12500000D01*
X8100000Y-6300000D02*
X8100000Y-12500000D01*
X22700000Y-6300000D02*
X8100000Y-6300000D01*
X22700000Y-12500000D02*
X22700000Y-6300000D01*
D11*
X11975000Y-6475000D02*
X12225000Y-6725000D01*
X12225000Y-6475000D02*
X11975000Y-6725000D01*
X18375000Y-6475000D02*
X18625000Y-6725000D01*
X18625000Y-6475000D02*
X18375000Y-6725000D01*
X10675000Y-11425000D02*
X10925000Y-11675000D01*
X10925000Y-11425000D02*
X10675000Y-11675000D01*
X18375000Y-11725000D02*
X18625000Y-11975000D01*
X18625000Y-11725000D02*
X18375000Y-11975000D01*
X20564820Y-11593420D02*
G75*
G03*
X20564820Y-11593420I-135000J0D01*
G01*
X22147240Y-8481920D02*
G75*
G03*
X22147240Y-8481920I-135000J0D01*
G01*
X11069090Y-7325250D02*
G75*
G03*
X11069090Y-7325250I-135000J0D01*
G01*
X11088140Y-9474090D02*
G75*
G03*
X11088140Y-9474090I-135000J0D01*
G01*
X15529330Y-7316360D02*
G75*
G03*
X15529330Y-7316360I-135000J0D01*
G01*
X15548380Y-9465200D02*
G75*
G03*
X15548380Y-9465200I-135000J0D01*
G01*
D12*
X8383928Y-12968214D02*
X8383928Y-12668214D01*
X8455357Y-12668214D01*
X8498214Y-12682500D01*
X8526786Y-12711071D01*
X8541071Y-12739643D01*
X8555357Y-12796786D01*
X8555357Y-12839643D01*
X8541071Y-12896786D01*
X8526786Y-12925357D01*
X8498214Y-12953929D01*
X8455357Y-12968214D01*
X8383928Y-12968214D01*
X8683928Y-12968214D02*
X8683928Y-12768214D01*
X8683928Y-12825357D02*
X8698214Y-12796786D01*
X8712500Y-12782500D01*
X8741071Y-12768214D01*
X8769643Y-12768214D01*
X8869643Y-12968214D02*
X8869643Y-12768214D01*
X8869643Y-12668214D02*
X8855357Y-12682500D01*
X8869643Y-12696786D01*
X8883928Y-12682500D01*
X8869643Y-12668214D01*
X8869643Y-12696786D01*
X9055357Y-12968214D02*
X9026786Y-12953929D01*
X9012500Y-12925357D01*
X9012500Y-12668214D01*
X9212500Y-12968214D02*
X9183928Y-12953929D01*
X9169643Y-12925357D01*
X9169643Y-12668214D01*
X9555357Y-12968214D02*
X9555357Y-12668214D01*
X9655357Y-12882500D01*
X9755357Y-12668214D01*
X9755357Y-12968214D01*
X10026786Y-12968214D02*
X10026786Y-12811071D01*
X10012500Y-12782500D01*
X9983928Y-12768214D01*
X9926786Y-12768214D01*
X9898214Y-12782500D01*
X10026786Y-12953929D02*
X9998214Y-12968214D01*
X9926786Y-12968214D01*
X9898214Y-12953929D01*
X9883928Y-12925357D01*
X9883928Y-12896786D01*
X9898214Y-12868214D01*
X9926786Y-12853929D01*
X9998214Y-12853929D01*
X10026786Y-12839643D01*
X10169643Y-12768214D02*
X10169643Y-13068214D01*
X10169643Y-12782500D02*
X10198214Y-12768214D01*
X10255357Y-12768214D01*
X10283928Y-12782500D01*
X10298214Y-12796786D01*
X10312500Y-12825357D01*
X10312500Y-12911071D01*
X10298214Y-12939643D01*
X10283928Y-12953929D01*
X10255357Y-12968214D01*
X10198214Y-12968214D01*
X10169643Y-12953929D01*
X10441071Y-12939643D02*
X10455357Y-12953929D01*
X10441071Y-12968214D01*
X10426786Y-12953929D01*
X10441071Y-12939643D01*
X10441071Y-12968214D01*
X10441071Y-12782500D02*
X10455357Y-12796786D01*
X10441071Y-12811071D01*
X10426786Y-12796786D01*
X10441071Y-12782500D01*
X10441071Y-12811071D01*
X7847500Y-13337500D02*
X8097500Y-13587500D01*
X8097500Y-13337500D02*
X7847500Y-13587500D01*
X8369643Y-13326786D02*
X8383928Y-13312500D01*
X8412500Y-13298214D01*
X8483928Y-13298214D01*
X8512500Y-13312500D01*
X8526786Y-13326786D01*
X8541071Y-13355357D01*
X8541071Y-13383929D01*
X8526786Y-13426786D01*
X8355357Y-13598214D01*
X8541071Y-13598214D01*
X8669643Y-13569643D02*
X8683928Y-13583929D01*
X8669643Y-13598214D01*
X8655357Y-13583929D01*
X8669643Y-13569643D01*
X8669643Y-13598214D01*
X8955357Y-13298214D02*
X8812500Y-13298214D01*
X8798214Y-13441071D01*
X8812500Y-13426786D01*
X8841071Y-13412500D01*
X8912500Y-13412500D01*
X8941071Y-13426786D01*
X8955357Y-13441071D01*
X8969643Y-13469643D01*
X8969643Y-13541071D01*
X8955357Y-13569643D01*
X8941071Y-13583929D01*
X8912500Y-13598214D01*
X8841071Y-13598214D01*
X8812500Y-13583929D01*
X8798214Y-13569643D01*
X9155357Y-13298214D02*
X9183928Y-13298214D01*
X9212500Y-13312500D01*
X9226786Y-13326786D01*
X9241071Y-13355357D01*
X9255357Y-13412500D01*
X9255357Y-13483929D01*
X9241071Y-13541071D01*
X9226786Y-13569643D01*
X9212500Y-13583929D01*
X9183928Y-13598214D01*
X9155357Y-13598214D01*
X9126786Y-13583929D01*
X9112500Y-13569643D01*
X9098214Y-13541071D01*
X9083928Y-13483929D01*
X9083928Y-13412500D01*
X9098214Y-13355357D01*
X9112500Y-13326786D01*
X9126786Y-13312500D01*
X9155357Y-13298214D01*
X9383928Y-13598214D02*
X9383928Y-13398214D01*
X9383928Y-13426786D02*
X9398214Y-13412500D01*
X9426786Y-13398214D01*
X9469643Y-13398214D01*
X9498214Y-13412500D01*
X9512500Y-13441071D01*
X9512500Y-13598214D01*
X9512500Y-13441071D02*
X9526786Y-13412500D01*
X9555357Y-13398214D01*
X9598214Y-13398214D01*
X9626786Y-13412500D01*
X9641071Y-13441071D01*
X9641071Y-13598214D01*
X9783928Y-13598214D02*
X9783928Y-13398214D01*
X9783928Y-13426786D02*
X9798214Y-13412500D01*
X9826786Y-13398214D01*
X9869643Y-13398214D01*
X9898214Y-13412500D01*
X9912500Y-13441071D01*
X9912500Y-13598214D01*
X9912500Y-13441071D02*
X9926786Y-13412500D01*
X9955357Y-13398214D01*
X9998214Y-13398214D01*
X10026786Y-13412500D01*
X10041071Y-13441071D01*
X10041071Y-13598214D01*
X10626786Y-13283929D02*
X10369643Y-13669643D01*
X11012500Y-13298214D02*
X11041071Y-13298214D01*
X11069643Y-13312500D01*
X11083928Y-13326786D01*
X11098214Y-13355357D01*
X11112500Y-13412500D01*
X11112500Y-13483929D01*
X11098214Y-13541071D01*
X11083928Y-13569643D01*
X11069643Y-13583929D01*
X11041071Y-13598214D01*
X11012500Y-13598214D01*
X10983928Y-13583929D01*
X10969643Y-13569643D01*
X10955357Y-13541071D01*
X10941071Y-13483929D01*
X10941071Y-13412500D01*
X10955357Y-13355357D01*
X10969643Y-13326786D01*
X10983928Y-13312500D01*
X11012500Y-13298214D01*
X11241071Y-13569643D02*
X11255357Y-13583929D01*
X11241071Y-13598214D01*
X11226786Y-13583929D01*
X11241071Y-13569643D01*
X11241071Y-13598214D01*
X11441071Y-13298214D02*
X11469643Y-13298214D01*
X11498214Y-13312500D01*
X11512500Y-13326786D01*
X11526786Y-13355357D01*
X11541071Y-13412500D01*
X11541071Y-13483929D01*
X11526786Y-13541071D01*
X11512500Y-13569643D01*
X11498214Y-13583929D01*
X11469643Y-13598214D01*
X11441071Y-13598214D01*
X11412500Y-13583929D01*
X11398214Y-13569643D01*
X11383928Y-13541071D01*
X11369643Y-13483929D01*
X11369643Y-13412500D01*
X11383928Y-13355357D01*
X11398214Y-13326786D01*
X11412500Y-13312500D01*
X11441071Y-13298214D01*
X11683928Y-13598214D02*
X11741071Y-13598214D01*
X11769643Y-13583929D01*
X11783928Y-13569643D01*
X11812500Y-13526786D01*
X11826786Y-13469643D01*
X11826786Y-13355357D01*
X11812500Y-13326786D01*
X11798214Y-13312500D01*
X11769643Y-13298214D01*
X11712500Y-13298214D01*
X11683928Y-13312500D01*
X11669643Y-13326786D01*
X11655357Y-13355357D01*
X11655357Y-13426786D01*
X11669643Y-13455357D01*
X11683928Y-13469643D01*
X11712500Y-13483929D01*
X11769643Y-13483929D01*
X11798214Y-13469643D01*
X11812500Y-13455357D01*
X11826786Y-13426786D01*
X11998214Y-13426786D02*
X11969643Y-13412500D01*
X11955357Y-13398214D01*
X11941071Y-13369643D01*
X11941071Y-13355357D01*
X11955357Y-13326786D01*
X11969643Y-13312500D01*
X11998214Y-13298214D01*
X12055357Y-13298214D01*
X12083928Y-13312500D01*
X12098214Y-13326786D01*
X12112500Y-13355357D01*
X12112500Y-13369643D01*
X12098214Y-13398214D01*
X12083928Y-13412500D01*
X12055357Y-13426786D01*
X11998214Y-13426786D01*
X11969643Y-13441071D01*
X11955357Y-13455357D01*
X11941071Y-13483929D01*
X11941071Y-13541071D01*
X11955357Y-13569643D01*
X11969643Y-13583929D01*
X11998214Y-13598214D01*
X12055357Y-13598214D01*
X12083928Y-13583929D01*
X12098214Y-13569643D01*
X12112500Y-13541071D01*
X12112500Y-13483929D01*
X12098214Y-13455357D01*
X12083928Y-13441071D01*
X12055357Y-13426786D01*
X12226786Y-13298214D02*
X12226786Y-13355357D01*
X12341071Y-13298214D02*
X12341071Y-13355357D01*
X12783928Y-13712500D02*
X12769643Y-13698214D01*
X12741071Y-13655357D01*
X12726786Y-13626786D01*
X12712500Y-13583929D01*
X12698214Y-13512500D01*
X12698214Y-13455357D01*
X12712500Y-13383929D01*
X12726786Y-13341071D01*
X12741071Y-13312500D01*
X12769643Y-13269643D01*
X12783928Y-13255357D01*
X13026786Y-13398214D02*
X13026786Y-13598214D01*
X12955357Y-13283929D02*
X12883928Y-13498214D01*
X13069643Y-13498214D01*
X13412500Y-13598214D02*
X13412500Y-13298214D01*
X13541071Y-13598214D02*
X13541071Y-13441071D01*
X13526786Y-13412500D01*
X13498214Y-13398214D01*
X13455357Y-13398214D01*
X13426786Y-13412500D01*
X13412500Y-13426786D01*
X13726786Y-13598214D02*
X13698214Y-13583929D01*
X13683928Y-13569643D01*
X13669643Y-13541071D01*
X13669643Y-13455357D01*
X13683928Y-13426786D01*
X13698214Y-13412500D01*
X13726786Y-13398214D01*
X13769643Y-13398214D01*
X13798214Y-13412500D01*
X13812500Y-13426786D01*
X13826786Y-13455357D01*
X13826786Y-13541071D01*
X13812500Y-13569643D01*
X13798214Y-13583929D01*
X13769643Y-13598214D01*
X13726786Y-13598214D01*
X13998214Y-13598214D02*
X13969643Y-13583929D01*
X13955357Y-13555357D01*
X13955357Y-13298214D01*
X14226786Y-13583929D02*
X14198214Y-13598214D01*
X14141071Y-13598214D01*
X14112500Y-13583929D01*
X14098214Y-13555357D01*
X14098214Y-13441071D01*
X14112500Y-13412500D01*
X14141071Y-13398214D01*
X14198214Y-13398214D01*
X14226786Y-13412500D01*
X14241071Y-13441071D01*
X14241071Y-13469643D01*
X14098214Y-13498214D01*
X14355357Y-13583929D02*
X14383928Y-13598214D01*
X14441071Y-13598214D01*
X14469643Y-13583929D01*
X14483928Y-13555357D01*
X14483928Y-13541071D01*
X14469643Y-13512500D01*
X14441071Y-13498214D01*
X14398214Y-13498214D01*
X14369643Y-13483929D01*
X14355357Y-13455357D01*
X14355357Y-13441071D01*
X14369643Y-13412500D01*
X14398214Y-13398214D01*
X14441071Y-13398214D01*
X14469643Y-13412500D01*
X14583928Y-13712500D02*
X14598214Y-13698214D01*
X14626786Y-13655357D01*
X14641071Y-13626786D01*
X14655357Y-13583929D01*
X14669643Y-13512500D01*
X14669643Y-13455357D01*
X14655357Y-13383929D01*
X14641071Y-13341071D01*
X14626786Y-13312500D01*
X14598214Y-13269643D01*
X14583928Y-13255357D01*
X15126786Y-13712500D02*
X15112500Y-13698214D01*
X15083928Y-13655357D01*
X15069643Y-13626786D01*
X15055357Y-13583929D01*
X15041071Y-13512500D01*
X15041071Y-13455357D01*
X15055357Y-13383929D01*
X15069643Y-13341071D01*
X15083928Y-13312500D01*
X15112500Y-13269643D01*
X15126786Y-13255357D01*
X15241071Y-13398214D02*
X15241071Y-13598214D01*
X15241071Y-13426786D02*
X15255357Y-13412500D01*
X15283928Y-13398214D01*
X15326786Y-13398214D01*
X15355357Y-13412500D01*
X15369643Y-13441071D01*
X15369643Y-13598214D01*
X15555357Y-13598214D02*
X15526786Y-13583929D01*
X15512500Y-13569643D01*
X15498214Y-13541071D01*
X15498214Y-13455357D01*
X15512500Y-13426786D01*
X15526786Y-13412500D01*
X15555357Y-13398214D01*
X15598214Y-13398214D01*
X15626786Y-13412500D01*
X15641071Y-13426786D01*
X15655357Y-13455357D01*
X15655357Y-13541071D01*
X15641071Y-13569643D01*
X15626786Y-13583929D01*
X15598214Y-13598214D01*
X15555357Y-13598214D01*
X15741071Y-13398214D02*
X15855357Y-13398214D01*
X15783928Y-13298214D02*
X15783928Y-13555357D01*
X15798214Y-13583929D01*
X15826786Y-13598214D01*
X15855357Y-13598214D01*
X16183928Y-13398214D02*
X16183928Y-13698214D01*
X16183928Y-13412500D02*
X16212500Y-13398214D01*
X16269643Y-13398214D01*
X16298214Y-13412500D01*
X16312500Y-13426786D01*
X16326786Y-13455357D01*
X16326786Y-13541071D01*
X16312500Y-13569643D01*
X16298214Y-13583929D01*
X16269643Y-13598214D01*
X16212500Y-13598214D01*
X16183928Y-13583929D01*
X16498214Y-13598214D02*
X16469643Y-13583929D01*
X16455357Y-13555357D01*
X16455357Y-13298214D01*
X16741071Y-13598214D02*
X16741071Y-13441071D01*
X16726786Y-13412500D01*
X16698214Y-13398214D01*
X16641071Y-13398214D01*
X16612500Y-13412500D01*
X16741071Y-13583929D02*
X16712500Y-13598214D01*
X16641071Y-13598214D01*
X16612500Y-13583929D01*
X16598214Y-13555357D01*
X16598214Y-13526786D01*
X16612500Y-13498214D01*
X16641071Y-13483929D01*
X16712500Y-13483929D01*
X16741071Y-13469643D01*
X16841071Y-13398214D02*
X16955357Y-13398214D01*
X16883928Y-13298214D02*
X16883928Y-13555357D01*
X16898214Y-13583929D01*
X16926786Y-13598214D01*
X16955357Y-13598214D01*
X17169643Y-13583929D02*
X17141071Y-13598214D01*
X17083928Y-13598214D01*
X17055357Y-13583929D01*
X17041071Y-13555357D01*
X17041071Y-13441071D01*
X17055357Y-13412500D01*
X17083928Y-13398214D01*
X17141071Y-13398214D01*
X17169643Y-13412500D01*
X17183928Y-13441071D01*
X17183928Y-13469643D01*
X17041071Y-13498214D01*
X17441071Y-13598214D02*
X17441071Y-13298214D01*
X17441071Y-13583929D02*
X17412500Y-13598214D01*
X17355357Y-13598214D01*
X17326786Y-13583929D01*
X17312500Y-13569643D01*
X17298214Y-13541071D01*
X17298214Y-13455357D01*
X17312500Y-13426786D01*
X17326786Y-13412500D01*
X17355357Y-13398214D01*
X17412500Y-13398214D01*
X17441071Y-13412500D01*
X17555357Y-13712500D02*
X17569643Y-13698214D01*
X17598214Y-13655357D01*
X17612500Y-13626786D01*
X17626786Y-13583929D01*
X17641071Y-13512500D01*
X17641071Y-13455357D01*
X17626786Y-13383929D01*
X17612500Y-13341071D01*
X17598214Y-13312500D01*
X17569643Y-13269643D01*
X17555357Y-13255357D01*
X8097500Y-13858500D02*
G75*
G03*
X8097500Y-13858500I-135000J0D01*
G01*
X8369643Y-13722786D02*
X8383928Y-13708500D01*
X8412500Y-13694214D01*
X8483928Y-13694214D01*
X8512500Y-13708500D01*
X8526786Y-13722786D01*
X8541071Y-13751357D01*
X8541071Y-13779929D01*
X8526786Y-13822786D01*
X8355357Y-13994214D01*
X8541071Y-13994214D01*
X8669643Y-13965643D02*
X8683928Y-13979929D01*
X8669643Y-13994214D01*
X8655357Y-13979929D01*
X8669643Y-13965643D01*
X8669643Y-13994214D01*
X8783928Y-13694214D02*
X8983928Y-13694214D01*
X8855357Y-13994214D01*
X9155357Y-13694214D02*
X9183928Y-13694214D01*
X9212500Y-13708500D01*
X9226786Y-13722786D01*
X9241071Y-13751357D01*
X9255357Y-13808500D01*
X9255357Y-13879929D01*
X9241071Y-13937071D01*
X9226786Y-13965643D01*
X9212500Y-13979929D01*
X9183928Y-13994214D01*
X9155357Y-13994214D01*
X9126786Y-13979929D01*
X9112500Y-13965643D01*
X9098214Y-13937071D01*
X9083928Y-13879929D01*
X9083928Y-13808500D01*
X9098214Y-13751357D01*
X9112500Y-13722786D01*
X9126786Y-13708500D01*
X9155357Y-13694214D01*
X9383928Y-13994214D02*
X9383928Y-13794214D01*
X9383928Y-13822786D02*
X9398214Y-13808500D01*
X9426786Y-13794214D01*
X9469643Y-13794214D01*
X9498214Y-13808500D01*
X9512500Y-13837071D01*
X9512500Y-13994214D01*
X9512500Y-13837071D02*
X9526786Y-13808500D01*
X9555357Y-13794214D01*
X9598214Y-13794214D01*
X9626786Y-13808500D01*
X9641071Y-13837071D01*
X9641071Y-13994214D01*
X9783928Y-13994214D02*
X9783928Y-13794214D01*
X9783928Y-13822786D02*
X9798214Y-13808500D01*
X9826786Y-13794214D01*
X9869643Y-13794214D01*
X9898214Y-13808500D01*
X9912500Y-13837071D01*
X9912500Y-13994214D01*
X9912500Y-13837071D02*
X9926786Y-13808500D01*
X9955357Y-13794214D01*
X9998214Y-13794214D01*
X10026786Y-13808500D01*
X10041071Y-13837071D01*
X10041071Y-13994214D01*
X10626786Y-13679929D02*
X10369643Y-14065643D01*
X11012500Y-13694214D02*
X11041071Y-13694214D01*
X11069643Y-13708500D01*
X11083928Y-13722786D01*
X11098214Y-13751357D01*
X11112500Y-13808500D01*
X11112500Y-13879929D01*
X11098214Y-13937071D01*
X11083928Y-13965643D01*
X11069643Y-13979929D01*
X11041071Y-13994214D01*
X11012500Y-13994214D01*
X10983928Y-13979929D01*
X10969643Y-13965643D01*
X10955357Y-13937071D01*
X10941071Y-13879929D01*
X10941071Y-13808500D01*
X10955357Y-13751357D01*
X10969643Y-13722786D01*
X10983928Y-13708500D01*
X11012500Y-13694214D01*
X11241071Y-13965643D02*
X11255357Y-13979929D01*
X11241071Y-13994214D01*
X11226786Y-13979929D01*
X11241071Y-13965643D01*
X11241071Y-13994214D01*
X11541071Y-13994214D02*
X11369643Y-13994214D01*
X11455357Y-13994214D02*
X11455357Y-13694214D01*
X11426786Y-13737071D01*
X11398214Y-13765643D01*
X11369643Y-13779929D01*
X11726786Y-13694214D02*
X11755357Y-13694214D01*
X11783928Y-13708500D01*
X11798214Y-13722786D01*
X11812500Y-13751357D01*
X11826786Y-13808500D01*
X11826786Y-13879929D01*
X11812500Y-13937071D01*
X11798214Y-13965643D01*
X11783928Y-13979929D01*
X11755357Y-13994214D01*
X11726786Y-13994214D01*
X11698214Y-13979929D01*
X11683928Y-13965643D01*
X11669643Y-13937071D01*
X11655357Y-13879929D01*
X11655357Y-13808500D01*
X11669643Y-13751357D01*
X11683928Y-13722786D01*
X11698214Y-13708500D01*
X11726786Y-13694214D01*
X12083928Y-13694214D02*
X12026786Y-13694214D01*
X11998214Y-13708500D01*
X11983928Y-13722786D01*
X11955357Y-13765643D01*
X11941071Y-13822786D01*
X11941071Y-13937071D01*
X11955357Y-13965643D01*
X11969643Y-13979929D01*
X11998214Y-13994214D01*
X12055357Y-13994214D01*
X12083928Y-13979929D01*
X12098214Y-13965643D01*
X12112500Y-13937071D01*
X12112500Y-13865643D01*
X12098214Y-13837071D01*
X12083928Y-13822786D01*
X12055357Y-13808500D01*
X11998214Y-13808500D01*
X11969643Y-13822786D01*
X11955357Y-13837071D01*
X11941071Y-13865643D01*
X12226786Y-13694214D02*
X12226786Y-13751357D01*
X12341071Y-13694214D02*
X12341071Y-13751357D01*
X12783928Y-14108500D02*
X12769643Y-14094214D01*
X12741071Y-14051357D01*
X12726786Y-14022786D01*
X12712500Y-13979929D01*
X12698214Y-13908500D01*
X12698214Y-13851357D01*
X12712500Y-13779929D01*
X12726786Y-13737071D01*
X12741071Y-13708500D01*
X12769643Y-13665643D01*
X12783928Y-13651357D01*
X13026786Y-13694214D02*
X12969643Y-13694214D01*
X12941071Y-13708500D01*
X12926786Y-13722786D01*
X12898214Y-13765643D01*
X12883928Y-13822786D01*
X12883928Y-13937071D01*
X12898214Y-13965643D01*
X12912500Y-13979929D01*
X12941071Y-13994214D01*
X12998214Y-13994214D01*
X13026786Y-13979929D01*
X13041071Y-13965643D01*
X13055357Y-13937071D01*
X13055357Y-13865643D01*
X13041071Y-13837071D01*
X13026786Y-13822786D01*
X12998214Y-13808500D01*
X12941071Y-13808500D01*
X12912500Y-13822786D01*
X12898214Y-13837071D01*
X12883928Y-13865643D01*
X13412500Y-13994214D02*
X13412500Y-13694214D01*
X13541071Y-13994214D02*
X13541071Y-13837071D01*
X13526786Y-13808500D01*
X13498214Y-13794214D01*
X13455357Y-13794214D01*
X13426786Y-13808500D01*
X13412500Y-13822786D01*
X13726786Y-13994214D02*
X13698214Y-13979929D01*
X13683928Y-13965643D01*
X13669643Y-13937071D01*
X13669643Y-13851357D01*
X13683928Y-13822786D01*
X13698214Y-13808500D01*
X13726786Y-13794214D01*
X13769643Y-13794214D01*
X13798214Y-13808500D01*
X13812500Y-13822786D01*
X13826786Y-13851357D01*
X13826786Y-13937071D01*
X13812500Y-13965643D01*
X13798214Y-13979929D01*
X13769643Y-13994214D01*
X13726786Y-13994214D01*
X13998214Y-13994214D02*
X13969643Y-13979929D01*
X13955357Y-13951357D01*
X13955357Y-13694214D01*
X14226786Y-13979929D02*
X14198214Y-13994214D01*
X14141071Y-13994214D01*
X14112500Y-13979929D01*
X14098214Y-13951357D01*
X14098214Y-13837071D01*
X14112500Y-13808500D01*
X14141071Y-13794214D01*
X14198214Y-13794214D01*
X14226786Y-13808500D01*
X14241071Y-13837071D01*
X14241071Y-13865643D01*
X14098214Y-13894214D01*
X14355357Y-13979929D02*
X14383928Y-13994214D01*
X14441071Y-13994214D01*
X14469643Y-13979929D01*
X14483928Y-13951357D01*
X14483928Y-13937071D01*
X14469643Y-13908500D01*
X14441071Y-13894214D01*
X14398214Y-13894214D01*
X14369643Y-13879929D01*
X14355357Y-13851357D01*
X14355357Y-13837071D01*
X14369643Y-13808500D01*
X14398214Y-13794214D01*
X14441071Y-13794214D01*
X14469643Y-13808500D01*
X14583928Y-14108500D02*
X14598214Y-14094214D01*
X14626786Y-14051357D01*
X14641071Y-14022786D01*
X14655357Y-13979929D01*
X14669643Y-13908500D01*
X14669643Y-13851357D01*
X14655357Y-13779929D01*
X14641071Y-13737071D01*
X14626786Y-13708500D01*
X14598214Y-13665643D01*
X14583928Y-13651357D01*
X15126786Y-14108500D02*
X15112500Y-14094214D01*
X15083928Y-14051357D01*
X15069643Y-14022786D01*
X15055357Y-13979929D01*
X15041071Y-13908500D01*
X15041071Y-13851357D01*
X15055357Y-13779929D01*
X15069643Y-13737071D01*
X15083928Y-13708500D01*
X15112500Y-13665643D01*
X15126786Y-13651357D01*
X15241071Y-13794214D02*
X15241071Y-13994214D01*
X15241071Y-13822786D02*
X15255357Y-13808500D01*
X15283928Y-13794214D01*
X15326786Y-13794214D01*
X15355357Y-13808500D01*
X15369643Y-13837071D01*
X15369643Y-13994214D01*
X15555357Y-13994214D02*
X15526786Y-13979929D01*
X15512500Y-13965643D01*
X15498214Y-13937071D01*
X15498214Y-13851357D01*
X15512500Y-13822786D01*
X15526786Y-13808500D01*
X15555357Y-13794214D01*
X15598214Y-13794214D01*
X15626786Y-13808500D01*
X15641071Y-13822786D01*
X15655357Y-13851357D01*
X15655357Y-13937071D01*
X15641071Y-13965643D01*
X15626786Y-13979929D01*
X15598214Y-13994214D01*
X15555357Y-13994214D01*
X15741071Y-13794214D02*
X15855357Y-13794214D01*
X15783928Y-13694214D02*
X15783928Y-13951357D01*
X15798214Y-13979929D01*
X15826786Y-13994214D01*
X15855357Y-13994214D01*
X16183928Y-13794214D02*
X16183928Y-14094214D01*
X16183928Y-13808500D02*
X16212500Y-13794214D01*
X16269643Y-13794214D01*
X16298214Y-13808500D01*
X16312500Y-13822786D01*
X16326786Y-13851357D01*
X16326786Y-13937071D01*
X16312500Y-13965643D01*
X16298214Y-13979929D01*
X16269643Y-13994214D01*
X16212500Y-13994214D01*
X16183928Y-13979929D01*
X16498214Y-13994214D02*
X16469643Y-13979929D01*
X16455357Y-13951357D01*
X16455357Y-13694214D01*
X16741071Y-13994214D02*
X16741071Y-13837071D01*
X16726786Y-13808500D01*
X16698214Y-13794214D01*
X16641071Y-13794214D01*
X16612500Y-13808500D01*
X16741071Y-13979929D02*
X16712500Y-13994214D01*
X16641071Y-13994214D01*
X16612500Y-13979929D01*
X16598214Y-13951357D01*
X16598214Y-13922786D01*
X16612500Y-13894214D01*
X16641071Y-13879929D01*
X16712500Y-13879929D01*
X16741071Y-13865643D01*
X16841071Y-13794214D02*
X16955357Y-13794214D01*
X16883928Y-13694214D02*
X16883928Y-13951357D01*
X16898214Y-13979929D01*
X16926786Y-13994214D01*
X16955357Y-13994214D01*
X17169643Y-13979929D02*
X17141071Y-13994214D01*
X17083928Y-13994214D01*
X17055357Y-13979929D01*
X17041071Y-13951357D01*
X17041071Y-13837071D01*
X17055357Y-13808500D01*
X17083928Y-13794214D01*
X17141071Y-13794214D01*
X17169643Y-13808500D01*
X17183928Y-13837071D01*
X17183928Y-13865643D01*
X17041071Y-13894214D01*
X17441071Y-13994214D02*
X17441071Y-13694214D01*
X17441071Y-13979929D02*
X17412500Y-13994214D01*
X17355357Y-13994214D01*
X17326786Y-13979929D01*
X17312500Y-13965643D01*
X17298214Y-13937071D01*
X17298214Y-13851357D01*
X17312500Y-13822786D01*
X17326786Y-13808500D01*
X17355357Y-13794214D01*
X17412500Y-13794214D01*
X17441071Y-13808500D01*
X17555357Y-14108500D02*
X17569643Y-14094214D01*
X17598214Y-14051357D01*
X17612500Y-14022786D01*
X17626786Y-13979929D01*
X17641071Y-13908500D01*
X17641071Y-13851357D01*
X17626786Y-13779929D01*
X17612500Y-13737071D01*
X17598214Y-13708500D01*
X17569643Y-13665643D01*
X17555357Y-13651357D01*
M02*
