%TF.GenerationSoftware,KiCad,Pcbnew,5.1.7-a382d34a8~87~ubuntu18.04.1*%
%TF.CreationDate,2020-10-22T00:58:17-03:00*%
%TF.ProjectId,Disp_Sec_V_1,44697370-5f53-4656-935f-565f312e6b69,1.1*%
%TF.SameCoordinates,Original*%
%TF.FileFunction,Other,User*%
%FSLAX46Y46*%
G04 Gerber Fmt 4.6, Leading zero omitted, Abs format (unit mm)*
G04 Created by KiCad (PCBNEW 5.1.7-a382d34a8~87~ubuntu18.04.1) date 2020-10-22 00:58:17*
%MOMM*%
%LPD*%
G01*
G04 APERTURE LIST*
%ADD10C,0.050000*%
G04 APERTURE END LIST*
D10*
%TO.C,TP4*%
X153800000Y-119000000D02*
G75*
G03*
X153800000Y-119000000I-1800000J0D01*
G01*
%TO.C,TP3*%
X157950000Y-119000000D02*
G75*
G03*
X157950000Y-119000000I-1800000J0D01*
G01*
%TO.C,TP2*%
X162300000Y-119000000D02*
G75*
G03*
X162300000Y-119000000I-1800000J0D01*
G01*
%TO.C,TP1*%
X186300000Y-80000000D02*
G75*
G03*
X186300000Y-80000000I-1800000J0D01*
G01*
%TO.C,FID3*%
X223250000Y-76000000D02*
G75*
G03*
X223250000Y-76000000I-1250000J0D01*
G01*
%TO.C,FID2*%
X133250000Y-65000000D02*
G75*
G03*
X133250000Y-65000000I-1250000J0D01*
G01*
%TO.C,FID1*%
X147250000Y-121000000D02*
G75*
G03*
X147250000Y-121000000I-1250000J0D01*
G01*
%TO.C,H4*%
X110750000Y-115500000D02*
G75*
G03*
X110750000Y-115500000I-2750000J0D01*
G01*
%TO.C,H3*%
X187750000Y-66000000D02*
G75*
G03*
X187750000Y-66000000I-2750000J0D01*
G01*
%TO.C,H2*%
X123750000Y-66000000D02*
G75*
G03*
X123750000Y-66000000I-2750000J0D01*
G01*
%TO.C,H1*%
X187750000Y-118500000D02*
G75*
G03*
X187750000Y-118500000I-2750000J0D01*
G01*
%TO.C,R7*%
X123150000Y-107950000D02*
X107550000Y-107950000D01*
X123150000Y-112050000D02*
X123150000Y-107950000D01*
X107550000Y-112050000D02*
X123150000Y-112050000D01*
X107550000Y-107950000D02*
X107550000Y-112050000D01*
%TO.C,J2*%
X93710000Y-105130000D02*
X93710000Y-93960000D01*
X82900000Y-105130000D02*
X93710000Y-105130000D01*
X82900000Y-93960000D02*
X82900000Y-105130000D01*
X93710000Y-93960000D02*
X82900000Y-93960000D01*
%TO.C,Q4*%
X92250000Y-108950000D02*
X92250000Y-116450000D01*
X92250000Y-116450000D02*
X96750000Y-116450000D01*
X96750000Y-116450000D02*
X96750000Y-108950000D01*
X96750000Y-108950000D02*
X92250000Y-108950000D01*
%TO.C,R6*%
X85950000Y-105850000D02*
X85950000Y-121450000D01*
X90050000Y-105850000D02*
X85950000Y-105850000D01*
X90050000Y-121450000D02*
X90050000Y-105850000D01*
X85950000Y-121450000D02*
X90050000Y-121450000D01*
%TO.C,D1*%
X181310000Y-115400000D02*
X168850000Y-115400000D01*
X181310000Y-118600000D02*
X181310000Y-115400000D01*
X168850000Y-118600000D02*
X181310000Y-118600000D01*
X168850000Y-115400000D02*
X168850000Y-118600000D01*
%TO.C,U1*%
X106445300Y-97928600D02*
X157931100Y-97924600D01*
X157931100Y-97924600D02*
X157931100Y-69721900D01*
X106445300Y-69734600D02*
X106445300Y-97928600D01*
X157931100Y-69721900D02*
X106445300Y-69734600D01*
%TO.C,Q6*%
X177950000Y-97750000D02*
X185450000Y-97750000D01*
X185450000Y-97750000D02*
X185450000Y-93250000D01*
X185450000Y-93250000D02*
X177950000Y-93250000D01*
X177950000Y-93250000D02*
X177950000Y-97750000D01*
%TO.C,D7*%
X97310000Y-86400000D02*
X84850000Y-86400000D01*
X97310000Y-89600000D02*
X97310000Y-86400000D01*
X84850000Y-89600000D02*
X97310000Y-89600000D01*
X84850000Y-86400000D02*
X84850000Y-89600000D01*
%TO.C,K3*%
X153680000Y-98960000D02*
X134080000Y-98960000D01*
X134080000Y-114660000D02*
X134080000Y-98960000D01*
X153680000Y-98960000D02*
X153680000Y-114660000D01*
X134080000Y-114660000D02*
X153680000Y-114660000D01*
%TO.C,D8*%
X133600000Y-112310000D02*
X133600000Y-99850000D01*
X130400000Y-112310000D02*
X133600000Y-112310000D01*
X130400000Y-99850000D02*
X130400000Y-112310000D01*
X133600000Y-99850000D02*
X130400000Y-99850000D01*
%TO.C,J3*%
X122130000Y-112290000D02*
X110960000Y-112290000D01*
X122130000Y-123100000D02*
X122130000Y-112290000D01*
X110960000Y-123100000D02*
X122130000Y-123100000D01*
X110960000Y-112290000D02*
X110960000Y-123100000D01*
%TO.C,Q5*%
X109750000Y-106050000D02*
X109750000Y-98550000D01*
X109750000Y-98550000D02*
X105250000Y-98550000D01*
X105250000Y-98550000D02*
X105250000Y-106050000D01*
X105250000Y-106050000D02*
X109750000Y-106050000D01*
%TO.C,K1*%
X155150000Y-114850000D02*
X174750000Y-114850000D01*
X174750000Y-99150000D02*
X174750000Y-114850000D01*
X155150000Y-114850000D02*
X155150000Y-99150000D01*
X174750000Y-99150000D02*
X155150000Y-99150000D01*
%TO.C,Q1*%
X181750000Y-111520000D02*
X181750000Y-104020000D01*
X181750000Y-104020000D02*
X177250000Y-104020000D01*
X177250000Y-104020000D02*
X177250000Y-111520000D01*
X177250000Y-111520000D02*
X181750000Y-111520000D01*
%TO.C,U4*%
X200640600Y-122360400D02*
X223030700Y-122360400D01*
X223030700Y-122360400D02*
X223018000Y-78494600D01*
X200666000Y-78494600D02*
X200640600Y-122360400D01*
X223018000Y-78494600D02*
X200666000Y-78494600D01*
%TO.C,F1*%
X224170000Y-72560000D02*
X197820000Y-72560000D01*
X224170000Y-72560000D02*
X224170000Y-65260000D01*
X197820000Y-65260000D02*
X197820000Y-72560000D01*
X197820000Y-65260000D02*
X224170000Y-65260000D01*
%TO.C,D6*%
X112840000Y-101050000D02*
X125000000Y-101050000D01*
X112840000Y-98950000D02*
X112840000Y-101050000D01*
X125000000Y-98950000D02*
X112840000Y-98950000D01*
X125000000Y-101050000D02*
X125000000Y-98950000D01*
%TO.C,U2*%
X194380000Y-104110000D02*
X184580000Y-104110000D01*
X194380000Y-114810000D02*
X194380000Y-104110000D01*
X184580000Y-114810000D02*
X194380000Y-114810000D01*
X184580000Y-104110000D02*
X184580000Y-114810000D01*
%TO.C,RV1*%
X199480000Y-89120000D02*
X192230000Y-89120000D01*
X199480000Y-94170000D02*
X199480000Y-89120000D01*
X192230000Y-94170000D02*
X199480000Y-94170000D01*
X192230000Y-89120000D02*
X192230000Y-94170000D01*
%TO.C,R11*%
X98950000Y-101850000D02*
X98950000Y-117450000D01*
X103050000Y-101850000D02*
X98950000Y-101850000D01*
X103050000Y-117450000D02*
X103050000Y-101850000D01*
X98950000Y-117450000D02*
X103050000Y-117450000D01*
%TO.C,R10*%
X90850000Y-122050000D02*
X106450000Y-122050000D01*
X90850000Y-117950000D02*
X90850000Y-122050000D01*
X106450000Y-117950000D02*
X90850000Y-117950000D01*
X106450000Y-122050000D02*
X106450000Y-117950000D01*
%TO.C,R9*%
X177150000Y-93950000D02*
X161550000Y-93950000D01*
X177150000Y-98050000D02*
X177150000Y-93950000D01*
X161550000Y-98050000D02*
X177150000Y-98050000D01*
X161550000Y-93950000D02*
X161550000Y-98050000D01*
%TO.C,R8*%
X177150000Y-87950000D02*
X161550000Y-87950000D01*
X177150000Y-92050000D02*
X177150000Y-87950000D01*
X161550000Y-92050000D02*
X177150000Y-92050000D01*
X161550000Y-87950000D02*
X161550000Y-92050000D01*
%TO.C,R5*%
X177150000Y-81950000D02*
X161550000Y-81950000D01*
X177150000Y-86050000D02*
X177150000Y-81950000D01*
X161550000Y-86050000D02*
X177150000Y-86050000D01*
X161550000Y-81950000D02*
X161550000Y-86050000D01*
%TO.C,R4*%
X105050000Y-92150000D02*
X105050000Y-76550000D01*
X100950000Y-92150000D02*
X105050000Y-92150000D01*
X100950000Y-76550000D02*
X100950000Y-92150000D01*
X105050000Y-76550000D02*
X100950000Y-76550000D01*
%TO.C,R3*%
X100850000Y-69050000D02*
X116450000Y-69050000D01*
X100850000Y-64950000D02*
X100850000Y-69050000D01*
X116450000Y-64950000D02*
X100850000Y-64950000D01*
X116450000Y-69050000D02*
X116450000Y-64950000D01*
%TO.C,R2*%
X126150000Y-102950000D02*
X110550000Y-102950000D01*
X126150000Y-107050000D02*
X126150000Y-102950000D01*
X110550000Y-107050000D02*
X126150000Y-107050000D01*
X110550000Y-102950000D02*
X110550000Y-107050000D01*
%TO.C,R1*%
X176850000Y-103050000D02*
X192450000Y-103050000D01*
X176850000Y-98950000D02*
X176850000Y-103050000D01*
X192450000Y-98950000D02*
X176850000Y-98950000D01*
X192450000Y-103050000D02*
X192450000Y-98950000D01*
%TO.C,Q3*%
X178450000Y-88250000D02*
X185950000Y-88250000D01*
X185950000Y-88250000D02*
X185950000Y-83750000D01*
X185950000Y-83750000D02*
X178450000Y-83750000D01*
X178450000Y-83750000D02*
X178450000Y-88250000D01*
%TO.C,Q2*%
X196050000Y-116250000D02*
X188550000Y-116250000D01*
X188550000Y-116250000D02*
X188550000Y-120750000D01*
X188550000Y-120750000D02*
X196050000Y-120750000D01*
X196050000Y-120750000D02*
X196050000Y-116250000D01*
%TO.C,K2*%
X84150000Y-65150000D02*
X84150000Y-84750000D01*
X99850000Y-84750000D02*
X84150000Y-84750000D01*
X84150000Y-65150000D02*
X99850000Y-65150000D01*
X99850000Y-84750000D02*
X99850000Y-65150000D01*
%TO.C,J1*%
X196500000Y-66900000D02*
X188000000Y-66900000D01*
X196500000Y-71700000D02*
X196500000Y-66900000D01*
X188000000Y-71700000D02*
X196500000Y-71700000D01*
X188000000Y-66900000D02*
X188000000Y-71700000D01*
%TO.C,D11*%
X131700000Y-113750000D02*
X126850000Y-113750000D01*
X131700000Y-118250000D02*
X131700000Y-113750000D01*
X126850000Y-118250000D02*
X131700000Y-118250000D01*
X126850000Y-113750000D02*
X126850000Y-118250000D01*
%TO.C,D10*%
X98750000Y-94300000D02*
X98750000Y-99150000D01*
X103250000Y-94300000D02*
X98750000Y-94300000D01*
X103250000Y-99150000D02*
X103250000Y-94300000D01*
X98750000Y-99150000D02*
X103250000Y-99150000D01*
%TO.C,D9*%
X185840000Y-93250000D02*
X190690000Y-93250000D01*
X185840000Y-88750000D02*
X185840000Y-93250000D01*
X190690000Y-88750000D02*
X185840000Y-88750000D01*
X190690000Y-93250000D02*
X190690000Y-88750000D01*
%TO.C,D5*%
X129050000Y-112160000D02*
X129050000Y-100000000D01*
X126950000Y-112160000D02*
X129050000Y-112160000D01*
X126950000Y-100000000D02*
X126950000Y-112160000D01*
X129050000Y-100000000D02*
X126950000Y-100000000D01*
%TO.C,D4*%
X97050000Y-107160000D02*
X97050000Y-95000000D01*
X94950000Y-107160000D02*
X97050000Y-107160000D01*
X94950000Y-95000000D02*
X94950000Y-107160000D01*
X97050000Y-95000000D02*
X94950000Y-95000000D01*
%TO.C,D3*%
X97160000Y-90950000D02*
X85000000Y-90950000D01*
X97160000Y-93050000D02*
X97160000Y-90950000D01*
X85000000Y-93050000D02*
X97160000Y-93050000D01*
X85000000Y-90950000D02*
X85000000Y-93050000D01*
%TO.C,D2*%
X205850000Y-76860000D02*
X218310000Y-76860000D01*
X205850000Y-73660000D02*
X205850000Y-76860000D01*
X218310000Y-73660000D02*
X205850000Y-73660000D01*
X218310000Y-76860000D02*
X218310000Y-73660000D01*
%TO.C,C2*%
X200110000Y-105660000D02*
G75*
G03*
X200110000Y-105660000I-2250000J0D01*
G01*
%TO.C,C1*%
X200110000Y-113280000D02*
G75*
G03*
X200110000Y-113280000I-2250000J0D01*
G01*
%TD*%
M02*
