%TF.GenerationSoftware,KiCad,Pcbnew,5.1.7-a382d34a8~87~ubuntu18.04.1*%
%TF.CreationDate,2020-10-27T09:38:10-03:00*%
%TF.ProjectId,Disp_Sec_V_1,44697370-5f53-4656-935f-565f312e6b69,1.1*%
%TF.SameCoordinates,Original*%
%TF.FileFunction,Legend,Top*%
%TF.FilePolarity,Positive*%
%FSLAX46Y46*%
G04 Gerber Fmt 4.6, Leading zero omitted, Abs format (unit mm)*
G04 Created by KiCad (PCBNEW 5.1.7-a382d34a8~87~ubuntu18.04.1) date 2020-10-27 09:38:10*
%MOMM*%
%LPD*%
G01*
G04 APERTURE LIST*
%ADD10C,0.150000*%
%ADD11C,0.250000*%
%ADD12C,0.300000*%
%ADD13C,0.200000*%
%ADD14C,0.120000*%
%ADD15C,0.010000*%
G04 APERTURE END LIST*
D10*
X183738095Y-82000000D02*
X183642857Y-81952380D01*
X183500000Y-81952380D01*
X183357142Y-82000000D01*
X183261904Y-82095238D01*
X183214285Y-82190476D01*
X183166666Y-82380952D01*
X183166666Y-82523809D01*
X183214285Y-82714285D01*
X183261904Y-82809523D01*
X183357142Y-82904761D01*
X183500000Y-82952380D01*
X183595238Y-82952380D01*
X183738095Y-82904761D01*
X183785714Y-82857142D01*
X183785714Y-82523809D01*
X183595238Y-82523809D01*
X184214285Y-82952380D02*
X184214285Y-81952380D01*
X184785714Y-82952380D01*
X184785714Y-81952380D01*
X185261904Y-82952380D02*
X185261904Y-81952380D01*
X185500000Y-81952380D01*
X185642857Y-82000000D01*
X185738095Y-82095238D01*
X185785714Y-82190476D01*
X185833333Y-82380952D01*
X185833333Y-82523809D01*
X185785714Y-82714285D01*
X185738095Y-82809523D01*
X185642857Y-82904761D01*
X185500000Y-82952380D01*
X185261904Y-82952380D01*
X149000000Y-122071428D02*
X149761904Y-122071428D01*
X149380952Y-122452380D02*
X149380952Y-121690476D01*
X150142857Y-121452380D02*
X150761904Y-121452380D01*
X150428571Y-121833333D01*
X150571428Y-121833333D01*
X150666666Y-121880952D01*
X150714285Y-121928571D01*
X150761904Y-122023809D01*
X150761904Y-122261904D01*
X150714285Y-122357142D01*
X150666666Y-122404761D01*
X150571428Y-122452380D01*
X150285714Y-122452380D01*
X150190476Y-122404761D01*
X150142857Y-122357142D01*
X151190476Y-122357142D02*
X151238095Y-122404761D01*
X151190476Y-122452380D01*
X151142857Y-122404761D01*
X151190476Y-122357142D01*
X151190476Y-122452380D01*
X151571428Y-121452380D02*
X152190476Y-121452380D01*
X151857142Y-121833333D01*
X152000000Y-121833333D01*
X152095238Y-121880952D01*
X152142857Y-121928571D01*
X152190476Y-122023809D01*
X152190476Y-122261904D01*
X152142857Y-122357142D01*
X152095238Y-122404761D01*
X152000000Y-122452380D01*
X151714285Y-122452380D01*
X151619047Y-122404761D01*
X151571428Y-122357142D01*
X152476190Y-121452380D02*
X152809523Y-122452380D01*
X153142857Y-121452380D01*
X154238095Y-122071428D02*
X155000000Y-122071428D01*
X154619047Y-122452380D02*
X154619047Y-121690476D01*
X156000000Y-122452380D02*
X155428571Y-122452380D01*
X155714285Y-122452380D02*
X155714285Y-121452380D01*
X155619047Y-121595238D01*
X155523809Y-121690476D01*
X155428571Y-121738095D01*
X156380952Y-121547619D02*
X156428571Y-121500000D01*
X156523809Y-121452380D01*
X156761904Y-121452380D01*
X156857142Y-121500000D01*
X156904761Y-121547619D01*
X156952380Y-121642857D01*
X156952380Y-121738095D01*
X156904761Y-121880952D01*
X156333333Y-122452380D01*
X156952380Y-122452380D01*
X157238095Y-121452380D02*
X157571428Y-122452380D01*
X157904761Y-121452380D01*
X159107142Y-121452380D02*
X159440476Y-122452380D01*
X159773809Y-121452380D01*
X160678571Y-122357142D02*
X160630952Y-122404761D01*
X160488095Y-122452380D01*
X160392857Y-122452380D01*
X160250000Y-122404761D01*
X160154761Y-122309523D01*
X160107142Y-122214285D01*
X160059523Y-122023809D01*
X160059523Y-121880952D01*
X160107142Y-121690476D01*
X160154761Y-121595238D01*
X160250000Y-121500000D01*
X160392857Y-121452380D01*
X160488095Y-121452380D01*
X160630952Y-121500000D01*
X160678571Y-121547619D01*
X161678571Y-122357142D02*
X161630952Y-122404761D01*
X161488095Y-122452380D01*
X161392857Y-122452380D01*
X161250000Y-122404761D01*
X161154761Y-122309523D01*
X161107142Y-122214285D01*
X161059523Y-122023809D01*
X161059523Y-121880952D01*
X161107142Y-121690476D01*
X161154761Y-121595238D01*
X161250000Y-121500000D01*
X161392857Y-121452380D01*
X161488095Y-121452380D01*
X161630952Y-121500000D01*
X161678571Y-121547619D01*
X161869047Y-122547619D02*
X162630952Y-122547619D01*
X163440476Y-122357142D02*
X163392857Y-122404761D01*
X163250000Y-122452380D01*
X163154761Y-122452380D01*
X163011904Y-122404761D01*
X162916666Y-122309523D01*
X162869047Y-122214285D01*
X162821428Y-122023809D01*
X162821428Y-121880952D01*
X162869047Y-121690476D01*
X162916666Y-121595238D01*
X163011904Y-121500000D01*
X163154761Y-121452380D01*
X163250000Y-121452380D01*
X163392857Y-121500000D01*
X163440476Y-121547619D01*
X164059523Y-121452380D02*
X164250000Y-121452380D01*
X164345238Y-121500000D01*
X164440476Y-121595238D01*
X164488095Y-121785714D01*
X164488095Y-122119047D01*
X164440476Y-122309523D01*
X164345238Y-122404761D01*
X164250000Y-122452380D01*
X164059523Y-122452380D01*
X163964285Y-122404761D01*
X163869047Y-122309523D01*
X163821428Y-122119047D01*
X163821428Y-121785714D01*
X163869047Y-121595238D01*
X163964285Y-121500000D01*
X164059523Y-121452380D01*
X164916666Y-122452380D02*
X164916666Y-121452380D01*
X165488095Y-122452380D01*
X165488095Y-121452380D01*
X165821428Y-121452380D02*
X166392857Y-121452380D01*
X166107142Y-122452380D02*
X166107142Y-121452380D01*
D11*
X198166666Y-121452380D02*
X198357142Y-121452380D01*
X198452380Y-121500000D01*
X198547619Y-121595238D01*
X198595238Y-121785714D01*
X198595238Y-122119047D01*
X198547619Y-122309523D01*
X198452380Y-122404761D01*
X198357142Y-122452380D01*
X198166666Y-122452380D01*
X198071428Y-122404761D01*
X197976190Y-122309523D01*
X197928571Y-122119047D01*
X197928571Y-121785714D01*
X197976190Y-121595238D01*
X198071428Y-121500000D01*
X198166666Y-121452380D01*
X199452380Y-121785714D02*
X199452380Y-122452380D01*
X199023809Y-121785714D02*
X199023809Y-122309523D01*
X199071428Y-122404761D01*
X199166666Y-122452380D01*
X199309523Y-122452380D01*
X199404761Y-122404761D01*
X199452380Y-122357142D01*
X199785714Y-121785714D02*
X200166666Y-121785714D01*
X199928571Y-121452380D02*
X199928571Y-122309523D01*
X199976190Y-122404761D01*
X200071428Y-122452380D01*
X200166666Y-122452380D01*
X201047619Y-77952380D02*
X201047619Y-76952380D01*
X201523809Y-77285714D02*
X201523809Y-77952380D01*
X201523809Y-77380952D02*
X201571428Y-77333333D01*
X201666666Y-77285714D01*
X201809523Y-77285714D01*
X201904761Y-77333333D01*
X201952380Y-77428571D01*
X201952380Y-77952380D01*
D12*
X147750000Y-91107142D02*
X148892857Y-91107142D01*
X148321428Y-91678571D02*
X148321428Y-90535714D01*
X149392857Y-90178571D02*
X149892857Y-91678571D01*
X150392857Y-90178571D01*
X150892857Y-91678571D02*
X150892857Y-90678571D01*
X150892857Y-90178571D02*
X150821428Y-90250000D01*
X150892857Y-90321428D01*
X150964285Y-90250000D01*
X150892857Y-90178571D01*
X150892857Y-90321428D01*
X151607142Y-90678571D02*
X151607142Y-91678571D01*
X151607142Y-90821428D02*
X151678571Y-90750000D01*
X151821428Y-90678571D01*
X152035714Y-90678571D01*
X152178571Y-90750000D01*
X152250000Y-90892857D01*
X152250000Y-91678571D01*
D10*
X195238095Y-65142857D02*
X196761904Y-65142857D01*
X196000000Y-65904761D02*
X196000000Y-64380952D01*
D13*
X190976190Y-83078571D02*
X191309523Y-83078571D01*
X191452380Y-83602380D02*
X190976190Y-83602380D01*
X190976190Y-82602380D01*
X191452380Y-82602380D01*
X191833333Y-83554761D02*
X191928571Y-83602380D01*
X192119047Y-83602380D01*
X192214285Y-83554761D01*
X192261904Y-83459523D01*
X192261904Y-83411904D01*
X192214285Y-83316666D01*
X192119047Y-83269047D01*
X191976190Y-83269047D01*
X191880952Y-83221428D01*
X191833333Y-83126190D01*
X191833333Y-83078571D01*
X191880952Y-82983333D01*
X191976190Y-82935714D01*
X192119047Y-82935714D01*
X192214285Y-82983333D01*
X193119047Y-82935714D02*
X193119047Y-83935714D01*
X193119047Y-83554761D02*
X193023809Y-83602380D01*
X192833333Y-83602380D01*
X192738095Y-83554761D01*
X192690476Y-83507142D01*
X192642857Y-83411904D01*
X192642857Y-83126190D01*
X192690476Y-83030952D01*
X192738095Y-82983333D01*
X192833333Y-82935714D01*
X193023809Y-82935714D01*
X193119047Y-82983333D01*
X194261904Y-82935714D02*
X194500000Y-83602380D01*
X194738095Y-82935714D01*
X195642857Y-83602380D02*
X195071428Y-83602380D01*
X195357142Y-83602380D02*
X195357142Y-82602380D01*
X195261904Y-82745238D01*
X195166666Y-82840476D01*
X195071428Y-82888095D01*
X196071428Y-83507142D02*
X196119047Y-83554761D01*
X196071428Y-83602380D01*
X196023809Y-83554761D01*
X196071428Y-83507142D01*
X196071428Y-83602380D01*
X197071428Y-83602380D02*
X196500000Y-83602380D01*
X196785714Y-83602380D02*
X196785714Y-82602380D01*
X196690476Y-82745238D01*
X196595238Y-82840476D01*
X196500000Y-82888095D01*
X190785714Y-85302380D02*
X190785714Y-84302380D01*
X191166666Y-84302380D01*
X191261904Y-84350000D01*
X191309523Y-84397619D01*
X191357142Y-84492857D01*
X191357142Y-84635714D01*
X191309523Y-84730952D01*
X191261904Y-84778571D01*
X191166666Y-84826190D01*
X190785714Y-84826190D01*
X192357142Y-85207142D02*
X192309523Y-85254761D01*
X192166666Y-85302380D01*
X192071428Y-85302380D01*
X191928571Y-85254761D01*
X191833333Y-85159523D01*
X191785714Y-85064285D01*
X191738095Y-84873809D01*
X191738095Y-84730952D01*
X191785714Y-84540476D01*
X191833333Y-84445238D01*
X191928571Y-84350000D01*
X192071428Y-84302380D01*
X192166666Y-84302380D01*
X192309523Y-84350000D01*
X192357142Y-84397619D01*
X193119047Y-84778571D02*
X193261904Y-84826190D01*
X193309523Y-84873809D01*
X193357142Y-84969047D01*
X193357142Y-85111904D01*
X193309523Y-85207142D01*
X193261904Y-85254761D01*
X193166666Y-85302380D01*
X192785714Y-85302380D01*
X192785714Y-84302380D01*
X193119047Y-84302380D01*
X193214285Y-84350000D01*
X193261904Y-84397619D01*
X193309523Y-84492857D01*
X193309523Y-84588095D01*
X193261904Y-84683333D01*
X193214285Y-84730952D01*
X193119047Y-84778571D01*
X192785714Y-84778571D01*
X194452380Y-84635714D02*
X194690476Y-85302380D01*
X194928571Y-84635714D01*
X195833333Y-85302380D02*
X195261904Y-85302380D01*
X195547619Y-85302380D02*
X195547619Y-84302380D01*
X195452380Y-84445238D01*
X195357142Y-84540476D01*
X195261904Y-84588095D01*
X196261904Y-85207142D02*
X196309523Y-85254761D01*
X196261904Y-85302380D01*
X196214285Y-85254761D01*
X196261904Y-85207142D01*
X196261904Y-85302380D01*
X196690476Y-84397619D02*
X196738095Y-84350000D01*
X196833333Y-84302380D01*
X197071428Y-84302380D01*
X197166666Y-84350000D01*
X197214285Y-84397619D01*
X197261904Y-84492857D01*
X197261904Y-84588095D01*
X197214285Y-84730952D01*
X196642857Y-85302380D01*
X197261904Y-85302380D01*
D10*
X190476190Y-65904761D02*
X190476190Y-63904761D01*
X190952380Y-63904761D01*
X191238095Y-64000000D01*
X191428571Y-64190476D01*
X191523809Y-64380952D01*
X191619047Y-64761904D01*
X191619047Y-65047619D01*
X191523809Y-65428571D01*
X191428571Y-65619047D01*
X191238095Y-65809523D01*
X190952380Y-65904761D01*
X190476190Y-65904761D01*
X193619047Y-65714285D02*
X193523809Y-65809523D01*
X193238095Y-65904761D01*
X193047619Y-65904761D01*
X192761904Y-65809523D01*
X192571428Y-65619047D01*
X192476190Y-65428571D01*
X192380952Y-65047619D01*
X192380952Y-64761904D01*
X192476190Y-64380952D01*
X192571428Y-64190476D01*
X192761904Y-64000000D01*
X193047619Y-63904761D01*
X193238095Y-63904761D01*
X193523809Y-64000000D01*
X193619047Y-64095238D01*
D14*
%TO.C,F1*%
X199257600Y-66422700D02*
X209757600Y-66422700D01*
X199257600Y-71422700D02*
X210007600Y-71422700D01*
X214507600Y-72422700D02*
X214507600Y-65422700D01*
X199257600Y-72422700D02*
X208007600Y-72422700D01*
X222007600Y-66422700D02*
X223257600Y-66422700D01*
X198257600Y-72422700D02*
X199257600Y-72422700D01*
X214507600Y-72422700D02*
X224257600Y-72422700D01*
X198257600Y-72422700D02*
X198257600Y-65422700D01*
X199257600Y-65422700D02*
X208007600Y-65422700D01*
X199257600Y-71422700D02*
X199257600Y-66422700D01*
X210007600Y-71422700D02*
X221757600Y-71422700D01*
X214507600Y-65422700D02*
X224257600Y-65422700D01*
X224257600Y-72422700D02*
X224257600Y-65422700D01*
X223257600Y-71422700D02*
X223257600Y-66422700D01*
X221757600Y-71422700D02*
X223257600Y-71422700D01*
X198257600Y-65422700D02*
X199257600Y-65422700D01*
X208007600Y-68922700D02*
X214507600Y-68922700D01*
X208007600Y-72422700D02*
X208007600Y-65422700D01*
X209757600Y-66422700D02*
X222007600Y-66422700D01*
%TO.C,TP4*%
X153500000Y-119000000D02*
G75*
G03*
X153500000Y-119000000I-1500000J0D01*
G01*
%TO.C,TP3*%
X157650000Y-119000000D02*
G75*
G03*
X157650000Y-119000000I-1500000J0D01*
G01*
%TO.C,TP2*%
X162000000Y-119000000D02*
G75*
G03*
X162000000Y-119000000I-1500000J0D01*
G01*
%TO.C,TP1*%
X186000000Y-80000000D02*
G75*
G03*
X186000000Y-80000000I-1500000J0D01*
G01*
D15*
%TO.C,U8*%
G36*
X84664308Y-121022086D02*
G01*
X84587250Y-121042804D01*
X84462532Y-121073084D01*
X84309899Y-121108504D01*
X84149099Y-121144641D01*
X83999879Y-121177074D01*
X83881985Y-121201380D01*
X83815164Y-121213136D01*
X83809108Y-121213600D01*
X83782927Y-121181439D01*
X83768152Y-121090765D01*
X83765539Y-121010400D01*
X83769971Y-120903496D01*
X83781491Y-120830401D01*
X83794846Y-120808546D01*
X83869083Y-120818556D01*
X83986704Y-120841531D01*
X84130964Y-120873357D01*
X84285120Y-120909924D01*
X84432426Y-120947117D01*
X84556138Y-120980825D01*
X84639510Y-121006936D01*
X84665798Y-121021336D01*
X84664308Y-121022086D01*
G37*
X84664308Y-121022086D02*
X84587250Y-121042804D01*
X84462532Y-121073084D01*
X84309899Y-121108504D01*
X84149099Y-121144641D01*
X83999879Y-121177074D01*
X83881985Y-121201380D01*
X83815164Y-121213136D01*
X83809108Y-121213600D01*
X83782927Y-121181439D01*
X83768152Y-121090765D01*
X83765539Y-121010400D01*
X83769971Y-120903496D01*
X83781491Y-120830401D01*
X83794846Y-120808546D01*
X83869083Y-120818556D01*
X83986704Y-120841531D01*
X84130964Y-120873357D01*
X84285120Y-120909924D01*
X84432426Y-120947117D01*
X84556138Y-120980825D01*
X84639510Y-121006936D01*
X84665798Y-121021336D01*
X84664308Y-121022086D01*
G36*
X84648556Y-116252502D02*
G01*
X84595767Y-116332219D01*
X84497638Y-116367141D01*
X84434528Y-116370667D01*
X84287583Y-116346746D01*
X84195434Y-116274613D01*
X84157459Y-116153711D01*
X84156308Y-116122467D01*
X84156308Y-115998134D01*
X84664308Y-115998134D01*
X84664308Y-116118894D01*
X84648556Y-116252502D01*
G37*
X84648556Y-116252502D02*
X84595767Y-116332219D01*
X84497638Y-116367141D01*
X84434528Y-116370667D01*
X84287583Y-116346746D01*
X84195434Y-116274613D01*
X84157459Y-116153711D01*
X84156308Y-116122467D01*
X84156308Y-115998134D01*
X84664308Y-115998134D01*
X84664308Y-116118894D01*
X84648556Y-116252502D01*
G36*
X84280666Y-114265143D02*
G01*
X84100274Y-114306278D01*
X83948232Y-114340131D01*
X83839943Y-114363330D01*
X83790809Y-114372503D01*
X83790086Y-114372534D01*
X83777633Y-114341625D01*
X83768800Y-114260695D01*
X83765539Y-114150402D01*
X83770302Y-114041195D01*
X83782791Y-113968105D01*
X83800306Y-113946893D01*
X83800383Y-113946933D01*
X83850118Y-113961825D01*
X83959662Y-113988524D01*
X84112773Y-114023231D01*
X84290963Y-114061674D01*
X84746699Y-114157751D01*
X84280666Y-114265143D01*
G37*
X84280666Y-114265143D02*
X84100274Y-114306278D01*
X83948232Y-114340131D01*
X83839943Y-114363330D01*
X83790809Y-114372503D01*
X83790086Y-114372534D01*
X83777633Y-114341625D01*
X83768800Y-114260695D01*
X83765539Y-114150402D01*
X83770302Y-114041195D01*
X83782791Y-113968105D01*
X83800306Y-113946893D01*
X83800383Y-113946933D01*
X83850118Y-113961825D01*
X83959662Y-113988524D01*
X84112773Y-114023231D01*
X84290963Y-114061674D01*
X84746699Y-114157751D01*
X84280666Y-114265143D01*
G36*
X84692169Y-110394988D02*
G01*
X84598373Y-110419047D01*
X84456360Y-110452534D01*
X84279972Y-110492091D01*
X84249647Y-110498724D01*
X83765539Y-110604247D01*
X83765539Y-110386375D01*
X83767946Y-110268858D01*
X83778220Y-110205644D01*
X83800941Y-110183362D01*
X83833923Y-110186741D01*
X83899020Y-110201964D01*
X84020874Y-110228686D01*
X84180214Y-110262729D01*
X84308181Y-110289602D01*
X84474846Y-110325004D01*
X84610276Y-110355006D01*
X84698375Y-110375965D01*
X84723905Y-110383713D01*
X84692169Y-110394988D01*
G37*
X84692169Y-110394988D02*
X84598373Y-110419047D01*
X84456360Y-110452534D01*
X84279972Y-110492091D01*
X84249647Y-110498724D01*
X83765539Y-110604247D01*
X83765539Y-110386375D01*
X83767946Y-110268858D01*
X83778220Y-110205644D01*
X83800941Y-110183362D01*
X83833923Y-110186741D01*
X83899020Y-110201964D01*
X84020874Y-110228686D01*
X84180214Y-110262729D01*
X84308181Y-110289602D01*
X84474846Y-110325004D01*
X84610276Y-110355006D01*
X84698375Y-110375965D01*
X84723905Y-110383713D01*
X84692169Y-110394988D01*
G36*
X82554154Y-122128000D02*
G01*
X82554154Y-105872001D01*
X83959788Y-105872001D01*
X83959788Y-106021278D01*
X83682569Y-106042506D01*
X83422923Y-106101374D01*
X83196887Y-106193596D01*
X83020499Y-106314886D01*
X82956312Y-106384599D01*
X82838068Y-106596604D01*
X82773873Y-106843230D01*
X82765625Y-107108651D01*
X82815221Y-107377041D01*
X82831330Y-107427036D01*
X82879140Y-107565334D01*
X83092917Y-107565334D01*
X83092917Y-107872162D01*
X82972562Y-107885777D01*
X82864076Y-107938600D01*
X82784239Y-108028459D01*
X82749835Y-108153179D01*
X82749539Y-108167008D01*
X82778684Y-108302938D01*
X82816414Y-108354316D01*
X82816414Y-109336675D01*
X82804242Y-109360851D01*
X82796811Y-109438836D01*
X82795023Y-109556790D01*
X82796876Y-109636639D01*
X82808154Y-109952491D01*
X83014609Y-110000247D01*
X83221063Y-110048002D01*
X83209993Y-110387213D01*
X83198923Y-110726423D01*
X82993769Y-110775816D01*
X82788616Y-110825209D01*
X82788616Y-111125671D01*
X82789634Y-111258766D01*
X82792359Y-111361496D01*
X82796296Y-111418682D01*
X82798385Y-111425514D01*
X82836514Y-111415269D01*
X82939988Y-111386524D01*
X83099857Y-111341791D01*
X83307166Y-111283581D01*
X83552965Y-111214406D01*
X83828301Y-111136779D01*
X83980462Y-111093825D01*
X85152769Y-110762758D01*
X85163801Y-110384911D01*
X85172308Y-110093520D01*
X85172308Y-111663201D01*
X82788616Y-111663201D01*
X82788616Y-113017867D01*
X82837462Y-113017867D01*
X82837462Y-113127124D01*
X82813102Y-113137379D01*
X82797816Y-113191749D01*
X82790180Y-113298758D01*
X82788616Y-113419338D01*
X82788616Y-113726456D01*
X82954693Y-113763301D01*
X83068369Y-113789250D01*
X83153153Y-113809889D01*
X83169616Y-113814343D01*
X83194535Y-113846587D01*
X83210234Y-113930270D01*
X83217612Y-114071831D01*
X83218462Y-114163934D01*
X83218462Y-114499326D01*
X82808154Y-114598090D01*
X82796956Y-114906170D01*
X82785758Y-115214249D01*
X82788616Y-115213425D01*
X82788616Y-115422401D01*
X82788616Y-115998134D01*
X83221180Y-115998134D01*
X83409464Y-115998678D01*
X83532742Y-116001859D01*
X83604160Y-116009998D01*
X83636862Y-116025416D01*
X83643997Y-116050436D01*
X83641257Y-116072318D01*
X83612825Y-116118391D01*
X83536218Y-116177906D01*
X83403739Y-116255958D01*
X83218462Y-116352251D01*
X82808154Y-116558000D01*
X82796918Y-116870734D01*
X82794398Y-117006804D01*
X82796937Y-117112940D01*
X82803948Y-117174246D01*
X82809303Y-117183467D01*
X82848238Y-117165453D01*
X82939907Y-117115803D01*
X83072528Y-117041108D01*
X83234317Y-116947957D01*
X83324514Y-116895321D01*
X83816105Y-116607175D01*
X83947758Y-116740474D01*
X84112282Y-116865086D01*
X84305534Y-116930343D01*
X84537343Y-116939448D01*
X84554544Y-116938126D01*
X84745396Y-116901734D01*
X84892900Y-116822037D01*
X85013289Y-116688803D01*
X85054784Y-116622907D01*
X85092866Y-116552006D01*
X85120158Y-116482299D01*
X85138910Y-116400015D01*
X85151367Y-116291380D01*
X85159778Y-116142622D01*
X85166391Y-115939969D01*
X85166421Y-115938867D01*
X85172308Y-115725324D01*
X85172308Y-117386667D01*
X82788616Y-117386667D01*
X82788616Y-117904622D01*
X84488462Y-117870498D01*
X83637454Y-118077316D01*
X82786445Y-118284134D01*
X82797300Y-118554038D01*
X82808154Y-118823943D01*
X83591679Y-119014635D01*
X83829753Y-119072719D01*
X84044227Y-119125317D01*
X84222971Y-119169431D01*
X84353853Y-119202064D01*
X84424743Y-119220220D01*
X84431833Y-119222193D01*
X84411591Y-119226371D01*
X84323460Y-119228706D01*
X84177676Y-119229195D01*
X83984478Y-119227833D01*
X83754099Y-119224616D01*
X83638539Y-119222514D01*
X82788616Y-119205967D01*
X82788616Y-119723467D01*
X82798385Y-119723467D01*
X82798385Y-119961359D01*
X82794078Y-119992321D01*
X82790740Y-120075932D01*
X82788859Y-120197111D01*
X82788616Y-120264388D01*
X82788616Y-120568242D01*
X83218462Y-120676540D01*
X83218462Y-121347175D01*
X82788616Y-121455473D01*
X82788616Y-122056744D01*
X82896077Y-122026706D01*
X82959989Y-122008639D01*
X83087697Y-121972370D01*
X83268760Y-121920871D01*
X83492737Y-121857112D01*
X83749187Y-121784065D01*
X84027668Y-121704702D01*
X84089175Y-121687168D01*
X85174811Y-121377667D01*
X85152769Y-120626405D01*
X83980462Y-120294295D01*
X83693325Y-120213010D01*
X83431053Y-120138877D01*
X83202594Y-120074417D01*
X83016897Y-120022150D01*
X82882909Y-119984597D01*
X82809579Y-119964278D01*
X82798385Y-119961359D01*
X82798385Y-119723467D01*
X85172308Y-119723467D01*
X85172308Y-118994331D01*
X84361462Y-118794463D01*
X84120934Y-118734823D01*
X83905441Y-118680721D01*
X83726470Y-118635097D01*
X83595511Y-118600889D01*
X83524052Y-118581036D01*
X83515010Y-118577926D01*
X83537660Y-118563285D01*
X83623606Y-118533923D01*
X83760906Y-118493450D01*
X83937618Y-118445476D01*
X84042548Y-118418402D01*
X84269534Y-118360719D01*
X84496969Y-118302741D01*
X84701580Y-118250412D01*
X84860093Y-118209678D01*
X84889000Y-118202207D01*
X85172308Y-118128866D01*
X85172308Y-117386667D01*
X85172308Y-115725324D01*
X85180659Y-115422401D01*
X82788616Y-115422401D01*
X82788616Y-115213425D01*
X83979033Y-114869936D01*
X85172308Y-114525622D01*
X85172186Y-114152745D01*
X85172064Y-113779867D01*
X84029186Y-113460947D01*
X83743300Y-113381131D01*
X83480401Y-113307655D01*
X83249990Y-113243182D01*
X83061574Y-113190375D01*
X82924657Y-113151895D01*
X82848741Y-113130404D01*
X82837462Y-113127124D01*
X82837462Y-113017867D01*
X83294135Y-113017867D01*
X83305145Y-112619934D01*
X83316154Y-112222001D01*
X85172308Y-112203841D01*
X85172308Y-111663201D01*
X85172308Y-110093520D01*
X85174832Y-110007065D01*
X84011031Y-109679815D01*
X83723589Y-109598765D01*
X83460007Y-109524017D01*
X83229502Y-109458217D01*
X83041290Y-109404012D01*
X82904588Y-109364049D01*
X82828613Y-109340977D01*
X82816414Y-109336675D01*
X82816414Y-108354316D01*
X82829215Y-108371748D01*
X82935804Y-108431112D01*
X83060885Y-108445867D01*
X83216006Y-108420025D01*
X83318956Y-108345585D01*
X83365892Y-108227182D01*
X83357383Y-108088296D01*
X83302109Y-107971249D01*
X83208360Y-107899928D01*
X83092917Y-107872162D01*
X83092917Y-107565334D01*
X83146493Y-107565334D01*
X83279548Y-107564202D01*
X83375160Y-107561230D01*
X83413371Y-107557049D01*
X83413423Y-107556867D01*
X83402855Y-107522558D01*
X83376257Y-107443940D01*
X83354808Y-107382151D01*
X83312823Y-107216078D01*
X83298421Y-107050317D01*
X83311506Y-106905234D01*
X83351981Y-106801194D01*
X83357603Y-106793743D01*
X83480437Y-106696336D01*
X83653267Y-106630562D01*
X83856628Y-106597016D01*
X84071052Y-106596291D01*
X84277073Y-106628981D01*
X84455222Y-106695678D01*
X84546780Y-106757487D01*
X84621614Y-106834614D01*
X84656101Y-106914706D01*
X84664308Y-107027160D01*
X84651790Y-107156481D01*
X84620377Y-107280733D01*
X84605693Y-107316558D01*
X84567936Y-107400839D01*
X84548003Y-107456969D01*
X84547077Y-107463354D01*
X84579942Y-107488285D01*
X84662476Y-107526489D01*
X84770590Y-107568846D01*
X84880194Y-107606236D01*
X84967197Y-107629542D01*
X84995400Y-107633067D01*
X85047888Y-107601695D01*
X85098463Y-107517507D01*
X85143082Y-107395397D01*
X85177704Y-107250255D01*
X85198286Y-107096976D01*
X85200785Y-106950451D01*
X85195603Y-106895479D01*
X85150376Y-106691347D01*
X85068140Y-106524297D01*
X84934714Y-106366631D01*
X84915001Y-106347421D01*
X84747151Y-106212856D01*
X84558929Y-106119740D01*
X84326442Y-106057286D01*
X84238540Y-106041975D01*
X83959788Y-106021278D01*
X83959788Y-105872001D01*
X85406769Y-105872001D01*
X85406769Y-122128000D01*
X82554154Y-122128000D01*
G37*
X82554154Y-122128000D02*
X82554154Y-105872001D01*
X83959788Y-105872001D01*
X83959788Y-106021278D01*
X83682569Y-106042506D01*
X83422923Y-106101374D01*
X83196887Y-106193596D01*
X83020499Y-106314886D01*
X82956312Y-106384599D01*
X82838068Y-106596604D01*
X82773873Y-106843230D01*
X82765625Y-107108651D01*
X82815221Y-107377041D01*
X82831330Y-107427036D01*
X82879140Y-107565334D01*
X83092917Y-107565334D01*
X83092917Y-107872162D01*
X82972562Y-107885777D01*
X82864076Y-107938600D01*
X82784239Y-108028459D01*
X82749835Y-108153179D01*
X82749539Y-108167008D01*
X82778684Y-108302938D01*
X82816414Y-108354316D01*
X82816414Y-109336675D01*
X82804242Y-109360851D01*
X82796811Y-109438836D01*
X82795023Y-109556790D01*
X82796876Y-109636639D01*
X82808154Y-109952491D01*
X83014609Y-110000247D01*
X83221063Y-110048002D01*
X83209993Y-110387213D01*
X83198923Y-110726423D01*
X82993769Y-110775816D01*
X82788616Y-110825209D01*
X82788616Y-111125671D01*
X82789634Y-111258766D01*
X82792359Y-111361496D01*
X82796296Y-111418682D01*
X82798385Y-111425514D01*
X82836514Y-111415269D01*
X82939988Y-111386524D01*
X83099857Y-111341791D01*
X83307166Y-111283581D01*
X83552965Y-111214406D01*
X83828301Y-111136779D01*
X83980462Y-111093825D01*
X85152769Y-110762758D01*
X85163801Y-110384911D01*
X85172308Y-110093520D01*
X85172308Y-111663201D01*
X82788616Y-111663201D01*
X82788616Y-113017867D01*
X82837462Y-113017867D01*
X82837462Y-113127124D01*
X82813102Y-113137379D01*
X82797816Y-113191749D01*
X82790180Y-113298758D01*
X82788616Y-113419338D01*
X82788616Y-113726456D01*
X82954693Y-113763301D01*
X83068369Y-113789250D01*
X83153153Y-113809889D01*
X83169616Y-113814343D01*
X83194535Y-113846587D01*
X83210234Y-113930270D01*
X83217612Y-114071831D01*
X83218462Y-114163934D01*
X83218462Y-114499326D01*
X82808154Y-114598090D01*
X82796956Y-114906170D01*
X82785758Y-115214249D01*
X82788616Y-115213425D01*
X82788616Y-115422401D01*
X82788616Y-115998134D01*
X83221180Y-115998134D01*
X83409464Y-115998678D01*
X83532742Y-116001859D01*
X83604160Y-116009998D01*
X83636862Y-116025416D01*
X83643997Y-116050436D01*
X83641257Y-116072318D01*
X83612825Y-116118391D01*
X83536218Y-116177906D01*
X83403739Y-116255958D01*
X83218462Y-116352251D01*
X82808154Y-116558000D01*
X82796918Y-116870734D01*
X82794398Y-117006804D01*
X82796937Y-117112940D01*
X82803948Y-117174246D01*
X82809303Y-117183467D01*
X82848238Y-117165453D01*
X82939907Y-117115803D01*
X83072528Y-117041108D01*
X83234317Y-116947957D01*
X83324514Y-116895321D01*
X83816105Y-116607175D01*
X83947758Y-116740474D01*
X84112282Y-116865086D01*
X84305534Y-116930343D01*
X84537343Y-116939448D01*
X84554544Y-116938126D01*
X84745396Y-116901734D01*
X84892900Y-116822037D01*
X85013289Y-116688803D01*
X85054784Y-116622907D01*
X85092866Y-116552006D01*
X85120158Y-116482299D01*
X85138910Y-116400015D01*
X85151367Y-116291380D01*
X85159778Y-116142622D01*
X85166391Y-115939969D01*
X85166421Y-115938867D01*
X85172308Y-115725324D01*
X85172308Y-117386667D01*
X82788616Y-117386667D01*
X82788616Y-117904622D01*
X84488462Y-117870498D01*
X83637454Y-118077316D01*
X82786445Y-118284134D01*
X82797300Y-118554038D01*
X82808154Y-118823943D01*
X83591679Y-119014635D01*
X83829753Y-119072719D01*
X84044227Y-119125317D01*
X84222971Y-119169431D01*
X84353853Y-119202064D01*
X84424743Y-119220220D01*
X84431833Y-119222193D01*
X84411591Y-119226371D01*
X84323460Y-119228706D01*
X84177676Y-119229195D01*
X83984478Y-119227833D01*
X83754099Y-119224616D01*
X83638539Y-119222514D01*
X82788616Y-119205967D01*
X82788616Y-119723467D01*
X82798385Y-119723467D01*
X82798385Y-119961359D01*
X82794078Y-119992321D01*
X82790740Y-120075932D01*
X82788859Y-120197111D01*
X82788616Y-120264388D01*
X82788616Y-120568242D01*
X83218462Y-120676540D01*
X83218462Y-121347175D01*
X82788616Y-121455473D01*
X82788616Y-122056744D01*
X82896077Y-122026706D01*
X82959989Y-122008639D01*
X83087697Y-121972370D01*
X83268760Y-121920871D01*
X83492737Y-121857112D01*
X83749187Y-121784065D01*
X84027668Y-121704702D01*
X84089175Y-121687168D01*
X85174811Y-121377667D01*
X85152769Y-120626405D01*
X83980462Y-120294295D01*
X83693325Y-120213010D01*
X83431053Y-120138877D01*
X83202594Y-120074417D01*
X83016897Y-120022150D01*
X82882909Y-119984597D01*
X82809579Y-119964278D01*
X82798385Y-119961359D01*
X82798385Y-119723467D01*
X85172308Y-119723467D01*
X85172308Y-118994331D01*
X84361462Y-118794463D01*
X84120934Y-118734823D01*
X83905441Y-118680721D01*
X83726470Y-118635097D01*
X83595511Y-118600889D01*
X83524052Y-118581036D01*
X83515010Y-118577926D01*
X83537660Y-118563285D01*
X83623606Y-118533923D01*
X83760906Y-118493450D01*
X83937618Y-118445476D01*
X84042548Y-118418402D01*
X84269534Y-118360719D01*
X84496969Y-118302741D01*
X84701580Y-118250412D01*
X84860093Y-118209678D01*
X84889000Y-118202207D01*
X85172308Y-118128866D01*
X85172308Y-117386667D01*
X85172308Y-115725324D01*
X85180659Y-115422401D01*
X82788616Y-115422401D01*
X82788616Y-115213425D01*
X83979033Y-114869936D01*
X85172308Y-114525622D01*
X85172186Y-114152745D01*
X85172064Y-113779867D01*
X84029186Y-113460947D01*
X83743300Y-113381131D01*
X83480401Y-113307655D01*
X83249990Y-113243182D01*
X83061574Y-113190375D01*
X82924657Y-113151895D01*
X82848741Y-113130404D01*
X82837462Y-113127124D01*
X82837462Y-113017867D01*
X83294135Y-113017867D01*
X83305145Y-112619934D01*
X83316154Y-112222001D01*
X85172308Y-112203841D01*
X85172308Y-111663201D01*
X85172308Y-110093520D01*
X85174832Y-110007065D01*
X84011031Y-109679815D01*
X83723589Y-109598765D01*
X83460007Y-109524017D01*
X83229502Y-109458217D01*
X83041290Y-109404012D01*
X82904588Y-109364049D01*
X82828613Y-109340977D01*
X82816414Y-109336675D01*
X82816414Y-108354316D01*
X82829215Y-108371748D01*
X82935804Y-108431112D01*
X83060885Y-108445867D01*
X83216006Y-108420025D01*
X83318956Y-108345585D01*
X83365892Y-108227182D01*
X83357383Y-108088296D01*
X83302109Y-107971249D01*
X83208360Y-107899928D01*
X83092917Y-107872162D01*
X83092917Y-107565334D01*
X83146493Y-107565334D01*
X83279548Y-107564202D01*
X83375160Y-107561230D01*
X83413371Y-107557049D01*
X83413423Y-107556867D01*
X83402855Y-107522558D01*
X83376257Y-107443940D01*
X83354808Y-107382151D01*
X83312823Y-107216078D01*
X83298421Y-107050317D01*
X83311506Y-106905234D01*
X83351981Y-106801194D01*
X83357603Y-106793743D01*
X83480437Y-106696336D01*
X83653267Y-106630562D01*
X83856628Y-106597016D01*
X84071052Y-106596291D01*
X84277073Y-106628981D01*
X84455222Y-106695678D01*
X84546780Y-106757487D01*
X84621614Y-106834614D01*
X84656101Y-106914706D01*
X84664308Y-107027160D01*
X84651790Y-107156481D01*
X84620377Y-107280733D01*
X84605693Y-107316558D01*
X84567936Y-107400839D01*
X84548003Y-107456969D01*
X84547077Y-107463354D01*
X84579942Y-107488285D01*
X84662476Y-107526489D01*
X84770590Y-107568846D01*
X84880194Y-107606236D01*
X84967197Y-107629542D01*
X84995400Y-107633067D01*
X85047888Y-107601695D01*
X85098463Y-107517507D01*
X85143082Y-107395397D01*
X85177704Y-107250255D01*
X85198286Y-107096976D01*
X85200785Y-106950451D01*
X85195603Y-106895479D01*
X85150376Y-106691347D01*
X85068140Y-106524297D01*
X84934714Y-106366631D01*
X84915001Y-106347421D01*
X84747151Y-106212856D01*
X84558929Y-106119740D01*
X84326442Y-106057286D01*
X84238540Y-106041975D01*
X83959788Y-106021278D01*
X83959788Y-105872001D01*
X85406769Y-105872001D01*
X85406769Y-122128000D01*
X82554154Y-122128000D01*
%TO.C,U7*%
G36*
X135277409Y-120758411D02*
G01*
X135318544Y-120938803D01*
X135352397Y-121090845D01*
X135375596Y-121199134D01*
X135384769Y-121248268D01*
X135384800Y-121248991D01*
X135353891Y-121261443D01*
X135272962Y-121270277D01*
X135162668Y-121273538D01*
X135053462Y-121268775D01*
X134980371Y-121256286D01*
X134959159Y-121238770D01*
X134959200Y-121238694D01*
X134974091Y-121188959D01*
X135000790Y-121079415D01*
X135035497Y-120926304D01*
X135073940Y-120748114D01*
X135170018Y-120292378D01*
X135277409Y-120758411D01*
G37*
X135277409Y-120758411D02*
X135318544Y-120938803D01*
X135352397Y-121090845D01*
X135375596Y-121199134D01*
X135384769Y-121248268D01*
X135384800Y-121248991D01*
X135353891Y-121261443D01*
X135272962Y-121270277D01*
X135162668Y-121273538D01*
X135053462Y-121268775D01*
X134980371Y-121256286D01*
X134959159Y-121238770D01*
X134959200Y-121238694D01*
X134974091Y-121188959D01*
X135000790Y-121079415D01*
X135035497Y-120926304D01*
X135073940Y-120748114D01*
X135170018Y-120292378D01*
X135277409Y-120758411D01*
G36*
X129802229Y-120696621D02*
G01*
X129842786Y-120872254D01*
X129878398Y-121027276D01*
X129904394Y-121141315D01*
X129914318Y-121185615D01*
X129920665Y-121232542D01*
X129904597Y-121258869D01*
X129852316Y-121270534D01*
X129750024Y-121273471D01*
X129709957Y-121273538D01*
X129584539Y-121269306D01*
X129517916Y-121255256D01*
X129501489Y-121229364D01*
X129502701Y-121224692D01*
X129517038Y-121168991D01*
X129543635Y-121054603D01*
X129578566Y-120898733D01*
X129614213Y-120735698D01*
X129709379Y-120295551D01*
X129802229Y-120696621D01*
G37*
X129802229Y-120696621D02*
X129842786Y-120872254D01*
X129878398Y-121027276D01*
X129904394Y-121141315D01*
X129914318Y-121185615D01*
X129920665Y-121232542D01*
X129904597Y-121258869D01*
X129852316Y-121270534D01*
X129750024Y-121273471D01*
X129709957Y-121273538D01*
X129584539Y-121269306D01*
X129517916Y-121255256D01*
X129501489Y-121229364D01*
X129502701Y-121224692D01*
X129517038Y-121168991D01*
X129543635Y-121054603D01*
X129578566Y-120898733D01*
X129614213Y-120735698D01*
X129709379Y-120295551D01*
X129802229Y-120696621D01*
G36*
X136366934Y-122445846D02*
G01*
X123666934Y-122445846D01*
X123666934Y-121075548D01*
X123802400Y-121075548D01*
X123826393Y-121415515D01*
X123898139Y-121701020D01*
X124017293Y-121931452D01*
X124183508Y-122106204D01*
X124396436Y-122224665D01*
X124470166Y-122249367D01*
X124593847Y-122268639D01*
X124757503Y-122272058D01*
X124935037Y-122260989D01*
X125100356Y-122236794D01*
X125199400Y-122211269D01*
X125326400Y-122168634D01*
X125326400Y-122037184D01*
X125646195Y-122037184D01*
X125684919Y-122161195D01*
X125744205Y-122231834D01*
X125854618Y-122280410D01*
X125986460Y-122283581D01*
X126106875Y-122242688D01*
X126143145Y-122215556D01*
X126199469Y-122119359D01*
X126223815Y-121987314D01*
X126213536Y-121854017D01*
X126177361Y-121767970D01*
X126096318Y-121706899D01*
X125980297Y-121677036D01*
X125858150Y-121683442D01*
X125802874Y-121702266D01*
X125707793Y-121784068D01*
X125654693Y-121903591D01*
X125646195Y-122037184D01*
X125326400Y-122037184D01*
X125326400Y-121896932D01*
X125324732Y-121762600D01*
X125320343Y-121665473D01*
X125314159Y-121625389D01*
X125313725Y-121625231D01*
X125277055Y-121637059D01*
X125199148Y-121666935D01*
X125157067Y-121683846D01*
X124996451Y-121727797D01*
X124825935Y-121739975D01*
X124671747Y-121720300D01*
X124584218Y-121685567D01*
X124480339Y-121583409D01*
X124413003Y-121421079D01*
X124381168Y-121195517D01*
X124378134Y-121080762D01*
X124392505Y-120834405D01*
X124438005Y-120647539D01*
X124518212Y-120508257D01*
X124564863Y-120459484D01*
X124690782Y-120392009D01*
X124853316Y-120376713D01*
X125038100Y-120414317D01*
X125088682Y-120433119D01*
X125180894Y-120464442D01*
X125245858Y-120475214D01*
X125259103Y-120472150D01*
X125285875Y-120426300D01*
X125321620Y-120333373D01*
X125336581Y-120286800D01*
X125372754Y-120169943D01*
X125402805Y-120076769D01*
X125409772Y-120056401D01*
X125397158Y-120002035D01*
X125328274Y-119950708D01*
X125214576Y-119906292D01*
X125067525Y-119872658D01*
X125015108Y-119866769D01*
X127324533Y-119866769D01*
X127324533Y-122250461D01*
X127866400Y-122250461D01*
X127866400Y-122221154D01*
X128679179Y-122221154D01*
X128710521Y-122234107D01*
X128794413Y-122244131D01*
X128915683Y-122249756D01*
X128981571Y-122250461D01*
X129283943Y-122250461D01*
X129325627Y-122035538D01*
X129367312Y-121820615D01*
X130056915Y-121820615D01*
X130146285Y-122250461D01*
X130448159Y-122250461D01*
X130982133Y-122250461D01*
X132336800Y-122250461D01*
X132336800Y-121742461D01*
X131559093Y-121742461D01*
X131540933Y-119886307D01*
X131261533Y-119874958D01*
X131059947Y-119866769D01*
X132675467Y-119866769D01*
X132675467Y-122250461D01*
X134030134Y-122250461D01*
X134030134Y-122201615D01*
X134139390Y-122201615D01*
X134149645Y-122225975D01*
X134204015Y-122241261D01*
X134311024Y-122248897D01*
X134431605Y-122250461D01*
X134738723Y-122250461D01*
X134775567Y-122084384D01*
X134801516Y-121970708D01*
X134822155Y-121885924D01*
X134826609Y-121869461D01*
X134858853Y-121844541D01*
X134942536Y-121828843D01*
X135084098Y-121821465D01*
X135176200Y-121820615D01*
X135511592Y-121820615D01*
X135610356Y-122230923D01*
X135918436Y-122242121D01*
X136226516Y-122253318D01*
X135882202Y-121060044D01*
X135537888Y-119866769D01*
X134792134Y-119867013D01*
X134473214Y-121009891D01*
X134393397Y-121295776D01*
X134319922Y-121558676D01*
X134255449Y-121789086D01*
X134202641Y-121977502D01*
X134164161Y-122114420D01*
X134142671Y-122190335D01*
X134139390Y-122201615D01*
X134030134Y-122201615D01*
X134030134Y-121742461D01*
X133217334Y-121742461D01*
X133217334Y-119866769D01*
X132675467Y-119866769D01*
X131059947Y-119866769D01*
X130982133Y-119863608D01*
X130982133Y-122250461D01*
X130448159Y-122250461D01*
X130595722Y-122248117D01*
X130686317Y-122239744D01*
X130730624Y-122223326D01*
X130739318Y-122196850D01*
X130739083Y-122195588D01*
X130726158Y-122145888D01*
X130694814Y-122031494D01*
X130647727Y-121861978D01*
X130587568Y-121646916D01*
X130517012Y-121395881D01*
X130438731Y-121118447D01*
X130406400Y-121004151D01*
X130084667Y-119867586D01*
X129709834Y-119867177D01*
X129335001Y-119866769D01*
X129007079Y-121029307D01*
X128926376Y-121316322D01*
X128852883Y-121579434D01*
X128789130Y-121809453D01*
X128737643Y-121997193D01*
X128700951Y-122133465D01*
X128681581Y-122209082D01*
X128679179Y-122221154D01*
X127866400Y-122221154D01*
X127866400Y-121351692D01*
X128509867Y-121351692D01*
X128509867Y-120843692D01*
X127863020Y-120843692D01*
X127873177Y-120619000D01*
X127883334Y-120394307D01*
X128543734Y-120371939D01*
X128543734Y-119866769D01*
X127324533Y-119866769D01*
X125015108Y-119866769D01*
X124898578Y-119853677D01*
X124801467Y-119850884D01*
X124525891Y-119882704D01*
X124291776Y-119975630D01*
X124101028Y-120127327D01*
X123955551Y-120335459D01*
X123857252Y-120597691D01*
X123808035Y-120911687D01*
X123802400Y-121075548D01*
X123666934Y-121075548D01*
X123666934Y-119593231D01*
X136366934Y-119593231D01*
X136366934Y-122445846D01*
G37*
X136366934Y-122445846D02*
X123666934Y-122445846D01*
X123666934Y-121075548D01*
X123802400Y-121075548D01*
X123826393Y-121415515D01*
X123898139Y-121701020D01*
X124017293Y-121931452D01*
X124183508Y-122106204D01*
X124396436Y-122224665D01*
X124470166Y-122249367D01*
X124593847Y-122268639D01*
X124757503Y-122272058D01*
X124935037Y-122260989D01*
X125100356Y-122236794D01*
X125199400Y-122211269D01*
X125326400Y-122168634D01*
X125326400Y-122037184D01*
X125646195Y-122037184D01*
X125684919Y-122161195D01*
X125744205Y-122231834D01*
X125854618Y-122280410D01*
X125986460Y-122283581D01*
X126106875Y-122242688D01*
X126143145Y-122215556D01*
X126199469Y-122119359D01*
X126223815Y-121987314D01*
X126213536Y-121854017D01*
X126177361Y-121767970D01*
X126096318Y-121706899D01*
X125980297Y-121677036D01*
X125858150Y-121683442D01*
X125802874Y-121702266D01*
X125707793Y-121784068D01*
X125654693Y-121903591D01*
X125646195Y-122037184D01*
X125326400Y-122037184D01*
X125326400Y-121896932D01*
X125324732Y-121762600D01*
X125320343Y-121665473D01*
X125314159Y-121625389D01*
X125313725Y-121625231D01*
X125277055Y-121637059D01*
X125199148Y-121666935D01*
X125157067Y-121683846D01*
X124996451Y-121727797D01*
X124825935Y-121739975D01*
X124671747Y-121720300D01*
X124584218Y-121685567D01*
X124480339Y-121583409D01*
X124413003Y-121421079D01*
X124381168Y-121195517D01*
X124378134Y-121080762D01*
X124392505Y-120834405D01*
X124438005Y-120647539D01*
X124518212Y-120508257D01*
X124564863Y-120459484D01*
X124690782Y-120392009D01*
X124853316Y-120376713D01*
X125038100Y-120414317D01*
X125088682Y-120433119D01*
X125180894Y-120464442D01*
X125245858Y-120475214D01*
X125259103Y-120472150D01*
X125285875Y-120426300D01*
X125321620Y-120333373D01*
X125336581Y-120286800D01*
X125372754Y-120169943D01*
X125402805Y-120076769D01*
X125409772Y-120056401D01*
X125397158Y-120002035D01*
X125328274Y-119950708D01*
X125214576Y-119906292D01*
X125067525Y-119872658D01*
X125015108Y-119866769D01*
X127324533Y-119866769D01*
X127324533Y-122250461D01*
X127866400Y-122250461D01*
X127866400Y-122221154D01*
X128679179Y-122221154D01*
X128710521Y-122234107D01*
X128794413Y-122244131D01*
X128915683Y-122249756D01*
X128981571Y-122250461D01*
X129283943Y-122250461D01*
X129325627Y-122035538D01*
X129367312Y-121820615D01*
X130056915Y-121820615D01*
X130146285Y-122250461D01*
X130448159Y-122250461D01*
X130982133Y-122250461D01*
X132336800Y-122250461D01*
X132336800Y-121742461D01*
X131559093Y-121742461D01*
X131540933Y-119886307D01*
X131261533Y-119874958D01*
X131059947Y-119866769D01*
X132675467Y-119866769D01*
X132675467Y-122250461D01*
X134030134Y-122250461D01*
X134030134Y-122201615D01*
X134139390Y-122201615D01*
X134149645Y-122225975D01*
X134204015Y-122241261D01*
X134311024Y-122248897D01*
X134431605Y-122250461D01*
X134738723Y-122250461D01*
X134775567Y-122084384D01*
X134801516Y-121970708D01*
X134822155Y-121885924D01*
X134826609Y-121869461D01*
X134858853Y-121844541D01*
X134942536Y-121828843D01*
X135084098Y-121821465D01*
X135176200Y-121820615D01*
X135511592Y-121820615D01*
X135610356Y-122230923D01*
X135918436Y-122242121D01*
X136226516Y-122253318D01*
X135882202Y-121060044D01*
X135537888Y-119866769D01*
X134792134Y-119867013D01*
X134473214Y-121009891D01*
X134393397Y-121295776D01*
X134319922Y-121558676D01*
X134255449Y-121789086D01*
X134202641Y-121977502D01*
X134164161Y-122114420D01*
X134142671Y-122190335D01*
X134139390Y-122201615D01*
X134030134Y-122201615D01*
X134030134Y-121742461D01*
X133217334Y-121742461D01*
X133217334Y-119866769D01*
X132675467Y-119866769D01*
X131059947Y-119866769D01*
X130982133Y-119863608D01*
X130982133Y-122250461D01*
X130448159Y-122250461D01*
X130595722Y-122248117D01*
X130686317Y-122239744D01*
X130730624Y-122223326D01*
X130739318Y-122196850D01*
X130739083Y-122195588D01*
X130726158Y-122145888D01*
X130694814Y-122031494D01*
X130647727Y-121861978D01*
X130587568Y-121646916D01*
X130517012Y-121395881D01*
X130438731Y-121118447D01*
X130406400Y-121004151D01*
X130084667Y-119867586D01*
X129709834Y-119867177D01*
X129335001Y-119866769D01*
X129007079Y-121029307D01*
X128926376Y-121316322D01*
X128852883Y-121579434D01*
X128789130Y-121809453D01*
X128737643Y-121997193D01*
X128700951Y-122133465D01*
X128681581Y-122209082D01*
X128679179Y-122221154D01*
X127866400Y-122221154D01*
X127866400Y-121351692D01*
X128509867Y-121351692D01*
X128509867Y-120843692D01*
X127863020Y-120843692D01*
X127873177Y-120619000D01*
X127883334Y-120394307D01*
X128543734Y-120371939D01*
X128543734Y-119866769D01*
X127324533Y-119866769D01*
X125015108Y-119866769D01*
X124898578Y-119853677D01*
X124801467Y-119850884D01*
X124525891Y-119882704D01*
X124291776Y-119975630D01*
X124101028Y-120127327D01*
X123955551Y-120335459D01*
X123857252Y-120597691D01*
X123808035Y-120911687D01*
X123802400Y-121075548D01*
X123666934Y-121075548D01*
X123666934Y-119593231D01*
X136366934Y-119593231D01*
X136366934Y-122445846D01*
%TO.C,U6*%
G36*
X183682088Y-73724851D02*
G01*
X183777107Y-73761599D01*
X183805985Y-73860397D01*
X183808000Y-73973428D01*
X183801028Y-74129497D01*
X183753780Y-74203400D01*
X183626754Y-74225861D01*
X183481428Y-74227428D01*
X183280768Y-74222006D01*
X183185750Y-74185257D01*
X183156871Y-74086459D01*
X183154857Y-73973428D01*
X183161828Y-73817360D01*
X183209077Y-73743456D01*
X183336103Y-73720995D01*
X183481428Y-73719428D01*
X183682088Y-73724851D01*
G37*
X183682088Y-73724851D02*
X183777107Y-73761599D01*
X183805985Y-73860397D01*
X183808000Y-73973428D01*
X183801028Y-74129497D01*
X183753780Y-74203400D01*
X183626754Y-74225861D01*
X183481428Y-74227428D01*
X183280768Y-74222006D01*
X183185750Y-74185257D01*
X183156871Y-74086459D01*
X183154857Y-73973428D01*
X183161828Y-73817360D01*
X183209077Y-73743456D01*
X183336103Y-73720995D01*
X183481428Y-73719428D01*
X183682088Y-73724851D01*
G36*
X196407473Y-73217581D02*
G01*
X196546801Y-73324091D01*
X196744329Y-73535904D01*
X196775052Y-73570237D01*
X197005819Y-73828285D01*
X196668923Y-74173000D01*
X196492638Y-74347493D01*
X196357202Y-74470669D01*
X196293013Y-74515334D01*
X196228740Y-74463299D01*
X196102069Y-74330858D01*
X195975930Y-74187770D01*
X195697861Y-73862586D01*
X196002450Y-73498788D01*
X196168920Y-73308039D01*
X196292720Y-73213268D01*
X196407473Y-73217581D01*
G37*
X196407473Y-73217581D02*
X196546801Y-73324091D01*
X196744329Y-73535904D01*
X196775052Y-73570237D01*
X197005819Y-73828285D01*
X196668923Y-74173000D01*
X196492638Y-74347493D01*
X196357202Y-74470669D01*
X196293013Y-74515334D01*
X196228740Y-74463299D01*
X196102069Y-74330858D01*
X195975930Y-74187770D01*
X195697861Y-73862586D01*
X196002450Y-73498788D01*
X196168920Y-73308039D01*
X196292720Y-73213268D01*
X196407473Y-73217581D01*
G36*
X197841266Y-73333725D02*
G01*
X197987155Y-73469535D01*
X198193161Y-73671377D01*
X198439840Y-73919200D01*
X198707749Y-74192952D01*
X198977444Y-74472581D01*
X199229482Y-74738036D01*
X199444419Y-74969265D01*
X199602813Y-75146217D01*
X199685219Y-75248840D01*
X199691766Y-75260785D01*
X199649738Y-75326980D01*
X199522053Y-75473577D01*
X199328292Y-75681022D01*
X199088036Y-75929758D01*
X198820864Y-76200231D01*
X198546357Y-76472884D01*
X198284095Y-76728162D01*
X198053659Y-76946509D01*
X197874629Y-77108371D01*
X197766585Y-77194190D01*
X197747237Y-77202857D01*
X197684608Y-77153896D01*
X197536680Y-77017684D01*
X197320159Y-76810229D01*
X197051746Y-76547538D01*
X196748145Y-76245619D01*
X196742730Y-76240194D01*
X195782049Y-75277531D01*
X196052568Y-75007013D01*
X196323086Y-74736494D01*
X196705934Y-75114586D01*
X197088781Y-75492677D01*
X197524099Y-75061901D01*
X197959418Y-74631125D01*
X197596566Y-74263709D01*
X197417194Y-74072317D01*
X197287488Y-73915296D01*
X197233929Y-73824875D01*
X197233714Y-73822097D01*
X197283473Y-73729276D01*
X197404863Y-73587536D01*
X197556049Y-73438467D01*
X197695197Y-73323661D01*
X197774937Y-73284000D01*
X197841266Y-73333725D01*
G37*
X197841266Y-73333725D02*
X197987155Y-73469535D01*
X198193161Y-73671377D01*
X198439840Y-73919200D01*
X198707749Y-74192952D01*
X198977444Y-74472581D01*
X199229482Y-74738036D01*
X199444419Y-74969265D01*
X199602813Y-75146217D01*
X199685219Y-75248840D01*
X199691766Y-75260785D01*
X199649738Y-75326980D01*
X199522053Y-75473577D01*
X199328292Y-75681022D01*
X199088036Y-75929758D01*
X198820864Y-76200231D01*
X198546357Y-76472884D01*
X198284095Y-76728162D01*
X198053659Y-76946509D01*
X197874629Y-77108371D01*
X197766585Y-77194190D01*
X197747237Y-77202857D01*
X197684608Y-77153896D01*
X197536680Y-77017684D01*
X197320159Y-76810229D01*
X197051746Y-76547538D01*
X196748145Y-76245619D01*
X196742730Y-76240194D01*
X195782049Y-75277531D01*
X196052568Y-75007013D01*
X196323086Y-74736494D01*
X196705934Y-75114586D01*
X197088781Y-75492677D01*
X197524099Y-75061901D01*
X197959418Y-74631125D01*
X197596566Y-74263709D01*
X197417194Y-74072317D01*
X197287488Y-73915296D01*
X197233929Y-73824875D01*
X197233714Y-73822097D01*
X197283473Y-73729276D01*
X197404863Y-73587536D01*
X197556049Y-73438467D01*
X197695197Y-73323661D01*
X197774937Y-73284000D01*
X197841266Y-73333725D01*
G36*
X194319847Y-74920897D02*
G01*
X194598095Y-75051481D01*
X194793301Y-75286732D01*
X194921743Y-75641058D01*
X194949569Y-75772079D01*
X195000153Y-76041714D01*
X194155227Y-76041714D01*
X193762477Y-76045572D01*
X193494809Y-76063207D01*
X193332237Y-76103712D01*
X193254777Y-76176183D01*
X193242442Y-76289710D01*
X193272692Y-76443270D01*
X193375073Y-76613123D01*
X193564215Y-76773259D01*
X193784788Y-76884337D01*
X193931714Y-76911853D01*
X194099277Y-76878646D01*
X194284724Y-76803267D01*
X194474729Y-76730202D01*
X194661267Y-76697457D01*
X194797511Y-76709129D01*
X194838857Y-76754778D01*
X194790707Y-76840341D01*
X194672992Y-76970237D01*
X194655084Y-76987345D01*
X194504009Y-77094792D01*
X194306739Y-77156002D01*
X194020084Y-77186109D01*
X193748883Y-77192636D01*
X193560624Y-77164411D01*
X193394611Y-77087538D01*
X193290016Y-77018946D01*
X193013668Y-76749834D01*
X192854215Y-76402358D01*
X192806857Y-76000584D01*
X192854595Y-75634852D01*
X193241192Y-75634852D01*
X193303217Y-75703400D01*
X193485324Y-75739057D01*
X193798459Y-75751047D01*
X193895428Y-75751428D01*
X194212484Y-75747434D01*
X194409945Y-75732543D01*
X194513214Y-75702393D01*
X194547693Y-75652623D01*
X194548571Y-75639272D01*
X194500374Y-75514551D01*
X194383075Y-75361901D01*
X194370441Y-75348987D01*
X194126482Y-75198276D01*
X193845721Y-75167313D01*
X193572456Y-75255473D01*
X193433610Y-75362181D01*
X193288305Y-75524188D01*
X193241192Y-75634852D01*
X192854595Y-75634852D01*
X192862069Y-75577599D01*
X193025153Y-75251071D01*
X193292277Y-75024778D01*
X193659609Y-74902500D01*
X193942275Y-74880571D01*
X194319847Y-74920897D01*
G37*
X194319847Y-74920897D02*
X194598095Y-75051481D01*
X194793301Y-75286732D01*
X194921743Y-75641058D01*
X194949569Y-75772079D01*
X195000153Y-76041714D01*
X194155227Y-76041714D01*
X193762477Y-76045572D01*
X193494809Y-76063207D01*
X193332237Y-76103712D01*
X193254777Y-76176183D01*
X193242442Y-76289710D01*
X193272692Y-76443270D01*
X193375073Y-76613123D01*
X193564215Y-76773259D01*
X193784788Y-76884337D01*
X193931714Y-76911853D01*
X194099277Y-76878646D01*
X194284724Y-76803267D01*
X194474729Y-76730202D01*
X194661267Y-76697457D01*
X194797511Y-76709129D01*
X194838857Y-76754778D01*
X194790707Y-76840341D01*
X194672992Y-76970237D01*
X194655084Y-76987345D01*
X194504009Y-77094792D01*
X194306739Y-77156002D01*
X194020084Y-77186109D01*
X193748883Y-77192636D01*
X193560624Y-77164411D01*
X193394611Y-77087538D01*
X193290016Y-77018946D01*
X193013668Y-76749834D01*
X192854215Y-76402358D01*
X192806857Y-76000584D01*
X192854595Y-75634852D01*
X193241192Y-75634852D01*
X193303217Y-75703400D01*
X193485324Y-75739057D01*
X193798459Y-75751047D01*
X193895428Y-75751428D01*
X194212484Y-75747434D01*
X194409945Y-75732543D01*
X194513214Y-75702393D01*
X194547693Y-75652623D01*
X194548571Y-75639272D01*
X194500374Y-75514551D01*
X194383075Y-75361901D01*
X194370441Y-75348987D01*
X194126482Y-75198276D01*
X193845721Y-75167313D01*
X193572456Y-75255473D01*
X193433610Y-75362181D01*
X193288305Y-75524188D01*
X193241192Y-75634852D01*
X192854595Y-75634852D01*
X192862069Y-75577599D01*
X193025153Y-75251071D01*
X193292277Y-75024778D01*
X193659609Y-74902500D01*
X193942275Y-74880571D01*
X194319847Y-74920897D01*
G36*
X192058777Y-74913367D02*
G01*
X192299224Y-75018311D01*
X192445044Y-75205239D01*
X192478870Y-75297857D01*
X192491155Y-75421421D01*
X192402327Y-75459879D01*
X192357490Y-75461142D01*
X192186860Y-75403412D01*
X192097984Y-75316000D01*
X191962607Y-75210657D01*
X191759195Y-75168090D01*
X191531531Y-75181687D01*
X191323396Y-75244833D01*
X191178572Y-75350914D01*
X191137714Y-75461059D01*
X191192332Y-75548685D01*
X191321145Y-75665799D01*
X191471592Y-75771185D01*
X191591110Y-75823625D01*
X191601072Y-75824404D01*
X191841274Y-75864974D01*
X192114348Y-75965066D01*
X192347264Y-76095246D01*
X192416983Y-76153243D01*
X192557106Y-76380085D01*
X192571362Y-76627137D01*
X192469636Y-76863240D01*
X192261807Y-77057231D01*
X192105735Y-77134731D01*
X191822427Y-77191646D01*
X191485756Y-77188739D01*
X191173333Y-77128734D01*
X191094146Y-77099229D01*
X190873248Y-76944968D01*
X190777760Y-76736484D01*
X190774857Y-76688921D01*
X190829445Y-76628796D01*
X190955208Y-76628239D01*
X191095142Y-76678723D01*
X191178374Y-76749285D01*
X191310909Y-76828184D01*
X191528452Y-76868353D01*
X191775819Y-76868657D01*
X191997827Y-76827961D01*
X192116039Y-76768581D01*
X192224954Y-76625884D01*
X192198513Y-76486674D01*
X192033720Y-76347084D01*
X191727582Y-76203248D01*
X191657800Y-76176817D01*
X191300298Y-76033434D01*
X191062518Y-75903577D01*
X190922737Y-75768219D01*
X190859232Y-75608334D01*
X190848539Y-75468038D01*
X190883833Y-75208667D01*
X190998673Y-75032838D01*
X191210398Y-74928665D01*
X191536348Y-74884261D01*
X191705475Y-74880571D01*
X192058777Y-74913367D01*
G37*
X192058777Y-74913367D02*
X192299224Y-75018311D01*
X192445044Y-75205239D01*
X192478870Y-75297857D01*
X192491155Y-75421421D01*
X192402327Y-75459879D01*
X192357490Y-75461142D01*
X192186860Y-75403412D01*
X192097984Y-75316000D01*
X191962607Y-75210657D01*
X191759195Y-75168090D01*
X191531531Y-75181687D01*
X191323396Y-75244833D01*
X191178572Y-75350914D01*
X191137714Y-75461059D01*
X191192332Y-75548685D01*
X191321145Y-75665799D01*
X191471592Y-75771185D01*
X191591110Y-75823625D01*
X191601072Y-75824404D01*
X191841274Y-75864974D01*
X192114348Y-75965066D01*
X192347264Y-76095246D01*
X192416983Y-76153243D01*
X192557106Y-76380085D01*
X192571362Y-76627137D01*
X192469636Y-76863240D01*
X192261807Y-77057231D01*
X192105735Y-77134731D01*
X191822427Y-77191646D01*
X191485756Y-77188739D01*
X191173333Y-77128734D01*
X191094146Y-77099229D01*
X190873248Y-76944968D01*
X190777760Y-76736484D01*
X190774857Y-76688921D01*
X190829445Y-76628796D01*
X190955208Y-76628239D01*
X191095142Y-76678723D01*
X191178374Y-76749285D01*
X191310909Y-76828184D01*
X191528452Y-76868353D01*
X191775819Y-76868657D01*
X191997827Y-76827961D01*
X192116039Y-76768581D01*
X192224954Y-76625884D01*
X192198513Y-76486674D01*
X192033720Y-76347084D01*
X191727582Y-76203248D01*
X191657800Y-76176817D01*
X191300298Y-76033434D01*
X191062518Y-75903577D01*
X190922737Y-75768219D01*
X190859232Y-75608334D01*
X190848539Y-75468038D01*
X190883833Y-75208667D01*
X190998673Y-75032838D01*
X191210398Y-74928665D01*
X191536348Y-74884261D01*
X191705475Y-74880571D01*
X192058777Y-74913367D01*
G36*
X189376249Y-73798331D02*
G01*
X189416605Y-73831601D01*
X189443298Y-73913222D01*
X189459276Y-74064607D01*
X189467490Y-74307169D01*
X189470888Y-74662321D01*
X189471732Y-74898714D01*
X189479099Y-75489496D01*
X189500489Y-75950513D01*
X189540491Y-76296832D01*
X189603694Y-76543524D01*
X189694689Y-76705659D01*
X189818066Y-76798306D01*
X189978415Y-76836535D01*
X190063013Y-76840000D01*
X190212117Y-76862822D01*
X190263695Y-76957339D01*
X190266857Y-77021428D01*
X190236327Y-77139538D01*
X190129813Y-77193356D01*
X189924931Y-77188197D01*
X189713447Y-77152823D01*
X189557499Y-77079973D01*
X189392734Y-76945474D01*
X189386875Y-76939318D01*
X189328738Y-76872573D01*
X189285027Y-76799121D01*
X189253298Y-76698050D01*
X189231109Y-76548444D01*
X189216016Y-76329391D01*
X189205573Y-76019977D01*
X189197338Y-75599287D01*
X189192278Y-75274041D01*
X189185229Y-74775421D01*
X189182232Y-74403393D01*
X189184874Y-74139429D01*
X189194744Y-73964999D01*
X189213429Y-73861575D01*
X189242516Y-73810627D01*
X189283595Y-73793625D01*
X189319278Y-73792000D01*
X189376249Y-73798331D01*
G37*
X189376249Y-73798331D02*
X189416605Y-73831601D01*
X189443298Y-73913222D01*
X189459276Y-74064607D01*
X189467490Y-74307169D01*
X189470888Y-74662321D01*
X189471732Y-74898714D01*
X189479099Y-75489496D01*
X189500489Y-75950513D01*
X189540491Y-76296832D01*
X189603694Y-76543524D01*
X189694689Y-76705659D01*
X189818066Y-76798306D01*
X189978415Y-76836535D01*
X190063013Y-76840000D01*
X190212117Y-76862822D01*
X190263695Y-76957339D01*
X190266857Y-77021428D01*
X190236327Y-77139538D01*
X190129813Y-77193356D01*
X189924931Y-77188197D01*
X189713447Y-77152823D01*
X189557499Y-77079973D01*
X189392734Y-76945474D01*
X189386875Y-76939318D01*
X189328738Y-76872573D01*
X189285027Y-76799121D01*
X189253298Y-76698050D01*
X189231109Y-76548444D01*
X189216016Y-76329391D01*
X189205573Y-76019977D01*
X189197338Y-75599287D01*
X189192278Y-75274041D01*
X189185229Y-74775421D01*
X189182232Y-74403393D01*
X189184874Y-74139429D01*
X189194744Y-73964999D01*
X189213429Y-73861575D01*
X189242516Y-73810627D01*
X189283595Y-73793625D01*
X189319278Y-73792000D01*
X189376249Y-73798331D01*
G36*
X188004770Y-74873325D02*
G01*
X188325899Y-75054587D01*
X188563048Y-75330957D01*
X188697882Y-75681379D01*
X188714157Y-76066861D01*
X188662096Y-76333103D01*
X188577829Y-76579994D01*
X188544215Y-76647432D01*
X188385923Y-76828299D01*
X188146269Y-77003247D01*
X187880961Y-77138869D01*
X187645707Y-77201758D01*
X187618000Y-77202857D01*
X187465620Y-77170963D01*
X187251402Y-77090120D01*
X187143818Y-77039571D01*
X186831531Y-76814510D01*
X186624785Y-76526096D01*
X186518327Y-76199054D01*
X186511356Y-75991028D01*
X186882268Y-75991028D01*
X186931155Y-76281017D01*
X187053186Y-76538841D01*
X187241709Y-76733283D01*
X187490077Y-76833127D01*
X187581714Y-76840000D01*
X187780713Y-76794902D01*
X187969323Y-76690963D01*
X188166921Y-76450497D01*
X188267409Y-76144716D01*
X188270787Y-75816177D01*
X188177054Y-75507435D01*
X187986210Y-75261048D01*
X187969323Y-75247322D01*
X187736851Y-75121287D01*
X187499516Y-75122643D01*
X187240953Y-75240229D01*
X187030517Y-75439418D01*
X186913172Y-75700090D01*
X186882268Y-75991028D01*
X186511356Y-75991028D01*
X186506901Y-75858112D01*
X186585254Y-75527996D01*
X186748131Y-75233431D01*
X186990276Y-74999145D01*
X187306437Y-74849863D01*
X187618000Y-74808225D01*
X188004770Y-74873325D01*
G37*
X188004770Y-74873325D02*
X188325899Y-75054587D01*
X188563048Y-75330957D01*
X188697882Y-75681379D01*
X188714157Y-76066861D01*
X188662096Y-76333103D01*
X188577829Y-76579994D01*
X188544215Y-76647432D01*
X188385923Y-76828299D01*
X188146269Y-77003247D01*
X187880961Y-77138869D01*
X187645707Y-77201758D01*
X187618000Y-77202857D01*
X187465620Y-77170963D01*
X187251402Y-77090120D01*
X187143818Y-77039571D01*
X186831531Y-76814510D01*
X186624785Y-76526096D01*
X186518327Y-76199054D01*
X186511356Y-75991028D01*
X186882268Y-75991028D01*
X186931155Y-76281017D01*
X187053186Y-76538841D01*
X187241709Y-76733283D01*
X187490077Y-76833127D01*
X187581714Y-76840000D01*
X187780713Y-76794902D01*
X187969323Y-76690963D01*
X188166921Y-76450497D01*
X188267409Y-76144716D01*
X188270787Y-75816177D01*
X188177054Y-75507435D01*
X187986210Y-75261048D01*
X187969323Y-75247322D01*
X187736851Y-75121287D01*
X187499516Y-75122643D01*
X187240953Y-75240229D01*
X187030517Y-75439418D01*
X186913172Y-75700090D01*
X186882268Y-75991028D01*
X186511356Y-75991028D01*
X186506901Y-75858112D01*
X186585254Y-75527996D01*
X186748131Y-75233431D01*
X186990276Y-74999145D01*
X187306437Y-74849863D01*
X187618000Y-74808225D01*
X188004770Y-74873325D01*
G36*
X185664072Y-74907184D02*
G01*
X185904647Y-75029775D01*
X186072418Y-75191310D01*
X186130285Y-75360325D01*
X186077303Y-75444178D01*
X185948965Y-75452954D01*
X185791184Y-75391327D01*
X185694857Y-75316000D01*
X185513312Y-75207177D01*
X185287748Y-75167670D01*
X185059747Y-75190901D01*
X184870893Y-75270291D01*
X184762769Y-75399261D01*
X184751428Y-75465252D01*
X184770385Y-75552903D01*
X184841996Y-75631214D01*
X184988376Y-75712700D01*
X185231638Y-75809878D01*
X185564268Y-75925329D01*
X185865515Y-76046406D01*
X186051572Y-76174113D01*
X186126570Y-76272631D01*
X186193974Y-76513916D01*
X186139434Y-76737695D01*
X185986074Y-76931083D01*
X185757017Y-77081199D01*
X185475390Y-77175160D01*
X185164315Y-77200081D01*
X184846918Y-77143082D01*
X184685001Y-77075744D01*
X184505692Y-76950087D01*
X184387979Y-76806671D01*
X184378911Y-76785571D01*
X184356190Y-76663166D01*
X184434710Y-76624139D01*
X184490881Y-76622285D01*
X184661838Y-76664173D01*
X184747557Y-76726478D01*
X184915947Y-76836725D01*
X185150078Y-76881701D01*
X185403107Y-76866192D01*
X185628194Y-76794983D01*
X185778495Y-76672860D01*
X185804931Y-76618451D01*
X185826331Y-76498949D01*
X185787134Y-76407311D01*
X185664981Y-76325620D01*
X185437514Y-76235959D01*
X185249929Y-76173698D01*
X184833368Y-76010057D01*
X184556079Y-75830640D01*
X184412649Y-75631186D01*
X184388571Y-75496122D01*
X184427833Y-75251884D01*
X184557925Y-75072538D01*
X184797307Y-74941740D01*
X185114285Y-74853546D01*
X185388137Y-74842216D01*
X185664072Y-74907184D01*
G37*
X185664072Y-74907184D02*
X185904647Y-75029775D01*
X186072418Y-75191310D01*
X186130285Y-75360325D01*
X186077303Y-75444178D01*
X185948965Y-75452954D01*
X185791184Y-75391327D01*
X185694857Y-75316000D01*
X185513312Y-75207177D01*
X185287748Y-75167670D01*
X185059747Y-75190901D01*
X184870893Y-75270291D01*
X184762769Y-75399261D01*
X184751428Y-75465252D01*
X184770385Y-75552903D01*
X184841996Y-75631214D01*
X184988376Y-75712700D01*
X185231638Y-75809878D01*
X185564268Y-75925329D01*
X185865515Y-76046406D01*
X186051572Y-76174113D01*
X186126570Y-76272631D01*
X186193974Y-76513916D01*
X186139434Y-76737695D01*
X185986074Y-76931083D01*
X185757017Y-77081199D01*
X185475390Y-77175160D01*
X185164315Y-77200081D01*
X184846918Y-77143082D01*
X184685001Y-77075744D01*
X184505692Y-76950087D01*
X184387979Y-76806671D01*
X184378911Y-76785571D01*
X184356190Y-76663166D01*
X184434710Y-76624139D01*
X184490881Y-76622285D01*
X184661838Y-76664173D01*
X184747557Y-76726478D01*
X184915947Y-76836725D01*
X185150078Y-76881701D01*
X185403107Y-76866192D01*
X185628194Y-76794983D01*
X185778495Y-76672860D01*
X185804931Y-76618451D01*
X185826331Y-76498949D01*
X185787134Y-76407311D01*
X185664981Y-76325620D01*
X185437514Y-76235959D01*
X185249929Y-76173698D01*
X184833368Y-76010057D01*
X184556079Y-75830640D01*
X184412649Y-75631186D01*
X184388571Y-75496122D01*
X184427833Y-75251884D01*
X184557925Y-75072538D01*
X184797307Y-74941740D01*
X185114285Y-74853546D01*
X185388137Y-74842216D01*
X185664072Y-74907184D01*
G36*
X183808000Y-77202857D02*
G01*
X183372571Y-77202857D01*
X183372571Y-75170857D01*
X182973428Y-75170857D01*
X182742764Y-75164557D01*
X182622601Y-75137319D01*
X182578542Y-75076634D01*
X182574285Y-75025714D01*
X182585765Y-74955141D01*
X182639123Y-74912034D01*
X182762740Y-74889714D01*
X182984996Y-74881504D01*
X183191143Y-74880571D01*
X183808000Y-74880571D01*
X183808000Y-77202857D01*
G37*
X183808000Y-77202857D02*
X183372571Y-77202857D01*
X183372571Y-75170857D01*
X182973428Y-75170857D01*
X182742764Y-75164557D01*
X182622601Y-75137319D01*
X182578542Y-75076634D01*
X182574285Y-75025714D01*
X182585765Y-74955141D01*
X182639123Y-74912034D01*
X182762740Y-74889714D01*
X182984996Y-74881504D01*
X183191143Y-74880571D01*
X183808000Y-74880571D01*
X183808000Y-77202857D01*
G36*
X194437567Y-78232597D02*
G01*
X194754760Y-78270890D01*
X194944203Y-78321570D01*
X195198393Y-78486663D01*
X195326791Y-78704156D01*
X195322885Y-78952106D01*
X195200218Y-79183990D01*
X195053579Y-79370411D01*
X195236504Y-79553335D01*
X195385678Y-79766779D01*
X195404826Y-79997190D01*
X195312776Y-80246593D01*
X195191601Y-80404103D01*
X195004027Y-80512827D01*
X194728447Y-80579219D01*
X194343254Y-80609732D01*
X194084170Y-80613564D01*
X193423714Y-80613414D01*
X193415793Y-79871306D01*
X194113142Y-79871306D01*
X194131478Y-80074624D01*
X194207243Y-80160959D01*
X194371578Y-80153555D01*
X194461762Y-80131523D01*
X194586082Y-80060859D01*
X194608862Y-79915545D01*
X194606905Y-79896657D01*
X194563243Y-79758848D01*
X194444831Y-79697417D01*
X194349000Y-79683830D01*
X194187311Y-79680934D01*
X194123649Y-79739494D01*
X194113142Y-79871306D01*
X193415793Y-79871306D01*
X193410934Y-79416135D01*
X193406237Y-78976036D01*
X194113142Y-78976036D01*
X194151402Y-79172085D01*
X194262405Y-79242977D01*
X194440491Y-79185566D01*
X194464206Y-79171110D01*
X194530520Y-79058760D01*
X194536778Y-78936364D01*
X194471617Y-78795606D01*
X194312714Y-78740179D01*
X194179839Y-78738388D01*
X194124431Y-78801330D01*
X194113148Y-78968408D01*
X194113142Y-78976036D01*
X193406237Y-78976036D01*
X193398155Y-78218857D01*
X194048265Y-78218857D01*
X194437567Y-78232597D01*
G37*
X194437567Y-78232597D02*
X194754760Y-78270890D01*
X194944203Y-78321570D01*
X195198393Y-78486663D01*
X195326791Y-78704156D01*
X195322885Y-78952106D01*
X195200218Y-79183990D01*
X195053579Y-79370411D01*
X195236504Y-79553335D01*
X195385678Y-79766779D01*
X195404826Y-79997190D01*
X195312776Y-80246593D01*
X195191601Y-80404103D01*
X195004027Y-80512827D01*
X194728447Y-80579219D01*
X194343254Y-80609732D01*
X194084170Y-80613564D01*
X193423714Y-80613414D01*
X193415793Y-79871306D01*
X194113142Y-79871306D01*
X194131478Y-80074624D01*
X194207243Y-80160959D01*
X194371578Y-80153555D01*
X194461762Y-80131523D01*
X194586082Y-80060859D01*
X194608862Y-79915545D01*
X194606905Y-79896657D01*
X194563243Y-79758848D01*
X194444831Y-79697417D01*
X194349000Y-79683830D01*
X194187311Y-79680934D01*
X194123649Y-79739494D01*
X194113142Y-79871306D01*
X193415793Y-79871306D01*
X193410934Y-79416135D01*
X193406237Y-78976036D01*
X194113142Y-78976036D01*
X194151402Y-79172085D01*
X194262405Y-79242977D01*
X194440491Y-79185566D01*
X194464206Y-79171110D01*
X194530520Y-79058760D01*
X194536778Y-78936364D01*
X194471617Y-78795606D01*
X194312714Y-78740179D01*
X194179839Y-78738388D01*
X194124431Y-78801330D01*
X194113148Y-78968408D01*
X194113142Y-78976036D01*
X193406237Y-78976036D01*
X193398155Y-78218857D01*
X194048265Y-78218857D01*
X194437567Y-78232597D01*
G36*
X192653026Y-78781285D02*
G01*
X192748825Y-79133405D01*
X192861140Y-79543991D01*
X192967699Y-79931649D01*
X192980685Y-79978714D01*
X193155988Y-80613714D01*
X192768528Y-80613714D01*
X192543448Y-80608595D01*
X192425037Y-80580785D01*
X192374880Y-80511604D01*
X192358106Y-80414142D01*
X192280068Y-80246781D01*
X192098619Y-80178302D01*
X191819761Y-80209939D01*
X191679261Y-80294080D01*
X191645714Y-80433668D01*
X191633755Y-80540544D01*
X191573150Y-80593863D01*
X191426805Y-80612030D01*
X191282857Y-80613714D01*
X191075829Y-80603920D01*
X190944451Y-80578878D01*
X190919996Y-80559285D01*
X190939908Y-80474755D01*
X190994983Y-80275731D01*
X191078229Y-79986609D01*
X191182653Y-79631780D01*
X191194581Y-79591836D01*
X191875576Y-79591836D01*
X191928995Y-79655922D01*
X192043042Y-79670285D01*
X192162662Y-79655469D01*
X192197407Y-79582171D01*
X192177229Y-79434428D01*
X192117261Y-79158825D01*
X192066459Y-79020758D01*
X192018199Y-79013482D01*
X191965853Y-79130252D01*
X191945510Y-79198571D01*
X191883078Y-79449041D01*
X191875576Y-79591836D01*
X191194581Y-79591836D01*
X191263257Y-79361857D01*
X191606521Y-78218857D01*
X192500671Y-78218857D01*
X192653026Y-78781285D01*
G37*
X192653026Y-78781285D02*
X192748825Y-79133405D01*
X192861140Y-79543991D01*
X192967699Y-79931649D01*
X192980685Y-79978714D01*
X193155988Y-80613714D01*
X192768528Y-80613714D01*
X192543448Y-80608595D01*
X192425037Y-80580785D01*
X192374880Y-80511604D01*
X192358106Y-80414142D01*
X192280068Y-80246781D01*
X192098619Y-80178302D01*
X191819761Y-80209939D01*
X191679261Y-80294080D01*
X191645714Y-80433668D01*
X191633755Y-80540544D01*
X191573150Y-80593863D01*
X191426805Y-80612030D01*
X191282857Y-80613714D01*
X191075829Y-80603920D01*
X190944451Y-80578878D01*
X190919996Y-80559285D01*
X190939908Y-80474755D01*
X190994983Y-80275731D01*
X191078229Y-79986609D01*
X191182653Y-79631780D01*
X191194581Y-79591836D01*
X191875576Y-79591836D01*
X191928995Y-79655922D01*
X192043042Y-79670285D01*
X192162662Y-79655469D01*
X192197407Y-79582171D01*
X192177229Y-79434428D01*
X192117261Y-79158825D01*
X192066459Y-79020758D01*
X192018199Y-79013482D01*
X191965853Y-79130252D01*
X191945510Y-79198571D01*
X191883078Y-79449041D01*
X191875576Y-79591836D01*
X191194581Y-79591836D01*
X191263257Y-79361857D01*
X191606521Y-78218857D01*
X192500671Y-78218857D01*
X192653026Y-78781285D01*
G36*
X190145291Y-79126000D02*
G01*
X190099315Y-80033142D01*
X190847428Y-80033142D01*
X190847428Y-80613714D01*
X190139857Y-80613564D01*
X189432285Y-80613414D01*
X189419506Y-79416135D01*
X189406726Y-78218857D01*
X190191268Y-78218857D01*
X190145291Y-79126000D01*
G37*
X190145291Y-79126000D02*
X190099315Y-80033142D01*
X190847428Y-80033142D01*
X190847428Y-80613714D01*
X190139857Y-80613564D01*
X189432285Y-80613414D01*
X189419506Y-79416135D01*
X189406726Y-78218857D01*
X190191268Y-78218857D01*
X190145291Y-79126000D01*
%TO.C,U5*%
G36*
X153577454Y-81104727D02*
G01*
X154962909Y-81104727D01*
X154962909Y-81751272D01*
X152930909Y-81751272D01*
X152930909Y-78241454D01*
X153577454Y-78241454D01*
X153577454Y-81104727D01*
G37*
X153577454Y-81104727D02*
X154962909Y-81104727D01*
X154962909Y-81751272D01*
X152930909Y-81751272D01*
X152930909Y-78241454D01*
X153577454Y-78241454D01*
X153577454Y-81104727D01*
G36*
X151399781Y-78331465D02*
G01*
X151868015Y-78573206D01*
X152252589Y-78940823D01*
X152522163Y-79392575D01*
X152645399Y-79886721D01*
X152649761Y-79996363D01*
X152563144Y-80491933D01*
X152325672Y-80954209D01*
X151970916Y-81339311D01*
X151532444Y-81603362D01*
X151380949Y-81654844D01*
X151015950Y-81732649D01*
X150707308Y-81726245D01*
X150353588Y-81631669D01*
X150298545Y-81612529D01*
X149852138Y-81362412D01*
X149498877Y-80983171D01*
X149263511Y-80517279D01*
X149170786Y-80007208D01*
X149172424Y-79983714D01*
X149843581Y-79983714D01*
X149861862Y-80309000D01*
X149946097Y-80536384D01*
X150067636Y-80691620D01*
X150366419Y-80951279D01*
X150675308Y-81064784D01*
X151028829Y-81064266D01*
X151431137Y-80933955D01*
X151662363Y-80753356D01*
X151886176Y-80440233D01*
X151982002Y-80064245D01*
X151997073Y-79800728D01*
X151949257Y-79609957D01*
X151809467Y-79411629D01*
X151701929Y-79291009D01*
X151486409Y-79076558D01*
X151299795Y-78970918D01*
X151058375Y-78936475D01*
X150907782Y-78934181D01*
X150597473Y-78952525D01*
X150382087Y-79030284D01*
X150173562Y-79201552D01*
X150145539Y-79229285D01*
X149957212Y-79450031D01*
X149868685Y-79672200D01*
X149843581Y-79983714D01*
X149172424Y-79983714D01*
X149191355Y-79712327D01*
X149318943Y-79335724D01*
X149550980Y-78952659D01*
X149838915Y-78632417D01*
X150056119Y-78478319D01*
X150516113Y-78315855D01*
X151003000Y-78268019D01*
X151399781Y-78331465D01*
G37*
X151399781Y-78331465D02*
X151868015Y-78573206D01*
X152252589Y-78940823D01*
X152522163Y-79392575D01*
X152645399Y-79886721D01*
X152649761Y-79996363D01*
X152563144Y-80491933D01*
X152325672Y-80954209D01*
X151970916Y-81339311D01*
X151532444Y-81603362D01*
X151380949Y-81654844D01*
X151015950Y-81732649D01*
X150707308Y-81726245D01*
X150353588Y-81631669D01*
X150298545Y-81612529D01*
X149852138Y-81362412D01*
X149498877Y-80983171D01*
X149263511Y-80517279D01*
X149170786Y-80007208D01*
X149172424Y-79983714D01*
X149843581Y-79983714D01*
X149861862Y-80309000D01*
X149946097Y-80536384D01*
X150067636Y-80691620D01*
X150366419Y-80951279D01*
X150675308Y-81064784D01*
X151028829Y-81064266D01*
X151431137Y-80933955D01*
X151662363Y-80753356D01*
X151886176Y-80440233D01*
X151982002Y-80064245D01*
X151997073Y-79800728D01*
X151949257Y-79609957D01*
X151809467Y-79411629D01*
X151701929Y-79291009D01*
X151486409Y-79076558D01*
X151299795Y-78970918D01*
X151058375Y-78936475D01*
X150907782Y-78934181D01*
X150597473Y-78952525D01*
X150382087Y-79030284D01*
X150173562Y-79201552D01*
X150145539Y-79229285D01*
X149957212Y-79450031D01*
X149868685Y-79672200D01*
X149843581Y-79983714D01*
X149172424Y-79983714D01*
X149191355Y-79712327D01*
X149318943Y-79335724D01*
X149550980Y-78952659D01*
X149838915Y-78632417D01*
X150056119Y-78478319D01*
X150516113Y-78315855D01*
X151003000Y-78268019D01*
X151399781Y-78331465D01*
G36*
X147568741Y-78261057D02*
G01*
X147914783Y-78325180D01*
X148122304Y-78410227D01*
X148411765Y-78642835D01*
X148641377Y-78966871D01*
X148764917Y-79310731D01*
X148774545Y-79420616D01*
X148710319Y-79769270D01*
X148545608Y-80116929D01*
X148322359Y-80380181D01*
X148274260Y-80415438D01*
X148105943Y-80552801D01*
X148035637Y-80663999D01*
X148035636Y-80664248D01*
X148086736Y-80783595D01*
X148219040Y-80997392D01*
X148358909Y-81197091D01*
X148531917Y-81441669D01*
X148649229Y-81624530D01*
X148682181Y-81694374D01*
X148600407Y-81730682D01*
X148397202Y-81750201D01*
X148329030Y-81751272D01*
X148152153Y-81741710D01*
X148014364Y-81692829D01*
X147878972Y-81574337D01*
X147709285Y-81355943D01*
X147520848Y-81084044D01*
X147065818Y-80416815D01*
X146973454Y-81705091D01*
X146673272Y-81734033D01*
X146373091Y-81762976D01*
X146373091Y-78888000D01*
X147019636Y-78888000D01*
X147019636Y-79996363D01*
X147404909Y-79996363D01*
X147724730Y-79955480D01*
X147953340Y-79848559D01*
X147959090Y-79843503D01*
X148115380Y-79605699D01*
X148116473Y-79353942D01*
X147984635Y-79125562D01*
X147742137Y-78957886D01*
X147411246Y-78888245D01*
X147389091Y-78888000D01*
X147019636Y-78888000D01*
X146373091Y-78888000D01*
X146373091Y-78241454D01*
X147090350Y-78241454D01*
X147568741Y-78261057D01*
G37*
X147568741Y-78261057D02*
X147914783Y-78325180D01*
X148122304Y-78410227D01*
X148411765Y-78642835D01*
X148641377Y-78966871D01*
X148764917Y-79310731D01*
X148774545Y-79420616D01*
X148710319Y-79769270D01*
X148545608Y-80116929D01*
X148322359Y-80380181D01*
X148274260Y-80415438D01*
X148105943Y-80552801D01*
X148035637Y-80663999D01*
X148035636Y-80664248D01*
X148086736Y-80783595D01*
X148219040Y-80997392D01*
X148358909Y-81197091D01*
X148531917Y-81441669D01*
X148649229Y-81624530D01*
X148682181Y-81694374D01*
X148600407Y-81730682D01*
X148397202Y-81750201D01*
X148329030Y-81751272D01*
X148152153Y-81741710D01*
X148014364Y-81692829D01*
X147878972Y-81574337D01*
X147709285Y-81355943D01*
X147520848Y-81084044D01*
X147065818Y-80416815D01*
X146973454Y-81705091D01*
X146673272Y-81734033D01*
X146373091Y-81762976D01*
X146373091Y-78888000D01*
X147019636Y-78888000D01*
X147019636Y-79996363D01*
X147404909Y-79996363D01*
X147724730Y-79955480D01*
X147953340Y-79848559D01*
X147959090Y-79843503D01*
X148115380Y-79605699D01*
X148116473Y-79353942D01*
X147984635Y-79125562D01*
X147742137Y-78957886D01*
X147411246Y-78888245D01*
X147389091Y-78888000D01*
X147019636Y-78888000D01*
X146373091Y-78888000D01*
X146373091Y-78241454D01*
X147090350Y-78241454D01*
X147568741Y-78261057D01*
G36*
X145911272Y-78564727D02*
G01*
X145902294Y-78763767D01*
X145841746Y-78857738D01*
X145679209Y-78886083D01*
X145498042Y-78888000D01*
X145084811Y-78888000D01*
X145059314Y-80296545D01*
X145033818Y-81705091D01*
X144733636Y-81734033D01*
X144433454Y-81762976D01*
X144433454Y-80325488D01*
X144430968Y-79770524D01*
X144421930Y-79375242D01*
X144403973Y-79114643D01*
X144374730Y-78963727D01*
X144331832Y-78897497D01*
X144297314Y-78888000D01*
X144243099Y-78916407D01*
X144203283Y-79018395D01*
X144174916Y-79219111D01*
X144155051Y-79543701D01*
X144140739Y-80017313D01*
X144135678Y-80266495D01*
X144110181Y-81644991D01*
X143140363Y-80732318D01*
X142790572Y-80407166D01*
X142486998Y-80132555D01*
X142255391Y-79931202D01*
X142121503Y-79825823D01*
X142101272Y-79815640D01*
X142072847Y-79899914D01*
X142050073Y-80130948D01*
X142035671Y-80470796D01*
X142032000Y-80781454D01*
X142032000Y-81751272D01*
X141385454Y-81751272D01*
X141385454Y-78320567D01*
X143463636Y-80171087D01*
X143489852Y-79206271D01*
X143516067Y-78241454D01*
X145911272Y-78241454D01*
X145911272Y-78564727D01*
G37*
X145911272Y-78564727D02*
X145902294Y-78763767D01*
X145841746Y-78857738D01*
X145679209Y-78886083D01*
X145498042Y-78888000D01*
X145084811Y-78888000D01*
X145059314Y-80296545D01*
X145033818Y-81705091D01*
X144733636Y-81734033D01*
X144433454Y-81762976D01*
X144433454Y-80325488D01*
X144430968Y-79770524D01*
X144421930Y-79375242D01*
X144403973Y-79114643D01*
X144374730Y-78963727D01*
X144331832Y-78897497D01*
X144297314Y-78888000D01*
X144243099Y-78916407D01*
X144203283Y-79018395D01*
X144174916Y-79219111D01*
X144155051Y-79543701D01*
X144140739Y-80017313D01*
X144135678Y-80266495D01*
X144110181Y-81644991D01*
X143140363Y-80732318D01*
X142790572Y-80407166D01*
X142486998Y-80132555D01*
X142255391Y-79931202D01*
X142121503Y-79825823D01*
X142101272Y-79815640D01*
X142072847Y-79899914D01*
X142050073Y-80130948D01*
X142035671Y-80470796D01*
X142032000Y-80781454D01*
X142032000Y-81751272D01*
X141385454Y-81751272D01*
X141385454Y-78320567D01*
X143463636Y-80171087D01*
X143489852Y-79206271D01*
X143516067Y-78241454D01*
X145911272Y-78241454D01*
X145911272Y-78564727D01*
G36*
X139948907Y-78370427D02*
G01*
X140378085Y-78601884D01*
X140728564Y-78940556D01*
X140977913Y-79360723D01*
X141103700Y-79836665D01*
X141083492Y-80342661D01*
X140983576Y-80670409D01*
X140764069Y-81013022D01*
X140429238Y-81333697D01*
X140045160Y-81575593D01*
X139840888Y-81653355D01*
X139463970Y-81731052D01*
X139132390Y-81720561D01*
X138818802Y-81647015D01*
X138579149Y-81529349D01*
X138302191Y-81325491D01*
X138155708Y-81189131D01*
X137839515Y-80745743D01*
X137683175Y-80259631D01*
X137681689Y-80123344D01*
X138295019Y-80123344D01*
X138425457Y-80501931D01*
X138692677Y-80815146D01*
X138891636Y-80942947D01*
X139213218Y-81073318D01*
X139482017Y-81091879D01*
X139770034Y-81012005D01*
X140134353Y-80785775D01*
X140368192Y-80456565D01*
X140459378Y-80063266D01*
X140395738Y-79644771D01*
X140276274Y-79394678D01*
X139994474Y-79087944D01*
X139646685Y-78926963D01*
X139271421Y-78905163D01*
X138907197Y-79015972D01*
X138592527Y-79252818D01*
X138365926Y-79609129D01*
X138323984Y-79727810D01*
X138295019Y-80123344D01*
X137681689Y-80123344D01*
X137677760Y-79763151D01*
X137814341Y-79288657D01*
X138083989Y-78868503D01*
X138477777Y-78535043D01*
X138944180Y-78332037D01*
X139463461Y-78271904D01*
X139948907Y-78370427D01*
G37*
X139948907Y-78370427D02*
X140378085Y-78601884D01*
X140728564Y-78940556D01*
X140977913Y-79360723D01*
X141103700Y-79836665D01*
X141083492Y-80342661D01*
X140983576Y-80670409D01*
X140764069Y-81013022D01*
X140429238Y-81333697D01*
X140045160Y-81575593D01*
X139840888Y-81653355D01*
X139463970Y-81731052D01*
X139132390Y-81720561D01*
X138818802Y-81647015D01*
X138579149Y-81529349D01*
X138302191Y-81325491D01*
X138155708Y-81189131D01*
X137839515Y-80745743D01*
X137683175Y-80259631D01*
X137681689Y-80123344D01*
X138295019Y-80123344D01*
X138425457Y-80501931D01*
X138692677Y-80815146D01*
X138891636Y-80942947D01*
X139213218Y-81073318D01*
X139482017Y-81091879D01*
X139770034Y-81012005D01*
X140134353Y-80785775D01*
X140368192Y-80456565D01*
X140459378Y-80063266D01*
X140395738Y-79644771D01*
X140276274Y-79394678D01*
X139994474Y-79087944D01*
X139646685Y-78926963D01*
X139271421Y-78905163D01*
X138907197Y-79015972D01*
X138592527Y-79252818D01*
X138365926Y-79609129D01*
X138323984Y-79727810D01*
X138295019Y-80123344D01*
X137681689Y-80123344D01*
X137677760Y-79763151D01*
X137814341Y-79288657D01*
X138083989Y-78868503D01*
X138477777Y-78535043D01*
X138944180Y-78332037D01*
X139463461Y-78271904D01*
X139948907Y-78370427D01*
G36*
X133914272Y-78242752D02*
G01*
X134402405Y-78359982D01*
X134729727Y-78559709D01*
X134853019Y-78649512D01*
X134975579Y-78648316D01*
X135169841Y-78551488D01*
X135208522Y-78529082D01*
X135695274Y-78333850D01*
X136210110Y-78278243D01*
X136702172Y-78360646D01*
X137120600Y-78579442D01*
X137134134Y-78590236D01*
X137333755Y-78751879D01*
X137111492Y-78960684D01*
X136943704Y-79096885D01*
X136804894Y-79111374D01*
X136620433Y-79029313D01*
X136192166Y-78889683D01*
X135801417Y-78921637D01*
X135468766Y-79112808D01*
X135214792Y-79450832D01*
X135060074Y-79923344D01*
X135051744Y-79971896D01*
X135029237Y-80210187D01*
X135073721Y-80389135D01*
X135212636Y-80583903D01*
X135318427Y-80702369D01*
X135532181Y-80915639D01*
X135715174Y-81019843D01*
X135950171Y-81051644D01*
X136107528Y-81051931D01*
X136407669Y-81024651D01*
X136645530Y-80962886D01*
X136716597Y-80923729D01*
X136850243Y-80854464D01*
X136987867Y-80917735D01*
X137046096Y-80967749D01*
X137202852Y-81159511D01*
X137187355Y-81319432D01*
X136995216Y-81479914D01*
X136975091Y-81491975D01*
X136475752Y-81686651D01*
X135954846Y-81713436D01*
X135452778Y-81578069D01*
X135009954Y-81286293D01*
X134923348Y-81200459D01*
X134714568Y-80973346D01*
X134549079Y-80785519D01*
X134496981Y-80722050D01*
X134377576Y-80647159D01*
X134150259Y-80623964D01*
X133850436Y-80640532D01*
X133303636Y-80689091D01*
X133290557Y-81104727D01*
X133280432Y-81383737D01*
X133270502Y-81591773D01*
X133267466Y-81635818D01*
X133176070Y-81717234D01*
X132952504Y-81751127D01*
X132934181Y-81751272D01*
X132610909Y-81751272D01*
X132610909Y-79628622D01*
X133284829Y-79628622D01*
X133298424Y-79836631D01*
X133307373Y-79880909D01*
X133421590Y-79972827D01*
X133638839Y-79997134D01*
X133892418Y-79959117D01*
X134115627Y-79864066D01*
X134181091Y-79811636D01*
X134349952Y-79549615D01*
X134352400Y-79300558D01*
X134205766Y-79096431D01*
X133927384Y-78969202D01*
X133710214Y-78943190D01*
X133303636Y-78934181D01*
X133287181Y-79349818D01*
X133284829Y-79628622D01*
X132610909Y-79628622D01*
X132610909Y-78256613D01*
X133278221Y-78225943D01*
X133914272Y-78242752D01*
G37*
X133914272Y-78242752D02*
X134402405Y-78359982D01*
X134729727Y-78559709D01*
X134853019Y-78649512D01*
X134975579Y-78648316D01*
X135169841Y-78551488D01*
X135208522Y-78529082D01*
X135695274Y-78333850D01*
X136210110Y-78278243D01*
X136702172Y-78360646D01*
X137120600Y-78579442D01*
X137134134Y-78590236D01*
X137333755Y-78751879D01*
X137111492Y-78960684D01*
X136943704Y-79096885D01*
X136804894Y-79111374D01*
X136620433Y-79029313D01*
X136192166Y-78889683D01*
X135801417Y-78921637D01*
X135468766Y-79112808D01*
X135214792Y-79450832D01*
X135060074Y-79923344D01*
X135051744Y-79971896D01*
X135029237Y-80210187D01*
X135073721Y-80389135D01*
X135212636Y-80583903D01*
X135318427Y-80702369D01*
X135532181Y-80915639D01*
X135715174Y-81019843D01*
X135950171Y-81051644D01*
X136107528Y-81051931D01*
X136407669Y-81024651D01*
X136645530Y-80962886D01*
X136716597Y-80923729D01*
X136850243Y-80854464D01*
X136987867Y-80917735D01*
X137046096Y-80967749D01*
X137202852Y-81159511D01*
X137187355Y-81319432D01*
X136995216Y-81479914D01*
X136975091Y-81491975D01*
X136475752Y-81686651D01*
X135954846Y-81713436D01*
X135452778Y-81578069D01*
X135009954Y-81286293D01*
X134923348Y-81200459D01*
X134714568Y-80973346D01*
X134549079Y-80785519D01*
X134496981Y-80722050D01*
X134377576Y-80647159D01*
X134150259Y-80623964D01*
X133850436Y-80640532D01*
X133303636Y-80689091D01*
X133290557Y-81104727D01*
X133280432Y-81383737D01*
X133270502Y-81591773D01*
X133267466Y-81635818D01*
X133176070Y-81717234D01*
X132952504Y-81751127D01*
X132934181Y-81751272D01*
X132610909Y-81751272D01*
X132610909Y-79628622D01*
X133284829Y-79628622D01*
X133298424Y-79836631D01*
X133307373Y-79880909D01*
X133421590Y-79972827D01*
X133638839Y-79997134D01*
X133892418Y-79959117D01*
X134115627Y-79864066D01*
X134181091Y-79811636D01*
X134349952Y-79549615D01*
X134352400Y-79300558D01*
X134205766Y-79096431D01*
X133927384Y-78969202D01*
X133710214Y-78943190D01*
X133303636Y-78934181D01*
X133287181Y-79349818D01*
X133284829Y-79628622D01*
X132610909Y-79628622D01*
X132610909Y-78256613D01*
X133278221Y-78225943D01*
X133914272Y-78242752D01*
G36*
X132316065Y-78537655D02*
G01*
X132344494Y-78880037D01*
X131623338Y-78907109D01*
X130902181Y-78934181D01*
X130873515Y-79280545D01*
X130844848Y-79626909D01*
X131975514Y-79626909D01*
X131946848Y-79973272D01*
X131918181Y-80319636D01*
X131387091Y-80347336D01*
X130856000Y-80375036D01*
X130856000Y-81004593D01*
X132287636Y-81058545D01*
X132316302Y-81404909D01*
X132344969Y-81751272D01*
X130113102Y-81751272D01*
X130163272Y-78208584D01*
X132287636Y-78195272D01*
X132316065Y-78537655D01*
G37*
X132316065Y-78537655D02*
X132344494Y-78880037D01*
X131623338Y-78907109D01*
X130902181Y-78934181D01*
X130873515Y-79280545D01*
X130844848Y-79626909D01*
X131975514Y-79626909D01*
X131946848Y-79973272D01*
X131918181Y-80319636D01*
X131387091Y-80347336D01*
X130856000Y-80375036D01*
X130856000Y-81004593D01*
X132287636Y-81058545D01*
X132316302Y-81404909D01*
X132344969Y-81751272D01*
X130113102Y-81751272D01*
X130163272Y-78208584D01*
X132287636Y-78195272D01*
X132316065Y-78537655D01*
G36*
X129840000Y-78888000D02*
G01*
X128454545Y-78888000D01*
X128454545Y-79626909D01*
X129470545Y-79626909D01*
X129470545Y-80365818D01*
X128454545Y-80365818D01*
X128454545Y-81012363D01*
X129840000Y-81012363D01*
X129840000Y-81751272D01*
X127711647Y-81751272D01*
X127736732Y-79987453D01*
X127761818Y-78223633D01*
X129840000Y-78172095D01*
X129840000Y-78888000D01*
G37*
X129840000Y-78888000D02*
X128454545Y-78888000D01*
X128454545Y-79626909D01*
X129470545Y-79626909D01*
X129470545Y-80365818D01*
X128454545Y-80365818D01*
X128454545Y-81012363D01*
X129840000Y-81012363D01*
X129840000Y-81751272D01*
X127711647Y-81751272D01*
X127736732Y-79987453D01*
X127761818Y-78223633D01*
X129840000Y-78172095D01*
X129840000Y-78888000D01*
G36*
X125568181Y-78208442D02*
G01*
X125993878Y-78247168D01*
X126288982Y-78298573D01*
X126507560Y-78380390D01*
X126703678Y-78510351D01*
X126841206Y-78625954D01*
X127203595Y-79023237D01*
X127404055Y-79455398D01*
X127464935Y-79963134D01*
X127382503Y-80532129D01*
X127135986Y-81016431D01*
X126726552Y-81413773D01*
X126710521Y-81425205D01*
X126449270Y-81585117D01*
X126184808Y-81677359D01*
X125840609Y-81724987D01*
X125679655Y-81735810D01*
X125037091Y-81772118D01*
X125037091Y-80456631D01*
X125695644Y-80456631D01*
X125708779Y-80777522D01*
X125755948Y-80958018D01*
X125849989Y-81020188D01*
X126003742Y-80986104D01*
X126229950Y-80877886D01*
X126457236Y-80684056D01*
X126656458Y-80390154D01*
X126776955Y-80079389D01*
X126792000Y-79954727D01*
X126715060Y-79637032D01*
X126517143Y-79327074D01*
X126247602Y-79083562D01*
X125960727Y-78965857D01*
X125729818Y-78934181D01*
X125703702Y-79973272D01*
X125695644Y-80456631D01*
X125037091Y-80456631D01*
X125037091Y-78168484D01*
X125568181Y-78208442D01*
G37*
X125568181Y-78208442D02*
X125993878Y-78247168D01*
X126288982Y-78298573D01*
X126507560Y-78380390D01*
X126703678Y-78510351D01*
X126841206Y-78625954D01*
X127203595Y-79023237D01*
X127404055Y-79455398D01*
X127464935Y-79963134D01*
X127382503Y-80532129D01*
X127135986Y-81016431D01*
X126726552Y-81413773D01*
X126710521Y-81425205D01*
X126449270Y-81585117D01*
X126184808Y-81677359D01*
X125840609Y-81724987D01*
X125679655Y-81735810D01*
X125037091Y-81772118D01*
X125037091Y-80456631D01*
X125695644Y-80456631D01*
X125708779Y-80777522D01*
X125755948Y-80958018D01*
X125849989Y-81020188D01*
X126003742Y-80986104D01*
X126229950Y-80877886D01*
X126457236Y-80684056D01*
X126656458Y-80390154D01*
X126776955Y-80079389D01*
X126792000Y-79954727D01*
X126715060Y-79637032D01*
X126517143Y-79327074D01*
X126247602Y-79083562D01*
X125960727Y-78965857D01*
X125729818Y-78934181D01*
X125703702Y-79973272D01*
X125695644Y-80456631D01*
X125037091Y-80456631D01*
X125037091Y-78168484D01*
X125568181Y-78208442D01*
G36*
X154674709Y-83144595D02*
G01*
X154772320Y-83186663D01*
X154856306Y-83290623D01*
X154941559Y-83484167D01*
X155042967Y-83794990D01*
X155175419Y-84250783D01*
X155206597Y-84360545D01*
X155178637Y-84481795D01*
X155053864Y-84526509D01*
X154905473Y-84490409D01*
X154811583Y-84383636D01*
X154687487Y-84274174D01*
X154547272Y-84245091D01*
X154359780Y-84298956D01*
X154282962Y-84383636D01*
X154183925Y-84475363D01*
X154025616Y-84522747D01*
X153890737Y-84511153D01*
X153854545Y-84459462D01*
X153881006Y-84346429D01*
X153950657Y-84107777D01*
X154039977Y-83821900D01*
X154445027Y-83821900D01*
X154453602Y-83945388D01*
X154537390Y-83968000D01*
X154663025Y-83932951D01*
X154679326Y-83898727D01*
X154643853Y-83761868D01*
X154581265Y-83623405D01*
X154525120Y-83547977D01*
X154507582Y-83567900D01*
X154470219Y-83747020D01*
X154445027Y-83821900D01*
X154039977Y-83821900D01*
X154048901Y-83793341D01*
X154057453Y-83766734D01*
X154167884Y-83439388D01*
X154255236Y-83250899D01*
X154349256Y-83163109D01*
X154479688Y-83137861D01*
X154548585Y-83136727D01*
X154674709Y-83144595D01*
G37*
X154674709Y-83144595D02*
X154772320Y-83186663D01*
X154856306Y-83290623D01*
X154941559Y-83484167D01*
X155042967Y-83794990D01*
X155175419Y-84250783D01*
X155206597Y-84360545D01*
X155178637Y-84481795D01*
X155053864Y-84526509D01*
X154905473Y-84490409D01*
X154811583Y-84383636D01*
X154687487Y-84274174D01*
X154547272Y-84245091D01*
X154359780Y-84298956D01*
X154282962Y-84383636D01*
X154183925Y-84475363D01*
X154025616Y-84522747D01*
X153890737Y-84511153D01*
X153854545Y-84459462D01*
X153881006Y-84346429D01*
X153950657Y-84107777D01*
X154039977Y-83821900D01*
X154445027Y-83821900D01*
X154453602Y-83945388D01*
X154537390Y-83968000D01*
X154663025Y-83932951D01*
X154679326Y-83898727D01*
X154643853Y-83761868D01*
X154581265Y-83623405D01*
X154525120Y-83547977D01*
X154507582Y-83567900D01*
X154470219Y-83747020D01*
X154445027Y-83821900D01*
X154039977Y-83821900D01*
X154048901Y-83793341D01*
X154057453Y-83766734D01*
X154167884Y-83439388D01*
X154255236Y-83250899D01*
X154349256Y-83163109D01*
X154479688Y-83137861D01*
X154548585Y-83136727D01*
X154674709Y-83144595D01*
G36*
X152628409Y-83153683D02*
G01*
X152843195Y-83238661D01*
X153034297Y-83461262D01*
X153088708Y-83552363D01*
X153297324Y-83921818D01*
X153298844Y-83529272D01*
X153313556Y-83278317D01*
X153370187Y-83163380D01*
X153485091Y-83136727D01*
X153579539Y-83153088D01*
X153634956Y-83227693D01*
X153661550Y-83398823D01*
X153669528Y-83704759D01*
X153669818Y-83829454D01*
X153669818Y-84522181D01*
X153411830Y-84522181D01*
X153249883Y-84496719D01*
X153119860Y-84394171D01*
X152981102Y-84175294D01*
X152909450Y-84037272D01*
X152665058Y-83552363D01*
X152659438Y-84037272D01*
X152641950Y-84336872D01*
X152591726Y-84486943D01*
X152515272Y-84522181D01*
X152442469Y-84486104D01*
X152399601Y-84355655D01*
X152380062Y-84097506D01*
X152376727Y-83823319D01*
X152376727Y-83124457D01*
X152628409Y-83153683D01*
G37*
X152628409Y-83153683D02*
X152843195Y-83238661D01*
X153034297Y-83461262D01*
X153088708Y-83552363D01*
X153297324Y-83921818D01*
X153298844Y-83529272D01*
X153313556Y-83278317D01*
X153370187Y-83163380D01*
X153485091Y-83136727D01*
X153579539Y-83153088D01*
X153634956Y-83227693D01*
X153661550Y-83398823D01*
X153669528Y-83704759D01*
X153669818Y-83829454D01*
X153669818Y-84522181D01*
X153411830Y-84522181D01*
X153249883Y-84496719D01*
X153119860Y-84394171D01*
X152981102Y-84175294D01*
X152909450Y-84037272D01*
X152665058Y-83552363D01*
X152659438Y-84037272D01*
X152641950Y-84336872D01*
X152591726Y-84486943D01*
X152515272Y-84522181D01*
X152442469Y-84486104D01*
X152399601Y-84355655D01*
X152380062Y-84097506D01*
X152376727Y-83823319D01*
X152376727Y-83124457D01*
X152628409Y-83153683D01*
G36*
X151916994Y-83153088D02*
G01*
X151972411Y-83227693D01*
X151999004Y-83398823D01*
X152006983Y-83704759D01*
X152007272Y-83829454D01*
X152002909Y-84183637D01*
X151983015Y-84391450D01*
X151937380Y-84491176D01*
X151855797Y-84521095D01*
X151822545Y-84522181D01*
X151728096Y-84505820D01*
X151672679Y-84431215D01*
X151646086Y-84260086D01*
X151638108Y-83954150D01*
X151637818Y-83829454D01*
X151642181Y-83475271D01*
X151662075Y-83267458D01*
X151707710Y-83167732D01*
X151789293Y-83137813D01*
X151822545Y-83136727D01*
X151916994Y-83153088D01*
G37*
X151916994Y-83153088D02*
X151972411Y-83227693D01*
X151999004Y-83398823D01*
X152006983Y-83704759D01*
X152007272Y-83829454D01*
X152002909Y-84183637D01*
X151983015Y-84391450D01*
X151937380Y-84491176D01*
X151855797Y-84521095D01*
X151822545Y-84522181D01*
X151728096Y-84505820D01*
X151672679Y-84431215D01*
X151646086Y-84260086D01*
X151638108Y-83954150D01*
X151637818Y-83829454D01*
X151642181Y-83475271D01*
X151662075Y-83267458D01*
X151707710Y-83167732D01*
X151789293Y-83137813D01*
X151822545Y-83136727D01*
X151916994Y-83153088D01*
G36*
X151228859Y-83149242D02*
G01*
X151404037Y-83191174D01*
X151453091Y-83264500D01*
X151375706Y-83388562D01*
X151268363Y-83440580D01*
X151160731Y-83496170D01*
X151104764Y-83622097D01*
X151084931Y-83865863D01*
X151083636Y-84005534D01*
X151075885Y-84302138D01*
X151042267Y-84457787D01*
X150967234Y-84515965D01*
X150898909Y-84522181D01*
X150795735Y-84501961D01*
X150739985Y-84413134D01*
X150717577Y-84213457D01*
X150714181Y-83968000D01*
X150707441Y-83658478D01*
X150677832Y-83491228D01*
X150611273Y-83424006D01*
X150529454Y-83413818D01*
X150379013Y-83356065D01*
X150344727Y-83275272D01*
X150387287Y-83194825D01*
X150538161Y-83151634D01*
X150832136Y-83137000D01*
X150898909Y-83136727D01*
X151228859Y-83149242D01*
G37*
X151228859Y-83149242D02*
X151404037Y-83191174D01*
X151453091Y-83264500D01*
X151375706Y-83388562D01*
X151268363Y-83440580D01*
X151160731Y-83496170D01*
X151104764Y-83622097D01*
X151084931Y-83865863D01*
X151083636Y-84005534D01*
X151075885Y-84302138D01*
X151042267Y-84457787D01*
X150967234Y-84515965D01*
X150898909Y-84522181D01*
X150795735Y-84501961D01*
X150739985Y-84413134D01*
X150717577Y-84213457D01*
X150714181Y-83968000D01*
X150707441Y-83658478D01*
X150677832Y-83491228D01*
X150611273Y-83424006D01*
X150529454Y-83413818D01*
X150379013Y-83356065D01*
X150344727Y-83275272D01*
X150387287Y-83194825D01*
X150538161Y-83151634D01*
X150832136Y-83137000D01*
X150898909Y-83136727D01*
X151228859Y-83149242D01*
G36*
X149118591Y-83153683D02*
G01*
X149333377Y-83238661D01*
X149524479Y-83461262D01*
X149578890Y-83552363D01*
X149787506Y-83921818D01*
X149789026Y-83529272D01*
X149803738Y-83278317D01*
X149860369Y-83163380D01*
X149975272Y-83136727D01*
X150069721Y-83153088D01*
X150125138Y-83227693D01*
X150151731Y-83398823D01*
X150159710Y-83704759D01*
X150160000Y-83829454D01*
X150160000Y-84522181D01*
X149902012Y-84522181D01*
X149740065Y-84496719D01*
X149610041Y-84394171D01*
X149471284Y-84175294D01*
X149399632Y-84037272D01*
X149155240Y-83552363D01*
X149149620Y-84037272D01*
X149132132Y-84336872D01*
X149081908Y-84486943D01*
X149005454Y-84522181D01*
X148932651Y-84486104D01*
X148889783Y-84355655D01*
X148870244Y-84097506D01*
X148866909Y-83823319D01*
X148866909Y-83124457D01*
X149118591Y-83153683D01*
G37*
X149118591Y-83153683D02*
X149333377Y-83238661D01*
X149524479Y-83461262D01*
X149578890Y-83552363D01*
X149787506Y-83921818D01*
X149789026Y-83529272D01*
X149803738Y-83278317D01*
X149860369Y-83163380D01*
X149975272Y-83136727D01*
X150069721Y-83153088D01*
X150125138Y-83227693D01*
X150151731Y-83398823D01*
X150159710Y-83704759D01*
X150160000Y-83829454D01*
X150160000Y-84522181D01*
X149902012Y-84522181D01*
X149740065Y-84496719D01*
X149610041Y-84394171D01*
X149471284Y-84175294D01*
X149399632Y-84037272D01*
X149155240Y-83552363D01*
X149149620Y-84037272D01*
X149132132Y-84336872D01*
X149081908Y-84486943D01*
X149005454Y-84522181D01*
X148932651Y-84486104D01*
X148889783Y-84355655D01*
X148870244Y-84097506D01*
X148866909Y-83823319D01*
X148866909Y-83124457D01*
X149118591Y-83153683D01*
G36*
X148448133Y-83154858D02*
G01*
X148572918Y-83216510D01*
X148589818Y-83275272D01*
X148509526Y-83386701D01*
X148358909Y-83413818D01*
X148185329Y-83445435D01*
X148128000Y-83506181D01*
X148207043Y-83575613D01*
X148358909Y-83598545D01*
X148539979Y-83641840D01*
X148589818Y-83783272D01*
X148537693Y-83926414D01*
X148354945Y-83967992D01*
X148351212Y-83968000D01*
X148181765Y-84010968D01*
X148157720Y-84104898D01*
X148271417Y-84197329D01*
X148389234Y-84228424D01*
X148548016Y-84303414D01*
X148589818Y-84390060D01*
X148527407Y-84478691D01*
X148322538Y-84518193D01*
X148174181Y-84522181D01*
X147758545Y-84522181D01*
X147758545Y-83136727D01*
X148174181Y-83136727D01*
X148448133Y-83154858D01*
G37*
X148448133Y-83154858D02*
X148572918Y-83216510D01*
X148589818Y-83275272D01*
X148509526Y-83386701D01*
X148358909Y-83413818D01*
X148185329Y-83445435D01*
X148128000Y-83506181D01*
X148207043Y-83575613D01*
X148358909Y-83598545D01*
X148539979Y-83641840D01*
X148589818Y-83783272D01*
X148537693Y-83926414D01*
X148354945Y-83967992D01*
X148351212Y-83968000D01*
X148181765Y-84010968D01*
X148157720Y-84104898D01*
X148271417Y-84197329D01*
X148389234Y-84228424D01*
X148548016Y-84303414D01*
X148589818Y-84390060D01*
X148527407Y-84478691D01*
X148322538Y-84518193D01*
X148174181Y-84522181D01*
X147758545Y-84522181D01*
X147758545Y-83136727D01*
X148174181Y-83136727D01*
X148448133Y-83154858D01*
G36*
X147188045Y-83126091D02*
G01*
X147350611Y-83177860D01*
X147370495Y-83298363D01*
X147271793Y-83422655D01*
X147127306Y-83430170D01*
X146877946Y-83468864D01*
X146706147Y-83626452D01*
X146640944Y-83847122D01*
X146711375Y-84075060D01*
X146761018Y-84134254D01*
X146929377Y-84234801D01*
X147066683Y-84213918D01*
X147112000Y-84106545D01*
X147038066Y-83984092D01*
X146973454Y-83968000D01*
X146851001Y-83894066D01*
X146834909Y-83829454D01*
X146903805Y-83727757D01*
X147124851Y-83691326D01*
X147163492Y-83690909D01*
X147492076Y-83690909D01*
X147463674Y-84083454D01*
X147435272Y-84476000D01*
X147014767Y-84503407D01*
X146704170Y-84498106D01*
X146506978Y-84421050D01*
X146437494Y-84357589D01*
X146319474Y-84120750D01*
X146281093Y-83812322D01*
X146321983Y-83511803D01*
X146441781Y-83298694D01*
X146442363Y-83298172D01*
X146657330Y-83171141D01*
X146957433Y-83123171D01*
X147188045Y-83126091D01*
G37*
X147188045Y-83126091D02*
X147350611Y-83177860D01*
X147370495Y-83298363D01*
X147271793Y-83422655D01*
X147127306Y-83430170D01*
X146877946Y-83468864D01*
X146706147Y-83626452D01*
X146640944Y-83847122D01*
X146711375Y-84075060D01*
X146761018Y-84134254D01*
X146929377Y-84234801D01*
X147066683Y-84213918D01*
X147112000Y-84106545D01*
X147038066Y-83984092D01*
X146973454Y-83968000D01*
X146851001Y-83894066D01*
X146834909Y-83829454D01*
X146903805Y-83727757D01*
X147124851Y-83691326D01*
X147163492Y-83690909D01*
X147492076Y-83690909D01*
X147463674Y-84083454D01*
X147435272Y-84476000D01*
X147014767Y-84503407D01*
X146704170Y-84498106D01*
X146506978Y-84421050D01*
X146437494Y-84357589D01*
X146319474Y-84120750D01*
X146281093Y-83812322D01*
X146321983Y-83511803D01*
X146441781Y-83298694D01*
X146442363Y-83298172D01*
X146657330Y-83171141D01*
X146957433Y-83123171D01*
X147188045Y-83126091D01*
G36*
X145656968Y-83161104D02*
G01*
X145856619Y-83222062D01*
X145892800Y-83247563D01*
X145990674Y-83454036D01*
X145981222Y-83700253D01*
X145899916Y-83850047D01*
X145859546Y-83969790D01*
X145944071Y-84157659D01*
X145998569Y-84237974D01*
X146200942Y-84522181D01*
X145961763Y-84522181D01*
X145731754Y-84449541D01*
X145617375Y-84291272D01*
X145515106Y-84121747D01*
X145434628Y-84060363D01*
X145376317Y-84139490D01*
X145357091Y-84291272D01*
X145313796Y-84472343D01*
X145172363Y-84522181D01*
X145077914Y-84505820D01*
X145022498Y-84431215D01*
X144995904Y-84260086D01*
X144987926Y-83954150D01*
X144987636Y-83829454D01*
X144987636Y-83544666D01*
X145357091Y-83544666D01*
X145431457Y-83671901D01*
X145503333Y-83690909D01*
X145611056Y-83637205D01*
X145613015Y-83581227D01*
X145521081Y-83459255D01*
X145410405Y-83443746D01*
X145357091Y-83544666D01*
X144987636Y-83544666D01*
X144987636Y-83136727D01*
X145384800Y-83136727D01*
X145656968Y-83161104D01*
G37*
X145656968Y-83161104D02*
X145856619Y-83222062D01*
X145892800Y-83247563D01*
X145990674Y-83454036D01*
X145981222Y-83700253D01*
X145899916Y-83850047D01*
X145859546Y-83969790D01*
X145944071Y-84157659D01*
X145998569Y-84237974D01*
X146200942Y-84522181D01*
X145961763Y-84522181D01*
X145731754Y-84449541D01*
X145617375Y-84291272D01*
X145515106Y-84121747D01*
X145434628Y-84060363D01*
X145376317Y-84139490D01*
X145357091Y-84291272D01*
X145313796Y-84472343D01*
X145172363Y-84522181D01*
X145077914Y-84505820D01*
X145022498Y-84431215D01*
X144995904Y-84260086D01*
X144987926Y-83954150D01*
X144987636Y-83829454D01*
X144987636Y-83544666D01*
X145357091Y-83544666D01*
X145431457Y-83671901D01*
X145503333Y-83690909D01*
X145611056Y-83637205D01*
X145613015Y-83581227D01*
X145521081Y-83459255D01*
X145410405Y-83443746D01*
X145357091Y-83544666D01*
X144987636Y-83544666D01*
X144987636Y-83136727D01*
X145384800Y-83136727D01*
X145656968Y-83161104D01*
G36*
X144237618Y-83144595D02*
G01*
X144335229Y-83186663D01*
X144419215Y-83290623D01*
X144504468Y-83484167D01*
X144605876Y-83794990D01*
X144738329Y-84250783D01*
X144769506Y-84360545D01*
X144741546Y-84481795D01*
X144616773Y-84526509D01*
X144468382Y-84490409D01*
X144374492Y-84383636D01*
X144250396Y-84274174D01*
X144110181Y-84245091D01*
X143922689Y-84298956D01*
X143845871Y-84383636D01*
X143746834Y-84475363D01*
X143588526Y-84522747D01*
X143453646Y-84511153D01*
X143417454Y-84459462D01*
X143443915Y-84346429D01*
X143513566Y-84107777D01*
X143602886Y-83821900D01*
X144007936Y-83821900D01*
X144016511Y-83945388D01*
X144100300Y-83968000D01*
X144225934Y-83932951D01*
X144242235Y-83898727D01*
X144206762Y-83761868D01*
X144144174Y-83623405D01*
X144088029Y-83547977D01*
X144070491Y-83567900D01*
X144033128Y-83747020D01*
X144007936Y-83821900D01*
X143602886Y-83821900D01*
X143611810Y-83793341D01*
X143620362Y-83766734D01*
X143730793Y-83439388D01*
X143818146Y-83250899D01*
X143912165Y-83163109D01*
X144042597Y-83137861D01*
X144111494Y-83136727D01*
X144237618Y-83144595D01*
G37*
X144237618Y-83144595D02*
X144335229Y-83186663D01*
X144419215Y-83290623D01*
X144504468Y-83484167D01*
X144605876Y-83794990D01*
X144738329Y-84250783D01*
X144769506Y-84360545D01*
X144741546Y-84481795D01*
X144616773Y-84526509D01*
X144468382Y-84490409D01*
X144374492Y-84383636D01*
X144250396Y-84274174D01*
X144110181Y-84245091D01*
X143922689Y-84298956D01*
X143845871Y-84383636D01*
X143746834Y-84475363D01*
X143588526Y-84522747D01*
X143453646Y-84511153D01*
X143417454Y-84459462D01*
X143443915Y-84346429D01*
X143513566Y-84107777D01*
X143602886Y-83821900D01*
X144007936Y-83821900D01*
X144016511Y-83945388D01*
X144100300Y-83968000D01*
X144225934Y-83932951D01*
X144242235Y-83898727D01*
X144206762Y-83761868D01*
X144144174Y-83623405D01*
X144088029Y-83547977D01*
X144070491Y-83567900D01*
X144033128Y-83747020D01*
X144007936Y-83821900D01*
X143602886Y-83821900D01*
X143611810Y-83793341D01*
X143620362Y-83766734D01*
X143730793Y-83439388D01*
X143818146Y-83250899D01*
X143912165Y-83163109D01*
X144042597Y-83137861D01*
X144111494Y-83136727D01*
X144237618Y-83144595D01*
D14*
%TO.C,R7*%
X110280000Y-108560000D02*
X110280000Y-108080000D01*
X110280000Y-108080000D02*
X120420000Y-108080000D01*
X120420000Y-108080000D02*
X120420000Y-108560000D01*
X110280000Y-111440000D02*
X110280000Y-111920000D01*
X110280000Y-111920000D02*
X120420000Y-111920000D01*
X120420000Y-111920000D02*
X120420000Y-111440000D01*
%TO.C,J2*%
X89680000Y-102080000D02*
G75*
G03*
X89680000Y-102080000I-1680000J0D01*
G01*
X83900000Y-94400000D02*
X83900000Y-104680000D01*
X85400000Y-94400000D02*
X85400000Y-104680000D01*
X90301000Y-94400000D02*
X90301000Y-104680000D01*
X93261000Y-94400000D02*
X93261000Y-104680000D01*
X83340000Y-94400000D02*
X83340000Y-104680000D01*
X93261000Y-94400000D02*
X83340000Y-94400000D01*
X93261000Y-104680000D02*
X83340000Y-104680000D01*
X89069000Y-103355000D02*
X89023000Y-103308000D01*
X86761000Y-101046000D02*
X86726000Y-101011000D01*
X89275000Y-103150000D02*
X89239000Y-103115000D01*
X86977000Y-100853000D02*
X86931000Y-100806000D01*
X83840000Y-94160000D02*
X83100000Y-94160000D01*
X83100000Y-94160000D02*
X83100000Y-94660000D01*
X86319747Y-97028805D02*
G75*
G02*
X86465000Y-96316000I1680253J28805D01*
G01*
X87316958Y-95464574D02*
G75*
G02*
X88684000Y-95465000I683042J-1535426D01*
G01*
X89535426Y-96316958D02*
G75*
G02*
X89535000Y-97684000I-1535426J-683042D01*
G01*
X88683042Y-98535426D02*
G75*
G02*
X87316000Y-98535000I-683042J1535426D01*
G01*
X86465244Y-97683318D02*
G75*
G02*
X86320000Y-97000000I1534756J683318D01*
G01*
%TO.C,Q4*%
X91841000Y-111381000D02*
X92222000Y-111000000D01*
X91841000Y-110619000D02*
X91841000Y-111381000D01*
X92222000Y-111000000D02*
X91841000Y-110619000D01*
X94000000Y-109100000D02*
X92400000Y-109400000D01*
X96600000Y-109350000D02*
X94000000Y-109100000D01*
X96600000Y-116000000D02*
X96600000Y-109350000D01*
X94000000Y-116300000D02*
X96600000Y-116000000D01*
X92400000Y-116000000D02*
X94000000Y-116300000D01*
X92400000Y-109400000D02*
X92400000Y-116000000D01*
%TO.C,R6*%
X86560000Y-118720000D02*
X86080000Y-118720000D01*
X86080000Y-118720000D02*
X86080000Y-108580000D01*
X86080000Y-108580000D02*
X86560000Y-108580000D01*
X89440000Y-118720000D02*
X89920000Y-118720000D01*
X89920000Y-118720000D02*
X89920000Y-108580000D01*
X89920000Y-108580000D02*
X89440000Y-108580000D01*
%TO.C,D1*%
X172360000Y-115530000D02*
X172360000Y-118470000D01*
X172360000Y-118470000D02*
X177800000Y-118470000D01*
X177800000Y-118470000D02*
X177800000Y-115530000D01*
X177800000Y-115530000D02*
X172360000Y-115530000D01*
X171140000Y-117000000D02*
X172360000Y-117000000D01*
X179020000Y-117000000D02*
X177800000Y-117000000D01*
X173260000Y-115530000D02*
X173260000Y-118470000D01*
X173380000Y-115530000D02*
X173380000Y-118470000D01*
X173140000Y-115530000D02*
X173140000Y-118470000D01*
%TO.C,U1*%
X151416000Y-71158600D02*
X112873100Y-71158600D01*
X112873100Y-73898600D02*
X151416000Y-73898600D01*
X151416000Y-73898600D02*
X151416000Y-71158600D01*
X112873100Y-71158600D02*
X112873100Y-73898600D01*
X112873100Y-71158600D02*
X112873100Y-73898600D01*
X106559600Y-69899700D02*
X157829500Y-69887000D01*
X106559600Y-97794600D02*
X157809800Y-97827000D01*
X157809800Y-97827000D02*
X157829500Y-69887000D01*
X151543000Y-96504600D02*
X151543000Y-93764600D01*
X113000100Y-96504600D02*
X151543000Y-96504600D01*
X151543000Y-93764600D02*
X113000100Y-93764600D01*
X138473100Y-71158600D02*
X112873100Y-71158600D01*
X113000100Y-93764600D02*
X113000100Y-96504600D01*
X106559600Y-97794600D02*
X106559600Y-69899700D01*
X112873100Y-73898600D02*
X138473100Y-73898600D01*
%TO.C,Q6*%
X180381000Y-98159000D02*
X180000000Y-97778000D01*
X179619000Y-98159000D02*
X180381000Y-98159000D01*
X180000000Y-97778000D02*
X179619000Y-98159000D01*
X178100000Y-96000000D02*
X178400000Y-97600000D01*
X178350000Y-93400000D02*
X178100000Y-96000000D01*
X185000000Y-93400000D02*
X178350000Y-93400000D01*
X185300000Y-96000000D02*
X185000000Y-93400000D01*
X185000000Y-97600000D02*
X185300000Y-96000000D01*
X178400000Y-97600000D02*
X185000000Y-97600000D01*
%TO.C,D7*%
X88360000Y-86530000D02*
X88360000Y-89470000D01*
X88360000Y-89470000D02*
X93800000Y-89470000D01*
X93800000Y-89470000D02*
X93800000Y-86530000D01*
X93800000Y-86530000D02*
X88360000Y-86530000D01*
X87140000Y-88000000D02*
X88360000Y-88000000D01*
X95020000Y-88000000D02*
X93800000Y-88000000D01*
X89260000Y-86530000D02*
X89260000Y-89470000D01*
X89380000Y-86530000D02*
X89380000Y-89470000D01*
X89140000Y-86530000D02*
X89140000Y-89470000D01*
%TO.C,K3*%
X144330000Y-108310000D02*
X139330000Y-108310000D01*
X144330000Y-105310000D02*
X144330000Y-108310000D01*
X139330000Y-105310000D02*
X144330000Y-105310000D01*
X139330000Y-108310000D02*
X139330000Y-105310000D01*
X144330000Y-108310000D02*
X139330000Y-105310000D01*
X141830000Y-108310000D02*
X141830000Y-112810000D01*
X141830000Y-100810000D02*
X141830000Y-105310000D01*
X138430000Y-106810000D02*
X138430000Y-110510000D01*
X145330000Y-106810000D02*
X145330000Y-110510000D01*
X145330000Y-110510000D02*
X138430000Y-110510000D01*
X146830000Y-106810000D02*
X151330000Y-104110000D01*
X145330000Y-106810000D02*
X146830000Y-106810000D01*
X141830000Y-100810000D02*
X139530000Y-100810000D01*
X138430000Y-106810000D02*
X137530000Y-106810000D01*
X139530000Y-112810000D02*
X141830000Y-112810000D01*
X150030000Y-102510000D02*
X150030000Y-104810000D01*
X150030000Y-111110000D02*
X150030000Y-108810000D01*
X153530000Y-114510000D02*
X134330000Y-114510000D01*
X153530000Y-99110000D02*
X153530000Y-114510000D01*
X134330000Y-99110000D02*
X153530000Y-99110000D01*
X134330000Y-99110000D02*
X134330000Y-105610000D01*
X134330000Y-108010000D02*
X134330000Y-114510000D01*
%TO.C,D8*%
X133470000Y-103360000D02*
X130530000Y-103360000D01*
X130530000Y-103360000D02*
X130530000Y-108800000D01*
X130530000Y-108800000D02*
X133470000Y-108800000D01*
X133470000Y-108800000D02*
X133470000Y-103360000D01*
X132000000Y-102140000D02*
X132000000Y-103360000D01*
X132000000Y-110020000D02*
X132000000Y-108800000D01*
X133470000Y-104260000D02*
X130530000Y-104260000D01*
X133470000Y-104380000D02*
X130530000Y-104380000D01*
X133470000Y-104140000D02*
X130530000Y-104140000D01*
%TO.C,U3*%
X159899000Y-81826500D02*
X181311200Y-81839200D01*
X181311200Y-81826500D02*
X181298500Y-63995700D01*
X181298500Y-63995700D02*
X159899000Y-64021100D01*
X159899000Y-64021100D02*
X159899000Y-81826500D01*
%TO.C,J3*%
X120760000Y-118000000D02*
G75*
G03*
X120760000Y-118000000I-1680000J0D01*
G01*
X111400000Y-122100000D02*
X121680000Y-122100000D01*
X111400000Y-120600000D02*
X121680000Y-120600000D01*
X111400000Y-115699000D02*
X121680000Y-115699000D01*
X111400000Y-112739000D02*
X121680000Y-112739000D01*
X111400000Y-122660000D02*
X121680000Y-122660000D01*
X111400000Y-112739000D02*
X111400000Y-122660000D01*
X121680000Y-112739000D02*
X121680000Y-122660000D01*
X120355000Y-116931000D02*
X120308000Y-116977000D01*
X118046000Y-119239000D02*
X118011000Y-119274000D01*
X120150000Y-116725000D02*
X120115000Y-116761000D01*
X117853000Y-119023000D02*
X117806000Y-119069000D01*
X111160000Y-122160000D02*
X111160000Y-122900000D01*
X111160000Y-122900000D02*
X111660000Y-122900000D01*
X114028805Y-119680253D02*
G75*
G02*
X113316000Y-119535000I-28805J1680253D01*
G01*
X112464574Y-118683042D02*
G75*
G02*
X112465000Y-117316000I1535426J683042D01*
G01*
X113316958Y-116464574D02*
G75*
G02*
X114684000Y-116465000I683042J-1535426D01*
G01*
X115535426Y-117316958D02*
G75*
G02*
X115535000Y-118684000I-1535426J-683042D01*
G01*
X114683318Y-119534756D02*
G75*
G02*
X114000000Y-119680000I-683318J1534756D01*
G01*
%TO.C,Q5*%
X110159000Y-103619000D02*
X109778000Y-104000000D01*
X110159000Y-104381000D02*
X110159000Y-103619000D01*
X109778000Y-104000000D02*
X110159000Y-104381000D01*
X108000000Y-105900000D02*
X109600000Y-105600000D01*
X105400000Y-105650000D02*
X108000000Y-105900000D01*
X105400000Y-99000000D02*
X105400000Y-105650000D01*
X108000000Y-98700000D02*
X105400000Y-99000000D01*
X109600000Y-99000000D02*
X108000000Y-98700000D01*
X109600000Y-105600000D02*
X109600000Y-99000000D01*
%TO.C,K1*%
X164500000Y-105500000D02*
X169500000Y-105500000D01*
X164500000Y-108500000D02*
X164500000Y-105500000D01*
X169500000Y-108500000D02*
X164500000Y-108500000D01*
X169500000Y-105500000D02*
X169500000Y-108500000D01*
X164500000Y-105500000D02*
X169500000Y-108500000D01*
X167000000Y-105500000D02*
X167000000Y-101000000D01*
X167000000Y-113000000D02*
X167000000Y-108500000D01*
X170400000Y-107000000D02*
X170400000Y-103300000D01*
X163500000Y-107000000D02*
X163500000Y-103300000D01*
X163500000Y-103300000D02*
X170400000Y-103300000D01*
X162000000Y-107000000D02*
X157500000Y-109700000D01*
X163500000Y-107000000D02*
X162000000Y-107000000D01*
X167000000Y-113000000D02*
X169300000Y-113000000D01*
X170400000Y-107000000D02*
X171300000Y-107000000D01*
X169300000Y-101000000D02*
X167000000Y-101000000D01*
X158800000Y-111300000D02*
X158800000Y-109000000D01*
X158800000Y-102700000D02*
X158800000Y-105000000D01*
X155300000Y-99300000D02*
X174500000Y-99300000D01*
X155300000Y-114700000D02*
X155300000Y-99300000D01*
X174500000Y-114700000D02*
X155300000Y-114700000D01*
X174500000Y-114700000D02*
X174500000Y-108200000D01*
X174500000Y-105800000D02*
X174500000Y-99300000D01*
%TO.C,Q1*%
X182159000Y-109089000D02*
X181778000Y-109470000D01*
X182159000Y-109851000D02*
X182159000Y-109089000D01*
X181778000Y-109470000D02*
X182159000Y-109851000D01*
X180000000Y-111370000D02*
X181600000Y-111070000D01*
X177400000Y-111120000D02*
X180000000Y-111370000D01*
X177400000Y-104470000D02*
X177400000Y-111120000D01*
X180000000Y-104170000D02*
X177400000Y-104470000D01*
X181600000Y-104470000D02*
X180000000Y-104170000D01*
X181600000Y-111070000D02*
X181600000Y-104470000D01*
%TO.C,U4*%
X200767600Y-122233400D02*
X222852900Y-122258800D01*
X200793000Y-78608900D02*
X222852900Y-78608900D01*
X200800000Y-78596200D02*
X200767600Y-122233400D01*
X222852900Y-78608900D02*
X222878300Y-122246100D01*
%TO.C,D6*%
X120560000Y-100920000D02*
X120560000Y-99080000D01*
X120560000Y-99080000D02*
X117280000Y-99080000D01*
X117280000Y-99080000D02*
X117280000Y-100920000D01*
X117280000Y-100920000D02*
X120560000Y-100920000D01*
X123010000Y-100000000D02*
X120560000Y-100000000D01*
X114830000Y-100000000D02*
X117280000Y-100000000D01*
X119984000Y-100920000D02*
X119984000Y-99080000D01*
X119864000Y-100920000D02*
X119864000Y-99080000D01*
X120104000Y-100920000D02*
X120104000Y-99080000D01*
%TO.C,U2*%
X188490000Y-104330000D02*
X186840000Y-104330000D01*
X186840000Y-104330000D02*
X186840000Y-114610000D01*
X186840000Y-114610000D02*
X192140000Y-114610000D01*
X192140000Y-114610000D02*
X192140000Y-104330000D01*
X192140000Y-104330000D02*
X190490000Y-104330000D01*
X190490000Y-104330000D02*
G75*
G02*
X188490000Y-104330000I-1000000J0D01*
G01*
%TO.C,RV1*%
X192365000Y-89280000D02*
X199315000Y-89280000D01*
X192365000Y-94020000D02*
X199315000Y-94020000D01*
X192365000Y-89280000D02*
X192365000Y-89925000D01*
X192365000Y-90915000D02*
X192365000Y-94020000D01*
X199315000Y-89280000D02*
X199315000Y-89925000D01*
X199315000Y-90915000D02*
X199315000Y-94020000D01*
%TO.C,R11*%
X99560000Y-114720000D02*
X99080000Y-114720000D01*
X99080000Y-114720000D02*
X99080000Y-104580000D01*
X99080000Y-104580000D02*
X99560000Y-104580000D01*
X102440000Y-114720000D02*
X102920000Y-114720000D01*
X102920000Y-114720000D02*
X102920000Y-104580000D01*
X102920000Y-104580000D02*
X102440000Y-104580000D01*
%TO.C,R10*%
X103720000Y-121440000D02*
X103720000Y-121920000D01*
X103720000Y-121920000D02*
X93580000Y-121920000D01*
X93580000Y-121920000D02*
X93580000Y-121440000D01*
X103720000Y-118560000D02*
X103720000Y-118080000D01*
X103720000Y-118080000D02*
X93580000Y-118080000D01*
X93580000Y-118080000D02*
X93580000Y-118560000D01*
%TO.C,R9*%
X164280000Y-94560000D02*
X164280000Y-94080000D01*
X164280000Y-94080000D02*
X174420000Y-94080000D01*
X174420000Y-94080000D02*
X174420000Y-94560000D01*
X164280000Y-97440000D02*
X164280000Y-97920000D01*
X164280000Y-97920000D02*
X174420000Y-97920000D01*
X174420000Y-97920000D02*
X174420000Y-97440000D01*
%TO.C,R8*%
X164280000Y-88560000D02*
X164280000Y-88080000D01*
X164280000Y-88080000D02*
X174420000Y-88080000D01*
X174420000Y-88080000D02*
X174420000Y-88560000D01*
X164280000Y-91440000D02*
X164280000Y-91920000D01*
X164280000Y-91920000D02*
X174420000Y-91920000D01*
X174420000Y-91920000D02*
X174420000Y-91440000D01*
%TO.C,R5*%
X164280000Y-82560000D02*
X164280000Y-82080000D01*
X164280000Y-82080000D02*
X174420000Y-82080000D01*
X174420000Y-82080000D02*
X174420000Y-82560000D01*
X164280000Y-85440000D02*
X164280000Y-85920000D01*
X164280000Y-85920000D02*
X174420000Y-85920000D01*
X174420000Y-85920000D02*
X174420000Y-85440000D01*
%TO.C,R4*%
X104440000Y-79280000D02*
X104920000Y-79280000D01*
X104920000Y-79280000D02*
X104920000Y-89420000D01*
X104920000Y-89420000D02*
X104440000Y-89420000D01*
X101560000Y-79280000D02*
X101080000Y-79280000D01*
X101080000Y-79280000D02*
X101080000Y-89420000D01*
X101080000Y-89420000D02*
X101560000Y-89420000D01*
%TO.C,R3*%
X113720000Y-68440000D02*
X113720000Y-68920000D01*
X113720000Y-68920000D02*
X103580000Y-68920000D01*
X103580000Y-68920000D02*
X103580000Y-68440000D01*
X113720000Y-65560000D02*
X113720000Y-65080000D01*
X113720000Y-65080000D02*
X103580000Y-65080000D01*
X103580000Y-65080000D02*
X103580000Y-65560000D01*
%TO.C,R2*%
X113280000Y-103560000D02*
X113280000Y-103080000D01*
X113280000Y-103080000D02*
X123420000Y-103080000D01*
X123420000Y-103080000D02*
X123420000Y-103560000D01*
X113280000Y-106440000D02*
X113280000Y-106920000D01*
X113280000Y-106920000D02*
X123420000Y-106920000D01*
X123420000Y-106920000D02*
X123420000Y-106440000D01*
%TO.C,R1*%
X189720000Y-102440000D02*
X189720000Y-102920000D01*
X189720000Y-102920000D02*
X179580000Y-102920000D01*
X179580000Y-102920000D02*
X179580000Y-102440000D01*
X189720000Y-99560000D02*
X189720000Y-99080000D01*
X189720000Y-99080000D02*
X179580000Y-99080000D01*
X179580000Y-99080000D02*
X179580000Y-99560000D01*
%TO.C,Q3*%
X180881000Y-88659000D02*
X180500000Y-88278000D01*
X180119000Y-88659000D02*
X180881000Y-88659000D01*
X180500000Y-88278000D02*
X180119000Y-88659000D01*
X178600000Y-86500000D02*
X178900000Y-88100000D01*
X178850000Y-83900000D02*
X178600000Y-86500000D01*
X185500000Y-83900000D02*
X178850000Y-83900000D01*
X185800000Y-86500000D02*
X185500000Y-83900000D01*
X185500000Y-88100000D02*
X185800000Y-86500000D01*
X178900000Y-88100000D02*
X185500000Y-88100000D01*
%TO.C,Q2*%
X193619000Y-115841000D02*
X194000000Y-116222000D01*
X194381000Y-115841000D02*
X193619000Y-115841000D01*
X194000000Y-116222000D02*
X194381000Y-115841000D01*
X195900000Y-118000000D02*
X195600000Y-116400000D01*
X195650000Y-120600000D02*
X195900000Y-118000000D01*
X189000000Y-120600000D02*
X195650000Y-120600000D01*
X188700000Y-118000000D02*
X189000000Y-120600000D01*
X189000000Y-116400000D02*
X188700000Y-118000000D01*
X195600000Y-116400000D02*
X189000000Y-116400000D01*
%TO.C,K2*%
X93500000Y-74500000D02*
X93500000Y-79500000D01*
X90500000Y-74500000D02*
X93500000Y-74500000D01*
X90500000Y-79500000D02*
X90500000Y-74500000D01*
X93500000Y-79500000D02*
X90500000Y-79500000D01*
X93500000Y-74500000D02*
X90500000Y-79500000D01*
X93500000Y-77000000D02*
X98000000Y-77000000D01*
X86000000Y-77000000D02*
X90500000Y-77000000D01*
X92000000Y-80400000D02*
X95700000Y-80400000D01*
X92000000Y-73500000D02*
X95700000Y-73500000D01*
X95700000Y-73500000D02*
X95700000Y-80400000D01*
X92000000Y-72000000D02*
X89300000Y-67500000D01*
X92000000Y-73500000D02*
X92000000Y-72000000D01*
X86000000Y-77000000D02*
X86000000Y-79300000D01*
X92000000Y-80400000D02*
X92000000Y-81300000D01*
X98000000Y-79300000D02*
X98000000Y-77000000D01*
X87700000Y-68800000D02*
X90000000Y-68800000D01*
X96300000Y-68800000D02*
X94000000Y-68800000D01*
X99700000Y-65300000D02*
X99700000Y-84500000D01*
X84300000Y-65300000D02*
X99700000Y-65300000D01*
X84300000Y-84500000D02*
X84300000Y-65300000D01*
X84300000Y-84500000D02*
X90800000Y-84500000D01*
X93200000Y-84500000D02*
X99700000Y-84500000D01*
%TO.C,J1*%
X188390000Y-67290000D02*
X188390000Y-71310000D01*
X188390000Y-71310000D02*
X196110000Y-71310000D01*
X196110000Y-71310000D02*
X196110000Y-67290000D01*
X196110000Y-67290000D02*
X188390000Y-67290000D01*
X188390000Y-69000000D02*
X188890000Y-69000000D01*
X188890000Y-69000000D02*
X188890000Y-67790000D01*
X188890000Y-67790000D02*
X195610000Y-67790000D01*
X195610000Y-67790000D02*
X195610000Y-69000000D01*
X195610000Y-69000000D02*
X196110000Y-69000000D01*
X188390000Y-69810000D02*
X189390000Y-69810000D01*
X189390000Y-69810000D02*
X189390000Y-71310000D01*
X196110000Y-69810000D02*
X195110000Y-69810000D01*
X195110000Y-69810000D02*
X195110000Y-71310000D01*
X188090000Y-69110000D02*
X188090000Y-71610000D01*
X188090000Y-71610000D02*
X190590000Y-71610000D01*
%TO.C,D11*%
X127710000Y-114764000D02*
X127710000Y-114920000D01*
X127710000Y-117080000D02*
X127710000Y-117236000D01*
X130311130Y-117079837D02*
G75*
G02*
X128229039Y-117080000I-1041130J1079837D01*
G01*
X130311130Y-114920163D02*
G75*
G03*
X128229039Y-114920000I-1041130J-1079837D01*
G01*
X130942335Y-117078608D02*
G75*
G02*
X127710000Y-117235516I-1672335J1078608D01*
G01*
X130942335Y-114921392D02*
G75*
G03*
X127710000Y-114764484I-1672335J-1078608D01*
G01*
%TO.C,D10*%
X99764000Y-98290000D02*
X99920000Y-98290000D01*
X102080000Y-98290000D02*
X102236000Y-98290000D01*
X102079837Y-95688870D02*
G75*
G02*
X102080000Y-97770961I-1079837J-1041130D01*
G01*
X99920163Y-95688870D02*
G75*
G03*
X99920000Y-97770961I1079837J-1041130D01*
G01*
X102078608Y-95057665D02*
G75*
G02*
X102235516Y-98290000I-1078608J-1672335D01*
G01*
X99921392Y-95057665D02*
G75*
G03*
X99764484Y-98290000I1078608J-1672335D01*
G01*
%TO.C,D9*%
X189830000Y-92236000D02*
X189830000Y-92080000D01*
X189830000Y-89920000D02*
X189830000Y-89764000D01*
X187228870Y-89920163D02*
G75*
G02*
X189310961Y-89920000I1041130J-1079837D01*
G01*
X187228870Y-92079837D02*
G75*
G03*
X189310961Y-92080000I1041130J1079837D01*
G01*
X186597665Y-89921392D02*
G75*
G02*
X189830000Y-89764484I1672335J-1078608D01*
G01*
X186597665Y-92078608D02*
G75*
G03*
X189830000Y-92235516I1672335J1078608D01*
G01*
%TO.C,D5*%
X128920000Y-104440000D02*
X127080000Y-104440000D01*
X127080000Y-104440000D02*
X127080000Y-107720000D01*
X127080000Y-107720000D02*
X128920000Y-107720000D01*
X128920000Y-107720000D02*
X128920000Y-104440000D01*
X128000000Y-101990000D02*
X128000000Y-104440000D01*
X128000000Y-110170000D02*
X128000000Y-107720000D01*
X128920000Y-105016000D02*
X127080000Y-105016000D01*
X128920000Y-105136000D02*
X127080000Y-105136000D01*
X128920000Y-104896000D02*
X127080000Y-104896000D01*
%TO.C,D4*%
X96920000Y-99440000D02*
X95080000Y-99440000D01*
X95080000Y-99440000D02*
X95080000Y-102720000D01*
X95080000Y-102720000D02*
X96920000Y-102720000D01*
X96920000Y-102720000D02*
X96920000Y-99440000D01*
X96000000Y-96990000D02*
X96000000Y-99440000D01*
X96000000Y-105170000D02*
X96000000Y-102720000D01*
X96920000Y-100016000D02*
X95080000Y-100016000D01*
X96920000Y-100136000D02*
X95080000Y-100136000D01*
X96920000Y-99896000D02*
X95080000Y-99896000D01*
%TO.C,D3*%
X89440000Y-91080000D02*
X89440000Y-92920000D01*
X89440000Y-92920000D02*
X92720000Y-92920000D01*
X92720000Y-92920000D02*
X92720000Y-91080000D01*
X92720000Y-91080000D02*
X89440000Y-91080000D01*
X86990000Y-92000000D02*
X89440000Y-92000000D01*
X95170000Y-92000000D02*
X92720000Y-92000000D01*
X90016000Y-91080000D02*
X90016000Y-92920000D01*
X90136000Y-91080000D02*
X90136000Y-92920000D01*
X89896000Y-91080000D02*
X89896000Y-92920000D01*
%TO.C,D2*%
X214800000Y-76730000D02*
X214800000Y-73790000D01*
X214800000Y-73790000D02*
X209360000Y-73790000D01*
X209360000Y-73790000D02*
X209360000Y-76730000D01*
X209360000Y-76730000D02*
X214800000Y-76730000D01*
X216020000Y-75260000D02*
X214800000Y-75260000D01*
X208140000Y-75260000D02*
X209360000Y-75260000D01*
X213900000Y-76730000D02*
X213900000Y-73790000D01*
X213780000Y-76730000D02*
X213780000Y-73790000D01*
X214020000Y-76730000D02*
X214020000Y-73790000D01*
%TO.C,C2*%
X199980000Y-105660000D02*
G75*
G03*
X199980000Y-105660000I-2120000J0D01*
G01*
X197860000Y-106500000D02*
X197860000Y-107740000D01*
X197860000Y-103580000D02*
X197860000Y-104820000D01*
X197900000Y-106500000D02*
X197900000Y-107740000D01*
X197900000Y-103580000D02*
X197900000Y-104820000D01*
X197940000Y-106500000D02*
X197940000Y-107739000D01*
X197940000Y-103581000D02*
X197940000Y-104820000D01*
X197980000Y-103583000D02*
X197980000Y-104820000D01*
X197980000Y-106500000D02*
X197980000Y-107737000D01*
X198020000Y-103586000D02*
X198020000Y-104820000D01*
X198020000Y-106500000D02*
X198020000Y-107734000D01*
X198060000Y-103589000D02*
X198060000Y-104820000D01*
X198060000Y-106500000D02*
X198060000Y-107731000D01*
X198100000Y-103593000D02*
X198100000Y-104820000D01*
X198100000Y-106500000D02*
X198100000Y-107727000D01*
X198140000Y-103598000D02*
X198140000Y-104820000D01*
X198140000Y-106500000D02*
X198140000Y-107722000D01*
X198180000Y-103604000D02*
X198180000Y-104820000D01*
X198180000Y-106500000D02*
X198180000Y-107716000D01*
X198220000Y-103610000D02*
X198220000Y-104820000D01*
X198220000Y-106500000D02*
X198220000Y-107710000D01*
X198260000Y-103618000D02*
X198260000Y-104820000D01*
X198260000Y-106500000D02*
X198260000Y-107702000D01*
X198300000Y-103626000D02*
X198300000Y-104820000D01*
X198300000Y-106500000D02*
X198300000Y-107694000D01*
X198340000Y-103635000D02*
X198340000Y-104820000D01*
X198340000Y-106500000D02*
X198340000Y-107685000D01*
X198380000Y-103644000D02*
X198380000Y-104820000D01*
X198380000Y-106500000D02*
X198380000Y-107676000D01*
X198420000Y-103655000D02*
X198420000Y-104820000D01*
X198420000Y-106500000D02*
X198420000Y-107665000D01*
X198460000Y-103666000D02*
X198460000Y-104820000D01*
X198460000Y-106500000D02*
X198460000Y-107654000D01*
X198500000Y-103678000D02*
X198500000Y-104820000D01*
X198500000Y-106500000D02*
X198500000Y-107642000D01*
X198540000Y-103692000D02*
X198540000Y-104820000D01*
X198540000Y-106500000D02*
X198540000Y-107628000D01*
X198581000Y-103706000D02*
X198581000Y-104820000D01*
X198581000Y-106500000D02*
X198581000Y-107614000D01*
X198621000Y-103720000D02*
X198621000Y-104820000D01*
X198621000Y-106500000D02*
X198621000Y-107600000D01*
X198661000Y-103736000D02*
X198661000Y-104820000D01*
X198661000Y-106500000D02*
X198661000Y-107584000D01*
X198701000Y-103753000D02*
X198701000Y-104820000D01*
X198701000Y-106500000D02*
X198701000Y-107567000D01*
X198741000Y-103771000D02*
X198741000Y-104820000D01*
X198741000Y-106500000D02*
X198741000Y-107549000D01*
X198781000Y-103790000D02*
X198781000Y-104820000D01*
X198781000Y-106500000D02*
X198781000Y-107530000D01*
X198821000Y-103809000D02*
X198821000Y-104820000D01*
X198821000Y-106500000D02*
X198821000Y-107511000D01*
X198861000Y-103830000D02*
X198861000Y-104820000D01*
X198861000Y-106500000D02*
X198861000Y-107490000D01*
X198901000Y-103852000D02*
X198901000Y-104820000D01*
X198901000Y-106500000D02*
X198901000Y-107468000D01*
X198941000Y-103875000D02*
X198941000Y-104820000D01*
X198941000Y-106500000D02*
X198941000Y-107445000D01*
X198981000Y-103900000D02*
X198981000Y-104820000D01*
X198981000Y-106500000D02*
X198981000Y-107420000D01*
X199021000Y-103925000D02*
X199021000Y-104820000D01*
X199021000Y-106500000D02*
X199021000Y-107395000D01*
X199061000Y-103952000D02*
X199061000Y-104820000D01*
X199061000Y-106500000D02*
X199061000Y-107368000D01*
X199101000Y-103980000D02*
X199101000Y-104820000D01*
X199101000Y-106500000D02*
X199101000Y-107340000D01*
X199141000Y-104010000D02*
X199141000Y-104820000D01*
X199141000Y-106500000D02*
X199141000Y-107310000D01*
X199181000Y-104041000D02*
X199181000Y-104820000D01*
X199181000Y-106500000D02*
X199181000Y-107279000D01*
X199221000Y-104073000D02*
X199221000Y-104820000D01*
X199221000Y-106500000D02*
X199221000Y-107247000D01*
X199261000Y-104108000D02*
X199261000Y-104820000D01*
X199261000Y-106500000D02*
X199261000Y-107212000D01*
X199301000Y-104144000D02*
X199301000Y-104820000D01*
X199301000Y-106500000D02*
X199301000Y-107176000D01*
X199341000Y-104182000D02*
X199341000Y-104820000D01*
X199341000Y-106500000D02*
X199341000Y-107138000D01*
X199381000Y-104222000D02*
X199381000Y-104820000D01*
X199381000Y-106500000D02*
X199381000Y-107098000D01*
X199421000Y-104264000D02*
X199421000Y-104820000D01*
X199421000Y-106500000D02*
X199421000Y-107056000D01*
X199461000Y-104309000D02*
X199461000Y-107011000D01*
X199501000Y-104356000D02*
X199501000Y-106964000D01*
X199541000Y-104406000D02*
X199541000Y-106914000D01*
X199581000Y-104460000D02*
X199581000Y-106860000D01*
X199621000Y-104518000D02*
X199621000Y-106802000D01*
X199661000Y-104580000D02*
X199661000Y-106740000D01*
X199701000Y-104647000D02*
X199701000Y-106673000D01*
X199741000Y-104720000D02*
X199741000Y-106600000D01*
X199781000Y-104801000D02*
X199781000Y-106519000D01*
X199821000Y-104892000D02*
X199821000Y-106428000D01*
X199861000Y-104996000D02*
X199861000Y-106324000D01*
X199901000Y-105123000D02*
X199901000Y-106197000D01*
X199941000Y-105290000D02*
X199941000Y-106030000D01*
X195590199Y-104465000D02*
X195990199Y-104465000D01*
X195790199Y-104265000D02*
X195790199Y-104665000D01*
%TO.C,C1*%
X199980000Y-113280000D02*
G75*
G03*
X199980000Y-113280000I-2120000J0D01*
G01*
X197860000Y-114120000D02*
X197860000Y-115360000D01*
X197860000Y-111200000D02*
X197860000Y-112440000D01*
X197900000Y-114120000D02*
X197900000Y-115360000D01*
X197900000Y-111200000D02*
X197900000Y-112440000D01*
X197940000Y-114120000D02*
X197940000Y-115359000D01*
X197940000Y-111201000D02*
X197940000Y-112440000D01*
X197980000Y-111203000D02*
X197980000Y-112440000D01*
X197980000Y-114120000D02*
X197980000Y-115357000D01*
X198020000Y-111206000D02*
X198020000Y-112440000D01*
X198020000Y-114120000D02*
X198020000Y-115354000D01*
X198060000Y-111209000D02*
X198060000Y-112440000D01*
X198060000Y-114120000D02*
X198060000Y-115351000D01*
X198100000Y-111213000D02*
X198100000Y-112440000D01*
X198100000Y-114120000D02*
X198100000Y-115347000D01*
X198140000Y-111218000D02*
X198140000Y-112440000D01*
X198140000Y-114120000D02*
X198140000Y-115342000D01*
X198180000Y-111224000D02*
X198180000Y-112440000D01*
X198180000Y-114120000D02*
X198180000Y-115336000D01*
X198220000Y-111230000D02*
X198220000Y-112440000D01*
X198220000Y-114120000D02*
X198220000Y-115330000D01*
X198260000Y-111238000D02*
X198260000Y-112440000D01*
X198260000Y-114120000D02*
X198260000Y-115322000D01*
X198300000Y-111246000D02*
X198300000Y-112440000D01*
X198300000Y-114120000D02*
X198300000Y-115314000D01*
X198340000Y-111255000D02*
X198340000Y-112440000D01*
X198340000Y-114120000D02*
X198340000Y-115305000D01*
X198380000Y-111264000D02*
X198380000Y-112440000D01*
X198380000Y-114120000D02*
X198380000Y-115296000D01*
X198420000Y-111275000D02*
X198420000Y-112440000D01*
X198420000Y-114120000D02*
X198420000Y-115285000D01*
X198460000Y-111286000D02*
X198460000Y-112440000D01*
X198460000Y-114120000D02*
X198460000Y-115274000D01*
X198500000Y-111298000D02*
X198500000Y-112440000D01*
X198500000Y-114120000D02*
X198500000Y-115262000D01*
X198540000Y-111312000D02*
X198540000Y-112440000D01*
X198540000Y-114120000D02*
X198540000Y-115248000D01*
X198581000Y-111326000D02*
X198581000Y-112440000D01*
X198581000Y-114120000D02*
X198581000Y-115234000D01*
X198621000Y-111340000D02*
X198621000Y-112440000D01*
X198621000Y-114120000D02*
X198621000Y-115220000D01*
X198661000Y-111356000D02*
X198661000Y-112440000D01*
X198661000Y-114120000D02*
X198661000Y-115204000D01*
X198701000Y-111373000D02*
X198701000Y-112440000D01*
X198701000Y-114120000D02*
X198701000Y-115187000D01*
X198741000Y-111391000D02*
X198741000Y-112440000D01*
X198741000Y-114120000D02*
X198741000Y-115169000D01*
X198781000Y-111410000D02*
X198781000Y-112440000D01*
X198781000Y-114120000D02*
X198781000Y-115150000D01*
X198821000Y-111429000D02*
X198821000Y-112440000D01*
X198821000Y-114120000D02*
X198821000Y-115131000D01*
X198861000Y-111450000D02*
X198861000Y-112440000D01*
X198861000Y-114120000D02*
X198861000Y-115110000D01*
X198901000Y-111472000D02*
X198901000Y-112440000D01*
X198901000Y-114120000D02*
X198901000Y-115088000D01*
X198941000Y-111495000D02*
X198941000Y-112440000D01*
X198941000Y-114120000D02*
X198941000Y-115065000D01*
X198981000Y-111520000D02*
X198981000Y-112440000D01*
X198981000Y-114120000D02*
X198981000Y-115040000D01*
X199021000Y-111545000D02*
X199021000Y-112440000D01*
X199021000Y-114120000D02*
X199021000Y-115015000D01*
X199061000Y-111572000D02*
X199061000Y-112440000D01*
X199061000Y-114120000D02*
X199061000Y-114988000D01*
X199101000Y-111600000D02*
X199101000Y-112440000D01*
X199101000Y-114120000D02*
X199101000Y-114960000D01*
X199141000Y-111630000D02*
X199141000Y-112440000D01*
X199141000Y-114120000D02*
X199141000Y-114930000D01*
X199181000Y-111661000D02*
X199181000Y-112440000D01*
X199181000Y-114120000D02*
X199181000Y-114899000D01*
X199221000Y-111693000D02*
X199221000Y-112440000D01*
X199221000Y-114120000D02*
X199221000Y-114867000D01*
X199261000Y-111728000D02*
X199261000Y-112440000D01*
X199261000Y-114120000D02*
X199261000Y-114832000D01*
X199301000Y-111764000D02*
X199301000Y-112440000D01*
X199301000Y-114120000D02*
X199301000Y-114796000D01*
X199341000Y-111802000D02*
X199341000Y-112440000D01*
X199341000Y-114120000D02*
X199341000Y-114758000D01*
X199381000Y-111842000D02*
X199381000Y-112440000D01*
X199381000Y-114120000D02*
X199381000Y-114718000D01*
X199421000Y-111884000D02*
X199421000Y-112440000D01*
X199421000Y-114120000D02*
X199421000Y-114676000D01*
X199461000Y-111929000D02*
X199461000Y-114631000D01*
X199501000Y-111976000D02*
X199501000Y-114584000D01*
X199541000Y-112026000D02*
X199541000Y-114534000D01*
X199581000Y-112080000D02*
X199581000Y-114480000D01*
X199621000Y-112138000D02*
X199621000Y-114422000D01*
X199661000Y-112200000D02*
X199661000Y-114360000D01*
X199701000Y-112267000D02*
X199701000Y-114293000D01*
X199741000Y-112340000D02*
X199741000Y-114220000D01*
X199781000Y-112421000D02*
X199781000Y-114139000D01*
X199821000Y-112512000D02*
X199821000Y-114048000D01*
X199861000Y-112616000D02*
X199861000Y-113944000D01*
X199901000Y-112743000D02*
X199901000Y-113817000D01*
X199941000Y-112910000D02*
X199941000Y-113650000D01*
X195590199Y-112085000D02*
X195990199Y-112085000D01*
X195790199Y-111885000D02*
X195790199Y-112285000D01*
%TO.C,F1*%
D10*
X210548366Y-67517771D02*
X210215033Y-67517771D01*
X210215033Y-68041580D02*
X210215033Y-67041580D01*
X210691223Y-67041580D01*
X211595985Y-68041580D02*
X211024557Y-68041580D01*
X211310271Y-68041580D02*
X211310271Y-67041580D01*
X211215033Y-67184438D01*
X211119795Y-67279676D01*
X211024557Y-67327295D01*
%TO.C,R7*%
X105833333Y-111952380D02*
X105500000Y-111476190D01*
X105261904Y-111952380D02*
X105261904Y-110952380D01*
X105642857Y-110952380D01*
X105738095Y-111000000D01*
X105785714Y-111047619D01*
X105833333Y-111142857D01*
X105833333Y-111285714D01*
X105785714Y-111380952D01*
X105738095Y-111428571D01*
X105642857Y-111476190D01*
X105261904Y-111476190D01*
X106166666Y-110952380D02*
X106833333Y-110952380D01*
X106404761Y-111952380D01*
%TO.C,J2*%
X90666666Y-105452380D02*
X90666666Y-106166666D01*
X90619047Y-106309523D01*
X90523809Y-106404761D01*
X90380952Y-106452380D01*
X90285714Y-106452380D01*
X91095238Y-105547619D02*
X91142857Y-105500000D01*
X91238095Y-105452380D01*
X91476190Y-105452380D01*
X91571428Y-105500000D01*
X91619047Y-105547619D01*
X91666666Y-105642857D01*
X91666666Y-105738095D01*
X91619047Y-105880952D01*
X91047619Y-106452380D01*
X91666666Y-106452380D01*
%TO.C,Q4*%
X92404761Y-108547619D02*
X92309523Y-108500000D01*
X92214285Y-108404761D01*
X92071428Y-108261904D01*
X91976190Y-108214285D01*
X91880952Y-108214285D01*
X91928571Y-108452380D02*
X91833333Y-108404761D01*
X91738095Y-108309523D01*
X91690476Y-108119047D01*
X91690476Y-107785714D01*
X91738095Y-107595238D01*
X91833333Y-107500000D01*
X91928571Y-107452380D01*
X92119047Y-107452380D01*
X92214285Y-107500000D01*
X92309523Y-107595238D01*
X92357142Y-107785714D01*
X92357142Y-108119047D01*
X92309523Y-108309523D01*
X92214285Y-108404761D01*
X92119047Y-108452380D01*
X91928571Y-108452380D01*
X93214285Y-107785714D02*
X93214285Y-108452380D01*
X92976190Y-107404761D02*
X92738095Y-108119047D01*
X93357142Y-108119047D01*
%TO.C,R6*%
X87833333Y-123452380D02*
X87500000Y-122976190D01*
X87261904Y-123452380D02*
X87261904Y-122452380D01*
X87642857Y-122452380D01*
X87738095Y-122500000D01*
X87785714Y-122547619D01*
X87833333Y-122642857D01*
X87833333Y-122785714D01*
X87785714Y-122880952D01*
X87738095Y-122928571D01*
X87642857Y-122976190D01*
X87261904Y-122976190D01*
X88690476Y-122452380D02*
X88500000Y-122452380D01*
X88404761Y-122500000D01*
X88357142Y-122547619D01*
X88261904Y-122690476D01*
X88214285Y-122880952D01*
X88214285Y-123261904D01*
X88261904Y-123357142D01*
X88309523Y-123404761D01*
X88404761Y-123452380D01*
X88595238Y-123452380D01*
X88690476Y-123404761D01*
X88738095Y-123357142D01*
X88785714Y-123261904D01*
X88785714Y-123023809D01*
X88738095Y-122928571D01*
X88690476Y-122880952D01*
X88595238Y-122833333D01*
X88404761Y-122833333D01*
X88309523Y-122880952D01*
X88261904Y-122928571D01*
X88214285Y-123023809D01*
%TO.C,D1*%
X174761904Y-120452380D02*
X174761904Y-119452380D01*
X175000000Y-119452380D01*
X175142857Y-119500000D01*
X175238095Y-119595238D01*
X175285714Y-119690476D01*
X175333333Y-119880952D01*
X175333333Y-120023809D01*
X175285714Y-120214285D01*
X175238095Y-120309523D01*
X175142857Y-120404761D01*
X175000000Y-120452380D01*
X174761904Y-120452380D01*
X176285714Y-120452380D02*
X175714285Y-120452380D01*
X176000000Y-120452380D02*
X176000000Y-119452380D01*
X175904761Y-119595238D01*
X175809523Y-119690476D01*
X175714285Y-119738095D01*
%TO.C,U1*%
X158738095Y-96452380D02*
X158738095Y-97261904D01*
X158785714Y-97357142D01*
X158833333Y-97404761D01*
X158928571Y-97452380D01*
X159119047Y-97452380D01*
X159214285Y-97404761D01*
X159261904Y-97357142D01*
X159309523Y-97261904D01*
X159309523Y-96452380D01*
X160309523Y-97452380D02*
X159738095Y-97452380D01*
X160023809Y-97452380D02*
X160023809Y-96452380D01*
X159928571Y-96595238D01*
X159833333Y-96690476D01*
X159738095Y-96738095D01*
%TO.C,Q6*%
X186904761Y-97547619D02*
X186809523Y-97500000D01*
X186714285Y-97404761D01*
X186571428Y-97261904D01*
X186476190Y-97214285D01*
X186380952Y-97214285D01*
X186428571Y-97452380D02*
X186333333Y-97404761D01*
X186238095Y-97309523D01*
X186190476Y-97119047D01*
X186190476Y-96785714D01*
X186238095Y-96595238D01*
X186333333Y-96500000D01*
X186428571Y-96452380D01*
X186619047Y-96452380D01*
X186714285Y-96500000D01*
X186809523Y-96595238D01*
X186857142Y-96785714D01*
X186857142Y-97119047D01*
X186809523Y-97309523D01*
X186714285Y-97404761D01*
X186619047Y-97452380D01*
X186428571Y-97452380D01*
X187714285Y-96452380D02*
X187523809Y-96452380D01*
X187428571Y-96500000D01*
X187380952Y-96547619D01*
X187285714Y-96690476D01*
X187238095Y-96880952D01*
X187238095Y-97261904D01*
X187285714Y-97357142D01*
X187333333Y-97404761D01*
X187428571Y-97452380D01*
X187619047Y-97452380D01*
X187714285Y-97404761D01*
X187761904Y-97357142D01*
X187809523Y-97261904D01*
X187809523Y-97023809D01*
X187761904Y-96928571D01*
X187714285Y-96880952D01*
X187619047Y-96833333D01*
X187428571Y-96833333D01*
X187333333Y-96880952D01*
X187285714Y-96928571D01*
X187238095Y-97023809D01*
%TO.C,D7*%
X83261904Y-86452380D02*
X83261904Y-85452380D01*
X83500000Y-85452380D01*
X83642857Y-85500000D01*
X83738095Y-85595238D01*
X83785714Y-85690476D01*
X83833333Y-85880952D01*
X83833333Y-86023809D01*
X83785714Y-86214285D01*
X83738095Y-86309523D01*
X83642857Y-86404761D01*
X83500000Y-86452380D01*
X83261904Y-86452380D01*
X84166666Y-85452380D02*
X84833333Y-85452380D01*
X84404761Y-86452380D01*
%TO.C,K3*%
X142261904Y-115952380D02*
X142261904Y-114952380D01*
X142833333Y-115952380D02*
X142404761Y-115380952D01*
X142833333Y-114952380D02*
X142261904Y-115523809D01*
X143166666Y-114952380D02*
X143785714Y-114952380D01*
X143452380Y-115333333D01*
X143595238Y-115333333D01*
X143690476Y-115380952D01*
X143738095Y-115428571D01*
X143785714Y-115523809D01*
X143785714Y-115761904D01*
X143738095Y-115857142D01*
X143690476Y-115904761D01*
X143595238Y-115952380D01*
X143309523Y-115952380D01*
X143214285Y-115904761D01*
X143166666Y-115857142D01*
%TO.C,D8*%
X132261904Y-113952380D02*
X132261904Y-112952380D01*
X132500000Y-112952380D01*
X132642857Y-113000000D01*
X132738095Y-113095238D01*
X132785714Y-113190476D01*
X132833333Y-113380952D01*
X132833333Y-113523809D01*
X132785714Y-113714285D01*
X132738095Y-113809523D01*
X132642857Y-113904761D01*
X132500000Y-113952380D01*
X132261904Y-113952380D01*
X133404761Y-113380952D02*
X133309523Y-113333333D01*
X133261904Y-113285714D01*
X133214285Y-113190476D01*
X133214285Y-113142857D01*
X133261904Y-113047619D01*
X133309523Y-113000000D01*
X133404761Y-112952380D01*
X133595238Y-112952380D01*
X133690476Y-113000000D01*
X133738095Y-113047619D01*
X133785714Y-113142857D01*
X133785714Y-113190476D01*
X133738095Y-113285714D01*
X133690476Y-113333333D01*
X133595238Y-113380952D01*
X133404761Y-113380952D01*
X133309523Y-113428571D01*
X133261904Y-113476190D01*
X133214285Y-113571428D01*
X133214285Y-113761904D01*
X133261904Y-113857142D01*
X133309523Y-113904761D01*
X133404761Y-113952380D01*
X133595238Y-113952380D01*
X133690476Y-113904761D01*
X133738095Y-113857142D01*
X133785714Y-113761904D01*
X133785714Y-113571428D01*
X133738095Y-113476190D01*
X133690476Y-113428571D01*
X133595238Y-113380952D01*
%TO.C,U3*%
X182238095Y-71452380D02*
X182238095Y-72261904D01*
X182285714Y-72357142D01*
X182333333Y-72404761D01*
X182428571Y-72452380D01*
X182619047Y-72452380D01*
X182714285Y-72404761D01*
X182761904Y-72357142D01*
X182809523Y-72261904D01*
X182809523Y-71452380D01*
X183190476Y-71452380D02*
X183809523Y-71452380D01*
X183476190Y-71833333D01*
X183619047Y-71833333D01*
X183714285Y-71880952D01*
X183761904Y-71928571D01*
X183809523Y-72023809D01*
X183809523Y-72261904D01*
X183761904Y-72357142D01*
X183714285Y-72404761D01*
X183619047Y-72452380D01*
X183333333Y-72452380D01*
X183238095Y-72404761D01*
X183190476Y-72357142D01*
%TO.C,J3*%
X109666666Y-121452380D02*
X109666666Y-122166666D01*
X109619047Y-122309523D01*
X109523809Y-122404761D01*
X109380952Y-122452380D01*
X109285714Y-122452380D01*
X110047619Y-121452380D02*
X110666666Y-121452380D01*
X110333333Y-121833333D01*
X110476190Y-121833333D01*
X110571428Y-121880952D01*
X110619047Y-121928571D01*
X110666666Y-122023809D01*
X110666666Y-122261904D01*
X110619047Y-122357142D01*
X110571428Y-122404761D01*
X110476190Y-122452380D01*
X110190476Y-122452380D01*
X110095238Y-122404761D01*
X110047619Y-122357142D01*
%TO.C,Q5*%
X105904761Y-107547619D02*
X105809523Y-107500000D01*
X105714285Y-107404761D01*
X105571428Y-107261904D01*
X105476190Y-107214285D01*
X105380952Y-107214285D01*
X105428571Y-107452380D02*
X105333333Y-107404761D01*
X105238095Y-107309523D01*
X105190476Y-107119047D01*
X105190476Y-106785714D01*
X105238095Y-106595238D01*
X105333333Y-106500000D01*
X105428571Y-106452380D01*
X105619047Y-106452380D01*
X105714285Y-106500000D01*
X105809523Y-106595238D01*
X105857142Y-106785714D01*
X105857142Y-107119047D01*
X105809523Y-107309523D01*
X105714285Y-107404761D01*
X105619047Y-107452380D01*
X105428571Y-107452380D01*
X106761904Y-106452380D02*
X106285714Y-106452380D01*
X106238095Y-106928571D01*
X106285714Y-106880952D01*
X106380952Y-106833333D01*
X106619047Y-106833333D01*
X106714285Y-106880952D01*
X106761904Y-106928571D01*
X106809523Y-107023809D01*
X106809523Y-107261904D01*
X106761904Y-107357142D01*
X106714285Y-107404761D01*
X106619047Y-107452380D01*
X106380952Y-107452380D01*
X106285714Y-107404761D01*
X106238095Y-107357142D01*
%TO.C,K1*%
X163261904Y-116452380D02*
X163261904Y-115452380D01*
X163833333Y-116452380D02*
X163404761Y-115880952D01*
X163833333Y-115452380D02*
X163261904Y-116023809D01*
X164785714Y-116452380D02*
X164214285Y-116452380D01*
X164500000Y-116452380D02*
X164500000Y-115452380D01*
X164404761Y-115595238D01*
X164309523Y-115690476D01*
X164214285Y-115738095D01*
%TO.C,Q1*%
X179404761Y-113547619D02*
X179309523Y-113500000D01*
X179214285Y-113404761D01*
X179071428Y-113261904D01*
X178976190Y-113214285D01*
X178880952Y-113214285D01*
X178928571Y-113452380D02*
X178833333Y-113404761D01*
X178738095Y-113309523D01*
X178690476Y-113119047D01*
X178690476Y-112785714D01*
X178738095Y-112595238D01*
X178833333Y-112500000D01*
X178928571Y-112452380D01*
X179119047Y-112452380D01*
X179214285Y-112500000D01*
X179309523Y-112595238D01*
X179357142Y-112785714D01*
X179357142Y-113119047D01*
X179309523Y-113309523D01*
X179214285Y-113404761D01*
X179119047Y-113452380D01*
X178928571Y-113452380D01*
X180309523Y-113452380D02*
X179738095Y-113452380D01*
X180023809Y-113452380D02*
X180023809Y-112452380D01*
X179928571Y-112595238D01*
X179833333Y-112690476D01*
X179738095Y-112738095D01*
%TO.C,U4*%
X202738095Y-76952380D02*
X202738095Y-77761904D01*
X202785714Y-77857142D01*
X202833333Y-77904761D01*
X202928571Y-77952380D01*
X203119047Y-77952380D01*
X203214285Y-77904761D01*
X203261904Y-77857142D01*
X203309523Y-77761904D01*
X203309523Y-76952380D01*
X204214285Y-77285714D02*
X204214285Y-77952380D01*
X203976190Y-76904761D02*
X203738095Y-77619047D01*
X204357142Y-77619047D01*
%TO.C,D6*%
X120761904Y-102452380D02*
X120761904Y-101452380D01*
X121000000Y-101452380D01*
X121142857Y-101500000D01*
X121238095Y-101595238D01*
X121285714Y-101690476D01*
X121333333Y-101880952D01*
X121333333Y-102023809D01*
X121285714Y-102214285D01*
X121238095Y-102309523D01*
X121142857Y-102404761D01*
X121000000Y-102452380D01*
X120761904Y-102452380D01*
X122190476Y-101452380D02*
X122000000Y-101452380D01*
X121904761Y-101500000D01*
X121857142Y-101547619D01*
X121761904Y-101690476D01*
X121714285Y-101880952D01*
X121714285Y-102261904D01*
X121761904Y-102357142D01*
X121809523Y-102404761D01*
X121904761Y-102452380D01*
X122095238Y-102452380D01*
X122190476Y-102404761D01*
X122238095Y-102357142D01*
X122285714Y-102261904D01*
X122285714Y-102023809D01*
X122238095Y-101928571D01*
X122190476Y-101880952D01*
X122095238Y-101833333D01*
X121904761Y-101833333D01*
X121809523Y-101880952D01*
X121761904Y-101928571D01*
X121714285Y-102023809D01*
%TO.C,U2*%
X182238095Y-112452380D02*
X182238095Y-113261904D01*
X182285714Y-113357142D01*
X182333333Y-113404761D01*
X182428571Y-113452380D01*
X182619047Y-113452380D01*
X182714285Y-113404761D01*
X182761904Y-113357142D01*
X182809523Y-113261904D01*
X182809523Y-112452380D01*
X183238095Y-112547619D02*
X183285714Y-112500000D01*
X183380952Y-112452380D01*
X183619047Y-112452380D01*
X183714285Y-112500000D01*
X183761904Y-112547619D01*
X183809523Y-112642857D01*
X183809523Y-112738095D01*
X183761904Y-112880952D01*
X183190476Y-113452380D01*
X183809523Y-113452380D01*
%TO.C,RV1*%
X195404761Y-95952380D02*
X195071428Y-95476190D01*
X194833333Y-95952380D02*
X194833333Y-94952380D01*
X195214285Y-94952380D01*
X195309523Y-95000000D01*
X195357142Y-95047619D01*
X195404761Y-95142857D01*
X195404761Y-95285714D01*
X195357142Y-95380952D01*
X195309523Y-95428571D01*
X195214285Y-95476190D01*
X194833333Y-95476190D01*
X195690476Y-94952380D02*
X196023809Y-95952380D01*
X196357142Y-94952380D01*
X197214285Y-95952380D02*
X196642857Y-95952380D01*
X196928571Y-95952380D02*
X196928571Y-94952380D01*
X196833333Y-95095238D01*
X196738095Y-95190476D01*
X196642857Y-95238095D01*
%TO.C,R11*%
X96857142Y-117452380D02*
X96523809Y-116976190D01*
X96285714Y-117452380D02*
X96285714Y-116452380D01*
X96666666Y-116452380D01*
X96761904Y-116500000D01*
X96809523Y-116547619D01*
X96857142Y-116642857D01*
X96857142Y-116785714D01*
X96809523Y-116880952D01*
X96761904Y-116928571D01*
X96666666Y-116976190D01*
X96285714Y-116976190D01*
X97809523Y-117452380D02*
X97238095Y-117452380D01*
X97523809Y-117452380D02*
X97523809Y-116452380D01*
X97428571Y-116595238D01*
X97333333Y-116690476D01*
X97238095Y-116738095D01*
X98761904Y-117452380D02*
X98190476Y-117452380D01*
X98476190Y-117452380D02*
X98476190Y-116452380D01*
X98380952Y-116595238D01*
X98285714Y-116690476D01*
X98190476Y-116738095D01*
%TO.C,R10*%
X91357142Y-123372380D02*
X91023809Y-122896190D01*
X90785714Y-123372380D02*
X90785714Y-122372380D01*
X91166666Y-122372380D01*
X91261904Y-122420000D01*
X91309523Y-122467619D01*
X91357142Y-122562857D01*
X91357142Y-122705714D01*
X91309523Y-122800952D01*
X91261904Y-122848571D01*
X91166666Y-122896190D01*
X90785714Y-122896190D01*
X92309523Y-123372380D02*
X91738095Y-123372380D01*
X92023809Y-123372380D02*
X92023809Y-122372380D01*
X91928571Y-122515238D01*
X91833333Y-122610476D01*
X91738095Y-122658095D01*
X92928571Y-122372380D02*
X93023809Y-122372380D01*
X93119047Y-122420000D01*
X93166666Y-122467619D01*
X93214285Y-122562857D01*
X93261904Y-122753333D01*
X93261904Y-122991428D01*
X93214285Y-123181904D01*
X93166666Y-123277142D01*
X93119047Y-123324761D01*
X93023809Y-123372380D01*
X92928571Y-123372380D01*
X92833333Y-123324761D01*
X92785714Y-123277142D01*
X92738095Y-123181904D01*
X92690476Y-122991428D01*
X92690476Y-122753333D01*
X92738095Y-122562857D01*
X92785714Y-122467619D01*
X92833333Y-122420000D01*
X92928571Y-122372380D01*
%TO.C,R9*%
X171333333Y-93452380D02*
X171000000Y-92976190D01*
X170761904Y-93452380D02*
X170761904Y-92452380D01*
X171142857Y-92452380D01*
X171238095Y-92500000D01*
X171285714Y-92547619D01*
X171333333Y-92642857D01*
X171333333Y-92785714D01*
X171285714Y-92880952D01*
X171238095Y-92928571D01*
X171142857Y-92976190D01*
X170761904Y-92976190D01*
X171809523Y-93452380D02*
X172000000Y-93452380D01*
X172095238Y-93404761D01*
X172142857Y-93357142D01*
X172238095Y-93214285D01*
X172285714Y-93023809D01*
X172285714Y-92642857D01*
X172238095Y-92547619D01*
X172190476Y-92500000D01*
X172095238Y-92452380D01*
X171904761Y-92452380D01*
X171809523Y-92500000D01*
X171761904Y-92547619D01*
X171714285Y-92642857D01*
X171714285Y-92880952D01*
X171761904Y-92976190D01*
X171809523Y-93023809D01*
X171904761Y-93071428D01*
X172095238Y-93071428D01*
X172190476Y-93023809D01*
X172238095Y-92976190D01*
X172285714Y-92880952D01*
%TO.C,R8*%
X171333333Y-87452380D02*
X171000000Y-86976190D01*
X170761904Y-87452380D02*
X170761904Y-86452380D01*
X171142857Y-86452380D01*
X171238095Y-86500000D01*
X171285714Y-86547619D01*
X171333333Y-86642857D01*
X171333333Y-86785714D01*
X171285714Y-86880952D01*
X171238095Y-86928571D01*
X171142857Y-86976190D01*
X170761904Y-86976190D01*
X171904761Y-86880952D02*
X171809523Y-86833333D01*
X171761904Y-86785714D01*
X171714285Y-86690476D01*
X171714285Y-86642857D01*
X171761904Y-86547619D01*
X171809523Y-86500000D01*
X171904761Y-86452380D01*
X172095238Y-86452380D01*
X172190476Y-86500000D01*
X172238095Y-86547619D01*
X172285714Y-86642857D01*
X172285714Y-86690476D01*
X172238095Y-86785714D01*
X172190476Y-86833333D01*
X172095238Y-86880952D01*
X171904761Y-86880952D01*
X171809523Y-86928571D01*
X171761904Y-86976190D01*
X171714285Y-87071428D01*
X171714285Y-87261904D01*
X171761904Y-87357142D01*
X171809523Y-87404761D01*
X171904761Y-87452380D01*
X172095238Y-87452380D01*
X172190476Y-87404761D01*
X172238095Y-87357142D01*
X172285714Y-87261904D01*
X172285714Y-87071428D01*
X172238095Y-86976190D01*
X172190476Y-86928571D01*
X172095238Y-86880952D01*
%TO.C,R5*%
X160833333Y-87452380D02*
X160500000Y-86976190D01*
X160261904Y-87452380D02*
X160261904Y-86452380D01*
X160642857Y-86452380D01*
X160738095Y-86500000D01*
X160785714Y-86547619D01*
X160833333Y-86642857D01*
X160833333Y-86785714D01*
X160785714Y-86880952D01*
X160738095Y-86928571D01*
X160642857Y-86976190D01*
X160261904Y-86976190D01*
X161738095Y-86452380D02*
X161261904Y-86452380D01*
X161214285Y-86928571D01*
X161261904Y-86880952D01*
X161357142Y-86833333D01*
X161595238Y-86833333D01*
X161690476Y-86880952D01*
X161738095Y-86928571D01*
X161785714Y-87023809D01*
X161785714Y-87261904D01*
X161738095Y-87357142D01*
X161690476Y-87404761D01*
X161595238Y-87452380D01*
X161357142Y-87452380D01*
X161261904Y-87404761D01*
X161214285Y-87357142D01*
%TO.C,R4*%
X104833333Y-75952380D02*
X104500000Y-75476190D01*
X104261904Y-75952380D02*
X104261904Y-74952380D01*
X104642857Y-74952380D01*
X104738095Y-75000000D01*
X104785714Y-75047619D01*
X104833333Y-75142857D01*
X104833333Y-75285714D01*
X104785714Y-75380952D01*
X104738095Y-75428571D01*
X104642857Y-75476190D01*
X104261904Y-75476190D01*
X105690476Y-75285714D02*
X105690476Y-75952380D01*
X105452380Y-74904761D02*
X105214285Y-75619047D01*
X105833333Y-75619047D01*
%TO.C,R3*%
X101833333Y-70452380D02*
X101500000Y-69976190D01*
X101261904Y-70452380D02*
X101261904Y-69452380D01*
X101642857Y-69452380D01*
X101738095Y-69500000D01*
X101785714Y-69547619D01*
X101833333Y-69642857D01*
X101833333Y-69785714D01*
X101785714Y-69880952D01*
X101738095Y-69928571D01*
X101642857Y-69976190D01*
X101261904Y-69976190D01*
X102166666Y-69452380D02*
X102785714Y-69452380D01*
X102452380Y-69833333D01*
X102595238Y-69833333D01*
X102690476Y-69880952D01*
X102738095Y-69928571D01*
X102785714Y-70023809D01*
X102785714Y-70261904D01*
X102738095Y-70357142D01*
X102690476Y-70404761D01*
X102595238Y-70452380D01*
X102309523Y-70452380D01*
X102214285Y-70404761D01*
X102166666Y-70357142D01*
%TO.C,R2*%
X112333333Y-102452380D02*
X112000000Y-101976190D01*
X111761904Y-102452380D02*
X111761904Y-101452380D01*
X112142857Y-101452380D01*
X112238095Y-101500000D01*
X112285714Y-101547619D01*
X112333333Y-101642857D01*
X112333333Y-101785714D01*
X112285714Y-101880952D01*
X112238095Y-101928571D01*
X112142857Y-101976190D01*
X111761904Y-101976190D01*
X112714285Y-101547619D02*
X112761904Y-101500000D01*
X112857142Y-101452380D01*
X113095238Y-101452380D01*
X113190476Y-101500000D01*
X113238095Y-101547619D01*
X113285714Y-101642857D01*
X113285714Y-101738095D01*
X113238095Y-101880952D01*
X112666666Y-102452380D01*
X113285714Y-102452380D01*
%TO.C,R1*%
X191833333Y-98452380D02*
X191500000Y-97976190D01*
X191261904Y-98452380D02*
X191261904Y-97452380D01*
X191642857Y-97452380D01*
X191738095Y-97500000D01*
X191785714Y-97547619D01*
X191833333Y-97642857D01*
X191833333Y-97785714D01*
X191785714Y-97880952D01*
X191738095Y-97928571D01*
X191642857Y-97976190D01*
X191261904Y-97976190D01*
X192785714Y-98452380D02*
X192214285Y-98452380D01*
X192500000Y-98452380D02*
X192500000Y-97452380D01*
X192404761Y-97595238D01*
X192309523Y-97690476D01*
X192214285Y-97738095D01*
%TO.C,Q3*%
X187404761Y-87047619D02*
X187309523Y-87000000D01*
X187214285Y-86904761D01*
X187071428Y-86761904D01*
X186976190Y-86714285D01*
X186880952Y-86714285D01*
X186928571Y-86952380D02*
X186833333Y-86904761D01*
X186738095Y-86809523D01*
X186690476Y-86619047D01*
X186690476Y-86285714D01*
X186738095Y-86095238D01*
X186833333Y-86000000D01*
X186928571Y-85952380D01*
X187119047Y-85952380D01*
X187214285Y-86000000D01*
X187309523Y-86095238D01*
X187357142Y-86285714D01*
X187357142Y-86619047D01*
X187309523Y-86809523D01*
X187214285Y-86904761D01*
X187119047Y-86952380D01*
X186928571Y-86952380D01*
X187690476Y-85952380D02*
X188309523Y-85952380D01*
X187976190Y-86333333D01*
X188119047Y-86333333D01*
X188214285Y-86380952D01*
X188261904Y-86428571D01*
X188309523Y-86523809D01*
X188309523Y-86761904D01*
X188261904Y-86857142D01*
X188214285Y-86904761D01*
X188119047Y-86952380D01*
X187833333Y-86952380D01*
X187738095Y-86904761D01*
X187690476Y-86857142D01*
%TO.C,Q2*%
X192904761Y-122547619D02*
X192809523Y-122500000D01*
X192714285Y-122404761D01*
X192571428Y-122261904D01*
X192476190Y-122214285D01*
X192380952Y-122214285D01*
X192428571Y-122452380D02*
X192333333Y-122404761D01*
X192238095Y-122309523D01*
X192190476Y-122119047D01*
X192190476Y-121785714D01*
X192238095Y-121595238D01*
X192333333Y-121500000D01*
X192428571Y-121452380D01*
X192619047Y-121452380D01*
X192714285Y-121500000D01*
X192809523Y-121595238D01*
X192857142Y-121785714D01*
X192857142Y-122119047D01*
X192809523Y-122309523D01*
X192714285Y-122404761D01*
X192619047Y-122452380D01*
X192428571Y-122452380D01*
X193238095Y-121547619D02*
X193285714Y-121500000D01*
X193380952Y-121452380D01*
X193619047Y-121452380D01*
X193714285Y-121500000D01*
X193761904Y-121547619D01*
X193809523Y-121642857D01*
X193809523Y-121738095D01*
X193761904Y-121880952D01*
X193190476Y-122452380D01*
X193809523Y-122452380D01*
%TO.C,K2*%
X98261904Y-86452380D02*
X98261904Y-85452380D01*
X98833333Y-86452380D02*
X98404761Y-85880952D01*
X98833333Y-85452380D02*
X98261904Y-86023809D01*
X99214285Y-85547619D02*
X99261904Y-85500000D01*
X99357142Y-85452380D01*
X99595238Y-85452380D01*
X99690476Y-85500000D01*
X99738095Y-85547619D01*
X99785714Y-85642857D01*
X99785714Y-85738095D01*
X99738095Y-85880952D01*
X99166666Y-86452380D01*
X99785714Y-86452380D01*
%TO.C,J1*%
X192166666Y-71952380D02*
X192166666Y-72666666D01*
X192119047Y-72809523D01*
X192023809Y-72904761D01*
X191880952Y-72952380D01*
X191785714Y-72952380D01*
X193166666Y-72952380D02*
X192595238Y-72952380D01*
X192880952Y-72952380D02*
X192880952Y-71952380D01*
X192785714Y-72095238D01*
X192690476Y-72190476D01*
X192595238Y-72238095D01*
%TO.C,D11*%
X132285714Y-118452380D02*
X132285714Y-117452380D01*
X132523809Y-117452380D01*
X132666666Y-117500000D01*
X132761904Y-117595238D01*
X132809523Y-117690476D01*
X132857142Y-117880952D01*
X132857142Y-118023809D01*
X132809523Y-118214285D01*
X132761904Y-118309523D01*
X132666666Y-118404761D01*
X132523809Y-118452380D01*
X132285714Y-118452380D01*
X133809523Y-118452380D02*
X133238095Y-118452380D01*
X133523809Y-118452380D02*
X133523809Y-117452380D01*
X133428571Y-117595238D01*
X133333333Y-117690476D01*
X133238095Y-117738095D01*
X134761904Y-118452380D02*
X134190476Y-118452380D01*
X134476190Y-118452380D02*
X134476190Y-117452380D01*
X134380952Y-117595238D01*
X134285714Y-117690476D01*
X134190476Y-117738095D01*
%TO.C,D10*%
X103785714Y-94952380D02*
X103785714Y-93952380D01*
X104023809Y-93952380D01*
X104166666Y-94000000D01*
X104261904Y-94095238D01*
X104309523Y-94190476D01*
X104357142Y-94380952D01*
X104357142Y-94523809D01*
X104309523Y-94714285D01*
X104261904Y-94809523D01*
X104166666Y-94904761D01*
X104023809Y-94952380D01*
X103785714Y-94952380D01*
X105309523Y-94952380D02*
X104738095Y-94952380D01*
X105023809Y-94952380D02*
X105023809Y-93952380D01*
X104928571Y-94095238D01*
X104833333Y-94190476D01*
X104738095Y-94238095D01*
X105928571Y-93952380D02*
X106023809Y-93952380D01*
X106119047Y-94000000D01*
X106166666Y-94047619D01*
X106214285Y-94142857D01*
X106261904Y-94333333D01*
X106261904Y-94571428D01*
X106214285Y-94761904D01*
X106166666Y-94857142D01*
X106119047Y-94904761D01*
X106023809Y-94952380D01*
X105928571Y-94952380D01*
X105833333Y-94904761D01*
X105785714Y-94857142D01*
X105738095Y-94761904D01*
X105690476Y-94571428D01*
X105690476Y-94333333D01*
X105738095Y-94142857D01*
X105785714Y-94047619D01*
X105833333Y-94000000D01*
X105928571Y-93952380D01*
%TO.C,D9*%
X189261904Y-95452380D02*
X189261904Y-94452380D01*
X189500000Y-94452380D01*
X189642857Y-94500000D01*
X189738095Y-94595238D01*
X189785714Y-94690476D01*
X189833333Y-94880952D01*
X189833333Y-95023809D01*
X189785714Y-95214285D01*
X189738095Y-95309523D01*
X189642857Y-95404761D01*
X189500000Y-95452380D01*
X189261904Y-95452380D01*
X190309523Y-95452380D02*
X190500000Y-95452380D01*
X190595238Y-95404761D01*
X190642857Y-95357142D01*
X190738095Y-95214285D01*
X190785714Y-95023809D01*
X190785714Y-94642857D01*
X190738095Y-94547619D01*
X190690476Y-94500000D01*
X190595238Y-94452380D01*
X190404761Y-94452380D01*
X190309523Y-94500000D01*
X190261904Y-94547619D01*
X190214285Y-94642857D01*
X190214285Y-94880952D01*
X190261904Y-94976190D01*
X190309523Y-95023809D01*
X190404761Y-95071428D01*
X190595238Y-95071428D01*
X190690476Y-95023809D01*
X190738095Y-94976190D01*
X190785714Y-94880952D01*
%TO.C,D5*%
X125761904Y-113452380D02*
X125761904Y-112452380D01*
X126000000Y-112452380D01*
X126142857Y-112500000D01*
X126238095Y-112595238D01*
X126285714Y-112690476D01*
X126333333Y-112880952D01*
X126333333Y-113023809D01*
X126285714Y-113214285D01*
X126238095Y-113309523D01*
X126142857Y-113404761D01*
X126000000Y-113452380D01*
X125761904Y-113452380D01*
X127238095Y-112452380D02*
X126761904Y-112452380D01*
X126714285Y-112928571D01*
X126761904Y-112880952D01*
X126857142Y-112833333D01*
X127095238Y-112833333D01*
X127190476Y-112880952D01*
X127238095Y-112928571D01*
X127285714Y-113023809D01*
X127285714Y-113261904D01*
X127238095Y-113357142D01*
X127190476Y-113404761D01*
X127095238Y-113452380D01*
X126857142Y-113452380D01*
X126761904Y-113404761D01*
X126714285Y-113357142D01*
%TO.C,D4*%
X94011904Y-98702380D02*
X94011904Y-97702380D01*
X94250000Y-97702380D01*
X94392857Y-97750000D01*
X94488095Y-97845238D01*
X94535714Y-97940476D01*
X94583333Y-98130952D01*
X94583333Y-98273809D01*
X94535714Y-98464285D01*
X94488095Y-98559523D01*
X94392857Y-98654761D01*
X94250000Y-98702380D01*
X94011904Y-98702380D01*
X95440476Y-98035714D02*
X95440476Y-98702380D01*
X95202380Y-97654761D02*
X94964285Y-98369047D01*
X95583333Y-98369047D01*
%TO.C,D3*%
X83261904Y-90952380D02*
X83261904Y-89952380D01*
X83500000Y-89952380D01*
X83642857Y-90000000D01*
X83738095Y-90095238D01*
X83785714Y-90190476D01*
X83833333Y-90380952D01*
X83833333Y-90523809D01*
X83785714Y-90714285D01*
X83738095Y-90809523D01*
X83642857Y-90904761D01*
X83500000Y-90952380D01*
X83261904Y-90952380D01*
X84166666Y-89952380D02*
X84785714Y-89952380D01*
X84452380Y-90333333D01*
X84595238Y-90333333D01*
X84690476Y-90380952D01*
X84738095Y-90428571D01*
X84785714Y-90523809D01*
X84785714Y-90761904D01*
X84738095Y-90857142D01*
X84690476Y-90904761D01*
X84595238Y-90952380D01*
X84309523Y-90952380D01*
X84214285Y-90904761D01*
X84166666Y-90857142D01*
%TO.C,D2*%
X211341904Y-78182380D02*
X211341904Y-77182380D01*
X211580000Y-77182380D01*
X211722857Y-77230000D01*
X211818095Y-77325238D01*
X211865714Y-77420476D01*
X211913333Y-77610952D01*
X211913333Y-77753809D01*
X211865714Y-77944285D01*
X211818095Y-78039523D01*
X211722857Y-78134761D01*
X211580000Y-78182380D01*
X211341904Y-78182380D01*
X212294285Y-77277619D02*
X212341904Y-77230000D01*
X212437142Y-77182380D01*
X212675238Y-77182380D01*
X212770476Y-77230000D01*
X212818095Y-77277619D01*
X212865714Y-77372857D01*
X212865714Y-77468095D01*
X212818095Y-77610952D01*
X212246666Y-78182380D01*
X212865714Y-78182380D01*
%TO.C,C2*%
X197693333Y-109357142D02*
X197645714Y-109404761D01*
X197502857Y-109452380D01*
X197407619Y-109452380D01*
X197264761Y-109404761D01*
X197169523Y-109309523D01*
X197121904Y-109214285D01*
X197074285Y-109023809D01*
X197074285Y-108880952D01*
X197121904Y-108690476D01*
X197169523Y-108595238D01*
X197264761Y-108500000D01*
X197407619Y-108452380D01*
X197502857Y-108452380D01*
X197645714Y-108500000D01*
X197693333Y-108547619D01*
X198074285Y-108547619D02*
X198121904Y-108500000D01*
X198217142Y-108452380D01*
X198455238Y-108452380D01*
X198550476Y-108500000D01*
X198598095Y-108547619D01*
X198645714Y-108642857D01*
X198645714Y-108738095D01*
X198598095Y-108880952D01*
X198026666Y-109452380D01*
X198645714Y-109452380D01*
%TO.C,C1*%
X197693333Y-117357142D02*
X197645714Y-117404761D01*
X197502857Y-117452380D01*
X197407619Y-117452380D01*
X197264761Y-117404761D01*
X197169523Y-117309523D01*
X197121904Y-117214285D01*
X197074285Y-117023809D01*
X197074285Y-116880952D01*
X197121904Y-116690476D01*
X197169523Y-116595238D01*
X197264761Y-116500000D01*
X197407619Y-116452380D01*
X197502857Y-116452380D01*
X197645714Y-116500000D01*
X197693333Y-116547619D01*
X198645714Y-117452380D02*
X198074285Y-117452380D01*
X198360000Y-117452380D02*
X198360000Y-116452380D01*
X198264761Y-116595238D01*
X198169523Y-116690476D01*
X198074285Y-116738095D01*
%TD*%
M02*
