%FSLAX45Y45*%
G04 Gerber Fmt 4.5, Leading zero omitted, Abs format (unit mm)*
G04 Created by KiCad (PCBNEW 5.1.7-a382d34a8~87~ubuntu18.04.1) date 2020-10-27 09:38:16*
%MOMM*%
%LPD*%
G01*
G04 APERTURE LIST*
%TA.AperFunction,Profile*%
%ADD10C,0.050000*%
%TD*%
%ADD11C,0.200000*%
%ADD12C,0.300000*%
G04 APERTURE END LIST*
D10*
X8100000Y-12500000D02*
X22700000Y-12500000D01*
X8100000Y-6300000D02*
X8100000Y-12500000D01*
X22700000Y-6300000D02*
X8100000Y-6300000D01*
X22700000Y-12500000D02*
X22700000Y-6300000D01*
D11*
X8480000Y-9680000D02*
X8520000Y-9720000D01*
X8520000Y-9680000D02*
X8480000Y-9720000D01*
X8580000Y-7780000D02*
X8620000Y-7820000D01*
X8620000Y-7780000D02*
X8580000Y-7820000D01*
X8580000Y-8380000D02*
X8620000Y-8420000D01*
X8620000Y-8380000D02*
X8580000Y-8420000D01*
X8830000Y-8780000D02*
X8870000Y-8820000D01*
X8870000Y-8780000D02*
X8830000Y-8820000D01*
X8830000Y-9180000D02*
X8870000Y-9220000D01*
X8870000Y-9180000D02*
X8830000Y-9220000D01*
X9080000Y-9680000D02*
X9120000Y-9720000D01*
X9120000Y-9680000D02*
X9080000Y-9720000D01*
X9380000Y-9180000D02*
X9420000Y-9220000D01*
X9420000Y-9180000D02*
X9380000Y-9220000D01*
X9380000Y-9580000D02*
X9420000Y-9620000D01*
X9420000Y-9580000D02*
X9380000Y-9620000D01*
X9780000Y-6860000D02*
X9820000Y-6900000D01*
X9820000Y-6860000D02*
X9780000Y-6900000D01*
X9780000Y-7380000D02*
X9820000Y-7420000D01*
X9820000Y-7380000D02*
X9780000Y-7420000D01*
X9880000Y-8380000D02*
X9920000Y-8420000D01*
X9920000Y-8380000D02*
X9880000Y-8420000D01*
X11080000Y-11780000D02*
X11120000Y-11820000D01*
X11120000Y-11780000D02*
X11080000Y-11820000D01*
X11280000Y-10680000D02*
X11320000Y-10720000D01*
X11320000Y-10680000D02*
X11280000Y-10720000D01*
X11380000Y-12080000D02*
X11420000Y-12120000D01*
X11420000Y-12080000D02*
X11380000Y-12120000D01*
X11480000Y-6980000D02*
X11520000Y-7020000D01*
X11520000Y-6980000D02*
X11480000Y-7020000D01*
X11680000Y-9880000D02*
X11720000Y-9920000D01*
X11720000Y-9880000D02*
X11680000Y-9920000D01*
X12280000Y-11780000D02*
X12320000Y-11820000D01*
X12320000Y-11780000D02*
X12280000Y-11820000D01*
X12380000Y-9805000D02*
X12420000Y-9845000D01*
X12420000Y-9805000D02*
X12380000Y-9845000D01*
X12380000Y-10880000D02*
X12420000Y-10920000D01*
X12420000Y-10880000D02*
X12380000Y-10920000D01*
X12780000Y-9855000D02*
X12820000Y-9895000D01*
X12820000Y-9855000D02*
X12780000Y-9895000D01*
X12780000Y-11305000D02*
X12820000Y-11345000D01*
X12820000Y-11305000D02*
X12780000Y-11345000D01*
X13180000Y-9855000D02*
X13220000Y-9895000D01*
X13220000Y-9855000D02*
X13180000Y-9895000D01*
X13289999Y-6920001D02*
X13329999Y-6960001D01*
X13329999Y-6920001D02*
X13289999Y-6960001D01*
X13505000Y-10055000D02*
X13545000Y-10095000D01*
X13545000Y-10055000D02*
X13505000Y-10095000D01*
X13880000Y-9280000D02*
X13920000Y-9320000D01*
X13920000Y-9280000D02*
X13880000Y-9320000D01*
X14030000Y-10055000D02*
X14070000Y-10095000D01*
X14070000Y-10055000D02*
X14030000Y-10095000D01*
X14080000Y-9780000D02*
X14120000Y-9820000D01*
X14120000Y-9780000D02*
X14080000Y-9820000D01*
X14380000Y-7580000D02*
X14420000Y-7620000D01*
X14420000Y-7580000D02*
X14380000Y-7620000D01*
X14680000Y-10880000D02*
X14720000Y-10920000D01*
X14720000Y-10880000D02*
X14680000Y-10920000D01*
X15280000Y-9780000D02*
X15320000Y-9820000D01*
X15320000Y-9780000D02*
X15280000Y-9820000D01*
X15380000Y-10580000D02*
X15420000Y-10620000D01*
X15420000Y-10580000D02*
X15380000Y-10620000D01*
X15580000Y-10580000D02*
X15620000Y-10620000D01*
X15620000Y-10580000D02*
X15580000Y-10620000D01*
X15580000Y-11580000D02*
X15620000Y-11620000D01*
X15620000Y-11580000D02*
X15580000Y-11620000D01*
X15580000Y-12080000D02*
X15620000Y-12120000D01*
X15620000Y-12080000D02*
X15580000Y-12120000D01*
X15980000Y-7580000D02*
X16020000Y-7620000D01*
X16020000Y-7580000D02*
X15980000Y-7620000D01*
X16280000Y-10080000D02*
X16320000Y-10120000D01*
X16320000Y-10080000D02*
X16280000Y-10120000D01*
X16580000Y-6640000D02*
X16620000Y-6680000D01*
X16620000Y-6640000D02*
X16580000Y-6680000D01*
X16780000Y-11680000D02*
X16820000Y-11720000D01*
X16820000Y-11680000D02*
X16780000Y-11720000D01*
X16820000Y-11280000D02*
X16860000Y-11320000D01*
X16860000Y-11280000D02*
X16820000Y-11320000D01*
X17180000Y-6780000D02*
X17220000Y-6820000D01*
X17220000Y-6780000D02*
X17180000Y-6820000D01*
X17280000Y-10380000D02*
X17320000Y-10420000D01*
X17320000Y-10380000D02*
X17280000Y-10420000D01*
X17280000Y-10980000D02*
X17320000Y-11020000D01*
X17320000Y-10980000D02*
X17280000Y-11020000D01*
X17380000Y-11280000D02*
X17420000Y-11320000D01*
X17420000Y-11280000D02*
X17380000Y-11320000D01*
X17680000Y-6880000D02*
X17720000Y-6920000D01*
X17720000Y-6880000D02*
X17680000Y-6920000D01*
X18780000Y-11080000D02*
X18820000Y-11120000D01*
X18820000Y-11080000D02*
X18780000Y-11120000D01*
X19080000Y-9830000D02*
X19120000Y-9870000D01*
X19120000Y-9830000D02*
X19080000Y-9870000D01*
X19305000Y-10355000D02*
X19345000Y-10395000D01*
X19345000Y-10355000D02*
X19305000Y-10395000D01*
X19380000Y-11580000D02*
X19420000Y-11620000D01*
X19420000Y-11580000D02*
X19380000Y-11620000D01*
X19555000Y-9480000D02*
X19595000Y-9520000D01*
X19595000Y-9480000D02*
X19555000Y-9520000D01*
X21830000Y-12005000D02*
X21870000Y-12045000D01*
X21870000Y-12005000D02*
X21830000Y-12045000D01*
X22030000Y-11805000D02*
X22070000Y-11845000D01*
X22070000Y-11805000D02*
X22030000Y-11845000D01*
X22055000Y-12230000D02*
X22095000Y-12270000D01*
X22095000Y-12230000D02*
X22055000Y-12270000D01*
X22280000Y-12005000D02*
X22320000Y-12045000D01*
X22320000Y-12005000D02*
X22280000Y-12045000D01*
X19741000Y-10566000D02*
G75*
G03*
X19741000Y-10566000I-30000J0D01*
G01*
X19891000Y-10566000D02*
G75*
G03*
X19891000Y-10566000I-30000J0D01*
G01*
X19741000Y-11328000D02*
G75*
G03*
X19741000Y-11328000I-30000J0D01*
G01*
X19891000Y-11328000D02*
G75*
G03*
X19891000Y-11328000I-30000J0D01*
G01*
X9600000Y-9562500D02*
X9600000Y-9637500D01*
X9562500Y-9600000D02*
X9637500Y-9600000D01*
X9600000Y-10578500D02*
X9600000Y-10653500D01*
X9562500Y-10616000D02*
X9637500Y-10616000D01*
X12800000Y-10062500D02*
X12800000Y-10137500D01*
X12762500Y-10100000D02*
X12837500Y-10100000D01*
X12800000Y-11078500D02*
X12800000Y-11153500D01*
X12762500Y-11116000D02*
X12837500Y-11116000D01*
X8600000Y-9162500D02*
X8600000Y-9237500D01*
X8562500Y-9200000D02*
X8637500Y-9200000D01*
X9616000Y-9162500D02*
X9616000Y-9237500D01*
X9578500Y-9200000D02*
X9653500Y-9200000D01*
X11384000Y-9962500D02*
X11384000Y-10037500D01*
X11346500Y-10000000D02*
X11421500Y-10000000D01*
X12400000Y-9962500D02*
X12400000Y-10037500D01*
X12362500Y-10000000D02*
X12437500Y-10000000D01*
X16315291Y-7782871D02*
X16315291Y-7728989D01*
X16261409Y-7728989D01*
X16261409Y-7782871D01*
X16315291Y-7782871D01*
X16457531Y-6564941D02*
X16457531Y-6511059D01*
X16403649Y-6511059D01*
X16403649Y-6564941D01*
X16457531Y-6564941D01*
X16711531Y-6564941D02*
X16711531Y-6511059D01*
X16657649Y-6511059D01*
X16657649Y-6564941D01*
X16711531Y-6564941D01*
X16965531Y-6564941D02*
X16965531Y-6511059D01*
X16911649Y-6511059D01*
X16911649Y-6564941D01*
X16965531Y-6564941D01*
X17219531Y-6564941D02*
X17219531Y-6511059D01*
X17165649Y-6511059D01*
X17165649Y-6564941D01*
X17219531Y-6564941D01*
X17473531Y-6564941D02*
X17473531Y-6511059D01*
X17419649Y-6511059D01*
X17419649Y-6564941D01*
X17473531Y-6564941D01*
X17727531Y-6564941D02*
X17727531Y-6511059D01*
X17673649Y-6511059D01*
X17673649Y-6564941D01*
X17727531Y-6564941D01*
X18568000Y-10606000D02*
X18608000Y-10566000D01*
X18568000Y-10526000D01*
X18528000Y-10566000D01*
X18568000Y-10606000D01*
X18568000Y-10860000D02*
X18608000Y-10820000D01*
X18568000Y-10780000D01*
X18528000Y-10820000D01*
X18568000Y-10860000D01*
X18568000Y-11114000D02*
X18608000Y-11074000D01*
X18568000Y-11034000D01*
X18528000Y-11074000D01*
X18568000Y-11114000D01*
X18568000Y-11368000D02*
X18608000Y-11328000D01*
X18568000Y-11288000D01*
X18528000Y-11328000D01*
X18568000Y-11368000D01*
X19330000Y-10606000D02*
X19370000Y-10566000D01*
X19330000Y-10526000D01*
X19290000Y-10566000D01*
X19330000Y-10606000D01*
X19330000Y-10860000D02*
X19370000Y-10820000D01*
X19330000Y-10780000D01*
X19290000Y-10820000D01*
X19330000Y-10860000D01*
X19330000Y-11114000D02*
X19370000Y-11074000D01*
X19330000Y-11034000D01*
X19290000Y-11074000D01*
X19330000Y-11114000D01*
X19330000Y-11368000D02*
X19370000Y-11328000D01*
X19330000Y-11288000D01*
X19290000Y-11328000D01*
X19330000Y-11368000D01*
X19330000Y-9082000D02*
X19370000Y-9042000D01*
X19330000Y-9002000D01*
X19290000Y-9042000D01*
X19330000Y-9082000D01*
X19584000Y-9336000D02*
X19624000Y-9296000D01*
X19584000Y-9256000D01*
X19544000Y-9296000D01*
X19584000Y-9336000D01*
X19838000Y-9082000D02*
X19878000Y-9042000D01*
X19838000Y-9002000D01*
X19798000Y-9042000D01*
X19838000Y-9082000D01*
X16955000Y-11655000D02*
X17045000Y-11745000D01*
X17045000Y-11655000D02*
X16955000Y-11745000D01*
X17045000Y-11700000D02*
G75*
G03*
X17045000Y-11700000I-45000J0D01*
G01*
X17971000Y-11655000D02*
X18061000Y-11745000D01*
X18061000Y-11655000D02*
X17971000Y-11745000D01*
X18061000Y-11700000D02*
G75*
G03*
X18061000Y-11700000I-45000J0D01*
G01*
X10055000Y-9501000D02*
X10145000Y-9591000D01*
X10145000Y-9501000D02*
X10055000Y-9591000D01*
X10145000Y-9546000D02*
G75*
G03*
X10145000Y-9546000I-45000J0D01*
G01*
X10055000Y-9755000D02*
X10145000Y-9845000D01*
X10145000Y-9755000D02*
X10055000Y-9845000D01*
X10145000Y-9800000D02*
G75*
G03*
X10145000Y-9800000I-45000J0D01*
G01*
X13155000Y-10055000D02*
X13245000Y-10145000D01*
X13245000Y-10055000D02*
X13155000Y-10145000D01*
X13245000Y-10100000D02*
G75*
G03*
X13245000Y-10100000I-45000J0D01*
G01*
X13155000Y-11071000D02*
X13245000Y-11161000D01*
X13245000Y-11071000D02*
X13155000Y-11161000D01*
X13245000Y-11116000D02*
G75*
G03*
X13245000Y-11116000I-45000J0D01*
G01*
X12755000Y-11555000D02*
X12845000Y-11645000D01*
X12845000Y-11555000D02*
X12755000Y-11645000D01*
X12845000Y-11600000D02*
G75*
G03*
X12845000Y-11600000I-45000J0D01*
G01*
X13009000Y-11555000D02*
X13099000Y-11645000D01*
X13099000Y-11555000D02*
X13009000Y-11645000D01*
X13099000Y-11600000D02*
G75*
G03*
X13099000Y-11600000I-45000J0D01*
G01*
X18655000Y-9055000D02*
X18745000Y-9145000D01*
X18745000Y-9055000D02*
X18655000Y-9145000D01*
X18745000Y-9100000D02*
G75*
G03*
X18745000Y-9100000I-45000J0D01*
G01*
X18909000Y-9055000D02*
X18999000Y-9145000D01*
X18999000Y-9055000D02*
X18909000Y-9145000D01*
X18999000Y-9100000D02*
G75*
G03*
X18999000Y-9100000I-45000J0D01*
G01*
X8555000Y-8755000D02*
X8645000Y-8845000D01*
X8645000Y-8755000D02*
X8555000Y-8845000D01*
X8645000Y-8800000D02*
G75*
G03*
X8645000Y-8800000I-45000J0D01*
G01*
X9571000Y-8755000D02*
X9661000Y-8845000D01*
X9661000Y-8755000D02*
X9571000Y-8845000D01*
X9661000Y-8800000D02*
G75*
G03*
X9661000Y-8800000I-45000J0D01*
G01*
X20655000Y-7481000D02*
X20745000Y-7571000D01*
X20745000Y-7481000D02*
X20655000Y-7571000D01*
X20745000Y-7526000D02*
G75*
G03*
X20745000Y-7526000I-45000J0D01*
G01*
X21671000Y-7481000D02*
X21761000Y-7571000D01*
X21761000Y-7481000D02*
X21671000Y-7571000D01*
X21761000Y-7526000D02*
G75*
G03*
X21761000Y-7526000I-45000J0D01*
G01*
X19050000Y-6850000D02*
X19150000Y-6950000D01*
X19150000Y-6850000D02*
X19050000Y-6950000D01*
X19100000Y-6850000D02*
X19100000Y-6950000D01*
X19050000Y-6900000D02*
X19150000Y-6900000D01*
X19300000Y-6850000D02*
X19400000Y-6950000D01*
X19400000Y-6850000D02*
X19300000Y-6950000D01*
X19350000Y-6850000D02*
X19350000Y-6950000D01*
X19300000Y-6900000D02*
X19400000Y-6900000D01*
X19010000Y-11750000D02*
X19110000Y-11850000D01*
X19110000Y-11750000D02*
X19010000Y-11850000D01*
X19060000Y-11750000D02*
X19060000Y-11850000D01*
X19010000Y-11800000D02*
X19110000Y-11800000D01*
X19180000Y-11750000D02*
X19280000Y-11850000D01*
X19280000Y-11750000D02*
X19180000Y-11850000D01*
X19230000Y-11750000D02*
X19230000Y-11850000D01*
X19180000Y-11800000D02*
X19280000Y-11800000D01*
X19350000Y-11750000D02*
X19450000Y-11850000D01*
X19450000Y-11750000D02*
X19350000Y-11850000D01*
X19400000Y-11750000D02*
X19400000Y-11850000D01*
X19350000Y-11800000D02*
X19450000Y-11800000D01*
X18000000Y-8600000D02*
X18100000Y-8700000D01*
X18100000Y-8600000D02*
X18000000Y-8700000D01*
X18050000Y-8600000D02*
X18050000Y-8700000D01*
X18000000Y-8650000D02*
X18100000Y-8650000D01*
X18170000Y-8600000D02*
X18270000Y-8700000D01*
X18270000Y-8600000D02*
X18170000Y-8700000D01*
X18220000Y-8600000D02*
X18220000Y-8700000D01*
X18170000Y-8650000D02*
X18270000Y-8650000D01*
X18340000Y-8600000D02*
X18440000Y-8700000D01*
X18440000Y-8600000D02*
X18340000Y-8700000D01*
X18390000Y-8600000D02*
X18390000Y-8700000D01*
X18340000Y-8650000D02*
X18440000Y-8650000D01*
X15565000Y-11850000D02*
X15665000Y-11950000D01*
X15665000Y-11850000D02*
X15565000Y-11950000D01*
X15615000Y-11850000D02*
X15615000Y-11950000D01*
X15565000Y-11900000D02*
X15665000Y-11900000D01*
X18400000Y-7950000D02*
X18500000Y-8050000D01*
X18500000Y-7950000D02*
X18400000Y-8050000D01*
X18450000Y-7950000D02*
X18450000Y-8050000D01*
X18400000Y-8000000D02*
X18500000Y-8000000D01*
X15150000Y-11850000D02*
X15250000Y-11950000D01*
X15250000Y-11850000D02*
X15150000Y-11950000D01*
X15200000Y-11850000D02*
X15200000Y-11950000D01*
X15150000Y-11900000D02*
X15250000Y-11900000D01*
X9350000Y-11050000D02*
X9450000Y-11150000D01*
X9450000Y-11050000D02*
X9350000Y-11150000D01*
X9400000Y-11050000D02*
X9400000Y-11150000D01*
X9350000Y-11100000D02*
X9450000Y-11100000D01*
X9350000Y-11220000D02*
X9450000Y-11320000D01*
X9450000Y-11220000D02*
X9350000Y-11320000D01*
X9400000Y-11220000D02*
X9400000Y-11320000D01*
X9350000Y-11270000D02*
X9450000Y-11270000D01*
X9350000Y-11390000D02*
X9450000Y-11490000D01*
X9450000Y-11390000D02*
X9350000Y-11490000D01*
X9400000Y-11390000D02*
X9400000Y-11490000D01*
X9350000Y-11440000D02*
X9450000Y-11440000D01*
X10750000Y-10010000D02*
X10850000Y-10110000D01*
X10850000Y-10010000D02*
X10750000Y-10110000D01*
X10800000Y-10010000D02*
X10800000Y-10110000D01*
X10750000Y-10060000D02*
X10850000Y-10060000D01*
X10750000Y-10180000D02*
X10850000Y-10280000D01*
X10850000Y-10180000D02*
X10750000Y-10280000D01*
X10800000Y-10180000D02*
X10800000Y-10280000D01*
X10750000Y-10230000D02*
X10850000Y-10230000D01*
X10750000Y-10350000D02*
X10850000Y-10450000D01*
X10850000Y-10350000D02*
X10750000Y-10450000D01*
X10800000Y-10350000D02*
X10800000Y-10450000D01*
X10750000Y-10400000D02*
X10850000Y-10400000D01*
X16000000Y-11850000D02*
X16100000Y-11950000D01*
X16100000Y-11850000D02*
X16000000Y-11950000D01*
X16050000Y-11850000D02*
X16050000Y-11950000D01*
X16000000Y-11900000D02*
X16100000Y-11900000D01*
X17950000Y-10557000D02*
X18050000Y-10657000D01*
X18050000Y-10557000D02*
X17950000Y-10657000D01*
X18000000Y-10557000D02*
X18000000Y-10657000D01*
X17950000Y-10607000D02*
X18050000Y-10607000D01*
X17950000Y-10727000D02*
X18050000Y-10827000D01*
X18050000Y-10727000D02*
X17950000Y-10827000D01*
X18000000Y-10727000D02*
X18000000Y-10827000D01*
X17950000Y-10777000D02*
X18050000Y-10777000D01*
X17950000Y-10897000D02*
X18050000Y-10997000D01*
X18050000Y-10897000D02*
X17950000Y-10997000D01*
X18000000Y-10897000D02*
X18000000Y-10997000D01*
X17950000Y-10947000D02*
X18050000Y-10947000D01*
X17950000Y-9550000D02*
X18050000Y-9650000D01*
X18050000Y-9550000D02*
X17950000Y-9650000D01*
X18000000Y-9550000D02*
X18000000Y-9650000D01*
X17950000Y-9600000D02*
X18050000Y-9600000D01*
X18120000Y-9550000D02*
X18220000Y-9650000D01*
X18220000Y-9550000D02*
X18120000Y-9650000D01*
X18170000Y-9550000D02*
X18170000Y-9650000D01*
X18120000Y-9600000D02*
X18220000Y-9600000D01*
X18290000Y-9550000D02*
X18390000Y-9650000D01*
X18390000Y-9550000D02*
X18290000Y-9650000D01*
X18340000Y-9550000D02*
X18340000Y-9650000D01*
X18290000Y-9600000D02*
X18390000Y-9600000D01*
X11373310Y-7201860D02*
X11475310Y-7303860D01*
X11475310Y-7201860D02*
X11373310Y-7303860D01*
X11460373Y-7288923D02*
X11460373Y-7216797D01*
X11388247Y-7216797D01*
X11388247Y-7288923D01*
X11460373Y-7288923D01*
X11386010Y-9462460D02*
X11488010Y-9564460D01*
X11488010Y-9462460D02*
X11386010Y-9564460D01*
X11473073Y-9549523D02*
X11473073Y-9477397D01*
X11400947Y-9477397D01*
X11400947Y-9549523D01*
X11473073Y-9549523D01*
X11627310Y-7201860D02*
X11729310Y-7303860D01*
X11729310Y-7201860D02*
X11627310Y-7303860D01*
X11714373Y-7288923D02*
X11714373Y-7216797D01*
X11642247Y-7216797D01*
X11642247Y-7288923D01*
X11714373Y-7288923D01*
X11640010Y-9462460D02*
X11742010Y-9564460D01*
X11742010Y-9462460D02*
X11640010Y-9564460D01*
X11727073Y-9549523D02*
X11727073Y-9477397D01*
X11654947Y-9477397D01*
X11654947Y-9549523D01*
X11727073Y-9549523D01*
X11881310Y-7201860D02*
X11983310Y-7303860D01*
X11983310Y-7201860D02*
X11881310Y-7303860D01*
X11968373Y-7288923D02*
X11968373Y-7216797D01*
X11896247Y-7216797D01*
X11896247Y-7288923D01*
X11968373Y-7288923D01*
X11894010Y-9462460D02*
X11996010Y-9564460D01*
X11996010Y-9462460D02*
X11894010Y-9564460D01*
X11981073Y-9549523D02*
X11981073Y-9477397D01*
X11908947Y-9477397D01*
X11908947Y-9549523D01*
X11981073Y-9549523D01*
X12135310Y-7201860D02*
X12237310Y-7303860D01*
X12237310Y-7201860D02*
X12135310Y-7303860D01*
X12222373Y-7288923D02*
X12222373Y-7216797D01*
X12150247Y-7216797D01*
X12150247Y-7288923D01*
X12222373Y-7288923D01*
X12148010Y-9462460D02*
X12250010Y-9564460D01*
X12250010Y-9462460D02*
X12148010Y-9564460D01*
X12235073Y-9549523D02*
X12235073Y-9477397D01*
X12162947Y-9477397D01*
X12162947Y-9549523D01*
X12235073Y-9549523D01*
X12389310Y-7201860D02*
X12491310Y-7303860D01*
X12491310Y-7201860D02*
X12389310Y-7303860D01*
X12476373Y-7288923D02*
X12476373Y-7216797D01*
X12404247Y-7216797D01*
X12404247Y-7288923D01*
X12476373Y-7288923D01*
X12402010Y-9462460D02*
X12504010Y-9564460D01*
X12504010Y-9462460D02*
X12402010Y-9564460D01*
X12489073Y-9549523D02*
X12489073Y-9477397D01*
X12416947Y-9477397D01*
X12416947Y-9549523D01*
X12489073Y-9549523D01*
X12643310Y-7201860D02*
X12745310Y-7303860D01*
X12745310Y-7201860D02*
X12643310Y-7303860D01*
X12730373Y-7288923D02*
X12730373Y-7216797D01*
X12658247Y-7216797D01*
X12658247Y-7288923D01*
X12730373Y-7288923D01*
X12656010Y-9462460D02*
X12758010Y-9564460D01*
X12758010Y-9462460D02*
X12656010Y-9564460D01*
X12743073Y-9549523D02*
X12743073Y-9477397D01*
X12670947Y-9477397D01*
X12670947Y-9549523D01*
X12743073Y-9549523D01*
X12906200Y-7204400D02*
X13008200Y-7306400D01*
X13008200Y-7204400D02*
X12906200Y-7306400D01*
X12993263Y-7291463D02*
X12993263Y-7219337D01*
X12921137Y-7219337D01*
X12921137Y-7291463D01*
X12993263Y-7291463D01*
X12910010Y-9462460D02*
X13012010Y-9564460D01*
X13012010Y-9462460D02*
X12910010Y-9564460D01*
X12997073Y-9549523D02*
X12997073Y-9477397D01*
X12924947Y-9477397D01*
X12924947Y-9549523D01*
X12997073Y-9549523D01*
X13151310Y-7201860D02*
X13253310Y-7303860D01*
X13253310Y-7201860D02*
X13151310Y-7303860D01*
X13238373Y-7288923D02*
X13238373Y-7216797D01*
X13166247Y-7216797D01*
X13166247Y-7288923D01*
X13238373Y-7288923D01*
X13164010Y-9462460D02*
X13266010Y-9564460D01*
X13266010Y-9462460D02*
X13164010Y-9564460D01*
X13251073Y-9549523D02*
X13251073Y-9477397D01*
X13178947Y-9477397D01*
X13178947Y-9549523D01*
X13251073Y-9549523D01*
X13405310Y-7201860D02*
X13507310Y-7303860D01*
X13507310Y-7201860D02*
X13405310Y-7303860D01*
X13492373Y-7288923D02*
X13492373Y-7216797D01*
X13420247Y-7216797D01*
X13420247Y-7288923D01*
X13492373Y-7288923D01*
X13418010Y-9462460D02*
X13520010Y-9564460D01*
X13520010Y-9462460D02*
X13418010Y-9564460D01*
X13505073Y-9549523D02*
X13505073Y-9477397D01*
X13432947Y-9477397D01*
X13432947Y-9549523D01*
X13505073Y-9549523D01*
X13659310Y-7201860D02*
X13761310Y-7303860D01*
X13761310Y-7201860D02*
X13659310Y-7303860D01*
X13746373Y-7288923D02*
X13746373Y-7216797D01*
X13674247Y-7216797D01*
X13674247Y-7288923D01*
X13746373Y-7288923D01*
X13668200Y-9465000D02*
X13770200Y-9567000D01*
X13770200Y-9465000D02*
X13668200Y-9567000D01*
X13755263Y-9552063D02*
X13755263Y-9479937D01*
X13683137Y-9479937D01*
X13683137Y-9552063D01*
X13755263Y-9552063D01*
X13926010Y-7201860D02*
X14028010Y-7303860D01*
X14028010Y-7201860D02*
X13926010Y-7303860D01*
X14013073Y-7288923D02*
X14013073Y-7216797D01*
X13940947Y-7216797D01*
X13940947Y-7288923D01*
X14013073Y-7288923D01*
X13938710Y-9462460D02*
X14040710Y-9564460D01*
X14040710Y-9462460D02*
X13938710Y-9564460D01*
X14025773Y-9549523D02*
X14025773Y-9477397D01*
X13953647Y-9477397D01*
X13953647Y-9549523D01*
X14025773Y-9549523D01*
X14180010Y-7201860D02*
X14282010Y-7303860D01*
X14282010Y-7201860D02*
X14180010Y-7303860D01*
X14267073Y-7288923D02*
X14267073Y-7216797D01*
X14194947Y-7216797D01*
X14194947Y-7288923D01*
X14267073Y-7288923D01*
X14192710Y-9462460D02*
X14294710Y-9564460D01*
X14294710Y-9462460D02*
X14192710Y-9564460D01*
X14279773Y-9549523D02*
X14279773Y-9477397D01*
X14207647Y-9477397D01*
X14207647Y-9549523D01*
X14279773Y-9549523D01*
X14434010Y-7201860D02*
X14536010Y-7303860D01*
X14536010Y-7201860D02*
X14434010Y-7303860D01*
X14521073Y-7288923D02*
X14521073Y-7216797D01*
X14448947Y-7216797D01*
X14448947Y-7288923D01*
X14521073Y-7288923D01*
X14446710Y-9462460D02*
X14548710Y-9564460D01*
X14548710Y-9462460D02*
X14446710Y-9564460D01*
X14533773Y-9549523D02*
X14533773Y-9477397D01*
X14461647Y-9477397D01*
X14461647Y-9549523D01*
X14533773Y-9549523D01*
X14684200Y-7191700D02*
X14786200Y-7293700D01*
X14786200Y-7191700D02*
X14684200Y-7293700D01*
X14771263Y-7278763D02*
X14771263Y-7206637D01*
X14699137Y-7206637D01*
X14699137Y-7278763D01*
X14771263Y-7278763D01*
X14696900Y-9465000D02*
X14798900Y-9567000D01*
X14798900Y-9465000D02*
X14696900Y-9567000D01*
X14783963Y-9552063D02*
X14783963Y-9479937D01*
X14711837Y-9479937D01*
X14711837Y-9552063D01*
X14783963Y-9552063D01*
X14942010Y-7201860D02*
X15044010Y-7303860D01*
X15044010Y-7201860D02*
X14942010Y-7303860D01*
X15029073Y-7288923D02*
X15029073Y-7216797D01*
X14956947Y-7216797D01*
X14956947Y-7288923D01*
X15029073Y-7288923D01*
X14954710Y-9462460D02*
X15056710Y-9564460D01*
X15056710Y-9462460D02*
X14954710Y-9564460D01*
X15041773Y-9549523D02*
X15041773Y-9477397D01*
X14969647Y-9477397D01*
X14969647Y-9549523D01*
X15041773Y-9549523D01*
X20286110Y-11976760D02*
X20388110Y-12078760D01*
X20388110Y-11976760D02*
X20286110Y-12078760D01*
X20373173Y-12063823D02*
X20373173Y-11991697D01*
X20301047Y-11991697D01*
X20301047Y-12063823D01*
X20373173Y-12063823D01*
X20305160Y-8018170D02*
X20407160Y-8120170D01*
X20407160Y-8018170D02*
X20305160Y-8120170D01*
X20392223Y-8105233D02*
X20392223Y-8033107D01*
X20320097Y-8033107D01*
X20320097Y-8105233D01*
X20392223Y-8105233D01*
X22015850Y-11975490D02*
X22117850Y-12077490D01*
X22117850Y-11975490D02*
X22015850Y-12077490D01*
X22102913Y-12062553D02*
X22102913Y-11990427D01*
X22030787Y-11990427D01*
X22030787Y-12062553D01*
X22102913Y-12062553D01*
X22034900Y-8016900D02*
X22136900Y-8118900D01*
X22136900Y-8016900D02*
X22034900Y-8118900D01*
X22121963Y-8103963D02*
X22121963Y-8031837D01*
X22049837Y-8031837D01*
X22049837Y-8103963D01*
X22121963Y-8103963D01*
X16231000Y-7452200D02*
X16333000Y-7554200D01*
X16333000Y-7452200D02*
X16231000Y-7554200D01*
X16318063Y-7539263D02*
X16318063Y-7467137D01*
X16245937Y-7467137D01*
X16245937Y-7539263D01*
X16318063Y-7539263D01*
X10040000Y-10270000D02*
X10160000Y-10390000D01*
X10160000Y-10270000D02*
X10040000Y-10390000D01*
X10100000Y-10390000D02*
X10160000Y-10330000D01*
X10100000Y-10270000D01*
X10040000Y-10330000D01*
X10100000Y-10390000D01*
X10040000Y-11540000D02*
X10160000Y-11660000D01*
X10160000Y-11540000D02*
X10040000Y-11660000D01*
X10100000Y-11660000D02*
X10160000Y-11600000D01*
X10100000Y-11540000D01*
X10040000Y-11600000D01*
X10100000Y-11660000D01*
X16240000Y-8940000D02*
X16360000Y-9060000D01*
X16360000Y-8940000D02*
X16240000Y-9060000D01*
X16300000Y-9060000D02*
X16360000Y-9000000D01*
X16300000Y-8940000D01*
X16240000Y-9000000D01*
X16300000Y-9060000D01*
X17510000Y-8940000D02*
X17630000Y-9060000D01*
X17630000Y-8940000D02*
X17510000Y-9060000D01*
X17570000Y-9060000D02*
X17630000Y-9000000D01*
X17570000Y-8940000D01*
X17510000Y-9000000D01*
X17570000Y-9060000D01*
X16240000Y-9540000D02*
X16360000Y-9660000D01*
X16360000Y-9540000D02*
X16240000Y-9660000D01*
X16300000Y-9660000D02*
X16360000Y-9600000D01*
X16300000Y-9540000D01*
X16240000Y-9600000D01*
X16300000Y-9660000D01*
X17510000Y-9540000D02*
X17630000Y-9660000D01*
X17630000Y-9540000D02*
X17510000Y-9660000D01*
X17570000Y-9660000D02*
X17630000Y-9600000D01*
X17570000Y-9540000D01*
X17510000Y-9600000D01*
X17570000Y-9660000D01*
X17770000Y-10040000D02*
X17890000Y-10160000D01*
X17890000Y-10040000D02*
X17770000Y-10160000D01*
X17830000Y-10160000D02*
X17890000Y-10100000D01*
X17830000Y-10040000D01*
X17770000Y-10100000D01*
X17830000Y-10160000D01*
X19040000Y-10040000D02*
X19160000Y-10160000D01*
X19160000Y-10040000D02*
X19040000Y-10160000D01*
X19100000Y-10160000D02*
X19160000Y-10100000D01*
X19100000Y-10040000D01*
X19040000Y-10100000D01*
X19100000Y-10160000D01*
X11140000Y-10440000D02*
X11260000Y-10560000D01*
X11260000Y-10440000D02*
X11140000Y-10560000D01*
X11200000Y-10560000D02*
X11260000Y-10500000D01*
X11200000Y-10440000D01*
X11140000Y-10500000D01*
X11200000Y-10560000D01*
X12410000Y-10440000D02*
X12530000Y-10560000D01*
X12530000Y-10440000D02*
X12410000Y-10560000D01*
X12470000Y-10560000D02*
X12530000Y-10500000D01*
X12470000Y-10440000D01*
X12410000Y-10500000D01*
X12470000Y-10560000D01*
X10840000Y-10940000D02*
X10960000Y-11060000D01*
X10960000Y-10940000D02*
X10840000Y-11060000D01*
X10900000Y-11060000D02*
X10960000Y-11000000D01*
X10900000Y-10940000D01*
X10840000Y-11000000D01*
X10900000Y-11060000D01*
X12110000Y-10940000D02*
X12230000Y-11060000D01*
X12230000Y-10940000D02*
X12110000Y-11060000D01*
X12170000Y-11060000D02*
X12230000Y-11000000D01*
X12170000Y-10940000D01*
X12110000Y-11000000D01*
X12170000Y-11060000D01*
X16240000Y-8340000D02*
X16360000Y-8460000D01*
X16360000Y-8340000D02*
X16240000Y-8460000D01*
X16300000Y-8460000D02*
X16360000Y-8400000D01*
X16300000Y-8340000D01*
X16240000Y-8400000D01*
X16300000Y-8460000D01*
X17510000Y-8340000D02*
X17630000Y-8460000D01*
X17630000Y-8340000D02*
X17510000Y-8460000D01*
X17570000Y-8460000D02*
X17630000Y-8400000D01*
X17570000Y-8340000D01*
X17510000Y-8400000D01*
X17570000Y-8460000D01*
X9170000Y-11940000D02*
X9290000Y-12060000D01*
X9290000Y-11940000D02*
X9170000Y-12060000D01*
X9230000Y-12060000D02*
X9290000Y-12000000D01*
X9230000Y-11940000D01*
X9170000Y-12000000D01*
X9230000Y-12060000D01*
X10440000Y-11940000D02*
X10560000Y-12060000D01*
X10560000Y-11940000D02*
X10440000Y-12060000D01*
X10500000Y-12060000D02*
X10560000Y-12000000D01*
X10500000Y-11940000D01*
X10440000Y-12000000D01*
X10500000Y-12060000D01*
X10170000Y-6640000D02*
X10290000Y-6760000D01*
X10290000Y-6640000D02*
X10170000Y-6760000D01*
X10230000Y-6760000D02*
X10290000Y-6700000D01*
X10230000Y-6640000D01*
X10170000Y-6700000D01*
X10230000Y-6760000D01*
X11440000Y-6640000D02*
X11560000Y-6760000D01*
X11560000Y-6640000D02*
X11440000Y-6760000D01*
X11500000Y-6760000D02*
X11560000Y-6700000D01*
X11500000Y-6640000D01*
X11440000Y-6700000D01*
X11500000Y-6760000D01*
X10240000Y-7740000D02*
X10360000Y-7860000D01*
X10360000Y-7740000D02*
X10240000Y-7860000D01*
X10300000Y-7860000D02*
X10360000Y-7800000D01*
X10300000Y-7740000D01*
X10240000Y-7800000D01*
X10300000Y-7860000D01*
X10240000Y-9010000D02*
X10360000Y-9130000D01*
X10360000Y-9010000D02*
X10240000Y-9130000D01*
X10300000Y-9130000D02*
X10360000Y-9070000D01*
X10300000Y-9010000D01*
X10240000Y-9070000D01*
X10300000Y-9130000D01*
X8740000Y-10670000D02*
X8860000Y-10790000D01*
X8860000Y-10670000D02*
X8740000Y-10790000D01*
X8800000Y-10790000D02*
X8860000Y-10730000D01*
X8800000Y-10670000D01*
X8740000Y-10730000D01*
X8800000Y-10790000D01*
X8740000Y-11940000D02*
X8860000Y-12060000D01*
X8860000Y-11940000D02*
X8740000Y-12060000D01*
X8800000Y-12060000D02*
X8860000Y-12000000D01*
X8800000Y-11940000D01*
X8740000Y-12000000D01*
X8800000Y-12060000D01*
X11400000Y-11735000D02*
X11400000Y-11865000D01*
X11335000Y-11800000D02*
X11465000Y-11800000D01*
X11465000Y-11800000D02*
G75*
G03*
X11465000Y-11800000I-65000J0D01*
G01*
X11908000Y-11735000D02*
X11908000Y-11865000D01*
X11843000Y-11800000D02*
X11973000Y-11800000D01*
X11973000Y-11800000D02*
G75*
G03*
X11973000Y-11800000I-65000J0D01*
G01*
X8600000Y-6815000D02*
X8600000Y-6945000D01*
X8535000Y-6880000D02*
X8665000Y-6880000D01*
X8665000Y-6880000D02*
G75*
G03*
X8665000Y-6880000I-65000J0D01*
G01*
X8600000Y-8035000D02*
X8600000Y-8165000D01*
X8535000Y-8100000D02*
X8665000Y-8100000D01*
X8665000Y-8100000D02*
G75*
G03*
X8665000Y-8100000I-65000J0D01*
G01*
X9200000Y-8235000D02*
X9200000Y-8365000D01*
X9135000Y-8300000D02*
X9265000Y-8300000D01*
X9265000Y-8300000D02*
G75*
G03*
X9265000Y-8300000I-65000J0D01*
G01*
X9800000Y-6815000D02*
X9800000Y-6945000D01*
X9735000Y-6880000D02*
X9865000Y-6880000D01*
X9865000Y-6880000D02*
G75*
G03*
X9865000Y-6880000I-65000J0D01*
G01*
X9800000Y-8035000D02*
X9800000Y-8165000D01*
X9735000Y-8100000D02*
X9865000Y-8100000D01*
X9865000Y-8100000D02*
G75*
G03*
X9865000Y-8100000I-65000J0D01*
G01*
X8800000Y-9635000D02*
X8800000Y-9765000D01*
X8735000Y-9700000D02*
X8865000Y-9700000D01*
X8865000Y-9700000D02*
G75*
G03*
X8865000Y-9700000I-65000J0D01*
G01*
X8800000Y-10143000D02*
X8800000Y-10273000D01*
X8735000Y-10208000D02*
X8865000Y-10208000D01*
X8865000Y-10208000D02*
G75*
G03*
X8865000Y-10208000I-65000J0D01*
G01*
X15880000Y-10035000D02*
X15880000Y-10165000D01*
X15815000Y-10100000D02*
X15945000Y-10100000D01*
X15945000Y-10100000D02*
G75*
G03*
X15945000Y-10100000I-65000J0D01*
G01*
X15880000Y-11235000D02*
X15880000Y-11365000D01*
X15815000Y-11300000D02*
X15945000Y-11300000D01*
X15945000Y-11300000D02*
G75*
G03*
X15945000Y-11300000I-65000J0D01*
G01*
X17100000Y-10035000D02*
X17100000Y-10165000D01*
X17035000Y-10100000D02*
X17165000Y-10100000D01*
X17165000Y-10100000D02*
G75*
G03*
X17165000Y-10100000I-65000J0D01*
G01*
X17100000Y-11235000D02*
X17100000Y-11365000D01*
X17035000Y-11300000D02*
X17165000Y-11300000D01*
X17165000Y-11300000D02*
G75*
G03*
X17165000Y-11300000I-65000J0D01*
G01*
X17300000Y-10635000D02*
X17300000Y-10765000D01*
X17235000Y-10700000D02*
X17365000Y-10700000D01*
X17365000Y-10700000D02*
G75*
G03*
X17365000Y-10700000I-65000J0D01*
G01*
X13583000Y-10616000D02*
X13583000Y-10746000D01*
X13518000Y-10681000D02*
X13648000Y-10681000D01*
X13648000Y-10681000D02*
G75*
G03*
X13648000Y-10681000I-65000J0D01*
G01*
X13783000Y-10016000D02*
X13783000Y-10146000D01*
X13718000Y-10081000D02*
X13848000Y-10081000D01*
X13848000Y-10081000D02*
G75*
G03*
X13848000Y-10081000I-65000J0D01*
G01*
X13783000Y-11216000D02*
X13783000Y-11346000D01*
X13718000Y-11281000D02*
X13848000Y-11281000D01*
X13848000Y-11281000D02*
G75*
G03*
X13848000Y-11281000I-65000J0D01*
G01*
X15003000Y-10016000D02*
X15003000Y-10146000D01*
X14938000Y-10081000D02*
X15068000Y-10081000D01*
X15068000Y-10081000D02*
G75*
G03*
X15068000Y-10081000I-65000J0D01*
G01*
X15003000Y-11216000D02*
X15003000Y-11346000D01*
X14938000Y-11281000D02*
X15068000Y-11281000D01*
X15068000Y-11281000D02*
G75*
G03*
X15068000Y-11281000I-65000J0D01*
G01*
X20173490Y-6940000D02*
X20173490Y-6844540D01*
X20078030Y-6844540D01*
X20078030Y-6940000D01*
X20173490Y-6940000D01*
X20193260Y-6892270D02*
G75*
G03*
X20193260Y-6892270I-67500J0D01*
G01*
X20673490Y-6940000D02*
X20673490Y-6844540D01*
X20578030Y-6844540D01*
X20578030Y-6940000D01*
X20673490Y-6940000D01*
X20693260Y-6892270D02*
G75*
G03*
X20693260Y-6892270I-67500J0D01*
G01*
X21673490Y-6940000D02*
X21673490Y-6844540D01*
X21578030Y-6844540D01*
X21578030Y-6940000D01*
X21673490Y-6940000D01*
X21693260Y-6892270D02*
G75*
G03*
X21693260Y-6892270I-67500J0D01*
G01*
X22173490Y-6940000D02*
X22173490Y-6844540D01*
X22078030Y-6844540D01*
X22078030Y-6940000D01*
X22173490Y-6940000D01*
X22193260Y-6892270D02*
G75*
G03*
X22193260Y-6892270I-67500J0D01*
G01*
D12*
X8383928Y-12968214D02*
X8383928Y-12668214D01*
X8455357Y-12668214D01*
X8498214Y-12682500D01*
X8526786Y-12711071D01*
X8541071Y-12739643D01*
X8555357Y-12796786D01*
X8555357Y-12839643D01*
X8541071Y-12896786D01*
X8526786Y-12925357D01*
X8498214Y-12953929D01*
X8455357Y-12968214D01*
X8383928Y-12968214D01*
X8683928Y-12968214D02*
X8683928Y-12768214D01*
X8683928Y-12825357D02*
X8698214Y-12796786D01*
X8712500Y-12782500D01*
X8741071Y-12768214D01*
X8769643Y-12768214D01*
X8869643Y-12968214D02*
X8869643Y-12768214D01*
X8869643Y-12668214D02*
X8855357Y-12682500D01*
X8869643Y-12696786D01*
X8883928Y-12682500D01*
X8869643Y-12668214D01*
X8869643Y-12696786D01*
X9055357Y-12968214D02*
X9026786Y-12953929D01*
X9012500Y-12925357D01*
X9012500Y-12668214D01*
X9212500Y-12968214D02*
X9183928Y-12953929D01*
X9169643Y-12925357D01*
X9169643Y-12668214D01*
X9555357Y-12968214D02*
X9555357Y-12668214D01*
X9655357Y-12882500D01*
X9755357Y-12668214D01*
X9755357Y-12968214D01*
X10026786Y-12968214D02*
X10026786Y-12811071D01*
X10012500Y-12782500D01*
X9983928Y-12768214D01*
X9926786Y-12768214D01*
X9898214Y-12782500D01*
X10026786Y-12953929D02*
X9998214Y-12968214D01*
X9926786Y-12968214D01*
X9898214Y-12953929D01*
X9883928Y-12925357D01*
X9883928Y-12896786D01*
X9898214Y-12868214D01*
X9926786Y-12853929D01*
X9998214Y-12853929D01*
X10026786Y-12839643D01*
X10169643Y-12768214D02*
X10169643Y-13068214D01*
X10169643Y-12782500D02*
X10198214Y-12768214D01*
X10255357Y-12768214D01*
X10283928Y-12782500D01*
X10298214Y-12796786D01*
X10312500Y-12825357D01*
X10312500Y-12911071D01*
X10298214Y-12939643D01*
X10283928Y-12953929D01*
X10255357Y-12968214D01*
X10198214Y-12968214D01*
X10169643Y-12953929D01*
X10441071Y-12939643D02*
X10455357Y-12953929D01*
X10441071Y-12968214D01*
X10426786Y-12953929D01*
X10441071Y-12939643D01*
X10441071Y-12968214D01*
X10441071Y-12782500D02*
X10455357Y-12796786D01*
X10441071Y-12811071D01*
X10426786Y-12796786D01*
X10441071Y-12782500D01*
X10441071Y-12811071D01*
X8057500Y-13442500D02*
X8097500Y-13482500D01*
X8097500Y-13442500D02*
X8057500Y-13482500D01*
X8441071Y-13298214D02*
X8469643Y-13298214D01*
X8498214Y-13312500D01*
X8512500Y-13326786D01*
X8526786Y-13355357D01*
X8541071Y-13412500D01*
X8541071Y-13483929D01*
X8526786Y-13541071D01*
X8512500Y-13569643D01*
X8498214Y-13583929D01*
X8469643Y-13598214D01*
X8441071Y-13598214D01*
X8412500Y-13583929D01*
X8398214Y-13569643D01*
X8383928Y-13541071D01*
X8369643Y-13483929D01*
X8369643Y-13412500D01*
X8383928Y-13355357D01*
X8398214Y-13326786D01*
X8412500Y-13312500D01*
X8441071Y-13298214D01*
X8669643Y-13569643D02*
X8683928Y-13583929D01*
X8669643Y-13598214D01*
X8655357Y-13583929D01*
X8669643Y-13569643D01*
X8669643Y-13598214D01*
X8941071Y-13398214D02*
X8941071Y-13598214D01*
X8869643Y-13283929D02*
X8798214Y-13498214D01*
X8983928Y-13498214D01*
X9155357Y-13298214D02*
X9183928Y-13298214D01*
X9212500Y-13312500D01*
X9226786Y-13326786D01*
X9241071Y-13355357D01*
X9255357Y-13412500D01*
X9255357Y-13483929D01*
X9241071Y-13541071D01*
X9226786Y-13569643D01*
X9212500Y-13583929D01*
X9183928Y-13598214D01*
X9155357Y-13598214D01*
X9126786Y-13583929D01*
X9112500Y-13569643D01*
X9098214Y-13541071D01*
X9083928Y-13483929D01*
X9083928Y-13412500D01*
X9098214Y-13355357D01*
X9112500Y-13326786D01*
X9126786Y-13312500D01*
X9155357Y-13298214D01*
X9383928Y-13598214D02*
X9383928Y-13398214D01*
X9383928Y-13426786D02*
X9398214Y-13412500D01*
X9426786Y-13398214D01*
X9469643Y-13398214D01*
X9498214Y-13412500D01*
X9512500Y-13441071D01*
X9512500Y-13598214D01*
X9512500Y-13441071D02*
X9526786Y-13412500D01*
X9555357Y-13398214D01*
X9598214Y-13398214D01*
X9626786Y-13412500D01*
X9641071Y-13441071D01*
X9641071Y-13598214D01*
X9783928Y-13598214D02*
X9783928Y-13398214D01*
X9783928Y-13426786D02*
X9798214Y-13412500D01*
X9826786Y-13398214D01*
X9869643Y-13398214D01*
X9898214Y-13412500D01*
X9912500Y-13441071D01*
X9912500Y-13598214D01*
X9912500Y-13441071D02*
X9926786Y-13412500D01*
X9955357Y-13398214D01*
X9998214Y-13398214D01*
X10026786Y-13412500D01*
X10041071Y-13441071D01*
X10041071Y-13598214D01*
X10626786Y-13283929D02*
X10369643Y-13669643D01*
X11012500Y-13298214D02*
X11041071Y-13298214D01*
X11069643Y-13312500D01*
X11083928Y-13326786D01*
X11098214Y-13355357D01*
X11112500Y-13412500D01*
X11112500Y-13483929D01*
X11098214Y-13541071D01*
X11083928Y-13569643D01*
X11069643Y-13583929D01*
X11041071Y-13598214D01*
X11012500Y-13598214D01*
X10983928Y-13583929D01*
X10969643Y-13569643D01*
X10955357Y-13541071D01*
X10941071Y-13483929D01*
X10941071Y-13412500D01*
X10955357Y-13355357D01*
X10969643Y-13326786D01*
X10983928Y-13312500D01*
X11012500Y-13298214D01*
X11241071Y-13569643D02*
X11255357Y-13583929D01*
X11241071Y-13598214D01*
X11226786Y-13583929D01*
X11241071Y-13569643D01*
X11241071Y-13598214D01*
X11441071Y-13298214D02*
X11469643Y-13298214D01*
X11498214Y-13312500D01*
X11512500Y-13326786D01*
X11526786Y-13355357D01*
X11541071Y-13412500D01*
X11541071Y-13483929D01*
X11526786Y-13541071D01*
X11512500Y-13569643D01*
X11498214Y-13583929D01*
X11469643Y-13598214D01*
X11441071Y-13598214D01*
X11412500Y-13583929D01*
X11398214Y-13569643D01*
X11383928Y-13541071D01*
X11369643Y-13483929D01*
X11369643Y-13412500D01*
X11383928Y-13355357D01*
X11398214Y-13326786D01*
X11412500Y-13312500D01*
X11441071Y-13298214D01*
X11826786Y-13598214D02*
X11655357Y-13598214D01*
X11741071Y-13598214D02*
X11741071Y-13298214D01*
X11712500Y-13341071D01*
X11683928Y-13369643D01*
X11655357Y-13383929D01*
X12083928Y-13298214D02*
X12026786Y-13298214D01*
X11998214Y-13312500D01*
X11983928Y-13326786D01*
X11955357Y-13369643D01*
X11941071Y-13426786D01*
X11941071Y-13541071D01*
X11955357Y-13569643D01*
X11969643Y-13583929D01*
X11998214Y-13598214D01*
X12055357Y-13598214D01*
X12083928Y-13583929D01*
X12098214Y-13569643D01*
X12112500Y-13541071D01*
X12112500Y-13469643D01*
X12098214Y-13441071D01*
X12083928Y-13426786D01*
X12055357Y-13412500D01*
X11998214Y-13412500D01*
X11969643Y-13426786D01*
X11955357Y-13441071D01*
X11941071Y-13469643D01*
X12226786Y-13298214D02*
X12226786Y-13355357D01*
X12341071Y-13298214D02*
X12341071Y-13355357D01*
X12783928Y-13712500D02*
X12769643Y-13698214D01*
X12741071Y-13655357D01*
X12726786Y-13626786D01*
X12712500Y-13583929D01*
X12698214Y-13512500D01*
X12698214Y-13455357D01*
X12712500Y-13383929D01*
X12726786Y-13341071D01*
X12741071Y-13312500D01*
X12769643Y-13269643D01*
X12783928Y-13255357D01*
X13041071Y-13298214D02*
X12898214Y-13298214D01*
X12883928Y-13441071D01*
X12898214Y-13426786D01*
X12926786Y-13412500D01*
X12998214Y-13412500D01*
X13026786Y-13426786D01*
X13041071Y-13441071D01*
X13055357Y-13469643D01*
X13055357Y-13541071D01*
X13041071Y-13569643D01*
X13026786Y-13583929D01*
X12998214Y-13598214D01*
X12926786Y-13598214D01*
X12898214Y-13583929D01*
X12883928Y-13569643D01*
X13155357Y-13298214D02*
X13341071Y-13298214D01*
X13241071Y-13412500D01*
X13283928Y-13412500D01*
X13312500Y-13426786D01*
X13326786Y-13441071D01*
X13341071Y-13469643D01*
X13341071Y-13541071D01*
X13326786Y-13569643D01*
X13312500Y-13583929D01*
X13283928Y-13598214D01*
X13198214Y-13598214D01*
X13169643Y-13583929D01*
X13155357Y-13569643D01*
X13698214Y-13598214D02*
X13698214Y-13298214D01*
X13826786Y-13598214D02*
X13826786Y-13441071D01*
X13812500Y-13412500D01*
X13783928Y-13398214D01*
X13741071Y-13398214D01*
X13712500Y-13412500D01*
X13698214Y-13426786D01*
X14012500Y-13598214D02*
X13983928Y-13583929D01*
X13969643Y-13569643D01*
X13955357Y-13541071D01*
X13955357Y-13455357D01*
X13969643Y-13426786D01*
X13983928Y-13412500D01*
X14012500Y-13398214D01*
X14055357Y-13398214D01*
X14083928Y-13412500D01*
X14098214Y-13426786D01*
X14112500Y-13455357D01*
X14112500Y-13541071D01*
X14098214Y-13569643D01*
X14083928Y-13583929D01*
X14055357Y-13598214D01*
X14012500Y-13598214D01*
X14283928Y-13598214D02*
X14255357Y-13583929D01*
X14241071Y-13555357D01*
X14241071Y-13298214D01*
X14512500Y-13583929D02*
X14483928Y-13598214D01*
X14426786Y-13598214D01*
X14398214Y-13583929D01*
X14383928Y-13555357D01*
X14383928Y-13441071D01*
X14398214Y-13412500D01*
X14426786Y-13398214D01*
X14483928Y-13398214D01*
X14512500Y-13412500D01*
X14526786Y-13441071D01*
X14526786Y-13469643D01*
X14383928Y-13498214D01*
X14641071Y-13583929D02*
X14669643Y-13598214D01*
X14726786Y-13598214D01*
X14755357Y-13583929D01*
X14769643Y-13555357D01*
X14769643Y-13541071D01*
X14755357Y-13512500D01*
X14726786Y-13498214D01*
X14683928Y-13498214D01*
X14655357Y-13483929D01*
X14641071Y-13455357D01*
X14641071Y-13441071D01*
X14655357Y-13412500D01*
X14683928Y-13398214D01*
X14726786Y-13398214D01*
X14755357Y-13412500D01*
X14869643Y-13712500D02*
X14883928Y-13698214D01*
X14912500Y-13655357D01*
X14926786Y-13626786D01*
X14941071Y-13583929D01*
X14955357Y-13512500D01*
X14955357Y-13455357D01*
X14941071Y-13383929D01*
X14926786Y-13341071D01*
X14912500Y-13312500D01*
X14883928Y-13269643D01*
X14869643Y-13255357D01*
X8097500Y-13858500D02*
G75*
G03*
X8097500Y-13858500I-30000J0D01*
G01*
X8441071Y-13694214D02*
X8469643Y-13694214D01*
X8498214Y-13708500D01*
X8512500Y-13722786D01*
X8526786Y-13751357D01*
X8541071Y-13808500D01*
X8541071Y-13879929D01*
X8526786Y-13937071D01*
X8512500Y-13965643D01*
X8498214Y-13979929D01*
X8469643Y-13994214D01*
X8441071Y-13994214D01*
X8412500Y-13979929D01*
X8398214Y-13965643D01*
X8383928Y-13937071D01*
X8369643Y-13879929D01*
X8369643Y-13808500D01*
X8383928Y-13751357D01*
X8398214Y-13722786D01*
X8412500Y-13708500D01*
X8441071Y-13694214D01*
X8669643Y-13965643D02*
X8683928Y-13979929D01*
X8669643Y-13994214D01*
X8655357Y-13979929D01*
X8669643Y-13965643D01*
X8669643Y-13994214D01*
X8941071Y-13694214D02*
X8883928Y-13694214D01*
X8855357Y-13708500D01*
X8841071Y-13722786D01*
X8812500Y-13765643D01*
X8798214Y-13822786D01*
X8798214Y-13937071D01*
X8812500Y-13965643D01*
X8826786Y-13979929D01*
X8855357Y-13994214D01*
X8912500Y-13994214D01*
X8941071Y-13979929D01*
X8955357Y-13965643D01*
X8969643Y-13937071D01*
X8969643Y-13865643D01*
X8955357Y-13837071D01*
X8941071Y-13822786D01*
X8912500Y-13808500D01*
X8855357Y-13808500D01*
X8826786Y-13822786D01*
X8812500Y-13837071D01*
X8798214Y-13865643D01*
X9155357Y-13694214D02*
X9183928Y-13694214D01*
X9212500Y-13708500D01*
X9226786Y-13722786D01*
X9241071Y-13751357D01*
X9255357Y-13808500D01*
X9255357Y-13879929D01*
X9241071Y-13937071D01*
X9226786Y-13965643D01*
X9212500Y-13979929D01*
X9183928Y-13994214D01*
X9155357Y-13994214D01*
X9126786Y-13979929D01*
X9112500Y-13965643D01*
X9098214Y-13937071D01*
X9083928Y-13879929D01*
X9083928Y-13808500D01*
X9098214Y-13751357D01*
X9112500Y-13722786D01*
X9126786Y-13708500D01*
X9155357Y-13694214D01*
X9383928Y-13994214D02*
X9383928Y-13794214D01*
X9383928Y-13822786D02*
X9398214Y-13808500D01*
X9426786Y-13794214D01*
X9469643Y-13794214D01*
X9498214Y-13808500D01*
X9512500Y-13837071D01*
X9512500Y-13994214D01*
X9512500Y-13837071D02*
X9526786Y-13808500D01*
X9555357Y-13794214D01*
X9598214Y-13794214D01*
X9626786Y-13808500D01*
X9641071Y-13837071D01*
X9641071Y-13994214D01*
X9783928Y-13994214D02*
X9783928Y-13794214D01*
X9783928Y-13822786D02*
X9798214Y-13808500D01*
X9826786Y-13794214D01*
X9869643Y-13794214D01*
X9898214Y-13808500D01*
X9912500Y-13837071D01*
X9912500Y-13994214D01*
X9912500Y-13837071D02*
X9926786Y-13808500D01*
X9955357Y-13794214D01*
X9998214Y-13794214D01*
X10026786Y-13808500D01*
X10041071Y-13837071D01*
X10041071Y-13994214D01*
X10626786Y-13679929D02*
X10369643Y-14065643D01*
X11012500Y-13694214D02*
X11041071Y-13694214D01*
X11069643Y-13708500D01*
X11083928Y-13722786D01*
X11098214Y-13751357D01*
X11112500Y-13808500D01*
X11112500Y-13879929D01*
X11098214Y-13937071D01*
X11083928Y-13965643D01*
X11069643Y-13979929D01*
X11041071Y-13994214D01*
X11012500Y-13994214D01*
X10983928Y-13979929D01*
X10969643Y-13965643D01*
X10955357Y-13937071D01*
X10941071Y-13879929D01*
X10941071Y-13808500D01*
X10955357Y-13751357D01*
X10969643Y-13722786D01*
X10983928Y-13708500D01*
X11012500Y-13694214D01*
X11241071Y-13965643D02*
X11255357Y-13979929D01*
X11241071Y-13994214D01*
X11226786Y-13979929D01*
X11241071Y-13965643D01*
X11241071Y-13994214D01*
X11441071Y-13694214D02*
X11469643Y-13694214D01*
X11498214Y-13708500D01*
X11512500Y-13722786D01*
X11526786Y-13751357D01*
X11541071Y-13808500D01*
X11541071Y-13879929D01*
X11526786Y-13937071D01*
X11512500Y-13965643D01*
X11498214Y-13979929D01*
X11469643Y-13994214D01*
X11441071Y-13994214D01*
X11412500Y-13979929D01*
X11398214Y-13965643D01*
X11383928Y-13937071D01*
X11369643Y-13879929D01*
X11369643Y-13808500D01*
X11383928Y-13751357D01*
X11398214Y-13722786D01*
X11412500Y-13708500D01*
X11441071Y-13694214D01*
X11655357Y-13722786D02*
X11669643Y-13708500D01*
X11698214Y-13694214D01*
X11769643Y-13694214D01*
X11798214Y-13708500D01*
X11812500Y-13722786D01*
X11826786Y-13751357D01*
X11826786Y-13779929D01*
X11812500Y-13822786D01*
X11641071Y-13994214D01*
X11826786Y-13994214D01*
X12083928Y-13794214D02*
X12083928Y-13994214D01*
X12012500Y-13679929D02*
X11941071Y-13894214D01*
X12126786Y-13894214D01*
X12226786Y-13694214D02*
X12226786Y-13751357D01*
X12341071Y-13694214D02*
X12341071Y-13751357D01*
X12783928Y-14108500D02*
X12769643Y-14094214D01*
X12741071Y-14051357D01*
X12726786Y-14022786D01*
X12712500Y-13979929D01*
X12698214Y-13908500D01*
X12698214Y-13851357D01*
X12712500Y-13779929D01*
X12726786Y-13737071D01*
X12741071Y-13708500D01*
X12769643Y-13665643D01*
X12783928Y-13651357D01*
X13026786Y-13794214D02*
X13026786Y-13994214D01*
X12955357Y-13679929D02*
X12883928Y-13894214D01*
X13069643Y-13894214D01*
X13412500Y-13994214D02*
X13412500Y-13694214D01*
X13541071Y-13994214D02*
X13541071Y-13837071D01*
X13526786Y-13808500D01*
X13498214Y-13794214D01*
X13455357Y-13794214D01*
X13426786Y-13808500D01*
X13412500Y-13822786D01*
X13726786Y-13994214D02*
X13698214Y-13979929D01*
X13683928Y-13965643D01*
X13669643Y-13937071D01*
X13669643Y-13851357D01*
X13683928Y-13822786D01*
X13698214Y-13808500D01*
X13726786Y-13794214D01*
X13769643Y-13794214D01*
X13798214Y-13808500D01*
X13812500Y-13822786D01*
X13826786Y-13851357D01*
X13826786Y-13937071D01*
X13812500Y-13965643D01*
X13798214Y-13979929D01*
X13769643Y-13994214D01*
X13726786Y-13994214D01*
X13998214Y-13994214D02*
X13969643Y-13979929D01*
X13955357Y-13951357D01*
X13955357Y-13694214D01*
X14226786Y-13979929D02*
X14198214Y-13994214D01*
X14141071Y-13994214D01*
X14112500Y-13979929D01*
X14098214Y-13951357D01*
X14098214Y-13837071D01*
X14112500Y-13808500D01*
X14141071Y-13794214D01*
X14198214Y-13794214D01*
X14226786Y-13808500D01*
X14241071Y-13837071D01*
X14241071Y-13865643D01*
X14098214Y-13894214D01*
X14355357Y-13979929D02*
X14383928Y-13994214D01*
X14441071Y-13994214D01*
X14469643Y-13979929D01*
X14483928Y-13951357D01*
X14483928Y-13937071D01*
X14469643Y-13908500D01*
X14441071Y-13894214D01*
X14398214Y-13894214D01*
X14369643Y-13879929D01*
X14355357Y-13851357D01*
X14355357Y-13837071D01*
X14369643Y-13808500D01*
X14398214Y-13794214D01*
X14441071Y-13794214D01*
X14469643Y-13808500D01*
X14583928Y-14108500D02*
X14598214Y-14094214D01*
X14626786Y-14051357D01*
X14641071Y-14022786D01*
X14655357Y-13979929D01*
X14669643Y-13908500D01*
X14669643Y-13851357D01*
X14655357Y-13779929D01*
X14641071Y-13737071D01*
X14626786Y-13708500D01*
X14598214Y-13665643D01*
X14583928Y-13651357D01*
X8060000Y-14217000D02*
X8060000Y-14292000D01*
X8022500Y-14254500D02*
X8097500Y-14254500D01*
X8441071Y-14090214D02*
X8469643Y-14090214D01*
X8498214Y-14104500D01*
X8512500Y-14118786D01*
X8526786Y-14147357D01*
X8541071Y-14204500D01*
X8541071Y-14275929D01*
X8526786Y-14333071D01*
X8512500Y-14361643D01*
X8498214Y-14375929D01*
X8469643Y-14390214D01*
X8441071Y-14390214D01*
X8412500Y-14375929D01*
X8398214Y-14361643D01*
X8383928Y-14333071D01*
X8369643Y-14275929D01*
X8369643Y-14204500D01*
X8383928Y-14147357D01*
X8398214Y-14118786D01*
X8412500Y-14104500D01*
X8441071Y-14090214D01*
X8669643Y-14361643D02*
X8683928Y-14375929D01*
X8669643Y-14390214D01*
X8655357Y-14375929D01*
X8669643Y-14361643D01*
X8669643Y-14390214D01*
X8783928Y-14090214D02*
X8983928Y-14090214D01*
X8855357Y-14390214D01*
X9241071Y-14090214D02*
X9098214Y-14090214D01*
X9083928Y-14233071D01*
X9098214Y-14218786D01*
X9126786Y-14204500D01*
X9198214Y-14204500D01*
X9226786Y-14218786D01*
X9241071Y-14233071D01*
X9255357Y-14261643D01*
X9255357Y-14333071D01*
X9241071Y-14361643D01*
X9226786Y-14375929D01*
X9198214Y-14390214D01*
X9126786Y-14390214D01*
X9098214Y-14375929D01*
X9083928Y-14361643D01*
X9383928Y-14390214D02*
X9383928Y-14190214D01*
X9383928Y-14218786D02*
X9398214Y-14204500D01*
X9426786Y-14190214D01*
X9469643Y-14190214D01*
X9498214Y-14204500D01*
X9512500Y-14233071D01*
X9512500Y-14390214D01*
X9512500Y-14233071D02*
X9526786Y-14204500D01*
X9555357Y-14190214D01*
X9598214Y-14190214D01*
X9626786Y-14204500D01*
X9641071Y-14233071D01*
X9641071Y-14390214D01*
X9783928Y-14390214D02*
X9783928Y-14190214D01*
X9783928Y-14218786D02*
X9798214Y-14204500D01*
X9826786Y-14190214D01*
X9869643Y-14190214D01*
X9898214Y-14204500D01*
X9912500Y-14233071D01*
X9912500Y-14390214D01*
X9912500Y-14233071D02*
X9926786Y-14204500D01*
X9955357Y-14190214D01*
X9998214Y-14190214D01*
X10026786Y-14204500D01*
X10041071Y-14233071D01*
X10041071Y-14390214D01*
X10626786Y-14075929D02*
X10369643Y-14461643D01*
X11012500Y-14090214D02*
X11041071Y-14090214D01*
X11069643Y-14104500D01*
X11083928Y-14118786D01*
X11098214Y-14147357D01*
X11112500Y-14204500D01*
X11112500Y-14275929D01*
X11098214Y-14333071D01*
X11083928Y-14361643D01*
X11069643Y-14375929D01*
X11041071Y-14390214D01*
X11012500Y-14390214D01*
X10983928Y-14375929D01*
X10969643Y-14361643D01*
X10955357Y-14333071D01*
X10941071Y-14275929D01*
X10941071Y-14204500D01*
X10955357Y-14147357D01*
X10969643Y-14118786D01*
X10983928Y-14104500D01*
X11012500Y-14090214D01*
X11241071Y-14361643D02*
X11255357Y-14375929D01*
X11241071Y-14390214D01*
X11226786Y-14375929D01*
X11241071Y-14361643D01*
X11241071Y-14390214D01*
X11441071Y-14090214D02*
X11469643Y-14090214D01*
X11498214Y-14104500D01*
X11512500Y-14118786D01*
X11526786Y-14147357D01*
X11541071Y-14204500D01*
X11541071Y-14275929D01*
X11526786Y-14333071D01*
X11512500Y-14361643D01*
X11498214Y-14375929D01*
X11469643Y-14390214D01*
X11441071Y-14390214D01*
X11412500Y-14375929D01*
X11398214Y-14361643D01*
X11383928Y-14333071D01*
X11369643Y-14275929D01*
X11369643Y-14204500D01*
X11383928Y-14147357D01*
X11398214Y-14118786D01*
X11412500Y-14104500D01*
X11441071Y-14090214D01*
X11641071Y-14090214D02*
X11826786Y-14090214D01*
X11726786Y-14204500D01*
X11769643Y-14204500D01*
X11798214Y-14218786D01*
X11812500Y-14233071D01*
X11826786Y-14261643D01*
X11826786Y-14333071D01*
X11812500Y-14361643D01*
X11798214Y-14375929D01*
X11769643Y-14390214D01*
X11683928Y-14390214D01*
X11655357Y-14375929D01*
X11641071Y-14361643D01*
X12012500Y-14090214D02*
X12041071Y-14090214D01*
X12069643Y-14104500D01*
X12083928Y-14118786D01*
X12098214Y-14147357D01*
X12112500Y-14204500D01*
X12112500Y-14275929D01*
X12098214Y-14333071D01*
X12083928Y-14361643D01*
X12069643Y-14375929D01*
X12041071Y-14390214D01*
X12012500Y-14390214D01*
X11983928Y-14375929D01*
X11969643Y-14361643D01*
X11955357Y-14333071D01*
X11941071Y-14275929D01*
X11941071Y-14204500D01*
X11955357Y-14147357D01*
X11969643Y-14118786D01*
X11983928Y-14104500D01*
X12012500Y-14090214D01*
X12226786Y-14090214D02*
X12226786Y-14147357D01*
X12341071Y-14090214D02*
X12341071Y-14147357D01*
X12783928Y-14504500D02*
X12769643Y-14490214D01*
X12741071Y-14447357D01*
X12726786Y-14418786D01*
X12712500Y-14375929D01*
X12698214Y-14304500D01*
X12698214Y-14247357D01*
X12712500Y-14175929D01*
X12726786Y-14133071D01*
X12741071Y-14104500D01*
X12769643Y-14061643D01*
X12783928Y-14047357D01*
X12941071Y-14218786D02*
X12912500Y-14204500D01*
X12898214Y-14190214D01*
X12883928Y-14161643D01*
X12883928Y-14147357D01*
X12898214Y-14118786D01*
X12912500Y-14104500D01*
X12941071Y-14090214D01*
X12998214Y-14090214D01*
X13026786Y-14104500D01*
X13041071Y-14118786D01*
X13055357Y-14147357D01*
X13055357Y-14161643D01*
X13041071Y-14190214D01*
X13026786Y-14204500D01*
X12998214Y-14218786D01*
X12941071Y-14218786D01*
X12912500Y-14233071D01*
X12898214Y-14247357D01*
X12883928Y-14275929D01*
X12883928Y-14333071D01*
X12898214Y-14361643D01*
X12912500Y-14375929D01*
X12941071Y-14390214D01*
X12998214Y-14390214D01*
X13026786Y-14375929D01*
X13041071Y-14361643D01*
X13055357Y-14333071D01*
X13055357Y-14275929D01*
X13041071Y-14247357D01*
X13026786Y-14233071D01*
X12998214Y-14218786D01*
X13412500Y-14390214D02*
X13412500Y-14090214D01*
X13541071Y-14390214D02*
X13541071Y-14233071D01*
X13526786Y-14204500D01*
X13498214Y-14190214D01*
X13455357Y-14190214D01*
X13426786Y-14204500D01*
X13412500Y-14218786D01*
X13726786Y-14390214D02*
X13698214Y-14375929D01*
X13683928Y-14361643D01*
X13669643Y-14333071D01*
X13669643Y-14247357D01*
X13683928Y-14218786D01*
X13698214Y-14204500D01*
X13726786Y-14190214D01*
X13769643Y-14190214D01*
X13798214Y-14204500D01*
X13812500Y-14218786D01*
X13826786Y-14247357D01*
X13826786Y-14333071D01*
X13812500Y-14361643D01*
X13798214Y-14375929D01*
X13769643Y-14390214D01*
X13726786Y-14390214D01*
X13998214Y-14390214D02*
X13969643Y-14375929D01*
X13955357Y-14347357D01*
X13955357Y-14090214D01*
X14226786Y-14375929D02*
X14198214Y-14390214D01*
X14141071Y-14390214D01*
X14112500Y-14375929D01*
X14098214Y-14347357D01*
X14098214Y-14233071D01*
X14112500Y-14204500D01*
X14141071Y-14190214D01*
X14198214Y-14190214D01*
X14226786Y-14204500D01*
X14241071Y-14233071D01*
X14241071Y-14261643D01*
X14098214Y-14290214D01*
X14355357Y-14375929D02*
X14383928Y-14390214D01*
X14441071Y-14390214D01*
X14469643Y-14375929D01*
X14483928Y-14347357D01*
X14483928Y-14333071D01*
X14469643Y-14304500D01*
X14441071Y-14290214D01*
X14398214Y-14290214D01*
X14369643Y-14275929D01*
X14355357Y-14247357D01*
X14355357Y-14233071D01*
X14369643Y-14204500D01*
X14398214Y-14190214D01*
X14441071Y-14190214D01*
X14469643Y-14204500D01*
X14583928Y-14504500D02*
X14598214Y-14490214D01*
X14626786Y-14447357D01*
X14641071Y-14418786D01*
X14655357Y-14375929D01*
X14669643Y-14304500D01*
X14669643Y-14247357D01*
X14655357Y-14175929D01*
X14641071Y-14133071D01*
X14626786Y-14104500D01*
X14598214Y-14061643D01*
X14583928Y-14047357D01*
X8086341Y-14677441D02*
X8086341Y-14623559D01*
X8032459Y-14623559D01*
X8032459Y-14677441D01*
X8086341Y-14677441D01*
X8441071Y-14486214D02*
X8469643Y-14486214D01*
X8498214Y-14500500D01*
X8512500Y-14514786D01*
X8526786Y-14543357D01*
X8541071Y-14600500D01*
X8541071Y-14671929D01*
X8526786Y-14729071D01*
X8512500Y-14757643D01*
X8498214Y-14771929D01*
X8469643Y-14786214D01*
X8441071Y-14786214D01*
X8412500Y-14771929D01*
X8398214Y-14757643D01*
X8383928Y-14729071D01*
X8369643Y-14671929D01*
X8369643Y-14600500D01*
X8383928Y-14543357D01*
X8398214Y-14514786D01*
X8412500Y-14500500D01*
X8441071Y-14486214D01*
X8669643Y-14757643D02*
X8683928Y-14771929D01*
X8669643Y-14786214D01*
X8655357Y-14771929D01*
X8669643Y-14757643D01*
X8669643Y-14786214D01*
X8783928Y-14486214D02*
X8983928Y-14486214D01*
X8855357Y-14786214D01*
X9226786Y-14486214D02*
X9169643Y-14486214D01*
X9141071Y-14500500D01*
X9126786Y-14514786D01*
X9098214Y-14557643D01*
X9083928Y-14614786D01*
X9083928Y-14729071D01*
X9098214Y-14757643D01*
X9112500Y-14771929D01*
X9141071Y-14786214D01*
X9198214Y-14786214D01*
X9226786Y-14771929D01*
X9241071Y-14757643D01*
X9255357Y-14729071D01*
X9255357Y-14657643D01*
X9241071Y-14629071D01*
X9226786Y-14614786D01*
X9198214Y-14600500D01*
X9141071Y-14600500D01*
X9112500Y-14614786D01*
X9098214Y-14629071D01*
X9083928Y-14657643D01*
X9383928Y-14786214D02*
X9383928Y-14586214D01*
X9383928Y-14614786D02*
X9398214Y-14600500D01*
X9426786Y-14586214D01*
X9469643Y-14586214D01*
X9498214Y-14600500D01*
X9512500Y-14629071D01*
X9512500Y-14786214D01*
X9512500Y-14629071D02*
X9526786Y-14600500D01*
X9555357Y-14586214D01*
X9598214Y-14586214D01*
X9626786Y-14600500D01*
X9641071Y-14629071D01*
X9641071Y-14786214D01*
X9783928Y-14786214D02*
X9783928Y-14586214D01*
X9783928Y-14614786D02*
X9798214Y-14600500D01*
X9826786Y-14586214D01*
X9869643Y-14586214D01*
X9898214Y-14600500D01*
X9912500Y-14629071D01*
X9912500Y-14786214D01*
X9912500Y-14629071D02*
X9926786Y-14600500D01*
X9955357Y-14586214D01*
X9998214Y-14586214D01*
X10026786Y-14600500D01*
X10041071Y-14629071D01*
X10041071Y-14786214D01*
X10626786Y-14471929D02*
X10369643Y-14857643D01*
X11012500Y-14486214D02*
X11041071Y-14486214D01*
X11069643Y-14500500D01*
X11083928Y-14514786D01*
X11098214Y-14543357D01*
X11112500Y-14600500D01*
X11112500Y-14671929D01*
X11098214Y-14729071D01*
X11083928Y-14757643D01*
X11069643Y-14771929D01*
X11041071Y-14786214D01*
X11012500Y-14786214D01*
X10983928Y-14771929D01*
X10969643Y-14757643D01*
X10955357Y-14729071D01*
X10941071Y-14671929D01*
X10941071Y-14600500D01*
X10955357Y-14543357D01*
X10969643Y-14514786D01*
X10983928Y-14500500D01*
X11012500Y-14486214D01*
X11241071Y-14757643D02*
X11255357Y-14771929D01*
X11241071Y-14786214D01*
X11226786Y-14771929D01*
X11241071Y-14757643D01*
X11241071Y-14786214D01*
X11441071Y-14486214D02*
X11469643Y-14486214D01*
X11498214Y-14500500D01*
X11512500Y-14514786D01*
X11526786Y-14543357D01*
X11541071Y-14600500D01*
X11541071Y-14671929D01*
X11526786Y-14729071D01*
X11512500Y-14757643D01*
X11498214Y-14771929D01*
X11469643Y-14786214D01*
X11441071Y-14786214D01*
X11412500Y-14771929D01*
X11398214Y-14757643D01*
X11383928Y-14729071D01*
X11369643Y-14671929D01*
X11369643Y-14600500D01*
X11383928Y-14543357D01*
X11398214Y-14514786D01*
X11412500Y-14500500D01*
X11441071Y-14486214D01*
X11641071Y-14486214D02*
X11826786Y-14486214D01*
X11726786Y-14600500D01*
X11769643Y-14600500D01*
X11798214Y-14614786D01*
X11812500Y-14629071D01*
X11826786Y-14657643D01*
X11826786Y-14729071D01*
X11812500Y-14757643D01*
X11798214Y-14771929D01*
X11769643Y-14786214D01*
X11683928Y-14786214D01*
X11655357Y-14771929D01*
X11641071Y-14757643D01*
X12012500Y-14486214D02*
X12041071Y-14486214D01*
X12069643Y-14500500D01*
X12083928Y-14514786D01*
X12098214Y-14543357D01*
X12112500Y-14600500D01*
X12112500Y-14671929D01*
X12098214Y-14729071D01*
X12083928Y-14757643D01*
X12069643Y-14771929D01*
X12041071Y-14786214D01*
X12012500Y-14786214D01*
X11983928Y-14771929D01*
X11969643Y-14757643D01*
X11955357Y-14729071D01*
X11941071Y-14671929D01*
X11941071Y-14600500D01*
X11955357Y-14543357D01*
X11969643Y-14514786D01*
X11983928Y-14500500D01*
X12012500Y-14486214D01*
X12226786Y-14486214D02*
X12226786Y-14543357D01*
X12341071Y-14486214D02*
X12341071Y-14543357D01*
X12783928Y-14900500D02*
X12769643Y-14886214D01*
X12741071Y-14843357D01*
X12726786Y-14814786D01*
X12712500Y-14771929D01*
X12698214Y-14700500D01*
X12698214Y-14643357D01*
X12712500Y-14571929D01*
X12726786Y-14529071D01*
X12741071Y-14500500D01*
X12769643Y-14457643D01*
X12783928Y-14443357D01*
X12869643Y-14486214D02*
X13069643Y-14486214D01*
X12941071Y-14786214D01*
X13412500Y-14786214D02*
X13412500Y-14486214D01*
X13541071Y-14786214D02*
X13541071Y-14629071D01*
X13526786Y-14600500D01*
X13498214Y-14586214D01*
X13455357Y-14586214D01*
X13426786Y-14600500D01*
X13412500Y-14614786D01*
X13726786Y-14786214D02*
X13698214Y-14771929D01*
X13683928Y-14757643D01*
X13669643Y-14729071D01*
X13669643Y-14643357D01*
X13683928Y-14614786D01*
X13698214Y-14600500D01*
X13726786Y-14586214D01*
X13769643Y-14586214D01*
X13798214Y-14600500D01*
X13812500Y-14614786D01*
X13826786Y-14643357D01*
X13826786Y-14729071D01*
X13812500Y-14757643D01*
X13798214Y-14771929D01*
X13769643Y-14786214D01*
X13726786Y-14786214D01*
X13998214Y-14786214D02*
X13969643Y-14771929D01*
X13955357Y-14743357D01*
X13955357Y-14486214D01*
X14226786Y-14771929D02*
X14198214Y-14786214D01*
X14141071Y-14786214D01*
X14112500Y-14771929D01*
X14098214Y-14743357D01*
X14098214Y-14629071D01*
X14112500Y-14600500D01*
X14141071Y-14586214D01*
X14198214Y-14586214D01*
X14226786Y-14600500D01*
X14241071Y-14629071D01*
X14241071Y-14657643D01*
X14098214Y-14686214D01*
X14355357Y-14771929D02*
X14383928Y-14786214D01*
X14441071Y-14786214D01*
X14469643Y-14771929D01*
X14483928Y-14743357D01*
X14483928Y-14729071D01*
X14469643Y-14700500D01*
X14441071Y-14686214D01*
X14398214Y-14686214D01*
X14369643Y-14671929D01*
X14355357Y-14643357D01*
X14355357Y-14629071D01*
X14369643Y-14600500D01*
X14398214Y-14586214D01*
X14441071Y-14586214D01*
X14469643Y-14600500D01*
X14583928Y-14900500D02*
X14598214Y-14886214D01*
X14626786Y-14843357D01*
X14641071Y-14814786D01*
X14655357Y-14771929D01*
X14669643Y-14700500D01*
X14669643Y-14643357D01*
X14655357Y-14571929D01*
X14641071Y-14529071D01*
X14626786Y-14500500D01*
X14598214Y-14457643D01*
X14583928Y-14443357D01*
X8057500Y-15086500D02*
X8097500Y-15046500D01*
X8057500Y-15006500D01*
X8017500Y-15046500D01*
X8057500Y-15086500D01*
X8441071Y-14882214D02*
X8469643Y-14882214D01*
X8498214Y-14896500D01*
X8512500Y-14910786D01*
X8526786Y-14939357D01*
X8541071Y-14996500D01*
X8541071Y-15067929D01*
X8526786Y-15125071D01*
X8512500Y-15153643D01*
X8498214Y-15167929D01*
X8469643Y-15182214D01*
X8441071Y-15182214D01*
X8412500Y-15167929D01*
X8398214Y-15153643D01*
X8383928Y-15125071D01*
X8369643Y-15067929D01*
X8369643Y-14996500D01*
X8383928Y-14939357D01*
X8398214Y-14910786D01*
X8412500Y-14896500D01*
X8441071Y-14882214D01*
X8669643Y-15153643D02*
X8683928Y-15167929D01*
X8669643Y-15182214D01*
X8655357Y-15167929D01*
X8669643Y-15153643D01*
X8669643Y-15182214D01*
X8855357Y-15010786D02*
X8826786Y-14996500D01*
X8812500Y-14982214D01*
X8798214Y-14953643D01*
X8798214Y-14939357D01*
X8812500Y-14910786D01*
X8826786Y-14896500D01*
X8855357Y-14882214D01*
X8912500Y-14882214D01*
X8941071Y-14896500D01*
X8955357Y-14910786D01*
X8969643Y-14939357D01*
X8969643Y-14953643D01*
X8955357Y-14982214D01*
X8941071Y-14996500D01*
X8912500Y-15010786D01*
X8855357Y-15010786D01*
X8826786Y-15025071D01*
X8812500Y-15039357D01*
X8798214Y-15067929D01*
X8798214Y-15125071D01*
X8812500Y-15153643D01*
X8826786Y-15167929D01*
X8855357Y-15182214D01*
X8912500Y-15182214D01*
X8941071Y-15167929D01*
X8955357Y-15153643D01*
X8969643Y-15125071D01*
X8969643Y-15067929D01*
X8955357Y-15039357D01*
X8941071Y-15025071D01*
X8912500Y-15010786D01*
X9155357Y-14882214D02*
X9183928Y-14882214D01*
X9212500Y-14896500D01*
X9226786Y-14910786D01*
X9241071Y-14939357D01*
X9255357Y-14996500D01*
X9255357Y-15067929D01*
X9241071Y-15125071D01*
X9226786Y-15153643D01*
X9212500Y-15167929D01*
X9183928Y-15182214D01*
X9155357Y-15182214D01*
X9126786Y-15167929D01*
X9112500Y-15153643D01*
X9098214Y-15125071D01*
X9083928Y-15067929D01*
X9083928Y-14996500D01*
X9098214Y-14939357D01*
X9112500Y-14910786D01*
X9126786Y-14896500D01*
X9155357Y-14882214D01*
X9383928Y-15182214D02*
X9383928Y-14982214D01*
X9383928Y-15010786D02*
X9398214Y-14996500D01*
X9426786Y-14982214D01*
X9469643Y-14982214D01*
X9498214Y-14996500D01*
X9512500Y-15025071D01*
X9512500Y-15182214D01*
X9512500Y-15025071D02*
X9526786Y-14996500D01*
X9555357Y-14982214D01*
X9598214Y-14982214D01*
X9626786Y-14996500D01*
X9641071Y-15025071D01*
X9641071Y-15182214D01*
X9783928Y-15182214D02*
X9783928Y-14982214D01*
X9783928Y-15010786D02*
X9798214Y-14996500D01*
X9826786Y-14982214D01*
X9869643Y-14982214D01*
X9898214Y-14996500D01*
X9912500Y-15025071D01*
X9912500Y-15182214D01*
X9912500Y-15025071D02*
X9926786Y-14996500D01*
X9955357Y-14982214D01*
X9998214Y-14982214D01*
X10026786Y-14996500D01*
X10041071Y-15025071D01*
X10041071Y-15182214D01*
X10626786Y-14867929D02*
X10369643Y-15253643D01*
X11012500Y-14882214D02*
X11041071Y-14882214D01*
X11069643Y-14896500D01*
X11083928Y-14910786D01*
X11098214Y-14939357D01*
X11112500Y-14996500D01*
X11112500Y-15067929D01*
X11098214Y-15125071D01*
X11083928Y-15153643D01*
X11069643Y-15167929D01*
X11041071Y-15182214D01*
X11012500Y-15182214D01*
X10983928Y-15167929D01*
X10969643Y-15153643D01*
X10955357Y-15125071D01*
X10941071Y-15067929D01*
X10941071Y-14996500D01*
X10955357Y-14939357D01*
X10969643Y-14910786D01*
X10983928Y-14896500D01*
X11012500Y-14882214D01*
X11241071Y-15153643D02*
X11255357Y-15167929D01*
X11241071Y-15182214D01*
X11226786Y-15167929D01*
X11241071Y-15153643D01*
X11241071Y-15182214D01*
X11441071Y-14882214D02*
X11469643Y-14882214D01*
X11498214Y-14896500D01*
X11512500Y-14910786D01*
X11526786Y-14939357D01*
X11541071Y-14996500D01*
X11541071Y-15067929D01*
X11526786Y-15125071D01*
X11512500Y-15153643D01*
X11498214Y-15167929D01*
X11469643Y-15182214D01*
X11441071Y-15182214D01*
X11412500Y-15167929D01*
X11398214Y-15153643D01*
X11383928Y-15125071D01*
X11369643Y-15067929D01*
X11369643Y-14996500D01*
X11383928Y-14939357D01*
X11398214Y-14910786D01*
X11412500Y-14896500D01*
X11441071Y-14882214D01*
X11641071Y-14882214D02*
X11826786Y-14882214D01*
X11726786Y-14996500D01*
X11769643Y-14996500D01*
X11798214Y-15010786D01*
X11812500Y-15025071D01*
X11826786Y-15053643D01*
X11826786Y-15125071D01*
X11812500Y-15153643D01*
X11798214Y-15167929D01*
X11769643Y-15182214D01*
X11683928Y-15182214D01*
X11655357Y-15167929D01*
X11641071Y-15153643D01*
X12112500Y-15182214D02*
X11941071Y-15182214D01*
X12026786Y-15182214D02*
X12026786Y-14882214D01*
X11998214Y-14925071D01*
X11969643Y-14953643D01*
X11941071Y-14967929D01*
X12226786Y-14882214D02*
X12226786Y-14939357D01*
X12341071Y-14882214D02*
X12341071Y-14939357D01*
X12783928Y-15296500D02*
X12769643Y-15282214D01*
X12741071Y-15239357D01*
X12726786Y-15210786D01*
X12712500Y-15167929D01*
X12698214Y-15096500D01*
X12698214Y-15039357D01*
X12712500Y-14967929D01*
X12726786Y-14925071D01*
X12741071Y-14896500D01*
X12769643Y-14853643D01*
X12783928Y-14839357D01*
X13055357Y-15182214D02*
X12883928Y-15182214D01*
X12969643Y-15182214D02*
X12969643Y-14882214D01*
X12941071Y-14925071D01*
X12912500Y-14953643D01*
X12883928Y-14967929D01*
X13341071Y-15182214D02*
X13169643Y-15182214D01*
X13255357Y-15182214D02*
X13255357Y-14882214D01*
X13226786Y-14925071D01*
X13198214Y-14953643D01*
X13169643Y-14967929D01*
X13698214Y-15182214D02*
X13698214Y-14882214D01*
X13826786Y-15182214D02*
X13826786Y-15025071D01*
X13812500Y-14996500D01*
X13783928Y-14982214D01*
X13741071Y-14982214D01*
X13712500Y-14996500D01*
X13698214Y-15010786D01*
X14012500Y-15182214D02*
X13983928Y-15167929D01*
X13969643Y-15153643D01*
X13955357Y-15125071D01*
X13955357Y-15039357D01*
X13969643Y-15010786D01*
X13983928Y-14996500D01*
X14012500Y-14982214D01*
X14055357Y-14982214D01*
X14083928Y-14996500D01*
X14098214Y-15010786D01*
X14112500Y-15039357D01*
X14112500Y-15125071D01*
X14098214Y-15153643D01*
X14083928Y-15167929D01*
X14055357Y-15182214D01*
X14012500Y-15182214D01*
X14283928Y-15182214D02*
X14255357Y-15167929D01*
X14241071Y-15139357D01*
X14241071Y-14882214D01*
X14512500Y-15167929D02*
X14483928Y-15182214D01*
X14426786Y-15182214D01*
X14398214Y-15167929D01*
X14383928Y-15139357D01*
X14383928Y-15025071D01*
X14398214Y-14996500D01*
X14426786Y-14982214D01*
X14483928Y-14982214D01*
X14512500Y-14996500D01*
X14526786Y-15025071D01*
X14526786Y-15053643D01*
X14383928Y-15082214D01*
X14641071Y-15167929D02*
X14669643Y-15182214D01*
X14726786Y-15182214D01*
X14755357Y-15167929D01*
X14769643Y-15139357D01*
X14769643Y-15125071D01*
X14755357Y-15096500D01*
X14726786Y-15082214D01*
X14683928Y-15082214D01*
X14655357Y-15067929D01*
X14641071Y-15039357D01*
X14641071Y-15025071D01*
X14655357Y-14996500D01*
X14683928Y-14982214D01*
X14726786Y-14982214D01*
X14755357Y-14996500D01*
X14869643Y-15296500D02*
X14883928Y-15282214D01*
X14912500Y-15239357D01*
X14926786Y-15210786D01*
X14941071Y-15167929D01*
X14955357Y-15096500D01*
X14955357Y-15039357D01*
X14941071Y-14967929D01*
X14926786Y-14925071D01*
X14912500Y-14896500D01*
X14883928Y-14853643D01*
X14869643Y-14839357D01*
X8007500Y-15397500D02*
X8097500Y-15487500D01*
X8097500Y-15397500D02*
X8007500Y-15487500D01*
X8097500Y-15442500D02*
G75*
G03*
X8097500Y-15442500I-45000J0D01*
G01*
X8441071Y-15278214D02*
X8469643Y-15278214D01*
X8498214Y-15292500D01*
X8512500Y-15306786D01*
X8526786Y-15335357D01*
X8541071Y-15392500D01*
X8541071Y-15463929D01*
X8526786Y-15521071D01*
X8512500Y-15549643D01*
X8498214Y-15563929D01*
X8469643Y-15578214D01*
X8441071Y-15578214D01*
X8412500Y-15563929D01*
X8398214Y-15549643D01*
X8383928Y-15521071D01*
X8369643Y-15463929D01*
X8369643Y-15392500D01*
X8383928Y-15335357D01*
X8398214Y-15306786D01*
X8412500Y-15292500D01*
X8441071Y-15278214D01*
X8669643Y-15549643D02*
X8683928Y-15563929D01*
X8669643Y-15578214D01*
X8655357Y-15563929D01*
X8669643Y-15549643D01*
X8669643Y-15578214D01*
X8826786Y-15578214D02*
X8883928Y-15578214D01*
X8912500Y-15563929D01*
X8926786Y-15549643D01*
X8955357Y-15506786D01*
X8969643Y-15449643D01*
X8969643Y-15335357D01*
X8955357Y-15306786D01*
X8941071Y-15292500D01*
X8912500Y-15278214D01*
X8855357Y-15278214D01*
X8826786Y-15292500D01*
X8812500Y-15306786D01*
X8798214Y-15335357D01*
X8798214Y-15406786D01*
X8812500Y-15435357D01*
X8826786Y-15449643D01*
X8855357Y-15463929D01*
X8912500Y-15463929D01*
X8941071Y-15449643D01*
X8955357Y-15435357D01*
X8969643Y-15406786D01*
X9155357Y-15278214D02*
X9183928Y-15278214D01*
X9212500Y-15292500D01*
X9226786Y-15306786D01*
X9241071Y-15335357D01*
X9255357Y-15392500D01*
X9255357Y-15463929D01*
X9241071Y-15521071D01*
X9226786Y-15549643D01*
X9212500Y-15563929D01*
X9183928Y-15578214D01*
X9155357Y-15578214D01*
X9126786Y-15563929D01*
X9112500Y-15549643D01*
X9098214Y-15521071D01*
X9083928Y-15463929D01*
X9083928Y-15392500D01*
X9098214Y-15335357D01*
X9112500Y-15306786D01*
X9126786Y-15292500D01*
X9155357Y-15278214D01*
X9383928Y-15578214D02*
X9383928Y-15378214D01*
X9383928Y-15406786D02*
X9398214Y-15392500D01*
X9426786Y-15378214D01*
X9469643Y-15378214D01*
X9498214Y-15392500D01*
X9512500Y-15421071D01*
X9512500Y-15578214D01*
X9512500Y-15421071D02*
X9526786Y-15392500D01*
X9555357Y-15378214D01*
X9598214Y-15378214D01*
X9626786Y-15392500D01*
X9641071Y-15421071D01*
X9641071Y-15578214D01*
X9783928Y-15578214D02*
X9783928Y-15378214D01*
X9783928Y-15406786D02*
X9798214Y-15392500D01*
X9826786Y-15378214D01*
X9869643Y-15378214D01*
X9898214Y-15392500D01*
X9912500Y-15421071D01*
X9912500Y-15578214D01*
X9912500Y-15421071D02*
X9926786Y-15392500D01*
X9955357Y-15378214D01*
X9998214Y-15378214D01*
X10026786Y-15392500D01*
X10041071Y-15421071D01*
X10041071Y-15578214D01*
X10626786Y-15263929D02*
X10369643Y-15649643D01*
X11012500Y-15278214D02*
X11041071Y-15278214D01*
X11069643Y-15292500D01*
X11083928Y-15306786D01*
X11098214Y-15335357D01*
X11112500Y-15392500D01*
X11112500Y-15463929D01*
X11098214Y-15521071D01*
X11083928Y-15549643D01*
X11069643Y-15563929D01*
X11041071Y-15578214D01*
X11012500Y-15578214D01*
X10983928Y-15563929D01*
X10969643Y-15549643D01*
X10955357Y-15521071D01*
X10941071Y-15463929D01*
X10941071Y-15392500D01*
X10955357Y-15335357D01*
X10969643Y-15306786D01*
X10983928Y-15292500D01*
X11012500Y-15278214D01*
X11241071Y-15549643D02*
X11255357Y-15563929D01*
X11241071Y-15578214D01*
X11226786Y-15563929D01*
X11241071Y-15549643D01*
X11241071Y-15578214D01*
X11441071Y-15278214D02*
X11469643Y-15278214D01*
X11498214Y-15292500D01*
X11512500Y-15306786D01*
X11526786Y-15335357D01*
X11541071Y-15392500D01*
X11541071Y-15463929D01*
X11526786Y-15521071D01*
X11512500Y-15549643D01*
X11498214Y-15563929D01*
X11469643Y-15578214D01*
X11441071Y-15578214D01*
X11412500Y-15563929D01*
X11398214Y-15549643D01*
X11383928Y-15521071D01*
X11369643Y-15463929D01*
X11369643Y-15392500D01*
X11383928Y-15335357D01*
X11398214Y-15306786D01*
X11412500Y-15292500D01*
X11441071Y-15278214D01*
X11641071Y-15278214D02*
X11826786Y-15278214D01*
X11726786Y-15392500D01*
X11769643Y-15392500D01*
X11798214Y-15406786D01*
X11812500Y-15421071D01*
X11826786Y-15449643D01*
X11826786Y-15521071D01*
X11812500Y-15549643D01*
X11798214Y-15563929D01*
X11769643Y-15578214D01*
X11683928Y-15578214D01*
X11655357Y-15563929D01*
X11641071Y-15549643D01*
X12098214Y-15278214D02*
X11955357Y-15278214D01*
X11941071Y-15421071D01*
X11955357Y-15406786D01*
X11983928Y-15392500D01*
X12055357Y-15392500D01*
X12083928Y-15406786D01*
X12098214Y-15421071D01*
X12112500Y-15449643D01*
X12112500Y-15521071D01*
X12098214Y-15549643D01*
X12083928Y-15563929D01*
X12055357Y-15578214D01*
X11983928Y-15578214D01*
X11955357Y-15563929D01*
X11941071Y-15549643D01*
X12226786Y-15278214D02*
X12226786Y-15335357D01*
X12341071Y-15278214D02*
X12341071Y-15335357D01*
X12783928Y-15692500D02*
X12769643Y-15678214D01*
X12741071Y-15635357D01*
X12726786Y-15606786D01*
X12712500Y-15563929D01*
X12698214Y-15492500D01*
X12698214Y-15435357D01*
X12712500Y-15363929D01*
X12726786Y-15321071D01*
X12741071Y-15292500D01*
X12769643Y-15249643D01*
X12783928Y-15235357D01*
X13055357Y-15578214D02*
X12883928Y-15578214D01*
X12969643Y-15578214D02*
X12969643Y-15278214D01*
X12941071Y-15321071D01*
X12912500Y-15349643D01*
X12883928Y-15363929D01*
X13312500Y-15378214D02*
X13312500Y-15578214D01*
X13241071Y-15263929D02*
X13169643Y-15478214D01*
X13355357Y-15478214D01*
X13698214Y-15578214D02*
X13698214Y-15278214D01*
X13826786Y-15578214D02*
X13826786Y-15421071D01*
X13812500Y-15392500D01*
X13783928Y-15378214D01*
X13741071Y-15378214D01*
X13712500Y-15392500D01*
X13698214Y-15406786D01*
X14012500Y-15578214D02*
X13983928Y-15563929D01*
X13969643Y-15549643D01*
X13955357Y-15521071D01*
X13955357Y-15435357D01*
X13969643Y-15406786D01*
X13983928Y-15392500D01*
X14012500Y-15378214D01*
X14055357Y-15378214D01*
X14083928Y-15392500D01*
X14098214Y-15406786D01*
X14112500Y-15435357D01*
X14112500Y-15521071D01*
X14098214Y-15549643D01*
X14083928Y-15563929D01*
X14055357Y-15578214D01*
X14012500Y-15578214D01*
X14283928Y-15578214D02*
X14255357Y-15563929D01*
X14241071Y-15535357D01*
X14241071Y-15278214D01*
X14512500Y-15563929D02*
X14483928Y-15578214D01*
X14426786Y-15578214D01*
X14398214Y-15563929D01*
X14383928Y-15535357D01*
X14383928Y-15421071D01*
X14398214Y-15392500D01*
X14426786Y-15378214D01*
X14483928Y-15378214D01*
X14512500Y-15392500D01*
X14526786Y-15421071D01*
X14526786Y-15449643D01*
X14383928Y-15478214D01*
X14641071Y-15563929D02*
X14669643Y-15578214D01*
X14726786Y-15578214D01*
X14755357Y-15563929D01*
X14769643Y-15535357D01*
X14769643Y-15521071D01*
X14755357Y-15492500D01*
X14726786Y-15478214D01*
X14683928Y-15478214D01*
X14655357Y-15463929D01*
X14641071Y-15435357D01*
X14641071Y-15421071D01*
X14655357Y-15392500D01*
X14683928Y-15378214D01*
X14726786Y-15378214D01*
X14755357Y-15392500D01*
X14869643Y-15692500D02*
X14883928Y-15678214D01*
X14912500Y-15635357D01*
X14926786Y-15606786D01*
X14941071Y-15563929D01*
X14955357Y-15492500D01*
X14955357Y-15435357D01*
X14941071Y-15363929D01*
X14926786Y-15321071D01*
X14912500Y-15292500D01*
X14883928Y-15249643D01*
X14869643Y-15235357D01*
X7997500Y-15788500D02*
X8097500Y-15888500D01*
X8097500Y-15788500D02*
X7997500Y-15888500D01*
X8047500Y-15788500D02*
X8047500Y-15888500D01*
X7997500Y-15838500D02*
X8097500Y-15838500D01*
X8541071Y-15974214D02*
X8369643Y-15974214D01*
X8455357Y-15974214D02*
X8455357Y-15674214D01*
X8426786Y-15717071D01*
X8398214Y-15745643D01*
X8369643Y-15759929D01*
X8669643Y-15945643D02*
X8683928Y-15959929D01*
X8669643Y-15974214D01*
X8655357Y-15959929D01*
X8669643Y-15945643D01*
X8669643Y-15974214D01*
X8869643Y-15674214D02*
X8898214Y-15674214D01*
X8926786Y-15688500D01*
X8941071Y-15702786D01*
X8955357Y-15731357D01*
X8969643Y-15788500D01*
X8969643Y-15859929D01*
X8955357Y-15917071D01*
X8941071Y-15945643D01*
X8926786Y-15959929D01*
X8898214Y-15974214D01*
X8869643Y-15974214D01*
X8841071Y-15959929D01*
X8826786Y-15945643D01*
X8812500Y-15917071D01*
X8798214Y-15859929D01*
X8798214Y-15788500D01*
X8812500Y-15731357D01*
X8826786Y-15702786D01*
X8841071Y-15688500D01*
X8869643Y-15674214D01*
X9155357Y-15674214D02*
X9183928Y-15674214D01*
X9212500Y-15688500D01*
X9226786Y-15702786D01*
X9241071Y-15731357D01*
X9255357Y-15788500D01*
X9255357Y-15859929D01*
X9241071Y-15917071D01*
X9226786Y-15945643D01*
X9212500Y-15959929D01*
X9183928Y-15974214D01*
X9155357Y-15974214D01*
X9126786Y-15959929D01*
X9112500Y-15945643D01*
X9098214Y-15917071D01*
X9083928Y-15859929D01*
X9083928Y-15788500D01*
X9098214Y-15731357D01*
X9112500Y-15702786D01*
X9126786Y-15688500D01*
X9155357Y-15674214D01*
X9383928Y-15974214D02*
X9383928Y-15774214D01*
X9383928Y-15802786D02*
X9398214Y-15788500D01*
X9426786Y-15774214D01*
X9469643Y-15774214D01*
X9498214Y-15788500D01*
X9512500Y-15817071D01*
X9512500Y-15974214D01*
X9512500Y-15817071D02*
X9526786Y-15788500D01*
X9555357Y-15774214D01*
X9598214Y-15774214D01*
X9626786Y-15788500D01*
X9641071Y-15817071D01*
X9641071Y-15974214D01*
X9783928Y-15974214D02*
X9783928Y-15774214D01*
X9783928Y-15802786D02*
X9798214Y-15788500D01*
X9826786Y-15774214D01*
X9869643Y-15774214D01*
X9898214Y-15788500D01*
X9912500Y-15817071D01*
X9912500Y-15974214D01*
X9912500Y-15817071D02*
X9926786Y-15788500D01*
X9955357Y-15774214D01*
X9998214Y-15774214D01*
X10026786Y-15788500D01*
X10041071Y-15817071D01*
X10041071Y-15974214D01*
X10626786Y-15659929D02*
X10369643Y-16045643D01*
X11012500Y-15674214D02*
X11041071Y-15674214D01*
X11069643Y-15688500D01*
X11083928Y-15702786D01*
X11098214Y-15731357D01*
X11112500Y-15788500D01*
X11112500Y-15859929D01*
X11098214Y-15917071D01*
X11083928Y-15945643D01*
X11069643Y-15959929D01*
X11041071Y-15974214D01*
X11012500Y-15974214D01*
X10983928Y-15959929D01*
X10969643Y-15945643D01*
X10955357Y-15917071D01*
X10941071Y-15859929D01*
X10941071Y-15788500D01*
X10955357Y-15731357D01*
X10969643Y-15702786D01*
X10983928Y-15688500D01*
X11012500Y-15674214D01*
X11241071Y-15945643D02*
X11255357Y-15959929D01*
X11241071Y-15974214D01*
X11226786Y-15959929D01*
X11241071Y-15945643D01*
X11241071Y-15974214D01*
X11441071Y-15674214D02*
X11469643Y-15674214D01*
X11498214Y-15688500D01*
X11512500Y-15702786D01*
X11526786Y-15731357D01*
X11541071Y-15788500D01*
X11541071Y-15859929D01*
X11526786Y-15917071D01*
X11512500Y-15945643D01*
X11498214Y-15959929D01*
X11469643Y-15974214D01*
X11441071Y-15974214D01*
X11412500Y-15959929D01*
X11398214Y-15945643D01*
X11383928Y-15917071D01*
X11369643Y-15859929D01*
X11369643Y-15788500D01*
X11383928Y-15731357D01*
X11398214Y-15702786D01*
X11412500Y-15688500D01*
X11441071Y-15674214D01*
X11641071Y-15674214D02*
X11826786Y-15674214D01*
X11726786Y-15788500D01*
X11769643Y-15788500D01*
X11798214Y-15802786D01*
X11812500Y-15817071D01*
X11826786Y-15845643D01*
X11826786Y-15917071D01*
X11812500Y-15945643D01*
X11798214Y-15959929D01*
X11769643Y-15974214D01*
X11683928Y-15974214D01*
X11655357Y-15959929D01*
X11641071Y-15945643D01*
X11969643Y-15974214D02*
X12026786Y-15974214D01*
X12055357Y-15959929D01*
X12069643Y-15945643D01*
X12098214Y-15902786D01*
X12112500Y-15845643D01*
X12112500Y-15731357D01*
X12098214Y-15702786D01*
X12083928Y-15688500D01*
X12055357Y-15674214D01*
X11998214Y-15674214D01*
X11969643Y-15688500D01*
X11955357Y-15702786D01*
X11941071Y-15731357D01*
X11941071Y-15802786D01*
X11955357Y-15831357D01*
X11969643Y-15845643D01*
X11998214Y-15859929D01*
X12055357Y-15859929D01*
X12083928Y-15845643D01*
X12098214Y-15831357D01*
X12112500Y-15802786D01*
X12226786Y-15674214D02*
X12226786Y-15731357D01*
X12341071Y-15674214D02*
X12341071Y-15731357D01*
X12783928Y-16088500D02*
X12769643Y-16074214D01*
X12741071Y-16031357D01*
X12726786Y-16002786D01*
X12712500Y-15959929D01*
X12698214Y-15888500D01*
X12698214Y-15831357D01*
X12712500Y-15759929D01*
X12726786Y-15717071D01*
X12741071Y-15688500D01*
X12769643Y-15645643D01*
X12783928Y-15631357D01*
X12883928Y-15702786D02*
X12898214Y-15688500D01*
X12926786Y-15674214D01*
X12998214Y-15674214D01*
X13026786Y-15688500D01*
X13041071Y-15702786D01*
X13055357Y-15731357D01*
X13055357Y-15759929D01*
X13041071Y-15802786D01*
X12869643Y-15974214D01*
X13055357Y-15974214D01*
X13312500Y-15774214D02*
X13312500Y-15974214D01*
X13241071Y-15659929D02*
X13169643Y-15874214D01*
X13355357Y-15874214D01*
X13698214Y-15974214D02*
X13698214Y-15674214D01*
X13826786Y-15974214D02*
X13826786Y-15817071D01*
X13812500Y-15788500D01*
X13783928Y-15774214D01*
X13741071Y-15774214D01*
X13712500Y-15788500D01*
X13698214Y-15802786D01*
X14012500Y-15974214D02*
X13983928Y-15959929D01*
X13969643Y-15945643D01*
X13955357Y-15917071D01*
X13955357Y-15831357D01*
X13969643Y-15802786D01*
X13983928Y-15788500D01*
X14012500Y-15774214D01*
X14055357Y-15774214D01*
X14083928Y-15788500D01*
X14098214Y-15802786D01*
X14112500Y-15831357D01*
X14112500Y-15917071D01*
X14098214Y-15945643D01*
X14083928Y-15959929D01*
X14055357Y-15974214D01*
X14012500Y-15974214D01*
X14283928Y-15974214D02*
X14255357Y-15959929D01*
X14241071Y-15931357D01*
X14241071Y-15674214D01*
X14512500Y-15959929D02*
X14483928Y-15974214D01*
X14426786Y-15974214D01*
X14398214Y-15959929D01*
X14383928Y-15931357D01*
X14383928Y-15817071D01*
X14398214Y-15788500D01*
X14426786Y-15774214D01*
X14483928Y-15774214D01*
X14512500Y-15788500D01*
X14526786Y-15817071D01*
X14526786Y-15845643D01*
X14383928Y-15874214D01*
X14641071Y-15959929D02*
X14669643Y-15974214D01*
X14726786Y-15974214D01*
X14755357Y-15959929D01*
X14769643Y-15931357D01*
X14769643Y-15917071D01*
X14755357Y-15888500D01*
X14726786Y-15874214D01*
X14683928Y-15874214D01*
X14655357Y-15859929D01*
X14641071Y-15831357D01*
X14641071Y-15817071D01*
X14655357Y-15788500D01*
X14683928Y-15774214D01*
X14726786Y-15774214D01*
X14755357Y-15788500D01*
X14869643Y-16088500D02*
X14883928Y-16074214D01*
X14912500Y-16031357D01*
X14926786Y-16002786D01*
X14941071Y-15959929D01*
X14955357Y-15888500D01*
X14955357Y-15831357D01*
X14941071Y-15759929D01*
X14926786Y-15717071D01*
X14912500Y-15688500D01*
X14883928Y-15645643D01*
X14869643Y-15631357D01*
X7995500Y-16183500D02*
X8097500Y-16285500D01*
X8097500Y-16183500D02*
X7995500Y-16285500D01*
X8082563Y-16270563D02*
X8082563Y-16198437D01*
X8010437Y-16198437D01*
X8010437Y-16270563D01*
X8082563Y-16270563D01*
X8541071Y-16370214D02*
X8369643Y-16370214D01*
X8455357Y-16370214D02*
X8455357Y-16070214D01*
X8426786Y-16113071D01*
X8398214Y-16141643D01*
X8369643Y-16155929D01*
X8669643Y-16341643D02*
X8683928Y-16355929D01*
X8669643Y-16370214D01*
X8655357Y-16355929D01*
X8669643Y-16341643D01*
X8669643Y-16370214D01*
X8869643Y-16070214D02*
X8898214Y-16070214D01*
X8926786Y-16084500D01*
X8941071Y-16098786D01*
X8955357Y-16127357D01*
X8969643Y-16184500D01*
X8969643Y-16255929D01*
X8955357Y-16313071D01*
X8941071Y-16341643D01*
X8926786Y-16355929D01*
X8898214Y-16370214D01*
X8869643Y-16370214D01*
X8841071Y-16355929D01*
X8826786Y-16341643D01*
X8812500Y-16313071D01*
X8798214Y-16255929D01*
X8798214Y-16184500D01*
X8812500Y-16127357D01*
X8826786Y-16098786D01*
X8841071Y-16084500D01*
X8869643Y-16070214D01*
X9083928Y-16098786D02*
X9098214Y-16084500D01*
X9126786Y-16070214D01*
X9198214Y-16070214D01*
X9226786Y-16084500D01*
X9241071Y-16098786D01*
X9255357Y-16127357D01*
X9255357Y-16155929D01*
X9241071Y-16198786D01*
X9069643Y-16370214D01*
X9255357Y-16370214D01*
X9383928Y-16370214D02*
X9383928Y-16170214D01*
X9383928Y-16198786D02*
X9398214Y-16184500D01*
X9426786Y-16170214D01*
X9469643Y-16170214D01*
X9498214Y-16184500D01*
X9512500Y-16213071D01*
X9512500Y-16370214D01*
X9512500Y-16213071D02*
X9526786Y-16184500D01*
X9555357Y-16170214D01*
X9598214Y-16170214D01*
X9626786Y-16184500D01*
X9641071Y-16213071D01*
X9641071Y-16370214D01*
X9783928Y-16370214D02*
X9783928Y-16170214D01*
X9783928Y-16198786D02*
X9798214Y-16184500D01*
X9826786Y-16170214D01*
X9869643Y-16170214D01*
X9898214Y-16184500D01*
X9912500Y-16213071D01*
X9912500Y-16370214D01*
X9912500Y-16213071D02*
X9926786Y-16184500D01*
X9955357Y-16170214D01*
X9998214Y-16170214D01*
X10026786Y-16184500D01*
X10041071Y-16213071D01*
X10041071Y-16370214D01*
X10626786Y-16055929D02*
X10369643Y-16441643D01*
X11012500Y-16070214D02*
X11041071Y-16070214D01*
X11069643Y-16084500D01*
X11083928Y-16098786D01*
X11098214Y-16127357D01*
X11112500Y-16184500D01*
X11112500Y-16255929D01*
X11098214Y-16313071D01*
X11083928Y-16341643D01*
X11069643Y-16355929D01*
X11041071Y-16370214D01*
X11012500Y-16370214D01*
X10983928Y-16355929D01*
X10969643Y-16341643D01*
X10955357Y-16313071D01*
X10941071Y-16255929D01*
X10941071Y-16184500D01*
X10955357Y-16127357D01*
X10969643Y-16098786D01*
X10983928Y-16084500D01*
X11012500Y-16070214D01*
X11241071Y-16341643D02*
X11255357Y-16355929D01*
X11241071Y-16370214D01*
X11226786Y-16355929D01*
X11241071Y-16341643D01*
X11241071Y-16370214D01*
X11441071Y-16070214D02*
X11469643Y-16070214D01*
X11498214Y-16084500D01*
X11512500Y-16098786D01*
X11526786Y-16127357D01*
X11541071Y-16184500D01*
X11541071Y-16255929D01*
X11526786Y-16313071D01*
X11512500Y-16341643D01*
X11498214Y-16355929D01*
X11469643Y-16370214D01*
X11441071Y-16370214D01*
X11412500Y-16355929D01*
X11398214Y-16341643D01*
X11383928Y-16313071D01*
X11369643Y-16255929D01*
X11369643Y-16184500D01*
X11383928Y-16127357D01*
X11398214Y-16098786D01*
X11412500Y-16084500D01*
X11441071Y-16070214D01*
X11798214Y-16170214D02*
X11798214Y-16370214D01*
X11726786Y-16055929D02*
X11655357Y-16270214D01*
X11841071Y-16270214D01*
X12012500Y-16070214D02*
X12041071Y-16070214D01*
X12069643Y-16084500D01*
X12083928Y-16098786D01*
X12098214Y-16127357D01*
X12112500Y-16184500D01*
X12112500Y-16255929D01*
X12098214Y-16313071D01*
X12083928Y-16341643D01*
X12069643Y-16355929D01*
X12041071Y-16370214D01*
X12012500Y-16370214D01*
X11983928Y-16355929D01*
X11969643Y-16341643D01*
X11955357Y-16313071D01*
X11941071Y-16255929D01*
X11941071Y-16184500D01*
X11955357Y-16127357D01*
X11969643Y-16098786D01*
X11983928Y-16084500D01*
X12012500Y-16070214D01*
X12226786Y-16070214D02*
X12226786Y-16127357D01*
X12341071Y-16070214D02*
X12341071Y-16127357D01*
X12783928Y-16484500D02*
X12769643Y-16470214D01*
X12741071Y-16427357D01*
X12726786Y-16398786D01*
X12712500Y-16355929D01*
X12698214Y-16284500D01*
X12698214Y-16227357D01*
X12712500Y-16155929D01*
X12726786Y-16113071D01*
X12741071Y-16084500D01*
X12769643Y-16041643D01*
X12783928Y-16027357D01*
X12869643Y-16070214D02*
X13055357Y-16070214D01*
X12955357Y-16184500D01*
X12998214Y-16184500D01*
X13026786Y-16198786D01*
X13041071Y-16213071D01*
X13055357Y-16241643D01*
X13055357Y-16313071D01*
X13041071Y-16341643D01*
X13026786Y-16355929D01*
X12998214Y-16370214D01*
X12912500Y-16370214D01*
X12883928Y-16355929D01*
X12869643Y-16341643D01*
X13326786Y-16070214D02*
X13183928Y-16070214D01*
X13169643Y-16213071D01*
X13183928Y-16198786D01*
X13212500Y-16184500D01*
X13283928Y-16184500D01*
X13312500Y-16198786D01*
X13326786Y-16213071D01*
X13341071Y-16241643D01*
X13341071Y-16313071D01*
X13326786Y-16341643D01*
X13312500Y-16355929D01*
X13283928Y-16370214D01*
X13212500Y-16370214D01*
X13183928Y-16355929D01*
X13169643Y-16341643D01*
X13698214Y-16370214D02*
X13698214Y-16070214D01*
X13826786Y-16370214D02*
X13826786Y-16213071D01*
X13812500Y-16184500D01*
X13783928Y-16170214D01*
X13741071Y-16170214D01*
X13712500Y-16184500D01*
X13698214Y-16198786D01*
X14012500Y-16370214D02*
X13983928Y-16355929D01*
X13969643Y-16341643D01*
X13955357Y-16313071D01*
X13955357Y-16227357D01*
X13969643Y-16198786D01*
X13983928Y-16184500D01*
X14012500Y-16170214D01*
X14055357Y-16170214D01*
X14083928Y-16184500D01*
X14098214Y-16198786D01*
X14112500Y-16227357D01*
X14112500Y-16313071D01*
X14098214Y-16341643D01*
X14083928Y-16355929D01*
X14055357Y-16370214D01*
X14012500Y-16370214D01*
X14283928Y-16370214D02*
X14255357Y-16355929D01*
X14241071Y-16327357D01*
X14241071Y-16070214D01*
X14512500Y-16355929D02*
X14483928Y-16370214D01*
X14426786Y-16370214D01*
X14398214Y-16355929D01*
X14383928Y-16327357D01*
X14383928Y-16213071D01*
X14398214Y-16184500D01*
X14426786Y-16170214D01*
X14483928Y-16170214D01*
X14512500Y-16184500D01*
X14526786Y-16213071D01*
X14526786Y-16241643D01*
X14383928Y-16270214D01*
X14641071Y-16355929D02*
X14669643Y-16370214D01*
X14726786Y-16370214D01*
X14755357Y-16355929D01*
X14769643Y-16327357D01*
X14769643Y-16313071D01*
X14755357Y-16284500D01*
X14726786Y-16270214D01*
X14683928Y-16270214D01*
X14655357Y-16255929D01*
X14641071Y-16227357D01*
X14641071Y-16213071D01*
X14655357Y-16184500D01*
X14683928Y-16170214D01*
X14726786Y-16170214D01*
X14755357Y-16184500D01*
X14869643Y-16484500D02*
X14883928Y-16470214D01*
X14912500Y-16427357D01*
X14926786Y-16398786D01*
X14941071Y-16355929D01*
X14955357Y-16284500D01*
X14955357Y-16227357D01*
X14941071Y-16155929D01*
X14926786Y-16113071D01*
X14912500Y-16084500D01*
X14883928Y-16041643D01*
X14869643Y-16027357D01*
X7977500Y-16570500D02*
X8097500Y-16690500D01*
X8097500Y-16570500D02*
X7977500Y-16690500D01*
X8037500Y-16690500D02*
X8097500Y-16630500D01*
X8037500Y-16570500D01*
X7977500Y-16630500D01*
X8037500Y-16690500D01*
X8541071Y-16766214D02*
X8369643Y-16766214D01*
X8455357Y-16766214D02*
X8455357Y-16466214D01*
X8426786Y-16509071D01*
X8398214Y-16537643D01*
X8369643Y-16551929D01*
X8669643Y-16737643D02*
X8683928Y-16751929D01*
X8669643Y-16766214D01*
X8655357Y-16751929D01*
X8669643Y-16737643D01*
X8669643Y-16766214D01*
X8798214Y-16494786D02*
X8812500Y-16480500D01*
X8841071Y-16466214D01*
X8912500Y-16466214D01*
X8941071Y-16480500D01*
X8955357Y-16494786D01*
X8969643Y-16523357D01*
X8969643Y-16551929D01*
X8955357Y-16594786D01*
X8783928Y-16766214D01*
X8969643Y-16766214D01*
X9155357Y-16466214D02*
X9183928Y-16466214D01*
X9212500Y-16480500D01*
X9226786Y-16494786D01*
X9241071Y-16523357D01*
X9255357Y-16580500D01*
X9255357Y-16651929D01*
X9241071Y-16709071D01*
X9226786Y-16737643D01*
X9212500Y-16751929D01*
X9183928Y-16766214D01*
X9155357Y-16766214D01*
X9126786Y-16751929D01*
X9112500Y-16737643D01*
X9098214Y-16709071D01*
X9083928Y-16651929D01*
X9083928Y-16580500D01*
X9098214Y-16523357D01*
X9112500Y-16494786D01*
X9126786Y-16480500D01*
X9155357Y-16466214D01*
X9383928Y-16766214D02*
X9383928Y-16566214D01*
X9383928Y-16594786D02*
X9398214Y-16580500D01*
X9426786Y-16566214D01*
X9469643Y-16566214D01*
X9498214Y-16580500D01*
X9512500Y-16609071D01*
X9512500Y-16766214D01*
X9512500Y-16609071D02*
X9526786Y-16580500D01*
X9555357Y-16566214D01*
X9598214Y-16566214D01*
X9626786Y-16580500D01*
X9641071Y-16609071D01*
X9641071Y-16766214D01*
X9783928Y-16766214D02*
X9783928Y-16566214D01*
X9783928Y-16594786D02*
X9798214Y-16580500D01*
X9826786Y-16566214D01*
X9869643Y-16566214D01*
X9898214Y-16580500D01*
X9912500Y-16609071D01*
X9912500Y-16766214D01*
X9912500Y-16609071D02*
X9926786Y-16580500D01*
X9955357Y-16566214D01*
X9998214Y-16566214D01*
X10026786Y-16580500D01*
X10041071Y-16609071D01*
X10041071Y-16766214D01*
X10626786Y-16451929D02*
X10369643Y-16837643D01*
X11012500Y-16466214D02*
X11041071Y-16466214D01*
X11069643Y-16480500D01*
X11083928Y-16494786D01*
X11098214Y-16523357D01*
X11112500Y-16580500D01*
X11112500Y-16651929D01*
X11098214Y-16709071D01*
X11083928Y-16737643D01*
X11069643Y-16751929D01*
X11041071Y-16766214D01*
X11012500Y-16766214D01*
X10983928Y-16751929D01*
X10969643Y-16737643D01*
X10955357Y-16709071D01*
X10941071Y-16651929D01*
X10941071Y-16580500D01*
X10955357Y-16523357D01*
X10969643Y-16494786D01*
X10983928Y-16480500D01*
X11012500Y-16466214D01*
X11241071Y-16737643D02*
X11255357Y-16751929D01*
X11241071Y-16766214D01*
X11226786Y-16751929D01*
X11241071Y-16737643D01*
X11241071Y-16766214D01*
X11441071Y-16466214D02*
X11469643Y-16466214D01*
X11498214Y-16480500D01*
X11512500Y-16494786D01*
X11526786Y-16523357D01*
X11541071Y-16580500D01*
X11541071Y-16651929D01*
X11526786Y-16709071D01*
X11512500Y-16737643D01*
X11498214Y-16751929D01*
X11469643Y-16766214D01*
X11441071Y-16766214D01*
X11412500Y-16751929D01*
X11398214Y-16737643D01*
X11383928Y-16709071D01*
X11369643Y-16651929D01*
X11369643Y-16580500D01*
X11383928Y-16523357D01*
X11398214Y-16494786D01*
X11412500Y-16480500D01*
X11441071Y-16466214D01*
X11798214Y-16566214D02*
X11798214Y-16766214D01*
X11726786Y-16451929D02*
X11655357Y-16666214D01*
X11841071Y-16666214D01*
X11926786Y-16466214D02*
X12126786Y-16466214D01*
X11998214Y-16766214D01*
X12226786Y-16466214D02*
X12226786Y-16523357D01*
X12341071Y-16466214D02*
X12341071Y-16523357D01*
X12783928Y-16880500D02*
X12769643Y-16866214D01*
X12741071Y-16823357D01*
X12726786Y-16794786D01*
X12712500Y-16751929D01*
X12698214Y-16680500D01*
X12698214Y-16623357D01*
X12712500Y-16551929D01*
X12726786Y-16509071D01*
X12741071Y-16480500D01*
X12769643Y-16437643D01*
X12783928Y-16423357D01*
X12883928Y-16494786D02*
X12898214Y-16480500D01*
X12926786Y-16466214D01*
X12998214Y-16466214D01*
X13026786Y-16480500D01*
X13041071Y-16494786D01*
X13055357Y-16523357D01*
X13055357Y-16551929D01*
X13041071Y-16594786D01*
X12869643Y-16766214D01*
X13055357Y-16766214D01*
X13169643Y-16494786D02*
X13183928Y-16480500D01*
X13212500Y-16466214D01*
X13283928Y-16466214D01*
X13312500Y-16480500D01*
X13326786Y-16494786D01*
X13341071Y-16523357D01*
X13341071Y-16551929D01*
X13326786Y-16594786D01*
X13155357Y-16766214D01*
X13341071Y-16766214D01*
X13698214Y-16766214D02*
X13698214Y-16466214D01*
X13826786Y-16766214D02*
X13826786Y-16609071D01*
X13812500Y-16580500D01*
X13783928Y-16566214D01*
X13741071Y-16566214D01*
X13712500Y-16580500D01*
X13698214Y-16594786D01*
X14012500Y-16766214D02*
X13983928Y-16751929D01*
X13969643Y-16737643D01*
X13955357Y-16709071D01*
X13955357Y-16623357D01*
X13969643Y-16594786D01*
X13983928Y-16580500D01*
X14012500Y-16566214D01*
X14055357Y-16566214D01*
X14083928Y-16580500D01*
X14098214Y-16594786D01*
X14112500Y-16623357D01*
X14112500Y-16709071D01*
X14098214Y-16737643D01*
X14083928Y-16751929D01*
X14055357Y-16766214D01*
X14012500Y-16766214D01*
X14283928Y-16766214D02*
X14255357Y-16751929D01*
X14241071Y-16723357D01*
X14241071Y-16466214D01*
X14512500Y-16751929D02*
X14483928Y-16766214D01*
X14426786Y-16766214D01*
X14398214Y-16751929D01*
X14383928Y-16723357D01*
X14383928Y-16609071D01*
X14398214Y-16580500D01*
X14426786Y-16566214D01*
X14483928Y-16566214D01*
X14512500Y-16580500D01*
X14526786Y-16609071D01*
X14526786Y-16637643D01*
X14383928Y-16666214D01*
X14641071Y-16751929D02*
X14669643Y-16766214D01*
X14726786Y-16766214D01*
X14755357Y-16751929D01*
X14769643Y-16723357D01*
X14769643Y-16709071D01*
X14755357Y-16680500D01*
X14726786Y-16666214D01*
X14683928Y-16666214D01*
X14655357Y-16651929D01*
X14641071Y-16623357D01*
X14641071Y-16609071D01*
X14655357Y-16580500D01*
X14683928Y-16566214D01*
X14726786Y-16566214D01*
X14755357Y-16580500D01*
X14869643Y-16880500D02*
X14883928Y-16866214D01*
X14912500Y-16823357D01*
X14926786Y-16794786D01*
X14941071Y-16751929D01*
X14955357Y-16680500D01*
X14955357Y-16623357D01*
X14941071Y-16551929D01*
X14926786Y-16509071D01*
X14912500Y-16480500D01*
X14883928Y-16437643D01*
X14869643Y-16423357D01*
X8032500Y-16961500D02*
X8032500Y-17091500D01*
X7967500Y-17026500D02*
X8097500Y-17026500D01*
X8097500Y-17026500D02*
G75*
G03*
X8097500Y-17026500I-65000J0D01*
G01*
X8541071Y-17162214D02*
X8369643Y-17162214D01*
X8455357Y-17162214D02*
X8455357Y-16862214D01*
X8426786Y-16905072D01*
X8398214Y-16933643D01*
X8369643Y-16947929D01*
X8669643Y-17133643D02*
X8683928Y-17147929D01*
X8669643Y-17162214D01*
X8655357Y-17147929D01*
X8669643Y-17133643D01*
X8669643Y-17162214D01*
X8783928Y-16862214D02*
X8969643Y-16862214D01*
X8869643Y-16976500D01*
X8912500Y-16976500D01*
X8941071Y-16990786D01*
X8955357Y-17005072D01*
X8969643Y-17033643D01*
X8969643Y-17105072D01*
X8955357Y-17133643D01*
X8941071Y-17147929D01*
X8912500Y-17162214D01*
X8826786Y-17162214D01*
X8798214Y-17147929D01*
X8783928Y-17133643D01*
X9155357Y-16862214D02*
X9183928Y-16862214D01*
X9212500Y-16876500D01*
X9226786Y-16890786D01*
X9241071Y-16919357D01*
X9255357Y-16976500D01*
X9255357Y-17047929D01*
X9241071Y-17105072D01*
X9226786Y-17133643D01*
X9212500Y-17147929D01*
X9183928Y-17162214D01*
X9155357Y-17162214D01*
X9126786Y-17147929D01*
X9112500Y-17133643D01*
X9098214Y-17105072D01*
X9083928Y-17047929D01*
X9083928Y-16976500D01*
X9098214Y-16919357D01*
X9112500Y-16890786D01*
X9126786Y-16876500D01*
X9155357Y-16862214D01*
X9383928Y-17162214D02*
X9383928Y-16962214D01*
X9383928Y-16990786D02*
X9398214Y-16976500D01*
X9426786Y-16962214D01*
X9469643Y-16962214D01*
X9498214Y-16976500D01*
X9512500Y-17005072D01*
X9512500Y-17162214D01*
X9512500Y-17005072D02*
X9526786Y-16976500D01*
X9555357Y-16962214D01*
X9598214Y-16962214D01*
X9626786Y-16976500D01*
X9641071Y-17005072D01*
X9641071Y-17162214D01*
X9783928Y-17162214D02*
X9783928Y-16962214D01*
X9783928Y-16990786D02*
X9798214Y-16976500D01*
X9826786Y-16962214D01*
X9869643Y-16962214D01*
X9898214Y-16976500D01*
X9912500Y-17005072D01*
X9912500Y-17162214D01*
X9912500Y-17005072D02*
X9926786Y-16976500D01*
X9955357Y-16962214D01*
X9998214Y-16962214D01*
X10026786Y-16976500D01*
X10041071Y-17005072D01*
X10041071Y-17162214D01*
X10626786Y-16847929D02*
X10369643Y-17233643D01*
X11012500Y-16862214D02*
X11041071Y-16862214D01*
X11069643Y-16876500D01*
X11083928Y-16890786D01*
X11098214Y-16919357D01*
X11112500Y-16976500D01*
X11112500Y-17047929D01*
X11098214Y-17105072D01*
X11083928Y-17133643D01*
X11069643Y-17147929D01*
X11041071Y-17162214D01*
X11012500Y-17162214D01*
X10983928Y-17147929D01*
X10969643Y-17133643D01*
X10955357Y-17105072D01*
X10941071Y-17047929D01*
X10941071Y-16976500D01*
X10955357Y-16919357D01*
X10969643Y-16890786D01*
X10983928Y-16876500D01*
X11012500Y-16862214D01*
X11241071Y-17133643D02*
X11255357Y-17147929D01*
X11241071Y-17162214D01*
X11226786Y-17147929D01*
X11241071Y-17133643D01*
X11241071Y-17162214D01*
X11441071Y-16862214D02*
X11469643Y-16862214D01*
X11498214Y-16876500D01*
X11512500Y-16890786D01*
X11526786Y-16919357D01*
X11541071Y-16976500D01*
X11541071Y-17047929D01*
X11526786Y-17105072D01*
X11512500Y-17133643D01*
X11498214Y-17147929D01*
X11469643Y-17162214D01*
X11441071Y-17162214D01*
X11412500Y-17147929D01*
X11398214Y-17133643D01*
X11383928Y-17105072D01*
X11369643Y-17047929D01*
X11369643Y-16976500D01*
X11383928Y-16919357D01*
X11398214Y-16890786D01*
X11412500Y-16876500D01*
X11441071Y-16862214D01*
X11812500Y-16862214D02*
X11669643Y-16862214D01*
X11655357Y-17005072D01*
X11669643Y-16990786D01*
X11698214Y-16976500D01*
X11769643Y-16976500D01*
X11798214Y-16990786D01*
X11812500Y-17005072D01*
X11826786Y-17033643D01*
X11826786Y-17105072D01*
X11812500Y-17133643D01*
X11798214Y-17147929D01*
X11769643Y-17162214D01*
X11698214Y-17162214D01*
X11669643Y-17147929D01*
X11655357Y-17133643D01*
X12112500Y-17162214D02*
X11941071Y-17162214D01*
X12026786Y-17162214D02*
X12026786Y-16862214D01*
X11998214Y-16905072D01*
X11969643Y-16933643D01*
X11941071Y-16947929D01*
X12226786Y-16862214D02*
X12226786Y-16919357D01*
X12341071Y-16862214D02*
X12341071Y-16919357D01*
X12783928Y-17276500D02*
X12769643Y-17262214D01*
X12741071Y-17219357D01*
X12726786Y-17190786D01*
X12712500Y-17147929D01*
X12698214Y-17076500D01*
X12698214Y-17019357D01*
X12712500Y-16947929D01*
X12726786Y-16905072D01*
X12741071Y-16876500D01*
X12769643Y-16833643D01*
X12783928Y-16819357D01*
X13055357Y-17162214D02*
X12883928Y-17162214D01*
X12969643Y-17162214D02*
X12969643Y-16862214D01*
X12941071Y-16905072D01*
X12912500Y-16933643D01*
X12883928Y-16947929D01*
X13198214Y-17162214D02*
X13255357Y-17162214D01*
X13283928Y-17147929D01*
X13298214Y-17133643D01*
X13326786Y-17090786D01*
X13341071Y-17033643D01*
X13341071Y-16919357D01*
X13326786Y-16890786D01*
X13312500Y-16876500D01*
X13283928Y-16862214D01*
X13226786Y-16862214D01*
X13198214Y-16876500D01*
X13183928Y-16890786D01*
X13169643Y-16919357D01*
X13169643Y-16990786D01*
X13183928Y-17019357D01*
X13198214Y-17033643D01*
X13226786Y-17047929D01*
X13283928Y-17047929D01*
X13312500Y-17033643D01*
X13326786Y-17019357D01*
X13341071Y-16990786D01*
X13698214Y-17162214D02*
X13698214Y-16862214D01*
X13826786Y-17162214D02*
X13826786Y-17005072D01*
X13812500Y-16976500D01*
X13783928Y-16962214D01*
X13741071Y-16962214D01*
X13712500Y-16976500D01*
X13698214Y-16990786D01*
X14012500Y-17162214D02*
X13983928Y-17147929D01*
X13969643Y-17133643D01*
X13955357Y-17105072D01*
X13955357Y-17019357D01*
X13969643Y-16990786D01*
X13983928Y-16976500D01*
X14012500Y-16962214D01*
X14055357Y-16962214D01*
X14083928Y-16976500D01*
X14098214Y-16990786D01*
X14112500Y-17019357D01*
X14112500Y-17105072D01*
X14098214Y-17133643D01*
X14083928Y-17147929D01*
X14055357Y-17162214D01*
X14012500Y-17162214D01*
X14283928Y-17162214D02*
X14255357Y-17147929D01*
X14241071Y-17119357D01*
X14241071Y-16862214D01*
X14512500Y-17147929D02*
X14483928Y-17162214D01*
X14426786Y-17162214D01*
X14398214Y-17147929D01*
X14383928Y-17119357D01*
X14383928Y-17005072D01*
X14398214Y-16976500D01*
X14426786Y-16962214D01*
X14483928Y-16962214D01*
X14512500Y-16976500D01*
X14526786Y-17005072D01*
X14526786Y-17033643D01*
X14383928Y-17062214D01*
X14641071Y-17147929D02*
X14669643Y-17162214D01*
X14726786Y-17162214D01*
X14755357Y-17147929D01*
X14769643Y-17119357D01*
X14769643Y-17105072D01*
X14755357Y-17076500D01*
X14726786Y-17062214D01*
X14683928Y-17062214D01*
X14655357Y-17047929D01*
X14641071Y-17019357D01*
X14641071Y-17005072D01*
X14655357Y-16976500D01*
X14683928Y-16962214D01*
X14726786Y-16962214D01*
X14755357Y-16976500D01*
X14869643Y-17276500D02*
X14883928Y-17262214D01*
X14912500Y-17219357D01*
X14926786Y-17190786D01*
X14941071Y-17147929D01*
X14955357Y-17076500D01*
X14955357Y-17019357D01*
X14941071Y-16947929D01*
X14926786Y-16905072D01*
X14912500Y-16876500D01*
X14883928Y-16833643D01*
X14869643Y-16819357D01*
X8077730Y-17470230D02*
X8077730Y-17374770D01*
X7982270Y-17374770D01*
X7982270Y-17470230D01*
X8077730Y-17470230D01*
X8097500Y-17422500D02*
G75*
G03*
X8097500Y-17422500I-67500J0D01*
G01*
X8541071Y-17558214D02*
X8369643Y-17558214D01*
X8455357Y-17558214D02*
X8455357Y-17258214D01*
X8426786Y-17301072D01*
X8398214Y-17329643D01*
X8369643Y-17343929D01*
X8669643Y-17529643D02*
X8683928Y-17543929D01*
X8669643Y-17558214D01*
X8655357Y-17543929D01*
X8669643Y-17529643D01*
X8669643Y-17558214D01*
X8783928Y-17258214D02*
X8969643Y-17258214D01*
X8869643Y-17372500D01*
X8912500Y-17372500D01*
X8941071Y-17386786D01*
X8955357Y-17401072D01*
X8969643Y-17429643D01*
X8969643Y-17501072D01*
X8955357Y-17529643D01*
X8941071Y-17543929D01*
X8912500Y-17558214D01*
X8826786Y-17558214D01*
X8798214Y-17543929D01*
X8783928Y-17529643D01*
X9241071Y-17258214D02*
X9098214Y-17258214D01*
X9083928Y-17401072D01*
X9098214Y-17386786D01*
X9126786Y-17372500D01*
X9198214Y-17372500D01*
X9226786Y-17386786D01*
X9241071Y-17401072D01*
X9255357Y-17429643D01*
X9255357Y-17501072D01*
X9241071Y-17529643D01*
X9226786Y-17543929D01*
X9198214Y-17558214D01*
X9126786Y-17558214D01*
X9098214Y-17543929D01*
X9083928Y-17529643D01*
X9383928Y-17558214D02*
X9383928Y-17358214D01*
X9383928Y-17386786D02*
X9398214Y-17372500D01*
X9426786Y-17358214D01*
X9469643Y-17358214D01*
X9498214Y-17372500D01*
X9512500Y-17401072D01*
X9512500Y-17558214D01*
X9512500Y-17401072D02*
X9526786Y-17372500D01*
X9555357Y-17358214D01*
X9598214Y-17358214D01*
X9626786Y-17372500D01*
X9641071Y-17401072D01*
X9641071Y-17558214D01*
X9783928Y-17558214D02*
X9783928Y-17358214D01*
X9783928Y-17386786D02*
X9798214Y-17372500D01*
X9826786Y-17358214D01*
X9869643Y-17358214D01*
X9898214Y-17372500D01*
X9912500Y-17401072D01*
X9912500Y-17558214D01*
X9912500Y-17401072D02*
X9926786Y-17372500D01*
X9955357Y-17358214D01*
X9998214Y-17358214D01*
X10026786Y-17372500D01*
X10041071Y-17401072D01*
X10041071Y-17558214D01*
X10626786Y-17243929D02*
X10369643Y-17629643D01*
X11012500Y-17258214D02*
X11041071Y-17258214D01*
X11069643Y-17272500D01*
X11083928Y-17286786D01*
X11098214Y-17315357D01*
X11112500Y-17372500D01*
X11112500Y-17443929D01*
X11098214Y-17501072D01*
X11083928Y-17529643D01*
X11069643Y-17543929D01*
X11041071Y-17558214D01*
X11012500Y-17558214D01*
X10983928Y-17543929D01*
X10969643Y-17529643D01*
X10955357Y-17501072D01*
X10941071Y-17443929D01*
X10941071Y-17372500D01*
X10955357Y-17315357D01*
X10969643Y-17286786D01*
X10983928Y-17272500D01*
X11012500Y-17258214D01*
X11241071Y-17529643D02*
X11255357Y-17543929D01*
X11241071Y-17558214D01*
X11226786Y-17543929D01*
X11241071Y-17529643D01*
X11241071Y-17558214D01*
X11441071Y-17258214D02*
X11469643Y-17258214D01*
X11498214Y-17272500D01*
X11512500Y-17286786D01*
X11526786Y-17315357D01*
X11541071Y-17372500D01*
X11541071Y-17443929D01*
X11526786Y-17501072D01*
X11512500Y-17529643D01*
X11498214Y-17543929D01*
X11469643Y-17558214D01*
X11441071Y-17558214D01*
X11412500Y-17543929D01*
X11398214Y-17529643D01*
X11383928Y-17501072D01*
X11369643Y-17443929D01*
X11369643Y-17372500D01*
X11383928Y-17315357D01*
X11398214Y-17286786D01*
X11412500Y-17272500D01*
X11441071Y-17258214D01*
X11812500Y-17258214D02*
X11669643Y-17258214D01*
X11655357Y-17401072D01*
X11669643Y-17386786D01*
X11698214Y-17372500D01*
X11769643Y-17372500D01*
X11798214Y-17386786D01*
X11812500Y-17401072D01*
X11826786Y-17429643D01*
X11826786Y-17501072D01*
X11812500Y-17529643D01*
X11798214Y-17543929D01*
X11769643Y-17558214D01*
X11698214Y-17558214D01*
X11669643Y-17543929D01*
X11655357Y-17529643D01*
X11926786Y-17258214D02*
X12112500Y-17258214D01*
X12012500Y-17372500D01*
X12055357Y-17372500D01*
X12083928Y-17386786D01*
X12098214Y-17401072D01*
X12112500Y-17429643D01*
X12112500Y-17501072D01*
X12098214Y-17529643D01*
X12083928Y-17543929D01*
X12055357Y-17558214D01*
X11969643Y-17558214D01*
X11941071Y-17543929D01*
X11926786Y-17529643D01*
X12226786Y-17258214D02*
X12226786Y-17315357D01*
X12341071Y-17258214D02*
X12341071Y-17315357D01*
X12783928Y-17672500D02*
X12769643Y-17658214D01*
X12741071Y-17615357D01*
X12726786Y-17586786D01*
X12712500Y-17543929D01*
X12698214Y-17472500D01*
X12698214Y-17415357D01*
X12712500Y-17343929D01*
X12726786Y-17301072D01*
X12741071Y-17272500D01*
X12769643Y-17229643D01*
X12783928Y-17215357D01*
X13026786Y-17358214D02*
X13026786Y-17558214D01*
X12955357Y-17243929D02*
X12883928Y-17458214D01*
X13069643Y-17458214D01*
X13412500Y-17558214D02*
X13412500Y-17258214D01*
X13541071Y-17558214D02*
X13541071Y-17401072D01*
X13526786Y-17372500D01*
X13498214Y-17358214D01*
X13455357Y-17358214D01*
X13426786Y-17372500D01*
X13412500Y-17386786D01*
X13726786Y-17558214D02*
X13698214Y-17543929D01*
X13683928Y-17529643D01*
X13669643Y-17501072D01*
X13669643Y-17415357D01*
X13683928Y-17386786D01*
X13698214Y-17372500D01*
X13726786Y-17358214D01*
X13769643Y-17358214D01*
X13798214Y-17372500D01*
X13812500Y-17386786D01*
X13826786Y-17415357D01*
X13826786Y-17501072D01*
X13812500Y-17529643D01*
X13798214Y-17543929D01*
X13769643Y-17558214D01*
X13726786Y-17558214D01*
X13998214Y-17558214D02*
X13969643Y-17543929D01*
X13955357Y-17515357D01*
X13955357Y-17258214D01*
X14226786Y-17543929D02*
X14198214Y-17558214D01*
X14141071Y-17558214D01*
X14112500Y-17543929D01*
X14098214Y-17515357D01*
X14098214Y-17401072D01*
X14112500Y-17372500D01*
X14141071Y-17358214D01*
X14198214Y-17358214D01*
X14226786Y-17372500D01*
X14241071Y-17401072D01*
X14241071Y-17429643D01*
X14098214Y-17458214D01*
X14355357Y-17543929D02*
X14383928Y-17558214D01*
X14441071Y-17558214D01*
X14469643Y-17543929D01*
X14483928Y-17515357D01*
X14483928Y-17501072D01*
X14469643Y-17472500D01*
X14441071Y-17458214D01*
X14398214Y-17458214D01*
X14369643Y-17443929D01*
X14355357Y-17415357D01*
X14355357Y-17401072D01*
X14369643Y-17372500D01*
X14398214Y-17358214D01*
X14441071Y-17358214D01*
X14469643Y-17372500D01*
X14583928Y-17672500D02*
X14598214Y-17658214D01*
X14626786Y-17615357D01*
X14641071Y-17586786D01*
X14655357Y-17543929D01*
X14669643Y-17472500D01*
X14669643Y-17415357D01*
X14655357Y-17343929D01*
X14641071Y-17301072D01*
X14626786Y-17272500D01*
X14598214Y-17229643D01*
X14583928Y-17215357D01*
M02*
