M48
; DRILL file {KiCad 5.1.7-a382d34a8~87~ubuntu18.04.1} date Tue Oct 27 09:37:38 2020
; FORMAT={-:-/ absolute / inch / decimal}
; #@! TF.CreationDate,2020-10-27T09:37:38-03:00
; #@! TF.GenerationSoftware,Kicad,Pcbnew,5.1.7-a382d34a8~87~ubuntu18.04.1
; #@! TF.FileFunction,Plated,1,2,PTH
FMAT,2
INCH
T1C0.0157
T2C0.0236
T3C0.0295
T4C0.0300
T5C0.0315
T6C0.0354
T7C0.0394
T8C0.0402
T9C0.0472
T10C0.0512
T11C0.0531
%
G90
G05
T1
X3.3465Y-3.8189
X3.3858Y-3.0709
X3.3858Y-3.3071
X3.4843Y-3.4646
X3.4843Y-3.622
X3.5827Y-3.8189
X3.7008Y-3.622
X3.7008Y-3.7795
X3.8583Y-2.7087
X3.8583Y-2.9134
X3.8976Y-3.3071
X4.3701Y-4.6457
X4.4488Y-4.2126
X4.4882Y-4.7638
X4.5276Y-2.7559
X4.6063Y-3.8976
X4.8425Y-4.6457
X4.8819Y-3.8681
X4.8819Y-4.2913
X5.0394Y-3.8878
X5.0394Y-4.4587
X5.1969Y-3.8878
X5.2402Y-2.7323
X5.3248Y-3.9665
X5.4724Y-3.6614
X5.5315Y-3.9665
X5.5512Y-3.8583
X5.6693Y-2.9921
X5.7874Y-4.2913
X6.0236Y-3.8583
X6.063Y-4.1732
X6.1417Y-4.1732
X6.1417Y-4.5669
X6.1417Y-4.7638
X6.2992Y-2.9921
X6.4173Y-3.9764
X6.5354Y-2.622
X6.6142Y-4.6063
X6.6299Y-4.4488
X6.7717Y-2.6772
X6.811Y-4.0945
X6.811Y-4.3307
X6.8504Y-4.4488
X6.9685Y-2.7165
X7.4016Y-4.3701
X7.5197Y-3.878
X7.6083Y-4.0846
X7.6378Y-4.5669
X7.7067Y-3.7402
X8.6024Y-4.7343
X8.6811Y-4.6555
X8.6909Y-4.8228
X8.7795Y-4.7343
T2
X7.7602Y-4.1598
X7.8193Y-4.1598
X7.7602Y-4.4598
X7.8193Y-4.4598
T3
X3.7795Y-3.7795
X3.7795Y-4.1795
X5.0394Y-3.9764
X5.0394Y-4.3764
X3.3858Y-3.622
X3.7858Y-3.622
X4.4819Y-3.937
X4.8819Y-3.937
T4
X6.4127Y-3.0535
X6.4687Y-2.574
X6.5687Y-2.574
X6.6687Y-2.574
X6.7687Y-2.574
X6.8687Y-2.574
X6.9687Y-2.574
T5
X7.3102Y-4.1598
X7.3102Y-4.2598
X7.3102Y-4.3598
X7.3102Y-4.4598
X7.6102Y-4.1598
X7.6102Y-4.2598
X7.6102Y-4.3598
X7.6102Y-4.4598
X7.6102Y-3.5598
X7.7102Y-3.6598
X7.8102Y-3.5598
T6
X6.6929Y-4.6063
X7.0929Y-4.6063
X3.9764Y-3.7583
X3.9764Y-3.8583
X5.1969Y-3.9764
X5.1969Y-4.3764
X5.0394Y-4.5669
X5.1394Y-4.5669
X7.3622Y-3.5827
X7.4622Y-3.5827
X3.3858Y-3.4646
X3.7858Y-3.4646
X8.1496Y-2.963
X8.5496Y-2.963
T7
X7.5197Y-2.7165
X7.6181Y-2.7165
X7.5039Y-4.6457
X7.5709Y-4.6457
X7.6378Y-4.6457
X7.1063Y-3.4055
X7.1732Y-3.4055
X7.2402Y-3.4055
X6.1476Y-4.685
X7.2638Y-3.1496
X5.9843Y-4.685
X3.7008Y-4.3701
X3.7008Y-4.437
X3.7008Y-4.5039
X4.252Y-3.9606
X4.252Y-4.0276
X4.252Y-4.0945
X6.3189Y-4.685
X7.0866Y-4.176
X7.0866Y-4.2429
X7.0866Y-4.3098
X7.0866Y-3.7795
X7.1535Y-3.7795
X7.2205Y-3.7795
T8
X4.4978Y-2.8555
X4.5028Y-3.7455
X4.5978Y-2.8555
X4.6028Y-3.7455
X4.6978Y-2.8555
X4.7028Y-3.7455
X4.7978Y-2.8555
X4.8028Y-3.7455
X4.8978Y-2.8555
X4.9028Y-3.7455
X4.9978Y-2.8555
X5.0028Y-3.7455
X5.1013Y-2.8565
X5.1028Y-3.7455
X5.1978Y-2.8555
X5.2028Y-3.7455
X5.2978Y-2.8555
X5.3028Y-3.7455
X5.3978Y-2.8555
X5.4013Y-3.7465
X5.5028Y-2.8555
X5.5078Y-3.7455
X5.6028Y-2.8555
X5.6078Y-3.7455
X5.7028Y-2.8555
X5.7078Y-3.7455
X5.8013Y-2.8515
X5.8063Y-3.7465
X5.9028Y-2.8555
X5.9078Y-3.7455
X8.0067Y-4.7353
X8.0142Y-3.1768
X8.6877Y-4.7348
X8.6952Y-3.1763
X6.4102Y-2.954
T9
X3.9764Y-4.0669
X3.9764Y-4.5669
X6.4173Y-3.5433
X6.9173Y-3.5433
X6.4173Y-3.7795
X6.9173Y-3.7795
X7.0197Y-3.9764
X7.5197Y-3.9764
X4.4094Y-4.1339
X4.9094Y-4.1339
X4.2913Y-4.3307
X4.7913Y-4.3307
X6.4173Y-3.3071
X6.9173Y-3.3071
X3.6339Y-4.7244
X4.1339Y-4.7244
X4.0276Y-2.6378
X4.5276Y-2.6378
X4.0551Y-3.0709
X4.0551Y-3.5709
X3.4646Y-4.2244
X3.4646Y-4.7244
T10
X4.4882Y-4.6457
X4.6882Y-4.6457
X3.3858Y-2.7087
X3.3858Y-3.189
X3.622Y-3.2677
X3.8583Y-2.7087
X3.8583Y-3.189
X3.4646Y-3.8189
X3.4646Y-4.0189
X6.252Y-3.9764
X6.252Y-4.4488
X6.7323Y-3.9764
X6.7323Y-4.4488
X6.811Y-4.2126
X5.3476Y-4.2051
X5.4264Y-3.9689
X5.4264Y-4.4413
X5.9067Y-3.9689
X5.9067Y-4.4413
T11
X7.9235Y-2.7135
X8.1204Y-2.7135
X8.5141Y-2.7135
X8.7109Y-2.7135
T0
M30
